<?xml version="1.0" encoding="utf-8"?>
<svg xmlns="http://www.w3.org/2000/svg" height="160.551923pt" preserveAspectRatio="xMidYMid meet" version="1.0" viewBox="0 0 314.953697 160.551923" width="314.953697pt">
	<metadata>
Created by Potrace Professional 1.1m
</metadata>
	<g fill="#000000" stroke="none" transform="translate(-1.404065,167.978978) rotate(-360.00) scale(0.022857,-0.022857)">
		<path d="M6783 7324 c0 -15 -10 -46 -21 -69 -24 -46 -100 -125 -120 -125 -16 0 -79 -97 -79 -120 0 -10 7 -21 17 -24 18 -7 32 7 92 90 17 24 34 43 38 43 4 0 11 -15 17 -34 11 -38 24 -40 109 -18 25 6 68 14 93 17 l46 6 -5 -35 c-13 -85 21 -82 63 5 30 63 34 67 72 72 22 3 46 1 53 -5 18 -14 58 1 51 20 -3 9 -6 24 -6 35 0 25 -23 33 -62 21 -27 -7 -33 -6 -38 11 -4 11 -13 21 -21 21 -9 0 -16 8 -16 18 0 10 -12 27 -26 37 l-25 18 -11 -39 c-6 -22 -15 -56 -20 -76 -8 -34 -12 -37 -46 -37 -22 0 -47 -9 -61 -21 -17 -15 -25 -17 -28 -8 -7 19 -42 16 -49 -5 -12 -30 -33 11 -29 56 1 6 17 29 36 49 58 65 61 71 58 94 -3 19 -11 24 -43 27 -36 3 -39 1 -39 -24z"/>
		<path d="M9807 7334 c0 -6 7 -21 15 -32 14 -19 17 -19 45 -4 44 24 38 45 -15 47 -27 0 -45 -4 -45 -11z"/>
		<path d="M1082 7308 c0 -6 4 -10 9 -10 6 0 13 4 17 10 3 6 -1 11 -10 11 -9 0 -16 -5 -16 -11z"/>
		<path d="M9587 7235 c0 -5 4 -13 10 -16 6 -4 11 1 11 10 0 9 -5 16 -11 16 -6 0 -10 -4 -10 -10z"/>
		<path d="M9613 7183 c-7 -11 20 -35 30 -25 3 3 7 13 7 21 0 15 -28 19 -37 4z"/>
		<path d="M9072 7148 c0 -58 29 -215 44 -238 18 -29 26 -28 45 9 14 28 19 30 36 20 16 -11 25 -8 52 13 57 45 89 66 106 68 15 1 28 8 119 66 42 27 48 44 23 65 -14 11 -24 9 -62 -10 -25 -12 -49 -29 -52 -38 -3 -9 -14 -16 -25 -16 -10 0 -31 -6 -46 -14 -20 -11 -31 -12 -39 -3 -9 8 -17 5 -31 -10 -15 -16 -30 -20 -63 -16 -37 3 -44 7 -44 27 0 13 -4 27 -8 31 -4 5 -8 16 -9 26 -3 49 -5 54 -25 54 -17 0 -21 -7 -21 -34z"/>
		<path d="M10537 7089 c-22 -36 -31 -41 -60 -40 -30 2 -37 -3 -50 -32 -11 -27 -19 -33 -37 -28 -26 6 -44 -11 -49 -48 -3 -19 -10 -27 -26 -27 -12 0 -29 -6 -39 -14 -15 -13 -17 -12 -17 7 0 12 -5 25 -11 29 -18 10 -42 -16 -42 -47 -1 -15 -8 -41 -16 -59 -9 -18 -13 -22 -10 -9 10 40 -16 40 -57 0 -39 -38 -71 -51 -61 -23 4 8 3 17 0 21 -4 3 -14 29 -23 56 -12 37 -23 51 -40 53 -51 7 -57 -77 -8 -116 34 -27 33 -50 -7 -90 -39 -40 -34 -59 21 -81 38 -16 65 -49 65 -83 0 -7 9 -22 20 -32 32 -29 36 0 11 79 -36 116 -24 153 50 148 23 -1 44 4 57 16 20 18 21 18 36 -1 8 -11 15 -33 15 -49 0 -27 23 -62 41 -62 13 0 43 37 43 55 0 9 -12 31 -27 48 -30 36 -35 76 -8 76 10 0 36 12 58 27 22 15 50 28 63 29 20 1 24 8 27 41 3 36 23 57 23 24 0 -25 20 -30 46 -13 14 9 34 14 45 11 29 -8 42 13 49 76 4 39 1 60 -10 76 -23 33 -42 28 -72 -18z"/>
		<path d="M10019 7064 c-27 -26 -7 -71 32 -71 27 0 34 27 14 58 -19 29 -28 32 -46 13z"/>
		<path d="M10154 7056 c0 -14 29 -26 39 -16 4 3 0 11 -8 16 -21 13 -31 13 -31 0z"/>
		<path d="M5538 7005 c-24 -11 -53 -33 -65 -48 -21 -26 -22 -32 -8 -57 39 -72 113 -120 127 -81 11 27 60 39 112 28 38 -9 65 -8 120 5 40 10 88 17 108 16 23 -1 44 6 59 21 l23 21 40 -21 c67 -36 194 -26 194 14 0 21 -24 26 -58 12 -40 -16 -115 9 -131 44 -15 34 -53 30 -108 -12 -44 -34 -72 -44 -139 -55 -30 -4 -30 -4 -8 8 42 22 23 72 -26 72 -36 0 -91 -25 -120 -55 -13 -15 -39 -31 -57 -37 -29 -10 -36 -8 -61 19 l-28 30 24 16 c14 9 48 17 76 19 61 4 72 21 28 44 -40 21 -50 20 -102 -3z m221 -85 c-3 -6 -17 -11 -29 -10 -22 0 -22 1 -2 10 29 12 39 12 31 0z"/>
		<path d="M8465 7012 c-7 -7 -12 -23 -12 -36 0 -13 -6 -36 -13 -51 -9 -21 -9 -32 2 -52 11 -21 10 -31 -7 -65 -12 -26 -28 -42 -42 -44 -13 -2 -38 -19 -55 -39 -31 -36 -32 -36 -107 -31 -42 3 -81 0 -88 -6 -9 -6 -12 -42 -9 -107 3 -93 4 -98 35 -126 38 -35 55 -36 84 -6 24 27 27 66 5 103 -21 37 -19 53 5 53 12 0 41 21 66 47 30 32 46 43 52 34 13 -21 42 3 75 64 29 54 30 55 55 39 29 -20 60 -21 92 -4 29 15 38 29 38 58 0 13 5 24 11 24 15 0 32 38 25 57 -9 24 -63 21 -85 -4 -10 -12 -29 -21 -42 -21 -22 0 -24 4 -24 50 0 49 -13 76 -37 76 -6 0 -17 -6 -24 -13z m-275 -460 c0 -6 -2 -10 -5 -10 -2 0 -7 4 -11 10 -3 6 -1 11 5 11 6 0 11 -5 11 -11z m42 -59 c0 -9 -7 -15 -18 -13 -26 5 -29 30 -4 30 13 0 22 -7 22 -17z"/>
		<path d="M6317 6933 c-15 -15 -5 -22 36 -26 37 -3 54 4 34 16 -18 10 -63 17 -70 10z"/>
		<path d="M8236 6883 c-9 -24 4 -47 26 -47 25 0 34 19 21 44 -12 23 -39 24 -47 3z"/>
		<path d="M4946 6840 c-31 -7 -61 -11 -67 -8 -5 4 -13 1 -17 -6 -6 -11 -202 -45 -252 -44 -29 0 -121 -23 -134 -33 -7 -6 -30 -7 -50 -3 -36 6 -44 1 -29 -22 12 -17 249 -10 312 9 29 9 88 21 132 27 126 19 148 23 225 42 48 13 74 24 74 34 0 21 -118 23 -194 4z"/>
		<path d="M4034 6751 c-29 -20 -44 -39 -44 -55 0 -13 -9 -29 -21 -36 -17 -11 -22 -10 -32 8 -11 21 -41 29 -41 11 0 -8 -68 -53 -80 -53 -2 0 -4 6 -4 15 0 31 -25 27 -64 -10 -31 -31 -50 -40 -82 -42 -40 -3 -41 -2 -31 22 14 31 4 57 -22 57 -28 0 -53 -28 -53 -60 0 -19 -9 -29 -37 -41 -20 -8 -43 -25 -50 -36 -7 -12 -18 -21 -25 -21 -7 0 -15 -7 -18 -16 -7 -18 -34 -21 -44 -4 -9 15 53 73 78 73 26 0 45 24 37 45 -8 22 -56 23 -84 2 -22 -17 -40 -21 -32 -7 9 14 -38 51 -75 59 -64 13 -148 -37 -120 -71 6 -7 13 -43 16 -80 7 -85 26 -108 68 -85 38 22 41 47 8 77 -37 34 -35 62 5 78 54 20 71 1 59 -61 -14 -66 1 -88 55 -78 51 9 86 33 78 52 -4 12 2 16 23 16 16 0 38 7 47 16 13 11 25 13 43 7 28 -11 79 1 138 31 21 10 46 16 55 13 9 -3 34 2 55 13 22 11 56 20 77 21 150 7 275 23 283 36 13 21 1 34 -25 27 -32 -8 -58 9 -41 27 17 16 17 53 1 69 -21 21 -55 15 -101 -19z m72 -31 c0 -13 -51 -37 -60 -28 -3 3 -3 13 0 22 7 18 60 23 60 6z"/>
		<path d="M9797 6763 c0 -12 9 -28 21 -36 20 -14 20 -16 -20 -56 -33 -32 -45 -39 -59 -30 -14 8 -23 4 -43 -19 -26 -30 -53 -34 -100 -13 -22 9 -83 -41 -83 -69 0 -30 31 -72 54 -72 14 0 20 -8 20 -26 0 -14 5 -38 12 -53 10 -22 19 -26 43 -24 18 2 36 11 42 20 14 22 2 68 -24 94 -25 24 -27 33 -6 25 9 -4 24 8 39 29 19 27 31 34 53 32 21 -3 32 3 46 28 16 26 25 31 56 29 36 -2 38 0 41 37 5 55 -32 124 -66 124 -19 0 -26 -6 -26 -20z m-189 -221 c0 -23 -17 -27 -41 -12 -19 12 -6 33 20 33 14 0 21 -8 21 -21z m42 -116 c0 -6 -5 -10 -11 -10 -6 0 -10 4 -10 10 0 6 4 11 10 11 6 0 11 -5 11 -11z"/>
		<path d="M8886 6713 c-8 -3 -13 -18 -13 -34 0 -29 -28 -64 -50 -64 -7 0 -21 -11 -32 -25 -10 -13 -29 -28 -41 -32 -13 -4 -25 -14 -28 -22 -4 -9 -13 -15 -22 -15 -9 0 -23 -15 -32 -32 -10 -19 -25 -31 -38 -31 -11 0 -23 -8 -27 -17 -4 -9 -13 -13 -25 -10 -13 5 -24 -1 -33 -18 -8 -13 -23 -24 -35 -24 -13 0 -27 -13 -39 -36 -24 -48 -38 -47 -55 2 -16 47 -34 71 -54 71 -19 0 -19 -49 -1 -84 12 -23 11 -31 -10 -65 -14 -22 -24 -47 -24 -56 0 -18 -40 -57 -58 -57 -6 0 -17 9 -24 21 -18 28 -42 26 -46 -3 -2 -13 -11 -24 -19 -25 -36 -2 -41 -5 -48 -26 -8 -25 20 -62 49 -62 10 0 25 9 32 20 8 11 26 19 41 19 15 0 41 9 57 20 16 11 40 18 53 16 24 -3 68 41 68 67 0 7 12 21 26 31 15 9 31 28 36 40 4 13 17 23 28 23 11 0 24 11 30 24 6 13 17 24 25 24 14 0 90 57 159 122 80 74 96 88 102 88 4 0 18 10 31 22 24 23 25 23 39 4 8 -11 12 -27 10 -36 -3 -10 6 -34 20 -54 30 -44 83 -56 102 -22 9 17 3 31 -36 83 -25 35 -51 66 -57 70 -6 4 -11 16 -11 26 0 26 -34 63 -50 57z m100 -184 c15 -15 16 -29 2 -29 -5 0 -15 9 -21 21 -12 23 -1 28 19 8z"/>
		<path d="M1724 6646 c-68 -14 -109 -42 -136 -95 -24 -45 -24 -53 -19 -235 4 -146 2 -192 -8 -204 -8 -9 -22 -45 -32 -80 -15 -50 -16 -69 -7 -94 18 -46 42 -68 74 -68 42 0 63 31 75 114 7 41 15 75 19 75 4 0 27 -17 50 -37 51 -44 78 -46 126 -10 26 20 45 26 74 24 43 -4 114 17 141 41 10 8 22 12 28 9 22 -14 105 29 168 88 72 68 96 77 96 39 0 -29 27 -70 46 -70 20 0 46 32 50 63 4 26 5 26 134 31 81 3 132 10 134 17 8 23 -28 37 -108 42 -45 2 -84 7 -86 9 -3 3 2 14 12 25 20 21 23 49 7 59 -18 11 -80 -17 -90 -40 -16 -36 -43 -34 -50 3 -10 49 -40 42 -73 -18 -30 -55 -98 -139 -113 -139 -6 0 -10 12 -10 26 0 38 -33 52 -77 33 -38 -16 -80 -74 -80 -110 0 -26 -39 -54 -81 -57 -29 -2 -30 0 -30 45 0 35 -4 47 -15 47 -9 0 -27 -21 -41 -47 -28 -55 -63 -94 -82 -94 -7 0 -23 18 -34 40 -29 57 -80 98 -111 90 -35 -9 -43 12 -58 149 -12 110 -12 118 9 158 26 51 36 60 96 82 125 46 185 45 223 -6 41 -55 -18 -158 -82 -142 -84 21 -80 21 -76 -5 2 -14 17 -32 37 -44 30 -17 36 -18 70 -4 40 17 93 83 112 139 14 44 1 71 -60 117 -31 23 -50 29 -95 30 -30 1 -59 4 -62 8 -4 4 -10 6 -14 6 -3 -1 -26 -5 -51 -10z m420 -474 c-7 -7 -16 -9 -20 -5 -4 5 -1 12 8 18 19 12 28 3 12 -13z"/>
		<path d="M7906 6552 c-17 -17 -21 -34 -19 -72 2 -54 -5 -75 -27 -75 -8 0 -35 -12 -60 -26 -25 -14 -50 -26 -55 -26 -5 0 -7 24 -4 55 6 66 2 81 -23 81 -22 0 -33 -33 -25 -75 9 -44 -4 -82 -34 -95 -36 -17 -29 -45 11 -46 29 0 32 -4 44 -56 14 -64 48 -108 68 -88 9 9 8 30 -5 84 -22 90 -22 98 2 98 11 0 28 9 38 20 10 11 24 18 31 15 8 -3 27 6 44 19 17 13 40 30 51 36 12 7 20 21 19 32 -1 10 2 35 7 54 11 39 -4 86 -27 86 -8 0 -24 -10 -36 -21z"/>
		<path d="M4027 6469 c-31 -13 -110 -101 -126 -141 -7 -18 -16 -71 -20 -117 -6 -75 -4 -89 17 -125 30 -52 84 -80 166 -88 58 -5 62 -7 56 -28 -16 -49 -79 -112 -305 -304 -241 -205 -493 -378 -623 -428 -115 -44 -205 -72 -231 -72 l-26 0 0 129 c-1 126 -1 129 -36 191 -47 83 -69 107 -130 137 -61 31 -133 34 -186 8 -68 -34 -35 -73 35 -40 27 13 45 15 79 7 43 -10 138 -77 138 -97 0 -5 13 -30 28 -54 26 -41 28 -54 28 -146 0 -87 -3 -105 -24 -134 -29 -41 -70 -59 -155 -67 -65 -7 -66 -7 -66 18 0 14 11 39 24 55 38 46 68 137 74 223 6 79 -3 117 -29 117 -18 0 -27 -37 -32 -136 -6 -96 -24 -155 -49 -162 -11 -3 -22 -1 -25 5 -4 5 -21 17 -38 26 -29 15 -34 15 -52 -2 -37 -34 -22 -83 38 -120 20 -12 37 -26 37 -30 -1 -24 -35 -47 -90 -59 -35 -8 -82 -20 -105 -27 -23 -6 -58 -15 -78 -20 -53 -13 -172 -47 -258 -74 -40 -13 -94 -27 -118 -31 -25 -4 -51 -13 -58 -20 -6 -7 -24 -12 -40 -12 -15 0 -48 -7 -72 -16 -24 -8 -92 -27 -151 -42 -59 -15 -142 -39 -185 -53 -192 -63 -239 -78 -279 -88 -23 -5 -62 -17 -86 -26 -25 -9 -68 -18 -96 -20 -28 -2 -73 -14 -98 -26 -26 -13 -56 -23 -68 -23 -34 0 -90 -27 -117 -56 -21 -22 -34 -26 -79 -26 -68 1 -143 -19 -143 -38 -1 -25 32 -50 56 -44 12 4 55 11 94 17 43 6 83 19 99 32 14 11 34 21 43 21 9 0 41 9 70 20 29 11 95 33 147 48 52 16 99 33 104 38 6 5 18 9 27 9 10 0 74 18 142 41 69 22 178 56 241 74 64 19 135 40 158 48 197 63 522 157 782 226 192 50 194 51 212 31 13 -16 30 -21 68 -21 55 0 87 16 139 71 23 24 52 39 93 50 33 9 107 30 165 47 205 60 256 74 275 74 11 0 25 4 30 9 6 6 34 14 63 20 29 6 125 30 215 54 195 53 177 48 268 68 40 9 139 33 219 53 145 37 217 46 217 27 0 -5 -14 -20 -30 -34 -17 -14 -72 -72 -122 -130 -150 -170 -173 -195 -261 -285 -47 -49 -92 -87 -104 -87 -26 0 -70 47 -117 124 -56 92 -75 93 -112 9 -31 -70 -8 -100 30 -38 l20 32 60 -79 c33 -44 58 -88 56 -97 -2 -10 -30 -37 -64 -60 -70 -50 -95 -83 -86 -111 4 -12 -1 -25 -13 -34 -10 -7 -37 -36 -59 -64 -22 -27 -45 -47 -50 -43 -6 3 -17 0 -26 -7 -24 -20 -27 -7 -11 43 8 26 25 77 37 113 21 63 21 86 2 86 -20 0 -95 -195 -95 -249 -1 -97 -296 128 -454 345 -51 70 -89 104 -118 104 -26 0 -20 -49 8 -70 14 -11 80 -81 147 -156 66 -75 151 -163 188 -194 84 -73 122 -118 105 -124 -15 -5 -18 -40 -4 -49 5 -3 24 -1 42 5 29 11 38 8 88 -25 30 -21 61 -46 67 -57 7 -11 64 -62 126 -113 63 -51 120 -98 127 -104 17 -15 -4 -79 -40 -119 -61 -66 -207 -195 -251 -221 -26 -15 -66 -43 -89 -62 -22 -19 -47 -35 -54 -34 -8 0 -22 -15 -31 -33 -23 -45 -14 -86 49 -211 28 -57 63 -132 77 -169 13 -36 60 -138 104 -228 65 -133 76 -165 65 -177 -20 -20 -143 -20 -252 2 -52 10 -111 21 -131 23 -21 3 -47 8 -59 10 -24 5 -443 35 -619 44 -174 9 -232 9 -472 1 -230 -8 -624 9 -655 28 -7 4 -11 15 -8 23 3 8 1 27 -5 42 -9 26 -13 27 -57 21 -26 -3 -58 -9 -71 -12 -16 -3 -34 4 -58 24 l-35 30 24 49 c31 64 20 107 -28 107 -30 0 -31 -3 -50 -78 -10 -44 -16 -93 -13 -111 4 -21 -2 -43 -16 -67 l-22 -35 -149 6 c-167 7 -240 15 -277 29 -14 5 -48 9 -76 9 -70 0 -158 19 -179 37 -13 12 -36 15 -98 11 -44 -2 -83 0 -86 6 -3 5 -16 10 -29 10 -12 0 -35 12 -52 28 l-29 28 -21 -23 c-32 -33 -30 -127 3 -158 33 -30 42 -28 34 7 l-6 29 76 -8 c42 -4 86 -7 96 -8 17 0 19 -6 14 -36 -7 -47 14 -81 39 -60 9 8 17 28 17 44 0 17 5 31 11 31 13 0 13 -80 -1 -106 -6 -11 -31 -32 -55 -46 -25 -15 -57 -39 -71 -54 -24 -25 -24 -28 -9 -55 8 -16 33 -38 55 -49 59 -32 103 -125 99 -213 -2 -51 1 -69 16 -83 19 -19 20 -18 46 12 24 29 25 37 19 105 -3 41 -7 88 -7 105 -2 46 22 100 43 100 10 0 26 14 36 32 10 17 27 31 38 31 10 0 25 7 32 16 7 8 28 16 46 16 18 0 50 6 70 14 21 7 55 11 76 9 40 -5 102 28 102 54 0 34 36 46 142 49 230 6 1661 -6 1885 -16 135 -6 307 -29 371 -49 17 -5 47 -9 66 -9 20 0 53 -7 73 -16 21 -8 58 -15 83 -15 25 -1 148 -15 275 -32 193 -26 275 -32 518 -37 158 -3 333 -7 388 -9 432 -19 832 -28 1108 -24 304 4 960 33 1008 44 12 2 128 7 258 11 129 3 268 10 309 15 120 14 833 20 1144 10 133 -5 137 -4 140 18 2 13 -4 25 -15 29 -23 8 -604 9 -627 0 -23 -9 -22 1 3 27 31 30 36 64 21 148 -13 78 -36 114 -71 114 -32 1 -105 -59 -126 -102 -36 -70 -37 -109 -7 -154 l27 -39 -115 3 c-64 2 -119 0 -122 -3 -4 -4 -20 -3 -36 1 -16 5 -37 4 -46 -1 -10 -5 -118 -12 -241 -15 -123 -2 -266 -7 -318 -10 -52 -3 -137 -7 -189 -10 -52 -3 -123 -8 -157 -11 -35 -3 -108 -8 -163 -10 -55 -3 -164 -8 -241 -12 -169 -9 -923 -10 -1124 -2 -137 6 -190 16 -204 39 -11 17 -60 14 -82 -6 -20 -19 -69 -20 -255 -9 -46 2 -176 7 -288 10 -279 8 -465 30 -565 66 -36 13 -44 21 -44 43 0 14 -18 57 -39 95 -95 169 -154 294 -182 383 -5 17 -26 64 -46 105 -59 121 -61 129 -42 168 10 21 44 53 87 83 39 27 113 87 165 135 51 47 122 109 156 138 35 29 72 66 83 83 17 27 18 33 3 54 -25 37 -84 94 -127 123 -44 29 -57 40 -113 101 -21 22 -50 51 -64 64 -14 13 -28 33 -31 45 -7 27 40 81 78 90 25 6 31 3 40 -21 19 -50 22 -49 215 23 46 18 106 42 132 54 25 12 64 22 84 22 21 0 43 6 50 12 6 7 30 19 52 26 35 13 41 12 52 -3 8 -10 14 -38 14 -63 0 -26 6 -51 16 -60 23 -23 85 -21 126 4 71 45 297 102 338 87 35 -13 46 -33 39 -66 -12 -57 35 -80 107 -52 62 24 286 68 429 84 52 5 139 17 194 25 55 9 178 28 273 42 175 27 267 44 315 58 33 9 37 49 5 45 -26 -4 -299 -52 -409 -73 -46 -8 -102 -15 -124 -15 -21 1 -39 -4 -39 -10 0 -6 -9 -8 -20 -4 -12 3 -39 1 -61 -5 -22 -5 -92 -15 -155 -21 -64 -6 -135 -18 -158 -26 -23 -9 -61 -16 -84 -16 -24 0 -47 -5 -53 -10 -9 -9 -57 -15 -106 -13 -16 1 -26 12 -35 38 -14 44 -55 69 -112 68 -44 0 -168 -22 -219 -40 -17 -6 -48 -13 -69 -17 -21 -3 -53 -20 -73 -37 -51 -46 -67 -23 -64 86 1 57 0 61 -29 76 -26 13 -32 14 -42 2 -7 -8 -28 -18 -48 -22 -20 -3 -42 -12 -50 -20 -7 -7 -37 -17 -65 -20 -28 -4 -57 -13 -65 -19 -13 -11 -232 -62 -264 -62 -28 0 -1 20 53 40 63 24 172 74 341 156 65 31 128 57 141 57 87 -3 92 -1 181 78 30 26 264 152 284 152 3 0 76 34 161 75 85 41 183 87 217 103 134 61 263 116 271 116 13 0 8 -55 -9 -100 -12 -32 -14 -50 -5 -71 14 -37 45 -37 143 -3 267 94 388 132 461 147 46 10 98 25 114 33 33 17 102 20 102 5 0 -5 -23 -20 -50 -33 -28 -13 -87 -45 -132 -71 -82 -49 -95 -68 -71 -106 13 -21 233 -27 347 -10 43 6 100 13 126 16 113 11 229 29 269 42 24 7 62 13 84 13 42 -1 190 24 259 44 55 16 54 46 -1 37 -22 -4 -57 -9 -76 -11 -20 -2 -71 -9 -112 -15 -42 -6 -111 -16 -153 -22 -41 -5 -88 -13 -102 -17 -14 -3 -62 -10 -105 -15 -43 -4 -91 -11 -105 -13 -71 -15 -263 -36 -303 -35 -32 2 -51 9 -61 23 -14 18 -12 22 14 44 17 13 33 23 38 23 4 0 43 17 86 37 42 20 81 37 86 37 10 0 46 59 46 74 0 16 -81 11 -175 -11 -48 -12 -129 -31 -180 -43 -99 -23 -207 -58 -379 -124 -149 -57 -155 -53 -113 78 19 57 30 76 52 87 29 14 47 39 36 50 -4 4 -31 -5 -62 -19 -91 -41 -125 -53 -130 -48 -3 3 35 24 84 46 49 23 89 47 89 55 1 19 -24 11 -178 -63 -192 -93 -315 -150 -357 -166 -20 -8 -97 -45 -171 -81 -141 -70 -281 -127 -346 -139 -23 -5 -73 -2 -120 6 -144 26 -170 27 -202 11 -17 -8 -33 -13 -36 -10 -6 5 114 158 159 204 16 16 47 50 70 77 98 113 171 184 187 184 10 0 27 -18 39 -43 12 -23 28 -44 36 -47 15 -6 111 49 185 106 93 73 130 84 561 168 41 8 121 24 179 36 58 12 129 27 159 32 30 5 72 14 94 20 23 5 69 15 104 22 34 7 89 18 121 26 31 8 88 20 126 27 37 6 91 18 120 26 70 20 291 65 360 73 56 8 75 30 38 44 -16 6 -143 -14 -240 -38 -37 -9 -80 -19 -242 -55 -23 -5 -68 -13 -99 -19 -32 -5 -77 -14 -100 -19 -23 -6 -80 -20 -126 -32 -46 -11 -106 -24 -131 -27 -26 -4 -83 -16 -126 -27 -44 -11 -122 -27 -174 -37 -52 -9 -123 -23 -158 -32 -35 -8 -72 -15 -83 -15 -11 0 -60 -12 -108 -27 -49 -15 -93 -25 -99 -23 -12 4 58 59 227 179 253 178 349 239 379 239 16 0 38 7 49 17 22 20 38 11 20 -11 -10 -12 -9 -22 4 -48 9 -18 24 -36 32 -39 20 -8 136 23 194 51 26 12 57 26 68 30 50 18 251 95 352 136 103 42 128 51 221 84 20 7 119 36 220 64 101 28 204 57 228 64 33 9 45 18 45 33 0 15 -6 19 -24 15 -72 -16 -276 -73 -343 -96 -44 -15 -85 -27 -93 -27 -17 -1 -253 -92 -370 -143 -97 -43 -230 -93 -304 -114 -26 -7 -62 -21 -81 -31 -60 -31 -81 -24 -98 32 -9 27 -23 54 -33 60 -24 15 -119 -18 -154 -54 -16 -16 -68 -52 -115 -81 -84 -51 -194 -129 -301 -213 -29 -23 -72 -53 -95 -68 -23 -14 -49 -34 -57 -44 -23 -28 -72 -51 -153 -72 -40 -10 -90 -23 -110 -29 -52 -13 -75 -4 -67 27 10 41 -30 33 -64 -12 -34 -44 -84 -67 -205 -93 -49 -10 -154 -35 -232 -54 -79 -20 -152 -35 -162 -35 -11 0 -43 -7 -72 -16 -30 -8 -96 -25 -147 -38 -52 -12 -102 -26 -111 -30 -20 -11 -153 -44 -195 -50 l-31 -4 23 19 c12 10 38 30 58 43 292 206 594 472 708 626 26 34 65 76 87 92 51 37 65 60 94 146 20 61 21 76 11 117 -16 62 -84 141 -134 155 -46 12 -166 13 -196 1z m243 -87 c80 -47 72 -195 -12 -235 -38 -18 -38 -18 -67 10 -33 31 -52 34 -81 12 -27 -20 -47 -19 -74 3 -29 24 -46 57 -46 88 0 14 -5 31 -12 37 -9 9 -8 16 5 29 9 9 25 28 37 43 37 47 180 54 250 13z m-112 -250 c0 -6 -10 -10 -22 -10 -12 0 -18 4 -15 10 4 6 14 11 22 11 8 0 15 -5 15 -11z m-148 -24 c14 4 15 3 1 -6 -24 -18 -53 -15 -46 4 5 11 10 13 17 7 6 -6 18 -8 28 -5z m146 -38 c-4 -19 -103 -31 -103 -13 0 17 27 28 68 29 29 0 37 -3 35 -16z m580 -534 c-20 -16 -54 -40 -76 -53 l-40 -24 -11 28 c-6 16 -8 31 -5 34 3 3 6 -1 6 -9 0 -9 6 -6 16 8 8 13 21 21 28 18 7 -2 32 3 55 11 62 22 68 19 27 -13z m588 -170 c0 -6 -6 -11 -12 -11 -6 0 -8 5 -4 11 3 5 8 10 11 10 2 0 5 -5 5 -10z m-279 -126 c-3 -6 -11 -11 -17 -11 -6 0 -7 5 -4 11 4 5 11 10 17 10 6 0 8 -5 4 -10z m-234 -112 c-13 -9 -29 -14 -36 -11 -8 3 -2 9 13 16 39 16 50 14 23 -5z m-2010 -73 c-4 -4 -13 -4 -20 -1 -9 3 -6 6 6 6 11 1 17 -2 14 -5z m1756 -41 c0 -7 -80 -47 -94 -47 -24 0 -9 19 28 34 41 17 66 22 66 13z m-228 -24 c44 -9 81 -22 81 -28 0 -14 -50 -37 -80 -37 -13 0 -31 -10 -39 -23 -15 -21 -63 -51 -82 -51 -5 0 -47 -18 -93 -41 -46 -22 -104 -44 -130 -48 -26 -3 -52 -13 -59 -22 -7 -8 -17 -12 -21 -10 -5 3 -22 -2 -38 -10 -35 -18 -67 -21 -67 -5 0 5 5 10 11 10 5 0 10 9 10 21 0 26 52 75 73 68 22 -6 34 4 56 51 10 22 23 37 28 34 10 -7 26 12 27 31 0 5 9 12 21 14 11 2 29 13 39 24 20 20 43 28 103 32 20 2 46 4 57 6 12 1 58 -6 103 -16z m487 -456 c-3 -8 -6 -6 -6 6 -1 11 2 18 5 14 4 -3 4 -12 1 -20z m3158 -1583 c21 0 46 -34 30 -40 -20 -6 -16 -41 5 -49 16 -7 16 -10 -7 -28 -34 -28 -80 -26 -112 6 -27 27 -27 65 2 123 19 38 38 42 54 12 8 -13 20 -24 28 -24z m-7386 -62 c0 -11 -32 -26 -39 -18 -3 2 -2 10 2 16 8 13 37 15 37 2z m-193 -162 c-4 -13 -10 -39 -14 -57 -3 -19 -9 -34 -12 -34 -4 0 -26 12 -48 27 l-41 28 30 24 c27 22 43 28 82 35 5 0 6 -10 3 -23z"/>
		<path d="M9356 6410 c-83 -50 -99 -67 -89 -93 11 -28 45 -19 97 24 27 22 60 46 74 53 24 13 29 53 7 60 -6 2 -46 -18 -89 -44z"/>
		<path d="M7561 6386 c-6 -12 -8 -30 -5 -39 4 -11 -3 -37 -18 -64 -20 -38 -28 -44 -48 -39 -17 4 -26 0 -31 -11 -4 -12 -13 -15 -26 -11 -15 4 -23 -1 -30 -20 -14 -38 -31 -44 -49 -19 -21 30 -52 14 -62 -30 -6 -28 -48 -73 -69 -73 -4 0 -1 14 8 31 20 41 12 63 -23 63 -19 0 -29 -8 -37 -29 -22 -62 -43 -79 -50 -39 -6 31 -55 79 -83 79 -17 0 -26 7 -30 26 -8 30 -33 47 -71 47 -54 0 -112 -132 -112 -252 0 -55 6 -82 29 -127 30 -58 54 -74 82 -51 13 11 16 36 14 119 -1 92 1 106 15 103 9 -1 23 10 32 27 26 51 44 60 69 35 32 -32 27 -48 -26 -81 -50 -32 -60 -59 -28 -77 23 -12 42 -1 100 58 34 34 43 38 75 31 35 -6 128 17 142 35 13 18 84 65 98 65 26 0 109 51 127 79 10 14 26 25 35 23 16 -2 18 6 15 66 -4 76 -24 111 -43 75z m-595 -208 c5 -25 3 -42 -5 -50 -9 -9 -11 -6 -6 10 6 20 4 22 -19 18 -20 -4 -27 -1 -27 12 0 9 7 17 16 17 8 0 16 7 16 15 0 31 18 15 25 -22z m-61 -143 c-2 -7 -5 -1 -5 13 0 14 3 20 5 13 3 -7 3 -19 0 -26z m12 -86 c5 -47 5 -48 -20 -39 -19 8 -24 17 -23 42 4 83 33 81 43 -3z"/>
		<path d="M12117 6112 c0 -13 41 -26 50 -17 8 8 -18 26 -37 26 -7 0 -13 -4 -13 -9z"/>
		<path d="M7411 5799 c-14 -16 -56 -69 -91 -117 -54 -73 -65 -94 -67 -133 -2 -48 13 -76 33 -63 6 4 12 24 12 46 0 43 65 152 133 224 24 24 35 45 31 55 -9 23 -20 21 -51 -12z"/>
		<path d="M8620 5747 c-45 -31 -73 -67 -73 -93 0 -36 9 -33 53 18 37 43 40 44 65 31 30 -16 50 -9 50 18 0 43 -50 57 -95 26z"/>
		<path d="M8012 5727 c-20 -9 -52 -34 -71 -57 -34 -39 -38 -41 -81 -35 -39 5 -47 3 -66 -22 l-22 -28 -29 27 c-16 15 -31 27 -35 28 -78 16 -142 13 -195 -11 -90 -41 -129 -72 -136 -111 -4 -21 -20 -47 -38 -62 -17 -14 -31 -31 -31 -37 0 -24 24 -23 51 2 43 41 128 100 177 124 30 14 45 28 45 41 0 23 28 26 89 11 26 -7 28 -9 8 -10 -13 0 -27 -8 -30 -16 -3 -8 -21 -17 -41 -21 -40 -8 -105 -68 -154 -144 -18 -29 -39 -50 -45 -48 -6 3 -20 1 -32 -3 -11 -4 -29 -3 -40 2 -12 7 -24 6 -33 -2 -21 -17 -35 -5 -47 40 -15 55 -27 69 -48 61 -30 -11 -11 -60 44 -116 48 -48 53 -50 95 -44 34 5 55 1 87 -16 23 -12 61 -24 84 -27 32 -4 42 -10 42 -26 0 -51 87 -176 122 -176 8 0 15 -4 15 -9 0 -11 -48 -33 -69 -33 -9 0 -15 -6 -15 -12 0 -23 77 -2 148 39 49 28 80 55 107 94 26 37 47 56 68 60 53 11 78 40 83 100 5 48 9 55 29 55 12 0 46 7 75 17 88 29 130 83 130 166 0 87 -42 157 -118 196 -46 23 -74 24 -123 3z m123 -63 l29 -20 -57 -7 c-31 -4 -82 -20 -113 -36 -31 -15 -59 -26 -63 -22 -9 9 36 77 63 97 29 21 101 15 141 -12z m26 -81 c22 -36 -3 -124 -49 -170 -19 -19 -37 -26 -67 -26 -52 0 -74 17 -86 68 -18 77 -16 83 50 113 33 15 67 30 76 33 22 7 66 -4 76 -18z m-294 -73 l-22 -21 -16 32 c-22 42 -21 48 7 60 20 9 25 6 38 -19 13 -27 13 -32 -7 -52z m-354 66 c-5 -9 -66 -42 -76 -42 -14 0 14 23 42 36 42 18 41 18 34 6z m173 -77 c19 5 20 3 8 -19 -7 -14 -34 -51 -59 -83 -25 -31 -50 -68 -55 -82 -8 -20 -16 -24 -43 -21 -45 4 -76 47 -62 84 23 62 164 161 182 129 4 -7 17 -11 29 -8z m515 -44 c0 -2 -5 -7 -11 -11 -6 -3 -10 -1 -10 5 0 6 4 11 10 11 6 0 11 -2 11 -5z m-293 -158 c-10 -41 -10 -41 -11 22 -1 35 3 68 7 72 12 13 15 -47 4 -94z m-222 68 c0 -20 -26 -40 -38 -28 -7 7 19 50 30 50 4 0 8 -10 8 -22z m177 -74 c2 -56 -4 -65 -32 -50 -22 11 -21 34 5 114 11 36 12 36 19 11 4 -15 8 -48 8 -75z m-110 6 c2 -63 0 -72 -23 -90 -32 -25 -52 -25 -77 -3 -27 24 -25 61 4 76 13 7 38 32 55 54 16 23 32 40 34 38 3 -3 5 -36 7 -75z m226 -13 c1 -30 -20 -55 -46 -55 -10 0 5 84 18 110 11 21 11 21 19 0 5 -11 9 -36 9 -55z m-162 -78 c33 -15 33 -25 -2 -80 -27 -42 -31 -44 -74 -41 -32 2 -56 12 -82 33 -20 17 -36 34 -36 39 0 4 25 5 56 2 54 -6 58 -5 81 27 28 38 23 36 57 20z"/>
		<path d="M8846 5720 c-18 -13 -50 -43 -71 -67 -22 -24 -51 -47 -65 -50 -18 -5 -30 -20 -43 -56 -10 -28 -27 -62 -36 -76 -54 -82 -99 -186 -84 -195 15 -9 13 -18 -17 -51 -14 -16 -42 -34 -62 -38 l-37 -8 7 65 c5 52 3 67 -10 78 -43 36 -119 -34 -107 -98 3 -18 17 -41 30 -53 23 -19 25 -29 26 -115 1 -108 18 -163 59 -182 24 -11 28 -9 41 17 22 43 29 84 17 91 -6 4 -16 -7 -22 -25 -20 -57 -45 -35 -46 41 -1 26 -3 52 -4 58 -2 6 -3 25 -2 43 1 28 6 34 46 46 55 18 75 34 118 98 l34 50 -5 -46 c-4 -32 -1 -49 8 -55 22 -14 52 34 52 83 0 59 12 75 41 60 17 -9 22 -22 22 -55 0 -34 3 -41 18 -39 10 2 21 15 24 30 4 19 15 27 41 33 19 4 49 17 66 30 17 12 33 21 35 19 3 -3 -47 -50 -111 -107 -105 -93 -115 -105 -115 -138 0 -36 -9 -49 -65 -96 -7 -6 -36 -36 -64 -67 -41 -45 -50 -61 -47 -87 2 -22 9 -34 21 -37 15 -2 19 4 19 33 0 29 9 45 49 85 75 73 160 143 172 143 14 0 104 62 104 71 0 4 -5 15 -10 23 -8 13 -13 13 -37 1 -14 -8 -30 -11 -34 -7 -8 8 57 70 186 178 142 119 209 186 203 202 -9 22 -27 18 -73 -16 -22 -17 -46 -32 -53 -32 -6 0 -18 -8 -26 -17 -12 -15 -55 -46 -113 -83 -9 -6 -30 -19 -46 -30 -16 -11 -32 -17 -35 -14 -6 6 176 209 224 251 68 57 87 103 50 117 -19 8 -68 -33 -228 -188 -75 -73 -138 -130 -140 -128 -2 2 24 44 59 93 107 150 126 182 123 209 -4 36 -45 40 -87 8z m20 -63 c-9 -31 -53 -101 -83 -134 -13 -14 -30 -39 -38 -54 -8 -15 -30 -40 -49 -56 l-35 -29 7 30 c16 68 58 138 121 201 70 70 90 80 77 42z m7 -212 c-46 -55 -85 -106 -85 -113 -1 -8 -5 -2 -11 12 -9 23 -2 34 76 113 48 48 91 87 96 87 5 0 -29 -45 -76 -99z m-475 -201 c-2 -16 -9 -31 -15 -33 -19 -6 -28 35 -14 61 16 29 34 12 29 -28z m374 -103 c-7 -17 -36 -32 -36 -19 0 11 23 34 33 34 5 0 6 -7 3 -15z"/>
		<path d="M1934 5589 c-24 -9 -61 -79 -74 -143 -12 -52 -12 -64 3 -85 22 -35 54 -43 85 -23 14 10 47 17 77 17 28 0 65 5 82 11 50 17 75 97 40 126 -19 16 -43 -1 -61 -44 -12 -29 -13 -30 -43 -14 -36 19 -61 13 -89 -22 -11 -14 -23 -25 -26 -25 -16 0 -4 66 20 111 14 27 26 55 26 62 0 18 -23 35 -40 29z"/>
		<path d="M871 5517 c-7 -9 -12 -31 -10 -50 2 -18 3 -92 2 -164 -1 -126 3 -147 32 -147 4 0 15 14 24 31 17 33 59 44 74 20 10 -16 104 -6 127 13 12 10 41 13 103 11 84 -4 87 -3 110 25 24 32 23 63 -6 107 -15 24 -70 33 -82 14 -4 -6 -23 -15 -43 -22 -38 -12 -38 -12 -97 50 -60 62 -100 89 -170 115 -47 17 -48 17 -64 -3z m161 -118 c51 -48 26 -59 -53 -23 -34 15 -44 26 -44 45 0 14 3 28 7 32 8 8 49 -16 90 -54z m60 -114 c0 -26 -2 -27 -44 -21 -23 3 -53 15 -65 27 l-22 22 66 0 c63 0 65 -1 65 -28z"/>
		<path d="M1751 5476 c-27 -37 -45 -128 -29 -148 18 -21 60 -19 71 3 5 10 7 53 5 95 -5 82 -16 94 -47 50z"/>
		<path d="M1446 5397 c-35 -28 -45 -74 -24 -113 24 -48 77 -60 114 -26 11 10 37 18 58 18 45 0 73 37 61 82 -5 22 -13 29 -36 29 -16 0 -34 -5 -40 -11 -15 -15 -43 -3 -49 22 -7 27 -49 26 -84 -1z"/>
		<path d="M11189 5375 c-15 -25 -20 -54 -20 -116 l0 -83 -33 6 c-23 5 -40 1 -59 -13 -14 -11 -34 -23 -44 -27 -23 -8 -25 -58 -3 -67 9 -3 26 7 41 24 20 23 29 27 38 18 13 -12 -8 -84 -46 -156 -23 -42 -21 -71 4 -94 20 -18 22 -18 41 -1 26 23 53 103 54 152 0 21 8 54 18 75 15 29 23 36 44 33 31 -5 92 12 166 46 31 14 64 26 74 26 10 0 24 5 31 12 14 14 19 5 27 -59 6 -40 24 -62 41 -52 9 6 2 138 -10 177 -13 44 -72 63 -98 32 -7 -9 -21 -31 -31 -50 -22 -41 -39 -48 -44 -16 -2 18 -11 25 -34 27 -35 4 -58 -19 -58 -57 0 -24 -27 -42 -38 -24 -3 5 4 38 16 73 23 68 27 105 11 105 -6 0 -10 6 -10 14 0 15 -22 28 -46 28 -7 0 -22 -15 -32 -33z"/>
		<path d="M7227 5252 c-7 -5 -12 -26 -12 -48 1 -27 -5 -46 -20 -61 -21 -21 -23 -22 -50 -4 -34 22 -77 15 -109 -19 -45 -48 11 -104 86 -85 25 6 28 3 39 -38 14 -50 58 -100 98 -110 65 -16 81 32 18 53 -65 22 -95 108 -57 162 10 13 21 39 25 57 5 18 11 40 15 49 9 21 -16 55 -33 44z m-118 -159 c0 -6 -10 -11 -21 -11 -12 0 -21 5 -21 11 0 5 9 10 21 10 11 0 21 -5 21 -10z"/>
		<path d="M1796 5204 c-29 -10 -37 -20 -37 -39 0 -32 34 -38 94 -17 34 12 42 20 42 40 0 21 -6 26 -31 27 -18 1 -48 -4 -68 -11z"/>
		<path d="M11803 5188 c-22 -22 -43 -84 -43 -128 0 -47 -26 -94 -74 -132 -44 -35 -46 -35 -54 -15 -4 12 -15 22 -24 22 -23 0 -58 -38 -58 -62 0 -32 -17 -35 -30 -5 -12 26 -14 26 -32 11 -10 -10 -24 -17 -31 -17 -6 0 -12 -14 -12 -31 0 -30 -1 -30 -48 -26 -36 3 -57 -1 -84 -18 -20 -12 -36 -17 -36 -10 0 6 -8 11 -19 11 -30 0 -133 -58 -137 -77 -4 -23 11 -22 61 3 42 22 52 18 67 -23 10 -28 36 -22 54 13 19 36 19 36 48 18 19 -11 24 -10 36 7 9 11 22 17 31 13 18 -6 81 18 123 47 15 11 38 20 51 20 14 0 50 26 90 65 l67 64 27 -28 c23 -25 29 -27 50 -16 13 7 26 12 29 11 2 -1 5 9 5 22 0 18 -6 24 -26 24 -24 0 -27 4 -26 37 1 34 16 86 38 129 11 21 2 77 -13 86 -5 3 -19 -4 -30 -15z"/>
		<path d="M7476 5158 c-9 -3 -28 -19 -44 -35 -24 -25 -27 -33 -19 -67 11 -47 28 -68 70 -86 33 -14 33 -14 28 -74 -6 -57 -5 -60 12 -44 10 9 20 37 24 61 4 34 11 47 30 54 29 11 33 28 7 33 -12 2 -23 24 -35 71 -18 69 -42 98 -73 87z m31 -54 c6 -11 11 -37 11 -58 0 -30 -4 -37 -20 -37 -27 0 -53 27 -53 53 0 30 19 62 36 62 9 0 20 -9 26 -20z"/>
		<path d="M2399 5114 c-8 -27 1 -42 28 -42 17 0 20 5 18 28 -4 35 -36 45 -46 14z"/>
		<path d="M10855 5090 c-10 -7 -23 -33 -29 -57 -6 -24 -18 -49 -27 -56 -8 -7 -15 -19 -15 -27 0 -21 -19 -28 -41 -14 -16 11 -25 9 -51 -9 -43 -31 -64 -14 -68 55 -3 48 -6 53 -30 56 -15 2 -32 -3 -38 -11 -6 -7 -16 -60 -23 -117 -11 -90 -10 -107 4 -129 9 -13 20 -24 26 -24 15 0 33 40 31 71 -3 53 -2 56 22 41 16 -9 19 -20 15 -41 -4 -15 -1 -31 5 -35 20 -12 64 25 71 59 4 22 9 29 17 21 29 -29 81 9 111 82 15 35 27 41 36 17 4 -9 13 -13 23 -9 14 5 16 16 10 60 -9 65 -24 86 -49 67z"/>
		<path d="M8821 5073 c-8 -14 -6 -26 5 -42 9 -12 23 -42 31 -67 9 -24 27 -68 41 -97 14 -29 28 -69 32 -89 5 -21 17 -55 28 -76 11 -22 20 -44 20 -50 0 -7 20 -65 45 -129 26 -65 49 -127 53 -138 6 -16 10 -17 22 -6 22 17 20 51 -4 90 -11 19 -25 49 -31 69 -6 19 -28 82 -49 140 -22 58 -43 124 -48 147 -11 56 -80 226 -101 249 -21 24 -31 23 -44 -1z"/>
		<path d="M12581 4922 c-29 -29 -2 -92 35 -78 20 8 20 53 -1 75 -20 19 -18 19 -34 3z"/>
		<path d="M12926 4872 c-6 -11 -14 -42 -18 -70 -4 -31 -17 -60 -35 -80 -25 -28 -30 -30 -53 -18 -22 12 -27 10 -49 -15 -13 -15 -24 -37 -24 -47 0 -27 -10 -32 -37 -20 -19 9 -28 8 -41 -5 -10 -10 -25 -14 -34 -11 -10 4 -23 -2 -34 -15 -11 -14 -35 -25 -67 -29 -55 -8 -56 -7 -39 63 11 48 5 79 -16 79 -9 0 -25 -35 -44 -97 l-30 -96 -39 -3 c-27 -2 -39 2 -39 12 0 27 -24 30 -44 6 -13 -17 -26 -22 -43 -18 -28 7 -42 -1 -59 -34 -10 -18 -11 -31 -2 -47 6 -12 12 -36 14 -54 4 -48 39 -42 57 11 24 69 38 76 77 38 19 -18 38 -33 43 -33 4 0 17 12 29 26 28 36 33 34 33 -18 0 -25 5 -63 11 -85 9 -32 16 -39 34 -37 20 3 24 11 26 60 2 32 -2 70 -8 86 -14 34 -5 73 16 73 9 0 16 -5 16 -10 0 -18 17 -12 50 15 17 15 41 27 53 27 12 0 24 4 27 9 3 5 24 12 45 15 66 8 119 25 140 44 10 10 24 14 31 10 6 -4 19 0 28 7 10 8 39 14 66 14 41 0 48 3 51 23 2 15 -7 30 -30 46 -29 20 -32 28 -26 56 16 79 18 113 5 127 -17 21 -28 20 -41 -5z"/>
		<path d="M7286 4859 c-19 -13 -42 -37 -51 -53 -15 -26 -15 -31 0 -57 9 -16 29 -36 45 -43 21 -10 28 -19 23 -32 -4 -9 -9 -27 -11 -38 -3 -12 -10 -44 -17 -72 -14 -63 -7 -160 16 -205 23 -43 62 -53 99 -25 37 27 54 80 66 201 5 54 11 101 13 103 2 2 12 -52 22 -120 17 -116 86 -349 110 -374 6 -5 18 -7 28 -3 19 7 19 10 -9 143 -10 43 -24 121 -33 173 -9 52 -26 121 -39 153 -12 31 -28 74 -36 94 -11 30 -15 33 -21 18 -4 -10 -4 -22 -1 -25 8 -8 -12 -35 -25 -35 -5 0 -11 13 -15 30 -5 25 0 36 31 67 20 21 37 45 37 54 0 27 -19 20 -37 -14 -19 -37 -47 -43 -47 -9 0 27 -65 93 -92 93 -11 0 -36 -11 -56 -24z m85 -41 c35 -26 40 -56 14 -84 -16 -18 -16 -19 4 -19 31 0 37 -46 25 -194 -8 -91 -15 -129 -28 -144 -27 -29 -44 -24 -63 20 -21 48 -16 178 8 215 9 13 19 44 23 68 7 45 6 45 -25 45 -29 0 -73 30 -73 50 0 21 51 64 76 65 5 0 22 -10 39 -22z m186 -404 c8 -54 -8 -38 -18 17 -5 27 -4 40 2 34 5 -5 12 -28 16 -51z"/>
		<path d="M8193 4827 c-5 -13 -8 -42 -5 -64 4 -32 1 -40 -10 -36 -83 31 -93 33 -105 21 -9 -9 -10 -19 -1 -37 9 -20 22 -26 60 -31 26 -3 56 -12 66 -21 10 -9 31 -19 46 -23 39 -10 50 14 19 39 -22 18 -26 32 -29 98 -4 81 -20 101 -41 54z"/>
		<path d="M7513 4778 c-4 -6 -2 -19 3 -28 7 -12 12 -13 17 -5 12 19 69 -17 129 -82 48 -51 140 -203 139 -228 0 -14 -41 42 -41 56 0 8 -4 14 -9 14 -5 0 -28 18 -51 41 -47 46 -95 64 -109 42 -12 -19 0 -41 22 -41 22 0 86 -65 128 -129 16 -25 46 -71 68 -102 92 -134 131 -210 123 -243 -4 -22 -1 -40 13 -60 27 -40 85 -176 105 -243 29 -100 75 -211 153 -368 l76 -152 0 -96 c0 -63 -5 -105 -15 -123 -17 -32 -5 -54 23 -43 33 12 52 117 40 217 -9 72 -94 271 -115 271 -6 0 -11 9 -11 21 0 12 -8 35 -16 52 -9 16 -40 100 -69 185 -37 111 -51 164 -46 186 8 36 1 55 -91 243 -39 81 -88 190 -110 242 -49 120 -124 259 -163 304 -53 60 -172 102 -193 69z"/>
		<path d="M8605 4778 c-4 -7 -5 -89 -1 -183 4 -106 1 -267 -9 -432 -8 -144 -12 -265 -8 -269 4 -4 15 -2 24 5 14 10 18 47 24 212 4 110 10 236 13 281 2 45 0 148 -6 229 -9 141 -20 185 -37 157z"/>
		<path d="M8344 4739 c-17 -17 -2 -43 47 -80 67 -52 83 -57 83 -31 0 11 -24 43 -53 69 -51 49 -64 55 -77 42z"/>
		<path d="M6813 4707 c0 -5 -2 -13 -3 -19 -2 -6 -4 -15 -5 -21 -1 -6 -9 -19 -17 -31 -15 -19 -17 -19 -58 21 -38 37 -43 39 -58 24 -20 -19 -10 -44 39 -101 34 -39 34 -36 18 -124 -14 -72 -33 -94 -89 -100 -22 -3 -31 -10 -34 -28 -3 -22 0 -23 58 -21 34 2 67 9 75 16 20 20 28 17 40 -16 10 -26 26 -34 147 -73 104 -34 160 -46 245 -52 l110 -8 7 -42 c7 -37 46 -144 114 -310 11 -26 23 -65 27 -88 l8 -40 -28 18 c-27 17 -29 17 -50 -1 -65 -59 -111 -263 -100 -444 8 -119 12 -135 34 -117 11 10 14 48 12 172 -1 149 0 164 29 252 30 92 46 113 71 93 7 -6 26 -13 42 -17 41 -10 44 8 18 99 -12 43 -27 97 -33 120 -6 23 -27 83 -47 133 -44 115 -52 151 -35 172 22 26 -5 47 -62 47 -100 0 -260 23 -324 48 -36 14 -73 26 -81 26 -32 0 -7 67 27 76 20 5 21 9 10 23 -7 9 -24 16 -36 16 -22 0 -22 4 -19 125 2 129 -7 180 -34 180 -9 0 -17 -4 -18 -8z m12 -158 c0 -29 -3 -35 -10 -23 -14 20 -14 63 0 63 5 0 10 -18 10 -40z m-22 -104 c6 -22 10 -39 9 -40 -2 0 -13 -6 -26 -13 -39 -22 -42 -16 -23 52 13 50 27 50 40 1z"/>
		<path d="M11697 4699 c-32 -19 -29 -17 -184 -85 -70 -31 -149 -61 -176 -68 -49 -12 -60 -27 -38 -49 9 -9 23 -8 55 3 72 25 157 61 194 80 19 11 40 19 48 19 19 0 147 63 155 76 9 15 -1 40 -16 39 -6 0 -24 -7 -38 -15z"/>
		<path d="M11034 4674 c-36 -28 -62 -35 -79 -21 -28 23 -45 -9 -45 -86 0 -81 17 -110 56 -98 40 12 81 36 87 51 4 12 9 13 25 2 30 -18 57 3 60 48 4 42 -18 71 -52 71 -21 0 -21 1 -5 19 10 11 18 23 18 26 0 15 -40 7 -65 -12z m-40 -107 c0 -22 -22 -52 -38 -52 -15 0 -22 42 -8 56 11 11 46 8 46 -4z"/>
		<path d="M13205 4674 c-21 -24 -22 -53 -1 -83 20 -29 48 -30 72 -4 23 25 22 45 -5 79 -25 32 -42 35 -66 8z"/>
		<path d="M7081 4660 c-12 -19 -18 -162 -7 -169 24 -15 35 13 38 96 2 62 -1 86 -10 86 -8 0 -17 -6 -21 -13z"/>
		<path d="M2585 4633 c-7 -2 -25 -29 -39 -60 -33 -69 -161 -194 -199 -194 -14 0 -38 -12 -55 -25 -34 -29 -73 -40 -106 -32 -20 6 -22 11 -17 46 6 34 3 43 -23 67 -45 42 -73 46 -104 13 -14 -15 -32 -27 -41 -27 -16 0 -49 -31 -76 -71 -11 -15 -13 -34 -9 -56 10 -44 56 -63 155 -62 144 0 273 58 394 177 103 101 142 157 137 198 -2 19 -8 29 -17 26z m-502 -267 c14 -23 -10 -71 -36 -71 -52 0 -69 37 -34 75 21 23 54 21 70 -4z"/>
		<path d="M7141 4616 c-19 -23 -10 -105 12 -110 15 -2 18 5 17 42 -1 25 0 52 3 60 6 21 -17 26 -32 8z"/>
		<path d="M8176 4552 c-57 -36 -108 -73 -114 -83 -16 -28 20 -34 53 -8 42 33 128 86 128 79 0 -4 -15 -23 -33 -43 -34 -39 -35 -58 -5 -64 24 -5 122 89 122 117 0 13 -6 18 -16 14 -10 -4 -14 2 -13 21 1 15 -2 29 -8 30 -6 2 -57 -26 -114 -63z"/>
		<path d="M8410 4524 c-10 -18 -8 -26 10 -44 18 -18 26 -20 41 -11 24 15 29 46 8 46 -9 0 -16 7 -16 16 0 23 -30 19 -43 -7z"/>
		<path d="M10699 4476 c-13 -22 -23 -46 -22 -53 1 -7 -3 -13 -10 -13 -7 0 -22 -8 -32 -17 -18 -17 -21 -17 -39 0 -18 16 -21 16 -45 -3 -23 -19 -26 -19 -43 -3 -18 15 -21 15 -42 -6 -22 -22 -22 -23 -3 -65 12 -27 26 -42 39 -42 10 0 19 3 19 7 1 5 10 19 21 32 17 21 24 23 42 13 15 -8 27 -8 35 -2 7 6 24 12 38 14 18 3 34 18 50 46 19 34 24 37 24 18 0 -27 29 -32 39 -7 3 10 2 39 -3 66 -13 63 -36 68 -68 15z"/>
		<path d="M11751 4481 c-6 -8 -14 -38 -18 -68 -8 -60 -21 -77 -62 -81 -15 -2 -33 -10 -40 -19 -7 -9 -25 -18 -39 -21 -14 -3 -34 -9 -44 -13 -15 -6 -16 -1 -11 36 4 34 2 44 -13 49 -22 9 -37 -12 -37 -51 0 -19 -13 -44 -36 -69 -35 -37 -37 -38 -51 -19 -11 15 -21 18 -35 12 -11 -5 -35 -7 -53 -6 -37 2 -66 -29 -66 -69 0 -32 -22 -37 -50 -12 -31 29 -82 17 -103 -24 -29 -56 15 -95 64 -58 11 9 33 16 48 16 15 0 33 7 39 14 7 8 24 13 41 10 19 -3 35 2 44 12 7 10 24 17 36 17 13 0 43 15 67 32 l45 33 0 -30 c0 -103 51 -147 74 -64 32 117 29 113 139 168 41 20 41 20 64 -2 13 -12 28 -21 35 -21 21 0 25 40 7 67 -16 26 -16 31 -1 72 22 57 22 87 1 96 -24 9 -32 8 -45 -7z m-421 -301 c0 -13 -30 -23 -37 -13 -3 5 -2 12 2 16 10 10 35 8 35 -3z"/>
		<path d="M424 4430 c-21 -24 -11 -54 21 -60 13 -3 17 5 17 33 0 46 -12 55 -38 27z"/>
		<path d="M3024 4422 c-14 -4 -53 -20 -86 -37 -46 -22 -64 -39 -83 -75 -22 -41 -23 -50 -12 -81 16 -45 16 -66 0 -111 -12 -34 -15 -35 -52 -30 -26 3 -61 -3 -99 -16 -54 -20 -60 -20 -69 -5 -12 22 -65 23 -98 1 -39 -26 -50 -10 -44 58 6 70 -5 95 -40 95 -22 0 -31 -10 -53 -60 -14 -33 -25 -70 -23 -83 2 -15 -15 -39 -53 -76 l-56 -53 -66 2 -65 1 4 51 c6 59 -8 82 -52 82 -58 0 -134 -109 -134 -192 -1 -52 -27 -53 -48 -3 -27 65 -76 72 -105 15 -25 -48 -20 -88 12 -103 25 -11 27 -16 20 -56 -13 -81 -13 -135 1 -153 21 -29 44 4 51 72 5 50 11 62 47 97 38 35 47 39 79 33 35 -6 111 15 186 54 l31 16 -7 -57 c-5 -43 -3 -65 10 -90 27 -53 13 -160 -26 -199 -16 -16 -41 -53 -56 -82 -20 -40 -38 -59 -71 -77 -25 -12 -50 -30 -56 -38 -6 -8 -25 -19 -42 -23 -19 -5 -37 -20 -45 -37 -8 -15 -19 -28 -25 -28 -6 0 -23 -10 -38 -22 -22 -16 -36 -20 -67 -15 -35 6 -43 3 -78 -33 l-38 -40 7 63 c4 34 9 82 12 105 5 38 3 44 -19 54 -35 16 -58 1 -71 -47 -12 -42 -14 -120 -5 -154 3 -12 20 -31 38 -44 34 -24 78 -20 113 12 10 9 29 16 44 16 14 0 36 8 50 17 20 14 29 15 52 4 24 -11 30 -9 51 15 13 16 24 37 24 48 0 33 21 35 52 5 29 -27 31 -27 65 -12 19 9 44 18 54 19 18 3 70 109 70 141 1 25 45 69 67 65 19 -2 24 -12 28 -55 4 -40 10 -53 25 -56 24 -5 67 35 86 79 20 48 50 45 83 -7 22 -34 25 -49 20 -93 -5 -36 -3 -54 7 -60 18 -11 35 15 57 87 18 62 29 90 47 118 5 9 12 29 16 45 7 36 27 38 27 2 0 -39 29 -46 57 -13 15 17 29 24 37 19 14 -9 104 31 142 63 11 10 31 20 44 23 21 5 23 2 21 -52 -2 -45 2 -60 16 -70 25 -16 35 1 45 76 10 81 13 86 48 78 39 -7 73 20 73 61 0 42 -11 62 -33 62 -23 0 -24 3 -8 48 15 40 6 81 -24 111 -12 12 -24 39 -27 60 -4 33 0 45 29 78 19 21 39 39 45 39 17 0 112 109 112 128 0 25 -22 24 -48 -1 -11 -12 -39 -40 -62 -63 -23 -24 -46 -43 -50 -43 -18 0 -74 -48 -88 -76 -22 -42 -18 -88 8 -107 41 -28 61 -69 48 -97 -12 -28 -136 -94 -154 -83 -16 10 -95 -54 -95 -77 0 -10 6 -23 12 -30 10 -10 4 -16 -26 -29 -21 -8 -46 -27 -55 -42 -19 -28 -36 -26 -36 6 0 11 -9 29 -21 39 -12 10 -21 26 -21 35 0 26 -36 67 -51 58 -7 -4 -12 -19 -12 -34 0 -30 -26 -44 -53 -27 -17 10 -29 3 -83 -51 -35 -34 -63 -70 -63 -79 0 -9 -5 -13 -11 -10 -6 4 -10 22 -10 41 0 21 -15 55 -38 91 -34 52 -36 62 -30 110 4 29 9 56 12 61 3 4 32 20 64 34 33 14 81 37 107 51 26 14 66 29 89 33 23 4 48 12 56 18 7 6 16 8 19 4 9 -9 88 33 108 57 9 11 50 31 90 44 l74 23 -1 48 c-1 26 -13 77 -27 113 l-25 67 29 24 c16 15 53 30 89 36 101 19 145 37 145 60 0 16 -9 20 -47 21 -26 1 -60 -1 -74 -5z m-351 -421 c-4 -6 -12 -11 -18 -11 -7 0 -7 6 2 16 14 17 27 13 16 -5z m-158 -42 c3 -6 1 -11 -5 -11 -22 0 -28 -3 -74 -37 -57 -42 -82 -48 -114 -27 -12 7 -11 14 5 38 17 27 22 28 73 22 41 -5 58 -3 68 9 15 18 37 21 47 6z m475 -289 c-8 -26 -18 -37 -33 -37 -11 0 -29 -7 -39 -16 -15 -14 -21 -15 -40 -3 -34 21 -27 34 33 63 81 39 93 38 79 -7z m-407 -132 c0 -12 -5 -19 -10 -16 -6 4 -7 14 -4 22 8 22 14 19 14 -6z m-73 -10 c0 -6 -6 -10 -12 -10 -6 0 -8 4 -4 10 3 6 8 11 11 11 2 0 5 -5 5 -11z m-11 -52 c0 -12 -5 -21 -10 -21 -6 0 -11 9 -11 21 0 11 5 21 11 21 5 0 10 -10 10 -21z"/>
		<path d="M196 4403 c-13 -13 -7 -57 10 -63 22 -9 59 29 51 52 -7 18 -47 25 -61 11z"/>
		<path d="M9251 4389 c0 -12 13 -51 30 -87 17 -36 43 -110 57 -165 38 -142 72 -236 116 -320 21 -41 38 -88 38 -106 0 -39 9 -50 28 -35 29 25 16 97 -38 212 -29 60 -57 128 -62 151 -59 243 -106 363 -146 369 -18 3 -23 -2 -23 -19z"/>
		<path d="M12676 4373 c-13 -9 -24 -25 -24 -34 0 -10 -24 -41 -52 -69 -51 -50 -66 -81 -39 -80 7 0 41 24 76 52 59 50 63 52 68 30 3 -13 11 -25 18 -27 18 -6 32 27 36 86 4 52 3 53 -28 56 -17 1 -42 -5 -55 -14z"/>
		<path d="M11953 4363 c-7 -19 3 -37 22 -37 19 0 28 26 13 41 -16 16 -28 15 -35 -4z"/>
		<path d="M12896 4335 c-19 -12 -45 -23 -57 -24 -23 -1 -28 -8 -69 -102 -17 -38 -28 -49 -52 -54 -48 -10 -58 -70 -12 -70 16 0 19 -9 17 -62 -2 -66 13 -96 45 -96 30 0 45 27 37 66 -23 113 -16 164 20 134 19 -16 38 -6 38 21 0 11 6 21 14 21 7 0 22 9 33 21 10 11 24 21 31 21 7 0 25 13 41 30 17 17 37 28 45 25 19 -7 46 16 46 40 0 10 -11 26 -23 34 -20 14 -25 14 -47 0 -23 -15 -27 -15 -44 0 -24 22 -21 22 -63 -5z"/>
		<path d="M10904 4247 c-24 -23 -27 -32 -20 -70 4 -25 16 -65 27 -91 20 -46 20 -47 -2 -134 -21 -83 -21 -89 -4 -122 29 -57 62 -66 99 -27 25 28 28 82 6 144 -9 24 -12 44 -8 44 4 1 21 2 39 3 45 2 44 27 -2 78 -31 33 -44 41 -56 33 -23 -14 -28 -13 -36 14 -30 98 -26 113 34 113 28 0 34 3 32 18 -3 13 -16 19 -43 22 -31 2 -45 -3 -66 -25z m63 -298 c29 -56 15 -141 -17 -108 -13 13 -19 71 -12 110 7 36 9 36 29 -2z"/>
		<path d="M10509 4239 c-8 -7 -54 -49 -103 -92 -99 -87 -250 -203 -505 -388 -36 -26 -89 -70 -119 -97 -29 -28 -62 -53 -72 -56 -10 -3 -21 -17 -25 -31 -3 -15 -14 -26 -24 -26 -10 0 -23 -5 -30 -12 -7 -7 -27 -14 -45 -16 -31 -3 -27 3 76 115 60 65 124 139 142 165 19 26 50 69 69 95 19 25 59 87 90 136 31 49 68 99 82 111 25 21 26 57 1 57 -17 0 -67 -64 -149 -192 -98 -154 -188 -266 -336 -420 -67 -70 -77 -85 -70 -105 9 -22 14 -23 138 -21 97 2 133 6 145 18 21 21 8 46 -31 56 l-33 8 102 84 c57 46 123 97 146 114 24 16 55 40 70 53 14 13 47 37 72 54 138 92 195 136 361 275 57 49 81 76 81 93 0 30 -15 40 -33 22z"/>
		<path d="M3934 4109 c-10 -10 -9 -60 2 -72 11 -13 33 -94 38 -142 2 -20 7 -72 11 -115 11 -141 53 -265 102 -299 27 -19 83 -21 100 -4 7 7 30 12 51 11 46 -2 120 16 274 67 61 20 118 36 128 36 9 1 36 10 59 21 23 11 52 20 65 21 12 0 25 4 28 9 3 5 38 17 77 28 39 10 79 25 88 33 9 8 25 14 35 14 20 0 130 34 207 65 28 10 60 19 73 19 19 0 21 -4 15 -24 -4 -13 -13 -60 -19 -105 -9 -72 -8 -85 6 -99 10 -10 20 -15 23 -12 3 3 10 52 17 109 8 78 16 110 31 126 27 29 26 41 -6 56 -22 10 -40 7 -106 -14 -44 -15 -89 -26 -99 -26 -10 0 -42 -12 -71 -27 -29 -14 -59 -26 -68 -26 -8 0 -27 -9 -42 -21 -15 -12 -39 -21 -54 -21 -15 0 -45 -7 -65 -16 -21 -8 -49 -15 -62 -15 -14 0 -27 -5 -31 -10 -3 -5 -23 -12 -45 -17 -21 -4 -96 -25 -165 -48 -70 -22 -136 -41 -148 -41 -12 0 -26 -4 -31 -9 -19 -16 -97 -35 -117 -29 -12 4 -32 3 -46 -2 -85 -32 -134 68 -161 329 -19 186 -57 287 -94 250z"/>
		<path d="M12516 4042 c-7 -12 -9 -30 -6 -40 4 -12 -3 -23 -23 -35 -40 -22 -84 -32 -92 -19 -11 19 -35 11 -42 -13 -15 -54 -29 -81 -43 -81 -7 0 -24 -15 -37 -32 -18 -24 -32 -31 -58 -31 -25 0 -39 -8 -52 -27 -14 -22 -23 -26 -47 -21 -41 9 -59 -24 -36 -67 8 -16 22 -33 30 -36 17 -6 82 38 107 74 8 12 30 25 47 29 17 4 32 12 32 17 0 18 53 61 68 55 8 -3 24 -21 36 -41 15 -26 28 -36 47 -36 26 0 27 3 27 57 0 54 3 60 48 105 27 26 54 48 62 48 8 0 16 7 20 16 7 18 -2 47 -14 47 -5 0 -12 12 -15 26 -8 33 -43 35 -59 5z"/>
		<path d="M7458 4026 c-8 -21 14 -149 39 -225 10 -32 43 -110 74 -173 30 -64 66 -142 79 -173 13 -32 29 -59 35 -61 28 -10 6 65 -68 233 -69 157 -103 259 -127 392 -5 27 -22 31 -32 7z"/>
		<path d="M8959 4020 c6 -20 29 -23 29 -5 0 10 -7 17 -17 17 -9 0 -14 -6 -12 -12z"/>
		<path d="M11650 3911 c-52 -18 -104 -37 -116 -41 -45 -17 -75 -26 -120 -38 -70 -18 -111 -64 -71 -79 14 -5 276 74 296 90 6 5 38 17 72 27 65 21 81 37 59 62 -15 19 -4 21 -120 -21z"/>
		<path d="M5462 3898 c-6 -16 -11 -60 -10 -98 1 -62 4 -69 21 -65 10 3 21 18 25 33 3 15 10 41 15 58 15 47 12 87 -7 95 -27 10 -32 7 -44 -23z"/>
		<path d="M6605 3885 c-12 -12 -21 -31 -21 -43 0 -13 -20 -44 -43 -69 -36 -39 -42 -52 -39 -85 4 -49 31 -53 40 -7 9 45 18 57 43 57 17 0 21 5 17 21 -4 14 1 22 15 27 30 9 32 2 18 -53 -9 -34 -9 -52 -1 -60 16 -16 34 -1 34 28 0 39 20 75 48 88 34 16 32 16 40 -15 5 -19 1 -34 -10 -47 -12 -13 -15 -29 -10 -56 6 -30 2 -43 -20 -72 -46 -60 -60 -105 -46 -143 7 -19 20 -33 30 -33 20 0 35 28 20 37 -22 13 -9 64 26 110 47 60 73 87 75 77 5 -31 30 -105 39 -117 7 -9 13 -10 24 -1 18 15 19 64 2 81 -10 10 -8 13 9 13 12 0 25 -8 28 -16 4 -9 14 -16 23 -16 12 0 16 8 14 29 -3 21 -14 33 -38 45 -19 9 -31 20 -27 24 12 12 53 8 66 -8 19 -23 52 -30 69 -16 19 16 2 42 -28 42 -22 0 -25 25 -9 68 10 25 15 28 44 22 64 -13 135 -104 135 -173 0 -55 -51 -151 -100 -190 -53 -43 -98 -53 -228 -54 -60 0 -114 -4 -121 -8 -6 -4 -23 -31 -38 -60 -46 -92 -209 -239 -276 -249 -17 -3 -46 -12 -63 -21 -51 -25 -315 -76 -382 -73 -20 1 -73 3 -118 4 -45 1 -81 5 -81 8 0 8 85 43 105 43 8 0 41 10 72 21 65 25 197 27 274 4 29 -8 51 -10 57 -4 15 15 -13 41 -53 48 -20 4 -38 11 -41 15 -4 8 -93 5 -173 -5 -34 -4 -35 -4 -16 11 12 8 32 23 45 32 22 17 33 57 15 57 -5 0 -27 -14 -50 -31 -52 -38 -184 -108 -264 -141 -48 -19 -68 -22 -87 -15 -15 6 -85 14 -157 19 -73 4 -152 13 -177 18 -43 10 -48 9 -79 -22 -20 -20 -57 -40 -94 -51 -91 -28 -167 -49 -202 -56 -40 -9 -110 -82 -110 -116 0 -39 27 -31 61 19 32 45 83 71 143 71 26 0 146 44 215 79 30 16 53 17 157 11 67 -4 138 -10 156 -13 37 -6 47 -24 14 -24 -11 0 -23 -5 -27 -12 -4 -6 -32 -22 -64 -36 -33 -15 -56 -32 -56 -41 0 -20 14 -21 44 -2 13 9 54 25 91 37 37 12 76 30 86 39 17 15 25 15 94 -1 72 -16 195 -22 252 -12 14 2 64 10 110 16 46 7 102 19 123 28 22 8 50 15 63 15 42 0 166 54 243 106 76 50 137 114 188 194 l27 43 103 7 c60 3 129 15 164 27 65 23 67 22 73 -30 5 -50 -14 -194 -40 -303 -30 -129 -31 -141 -8 -137 39 8 95 316 85 463 -5 72 -5 75 42 154 64 106 66 152 11 235 -55 83 -100 113 -179 124 -36 4 -94 15 -129 24 -34 9 -104 17 -155 17 -78 0 -95 -3 -112 -21z m99 -42 c-2 -29 -14 -38 -22 -17 -3 9 -13 17 -21 17 -9 0 -13 5 -9 11 3 5 17 10 30 10 17 0 24 -6 22 -21z m90 1 c0 -5 -8 -12 -16 -15 -16 -6 -22 5 -9 18 10 10 25 8 25 -3z m67 -67 c0 -65 -10 -113 -24 -112 -4 0 -18 9 -32 19 l-25 20 28 18 c33 22 35 33 7 40 -25 6 -29 39 -6 39 9 0 22 9 29 21 7 12 15 21 18 21 3 0 6 -30 5 -66z m90 -10 l-23 -34 7 31 c8 38 29 66 35 48 2 -6 -6 -27 -19 -45z"/>
		<path d="M8585 3809 c-7 -79 -18 -323 -23 -494 -4 -151 10 -234 44 -256 35 -23 70 -14 82 20 12 36 1 48 -27 30 -15 -9 -25 -10 -33 -2 -23 22 -26 169 -11 450 13 227 14 289 3 302 -22 27 -29 17 -35 -50z"/>
		<path d="M7753 3839 c-3 -10 2 -37 12 -62 10 -24 44 -120 75 -212 59 -173 101 -272 119 -284 18 -11 25 26 11 56 -17 35 -102 274 -120 338 -24 79 -64 171 -78 176 -7 2 -15 -3 -19 -12z"/>
		<path d="M11289 3731 c3 -12 15 -21 34 -23 24 -2 29 1 26 16 -3 12 -15 21 -34 23 -24 2 -29 -1 -26 -16z"/>
		<path d="M502 3718 c-28 -23 -67 -94 -77 -142 -4 -17 -23 -46 -42 -65 -42 -39 -45 -52 -14 -60 13 -3 19 -10 14 -17 -4 -7 -1 -27 6 -45 12 -27 11 -34 -2 -44 -9 -6 -22 -22 -29 -35 -7 -13 -17 -23 -22 -23 -19 0 -11 47 11 65 26 23 27 62 1 85 -44 40 -50 24 -45 -110 4 -111 16 -124 68 -74 31 31 36 32 78 22 35 -7 51 -6 66 4 16 12 29 12 57 3 36 -11 48 -30 27 -43 -26 -16 -8 -89 21 -89 27 0 92 67 100 103 11 52 25 76 44 76 10 0 29 7 42 16 17 12 28 13 44 5 29 -16 59 -14 75 6 12 15 14 14 22 -6 10 -27 30 -24 46 8 19 37 46 62 81 75 19 7 47 20 63 29 16 8 37 12 47 9 9 -4 32 0 49 8 61 29 150 60 188 67 l39 6 0 -52 c0 -97 50 -107 83 -17 13 32 37 75 54 95 37 42 35 60 -7 61 -17 0 -39 4 -50 9 -12 6 -34 2 -63 -10 -75 -31 -84 -34 -138 -47 -29 -7 -65 -17 -79 -23 -27 -12 -34 -13 -143 -25 l-64 -7 1 41 c1 36 -1 40 -24 40 -21 0 -28 -9 -42 -49 -9 -27 -25 -58 -35 -69 -10 -11 -18 -25 -18 -32 0 -25 -34 -30 -58 -9 -22 20 -23 24 -10 43 20 28 19 68 -1 76 -29 11 -68 -15 -75 -49 -7 -36 -18 -47 -59 -57 -16 -3 -28 -13 -28 -22 0 -19 -70 -89 -90 -89 -8 0 -20 9 -26 21 -14 27 -27 26 -55 0 -29 -27 -58 -23 -84 11 -19 26 -19 28 1 74 11 25 40 65 64 88 78 74 87 119 35 166 -20 18 -22 17 -47 -2z m24 -94 c-12 -24 -29 -43 -37 -43 -13 0 -13 3 0 28 8 16 15 34 15 40 0 18 24 37 34 27 6 -5 0 -27 -12 -52z"/>
		<path d="M11903 3616 c-3 -4 -6 -16 -6 -27 0 -25 -12 -24 -45 2 -35 27 -39 27 -74 -10 -38 -40 -39 -92 -1 -137 32 -37 58 -38 67 0 3 15 15 28 27 30 11 2 32 15 47 28 14 14 39 30 55 36 36 13 37 39 2 55 -14 6 -26 16 -26 21 0 10 -35 12 -46 2z"/>
		<path d="M9234 3465 c-23 -12 -102 -42 -176 -68 -74 -25 -146 -54 -160 -63 -28 -18 -33 -42 -11 -55 8 -4 17 -27 20 -50 4 -23 12 -64 17 -89 25 -116 3 -243 -39 -226 -40 16 -52 16 -69 0 -34 -34 -10 -101 31 -86 9 4 18 0 22 -9 3 -8 15 -15 26 -15 15 0 20 7 20 33 0 18 8 43 19 55 29 32 44 85 43 152 -1 54 -20 176 -36 228 -6 19 -1 24 44 36 27 7 86 31 130 52 44 22 98 45 121 53 52 16 67 29 67 53 0 26 -17 25 -69 -1z"/>
		<path d="M12348 3455 c0 -5 5 -13 11 -16 5 -4 10 1 10 10 0 9 -5 16 -10 16 -6 0 -11 -4 -11 -10z"/>
		<path d="M1923 3400 c5 -33 30 -37 30 -4 0 18 -6 27 -16 27 -11 0 -16 -8 -14 -23z"/>
		<path d="M9317 3343 c-6 -16 3 -69 35 -193 8 -32 17 -103 21 -158 6 -87 4 -103 -12 -118 -17 -18 -20 -16 -49 28 l-30 46 -43 -13 c-24 -6 -48 -21 -54 -31 -15 -27 -3 -94 23 -132 45 -63 139 -29 189 68 24 48 27 63 24 160 -2 101 -39 290 -67 342 -12 22 -29 23 -37 1z m-32 -523 c-6 -29 -23 -35 -43 -14 -14 13 -16 49 -5 77 11 30 55 -27 48 -63z"/>
		<path d="M6218 3310 c-62 -3 -70 -7 -108 -44 -23 -23 -41 -49 -41 -58 0 -16 3 -15 32 1 17 11 31 22 31 27 0 26 238 36 330 13 22 -5 27 -3 27 13 -1 43 -16 49 -112 50 -51 0 -123 -1 -159 -2z"/>
		<path d="M1371 3165 c-13 -34 -6 -46 25 -46 36 0 47 12 37 42 -8 25 -52 28 -62 4z"/>
		<path d="M7423 3011 c-76 -51 -79 -104 -12 -176 51 -53 86 -55 147 -8 47 36 56 67 24 79 -23 9 -74 79 -74 102 0 13 -22 27 -42 27 -4 0 -24 -11 -43 -24z m47 -93 c6 -6 5 -14 -3 -22 -16 -16 -47 0 -52 28 -3 14 1 17 21 11 13 -5 29 -12 34 -17z"/>
		<path d="M8222 2941 c0 -6 4 -13 10 -17 6 -3 11 1 11 10 0 9 -5 17 -11 17 -6 0 -10 -5 -10 -10z"/>
		<path d="M105 2798 c0 -8 5 -15 11 -15 5 0 10 7 10 15 0 9 -5 16 -10 16 -6 0 -11 -7 -11 -16z"/>
		<path d="M7889 2588 c-9 -24 14 -44 76 -67 178 -67 364 -187 413 -267 40 -66 94 -280 80 -320 -3 -10 -21 -27 -40 -39 -22 -15 -33 -29 -31 -44 1 -17 -12 -28 -65 -54 -36 -18 -70 -33 -74 -33 -7 0 -196 -88 -247 -115 -11 -6 -15 -21 -13 -50 4 -48 -6 -55 -58 -48 -42 7 -46 34 -8 64 16 13 27 31 27 49 0 15 9 45 20 67 12 24 16 45 11 54 -16 26 -41 1 -59 -60 -9 -33 -30 -80 -46 -103 -48 -70 -66 -111 -54 -123 7 -7 41 -7 106 1 54 7 131 9 179 5 55 -4 84 -3 84 4 0 19 -27 34 -75 41 -26 3 -55 12 -65 20 -17 12 -18 17 -5 43 11 24 40 40 163 90 83 33 163 70 179 81 16 11 39 23 52 27 25 7 25 4 9 -183 -6 -62 -63 -189 -85 -189 -9 0 -20 -11 -26 -24 -21 -51 -61 -84 -182 -149 -55 -30 -88 -40 -143 -45 -95 -8 -123 1 -149 45 -23 39 -38 45 -47 20 -10 -26 18 -79 53 -101 128 -78 455 81 564 273 40 71 69 184 73 285 4 97 5 102 36 109 42 11 43 44 1 83 -35 32 -38 41 -53 141 -17 116 -29 147 -90 229 -56 74 -91 105 -163 142 -35 17 -86 45 -115 62 -29 17 -67 34 -84 38 -18 4 -54 18 -81 32 -59 29 -60 30 -68 9z"/>
		<path d="M11199 2588 c-9 -10 -16 -21 -16 -26 0 -14 -74 -139 -98 -165 -25 -27 -60 -32 -60 -8 0 9 10 24 22 34 56 47 81 160 38 169 -29 5 -54 -24 -86 -96 -39 -91 -41 -95 -69 -109 -16 -9 -31 -9 -43 -2 -18 9 -18 11 -2 36 26 41 6 54 -57 38 -66 -18 -96 -39 -113 -79 -24 -58 17 -96 67 -60 20 13 34 17 44 10 23 -14 70 -11 105 6 28 15 31 15 41 -5 7 -12 22 -21 35 -21 22 0 40 10 108 58 18 12 31 16 33 9 10 -30 32 -49 50 -42 15 5 17 15 11 58 -6 40 -2 66 16 115 30 82 17 122 -26 80z"/>
		<path d="M6584 2573 c-9 -5 -12 -13 -9 -17 10 -10 61 4 61 17 0 13 -32 13 -52 0z"/>
		<path d="M10073 2567 c-7 -18 14 -47 33 -47 20 0 29 32 15 49 -16 19 -40 18 -48 -2z"/>
		<path d="M6434 2565 c-32 -8 -20 -24 19 -24 26 0 36 4 33 13 -4 15 -24 19 -52 11z"/>
		<path d="M6505 2563 c-3 -6 -1 -13 4 -16 14 -9 44 5 37 16 -8 12 -33 12 -41 0z"/>
		<path d="M6267 2557 c-2 -2 -74 -9 -159 -14 -88 -6 -162 -16 -170 -23 -8 -7 -25 -9 -38 -5 -36 11 -19 -19 18 -32 54 -19 67 -31 70 -66 3 -40 14 -43 31 -7 10 22 8 31 -11 57 l-22 30 24 6 c12 3 50 9 83 13 l60 7 0 -29 c0 -21 -4 -27 -16 -23 -24 9 -37 -28 -31 -84 7 -60 12 -68 35 -64 11 2 18 -5 21 -20 3 -28 33 -57 33 -33 0 8 -6 21 -13 29 -11 11 -10 13 4 8 9 -3 21 -2 26 3 15 14 175 17 180 3 2 -6 -1 -15 -7 -18 -7 -4 -11 -25 -11 -46 0 -97 -118 -72 -141 30 -3 14 -3 0 -1 -32 7 -84 42 -102 136 -68 22 8 45 12 49 9 5 -3 28 0 52 7 24 6 85 12 135 12 51 0 110 4 133 9 33 8 43 6 54 -8 20 -26 16 -41 -18 -80 -37 -42 -42 -89 -13 -116 19 -16 22 -16 58 9 37 25 40 25 82 10 24 -8 46 -13 48 -11 7 7 83 -34 99 -52 20 -25 99 -57 139 -57 47 0 97 41 111 93 18 64 13 150 -10 188 -18 29 -27 34 -62 34 -47 0 -66 18 -39 37 9 7 17 18 17 24 0 21 24 26 156 30 73 2 179 9 236 15 96 11 102 13 99 34 -4 30 -55 35 -109 12 -29 -13 -86 -19 -201 -23 l-160 -6 0 28 c0 21 -5 28 -21 28 -15 0 -21 -7 -21 -26 0 -21 -7 -26 -42 -32 -48 -8 -63 -2 -63 27 0 30 -35 25 -76 -11 l-35 -30 -220 4 c-121 2 -293 4 -382 5 -129 1 -167 4 -189 18 -15 9 -29 18 -30 19 -2 1 4 15 13 32 8 17 18 43 21 59 9 43 43 55 176 59 16 1 29 8 29 15 0 9 -19 14 -56 16 -31 1 -58 0 -61 -3z m672 -253 c9 -7 -22 -46 -37 -46 -9 0 -26 -13 -38 -28 l-22 -28 -19 24 c-22 27 -25 80 -6 87 13 5 114 -3 122 -9z m215 -38 c-17 -41 -17 -44 2 -58 12 -8 32 -12 49 -8 41 9 64 -30 62 -108 0 -33 -4 -69 -7 -81 -21 -67 -89 -78 -162 -25 -61 44 -120 68 -185 77 -51 7 -55 9 -59 40 -8 52 3 75 69 143 65 67 67 69 89 55 12 -7 10 -18 -8 -53 -25 -50 -21 -80 12 -91 16 -5 27 -1 37 12 18 25 17 47 -2 47 -22 0 -20 20 5 57 15 23 31 33 60 37 22 4 43 5 47 3 5 -2 0 -23 -9 -47z m-371 20 c-1 -45 -109 -78 -147 -45 -15 14 -20 14 -46 0 -27 -14 -32 -13 -43 2 -12 17 -15 16 -45 -5 -34 -24 -55 -29 -55 -12 0 6 5 11 11 11 5 0 10 16 10 36 l0 37 158 0 c156 0 157 0 157 -24z m-353 -38 c-6 -31 -9 -32 -23 -18 -13 13 -14 21 -3 44 17 38 35 20 26 -26z m393 -139 c-4 -29 -29 -39 -29 -12 0 22 8 35 23 35 5 0 8 -11 6 -23z m-19 -57 c0 -19 -23 -15 -29 4 -2 7 3 13 12 13 10 0 17 -8 17 -17z"/>
		<path d="M13486 2536 c-4 -9 -15 -16 -27 -16 -11 0 -34 -7 -51 -16 -29 -15 -33 -15 -48 0 -9 9 -20 16 -25 16 -13 0 -42 -44 -42 -64 0 -10 -7 -20 -16 -24 -10 -4 -15 1 -15 14 0 37 -30 32 -68 -12 -39 -45 -43 -46 -63 -6 -28 56 -119 16 -106 -45 9 -38 -16 -43 -39 -8 l-15 24 -32 -34 c-17 -19 -34 -31 -38 -27 -4 4 -7 29 -7 57 0 34 -5 51 -15 55 -19 7 -46 -18 -54 -50 -8 -32 -66 -78 -152 -121 -37 -18 -82 -42 -99 -53 -18 -11 -35 -20 -40 -20 -12 -1 -9 29 5 51 11 18 10 24 -5 39 -21 21 -31 14 -48 -37 -14 -41 -15 -95 -4 -113 4 -7 28 -15 52 -19 43 -8 44 -7 63 33 24 51 106 98 125 71 18 -25 52 -18 81 16 20 24 35 31 61 31 68 -2 151 14 179 33 35 25 47 25 54 -1 8 -30 25 -26 62 16 23 25 42 37 62 37 16 0 41 4 56 10 27 10 27 10 25 -41 -2 -60 5 -74 38 -74 29 0 37 17 37 83 0 52 33 112 54 99 6 -4 25 4 42 17 17 12 38 20 47 17 21 -8 67 11 67 29 0 16 -55 49 -81 49 -8 0 -17 -8 -20 -16z"/>
		<path d="M5805 2526 c-2 -2 -72 -6 -156 -9 -178 -7 -365 -26 -391 -40 -10 -5 -27 -9 -38 -9 -33 0 -54 -12 -54 -29 0 -11 7 -14 24 -9 68 18 450 58 562 58 60 0 66 -2 60 -18 -17 -39 -17 -53 -3 -87 l14 -35 0 54 c0 38 6 61 20 76 11 11 17 23 15 25 -11 10 -49 26 -53 23z"/>
		<path d="M4247 2450 c-29 -33 -65 -81 -82 -107 -22 -35 -32 -43 -39 -33 -5 9 -2 30 8 52 26 62 26 68 -2 94 -25 24 -29 25 -81 13 -307 -70 -574 -129 -615 -135 -29 -5 -35 -1 -46 25 -7 16 -11 40 -10 53 6 55 -49 -3 -62 -65 -5 -26 -12 -32 -40 -35 -21 -2 -33 -9 -33 -18 0 -9 -6 -15 -12 -15 -12 0 -9 36 7 91 11 38 -24 30 -44 -10 -21 -42 -77 -102 -95 -102 -8 0 -14 17 -16 44 -3 40 -6 45 -29 45 -21 0 -32 -10 -50 -47 -13 -26 -21 -53 -19 -60 3 -8 -8 -22 -24 -33 -28 -21 -28 -21 -47 4 -10 13 -18 36 -18 50 0 49 -38 45 -114 -12 -20 -14 -51 -29 -69 -33 -24 -5 -31 -12 -29 -27 2 -12 -1 -16 -5 -9 -5 6 -17 14 -27 18 -25 9 -24 39 2 39 11 0 23 4 27 10 3 6 15 11 25 11 10 0 27 9 38 20 17 20 17 23 1 47 -26 39 -65 45 -117 18 -62 -33 -80 -23 -78 45 1 29 1 59 0 66 -1 20 -30 16 -35 -5 -18 -68 -27 -117 -25 -144 2 -30 -1 -32 -38 -33 -22 0 -42 3 -45 8 -3 5 0 37 6 72 13 70 7 105 -17 105 -21 0 -33 -35 -41 -118 -7 -79 -23 -102 -68 -102 -36 0 -49 -16 -31 -38 8 -10 27 -14 51 -13 l38 3 -4 -118 c-4 -115 2 -136 28 -105 12 15 29 127 25 162 -1 12 2 34 8 50 8 20 18 27 41 27 42 0 58 -23 51 -75 -7 -50 6 -93 28 -93 22 0 28 25 21 95 -6 53 -4 63 10 63 9 0 24 -15 33 -32 24 -46 60 -57 122 -36 28 9 56 14 62 10 5 -4 26 1 45 10 32 15 39 15 66 1 34 -18 71 -12 109 17 14 11 33 17 44 13 21 -6 55 9 90 40 25 23 30 19 37 -34 5 -45 34 -32 37 17 l4 44 59 11 c86 15 98 1 100 -115 2 -84 1 -88 -21 -92 -24 -3 -29 -17 -18 -48 4 -10 20 -16 42 -16 50 0 63 44 47 159 -16 121 -15 133 13 144 13 5 61 18 107 27 46 10 106 25 132 34 25 8 66 19 89 24 23 4 77 16 121 26 43 10 97 19 120 21 42 3 42 3 58 -45 12 -37 14 -64 8 -107 -5 -32 -7 -96 -6 -142 3 -66 7 -84 19 -84 11 0 18 18 23 63 10 80 58 177 89 182 18 3 24 -3 26 -26 4 -29 5 -29 93 -49 27 -6 63 -55 63 -85 0 -12 -10 -16 -35 -16 -50 0 -75 -22 -66 -57 13 -50 98 -31 134 30 28 47 66 58 94 28 11 -12 33 -25 48 -29 29 -7 149 12 191 31 18 8 26 8 33 -3 8 -14 28 -13 142 8 29 5 60 13 70 17 12 5 25 2 35 -9 23 -22 54 -21 86 4 28 22 51 29 40 11 -3 -5 -2 -18 4 -28 6 -11 23 -49 38 -84 24 -54 27 -71 18 -97 -9 -24 -7 -38 6 -65 21 -41 36 -48 59 -25 17 18 21 59 7 94 -13 32 -4 44 55 83 87 56 336 188 418 221 22 9 41 21 41 27 0 6 -2 11 -5 11 -18 0 -276 -126 -410 -200 -129 -71 -121 -69 -144 -41 -32 40 -48 75 -55 120 -7 39 -3 47 35 96 42 52 52 81 34 92 -18 11 -57 -30 -81 -84 -20 -46 -78 -122 -78 -102 0 3 -7 0 -15 -7 -20 -17 -40 -4 -32 21 8 25 -13 37 -35 19 -10 -8 -29 -20 -42 -28 -22 -12 -25 -11 -30 8 -8 29 -12 28 -51 -15 -19 -20 -42 -37 -51 -37 -10 0 -25 17 -35 37 -10 21 -25 37 -36 37 -10 0 -36 -17 -57 -37 -35 -34 -45 -37 -100 -37 -58 0 -62 2 -62 24 0 15 12 34 32 48 17 13 31 29 31 37 0 15 -43 38 -73 38 -23 0 -53 -37 -53 -65 0 -21 -27 -50 -46 -50 -8 0 -19 11 -25 24 -12 26 -92 70 -128 70 -42 0 -39 16 24 126 15 26 30 67 34 92 6 39 5 45 -13 45 -11 0 -43 -27 -72 -60z m306 -219 c9 -23 -13 -45 -29 -29 -13 14 -5 45 12 45 6 0 14 -7 17 -16z m-195 -152 c0 -6 -5 -10 -11 -10 -6 0 -10 4 -10 10 0 6 4 11 10 11 6 0 11 -5 11 -11z m892 -187 c0 -15 -2 -16 -10 -2 -14 21 -14 34 0 26 5 -3 10 -14 10 -24z"/>
		<path d="M10301 2384 c-16 -18 -33 -48 -37 -69 -5 -29 -11 -36 -30 -36 -12 0 -31 7 -42 15 -16 12 -17 18 -7 36 9 18 8 24 -5 29 -9 3 -23 1 -30 -6 -14 -11 -110 -64 -117 -64 -1 0 -6 9 -9 21 -7 27 -38 27 -85 -1 -34 -20 -38 -20 -62 -4 -25 16 -28 16 -48 -5 -12 -12 -22 -26 -22 -32 0 -20 30 -84 39 -84 5 0 24 17 44 37 38 40 58 45 86 20 17 -15 22 -15 67 5 43 19 52 20 72 7 12 -8 41 -17 63 -21 l40 -7 -37 -41 c-44 -48 -56 -86 -40 -122 26 -55 91 -13 122 77 9 27 17 56 17 65 0 9 15 24 34 33 29 13 35 22 39 63 3 25 9 51 12 57 9 15 -9 58 -23 58 -7 0 -25 -14 -41 -31z m-79 -269 c-15 -23 -47 -36 -47 -19 0 4 12 28 28 53 28 44 29 45 33 19 2 -15 -5 -39 -14 -53z"/>
		<path d="M8812 2397 c-13 -2 -40 -20 -60 -39 -50 -47 -50 -95 0 -205 42 -94 44 -105 16 -105 -34 0 -53 -12 -53 -33 0 -39 92 -16 117 30 16 29 -1 93 -40 153 -14 22 -29 56 -32 74 -4 29 -1 36 23 46 34 16 58 17 58 3 0 -22 32 -10 44 15 10 22 9 30 -7 47 -19 22 -23 22 -66 14z"/>
		<path d="M5922 2336 c-11 -13 -9 -15 9 -15 15 0 20 4 16 15 -4 9 -8 16 -9 16 -2 0 -9 -7 -16 -16z"/>
		<path d="M5670 2319 c-38 -5 -81 -7 -97 -4 -32 6 -36 -2 -15 -31 11 -15 18 -16 36 -7 12 7 33 12 46 12 44 0 156 23 156 33 0 11 -32 10 -126 -3z"/>
		<path d="M5990 2321 c-3 -6 1 -8 10 -5 18 7 22 15 7 15 -6 0 -13 -5 -17 -10z"/>
		<path d="M13440 2324 c-49 -18 -69 -71 -37 -98 33 -27 133 48 117 89 -6 16 -48 20 -80 9z"/>
		<path d="M1922 2279 c0 -6 7 -11 15 -11 9 0 16 5 16 11 0 5 -7 10 -16 10 -8 0 -15 -5 -15 -10z"/>
		<path d="M5849 2269 c0 -5 7 -15 15 -22 13 -11 16 -9 16 9 0 13 -7 23 -16 23 -8 0 -15 -5 -15 -10z"/>
		<path d="M13671 2250 c-26 -7 -54 -17 -63 -20 -31 -14 -56 -15 -71 -2 -22 19 -50 -20 -67 -92 -15 -71 -10 -78 68 -85 52 -4 59 -2 70 18 10 19 8 27 -12 48 -16 17 -27 22 -34 15 -14 -14 -38 -14 -38 0 0 7 9 14 21 17 11 3 27 16 35 29 12 18 23 23 47 19 17 -3 39 0 49 5 9 5 41 7 70 3 39 -5 57 -3 68 8 24 24 11 39 -33 42 -22 1 -46 4 -52 6 -6 2 -32 -3 -58 -11z"/>
		<path d="M7784 2249 c-24 -3 -40 -28 -29 -45 3 -5 17 -9 31 -9 40 0 99 -38 173 -112 38 -37 75 -67 82 -67 13 0 18 52 5 53 -5 0 -17 12 -27 25 l-18 26 37 -6 c24 -4 37 -2 37 6 0 19 -41 54 -63 54 -33 0 -72 21 -77 43 -4 13 -15 20 -35 20 -17 0 -45 3 -62 8 -17 4 -41 6 -54 4z"/>
		<path d="M6107 2229 c-12 -12 -7 -34 9 -34 9 0 16 6 16 15 0 17 -15 29 -25 19z"/>
		<path d="M5875 2181 c-8 -41 5 -70 33 -70 21 0 17 56 -6 85 l-20 25 -7 -40z"/>
		<path d="M8975 2197 c-25 -28 -63 -116 -56 -128 10 -16 43 -13 58 5 10 12 18 12 35 4 15 -9 32 -9 60 0 22 6 47 9 57 5 9 -3 28 1 41 10 23 15 37 17 107 19 21 0 83 -7 155 -19 30 -4 40 -2 45 11 4 10 2 23 -4 30 -6 7 -12 25 -14 40 -5 38 -54 42 -78 5 -17 -26 -19 -26 -42 -11 -28 18 -103 15 -140 -4 -14 -8 -23 -8 -27 -1 -12 19 -39 11 -75 -21 -20 -17 -41 -31 -46 -31 -18 0 -22 20 -7 49 8 16 13 35 10 42 -7 20 -60 16 -79 -5z m15 -57 c-8 -8 -12 -8 -12 -2 0 14 12 27 19 20 3 -3 0 -11 -7 -18z"/>
		<path d="M12345 2120 c-10 -6 -23 -8 -28 -4 -6 3 -21 0 -34 -8 -14 -7 -38 -13 -56 -13 -29 0 -32 -4 -35 -40 -3 -47 17 -60 55 -35 14 9 59 24 100 33 53 12 78 23 86 38 6 12 8 24 5 28 -12 11 -73 12 -93 1z"/>
		<path d="M13262 2068 c-21 -23 -45 -41 -54 -41 -10 0 -23 -8 -30 -16 -8 -9 -20 -16 -28 -16 -8 0 -14 7 -14 16 0 18 -27 21 -38 4 -4 -7 -11 -7 -21 2 -23 19 -48 -8 -44 -47 2 -25 9 -34 26 -36 14 -2 24 2 24 10 0 10 3 10 13 1 15 -16 57 -17 66 -2 3 5 18 10 32 10 15 0 39 12 54 27 19 19 29 24 35 15 4 -7 16 -11 27 -9 16 3 20 14 20 62 0 72 -18 78 -68 20z"/>
		<path d="M12019 2075 c-12 -14 -31 -37 -42 -52 -11 -17 -28 -28 -44 -28 -30 0 -47 -43 -26 -68 18 -22 25 -20 61 11 19 15 35 22 39 15 12 -20 37 -10 80 31 46 43 47 64 4 56 -25 -5 -26 -3 -20 27 5 26 3 33 -11 33 -10 0 -28 -11 -41 -25z"/>
		<path d="M11701 1927 c-12 -8 -47 -18 -78 -22 -32 -4 -69 -15 -83 -24 -14 -10 -34 -16 -44 -14 -10 2 -29 -3 -42 -9 -28 -15 -113 -21 -120 -8 -11 17 -54 8 -76 -16 -29 -30 -29 -49 -2 -49 12 0 24 -7 28 -16 7 -20 29 -20 61 1 16 10 27 12 31 5 5 -7 16 -6 35 1 16 6 42 13 58 15 16 2 40 10 53 17 12 7 26 12 31 11 4 -2 22 4 39 13 17 9 42 16 56 16 15 0 33 6 40 14 8 7 31 13 51 13 30 -1 37 3 40 23 3 17 -4 26 -24 34 -34 13 -28 13 -54 -5z"/>
		<path d="M12779 1881 c-49 -14 -80 -106 -36 -106 8 0 31 8 52 19 31 17 42 18 69 8 27 -10 34 -9 47 9 19 27 18 45 -4 56 -27 15 -99 22 -128 14z"/>
		<path d="M10211 1790 c-14 -32 -26 -62 -26 -67 0 -4 -12 -14 -27 -21 -20 -9 -26 -17 -21 -30 4 -10 8 -21 9 -24 4 -14 -79 -95 -93 -92 -12 3 -9 12 13 42 26 38 27 40 10 66 l-18 27 -30 -23 c-19 -14 -36 -40 -44 -69 -15 -50 -46 -91 -62 -82 -5 4 5 26 23 51 41 58 54 114 33 143 -20 29 -36 27 -69 -7 -41 -44 -110 -218 -99 -248 9 -23 100 -12 129 15 19 18 39 24 78 25 42 1 59 7 82 30 l29 28 12 -32 c14 -38 59 -44 77 -9 11 20 13 21 38 4 20 -13 33 -15 49 -8 14 6 44 5 81 -2 51 -10 57 -14 57 -37 0 -22 -5 -27 -35 -30 -28 -2 -34 -7 -31 -25 8 -53 80 -50 114 5 26 44 26 72 -1 106 -16 21 -32 28 -59 28 -20 0 -50 10 -67 21 -25 18 -33 20 -51 9 -27 -17 -39 -5 -25 26 7 15 24 28 44 31 41 9 59 41 43 80 -6 16 -9 41 -5 56 12 46 -35 99 -51 58 -3 -11 -7 -11 -18 0 -8 7 -25 13 -39 13 -20 0 -30 -11 -50 -58z m69 -57 c0 -6 -6 -11 -12 -11 -6 0 -8 5 -4 11 3 5 8 10 11 10 2 0 5 -5 5 -10z m-22 -66 c0 -23 -47 -106 -62 -111 -21 -7 -8 78 16 104 21 23 47 27 46 7z m-314 -13 c0 -21 -50 -100 -63 -100 -11 0 -2 31 26 84 17 34 37 42 37 16z"/>
		<path d="M12461 1806 c-10 -7 -18 -21 -18 -32 0 -11 -6 -32 -13 -47 -10 -22 -10 -29 3 -37 22 -14 37 -12 56 7 11 10 15 25 11 39 -6 19 -3 18 18 -8 24 -28 28 -29 64 -17 40 13 55 39 44 74 -5 18 -15 22 -50 21 -25 -1 -56 1 -70 4 -15 4 -35 2 -45 -4z"/>
		<path d="M4793 1794 c-86 -4 -224 -16 -305 -25 -81 -9 -220 -18 -308 -21 -88 -2 -164 -7 -168 -10 -5 -3 -6 -17 -4 -31 4 -22 10 -25 38 -21 18 2 104 8 191 14 346 24 322 24 316 4 -3 -11 -7 -68 -8 -129 l-4 -110 29 -4 c23 -2 30 2 35 23 4 15 3 32 -1 38 -3 6 -6 48 -6 92 0 121 -1 120 229 132 103 5 191 14 196 18 19 19 -3 42 -38 40 -19 0 -105 -5 -192 -10z"/>
		<path d="M13498 1747 c-50 -27 -68 -47 -68 -75 0 -17 7 -27 21 -31 31 -8 29 -78 -3 -92 -15 -7 -25 -22 -27 -40 -3 -28 -3 -28 58 -28 60 0 116 14 197 51 23 10 54 22 69 26 66 16 119 74 86 94 -5 3 -46 -5 -92 -18 -148 -43 -141 -42 -141 -10 0 15 7 36 16 46 15 17 15 20 -1 33 -10 7 -28 24 -41 37 -28 28 -33 28 -74 7z"/>
		<path d="M5951 1726 c-16 -8 -33 -24 -39 -34 -7 -14 -18 -18 -36 -15 -14 3 -42 0 -61 -6 -19 -6 -58 -14 -87 -17 -29 -3 -86 -14 -126 -23 -190 -45 -299 -74 -312 -84 -60 -46 -138 -54 -173 -19 -21 21 -56 19 -87 -5 -26 -20 -27 -20 -49 1 -13 12 -56 28 -107 38 -80 16 -86 16 -105 0 -10 -10 -26 -19 -34 -19 -20 0 -54 -48 -50 -70 2 -10 19 -22 38 -26 40 -11 61 1 76 41 20 51 136 19 136 -38 0 -38 28 -37 79 5 26 21 49 37 50 35 1 -2 8 -14 14 -25 9 -17 23 -21 76 -23 46 -1 68 4 77 15 12 14 14 12 19 -9 13 -55 110 -21 117 41 4 31 18 38 167 77 149 40 315 70 315 56 0 -2 -6 -16 -13 -31 -17 -38 4 -82 36 -77 20 3 25 12 29 50 3 25 11 48 18 50 8 3 14 -2 14 -10 0 -23 39 -54 71 -57 16 -1 30 -2 32 -3 2 0 -2 -7 -9 -16 -17 -21 -3 -57 26 -64 39 -10 65 4 84 43 16 35 18 36 42 20 14 -9 29 -26 32 -37 10 -32 52 -36 95 -9 29 18 43 21 61 13 17 -8 32 -7 59 8 23 11 44 15 57 10 12 -4 62 -6 110 -4 83 2 91 1 115 -23 26 -26 26 -27 9 -57 -27 -44 -23 -81 13 -116 36 -36 53 -39 79 -10 17 19 18 27 7 71 -29 110 -30 101 10 93 26 -5 45 -1 71 15 31 19 40 20 66 9 22 -9 35 -9 42 -2 13 13 51 5 51 -10 0 -6 8 -16 17 -23 15 -11 15 -21 3 -93 -10 -61 -11 -84 -2 -93 10 -9 16 -9 28 0 15 13 24 50 34 149 5 53 3 60 -25 90 -25 27 -39 33 -75 34 -30 0 -49 6 -58 18 -8 11 -20 16 -30 12 -10 -4 -20 -2 -24 3 -7 13 -50 14 -63 1 -5 -5 -22 -11 -36 -13 -20 -3 -27 1 -29 19 -5 29 -22 36 -71 28 -28 -5 -41 -14 -48 -32 -9 -24 -13 -26 -49 -18 -22 5 -58 8 -80 7 -23 -1 -47 3 -55 9 -15 12 -57 3 -70 -16 -7 -8 -11 -8 -14 2 -9 20 -40 15 -82 -13 -44 -31 -48 -31 -48 -13 0 19 -42 56 -71 63 -13 3 -41 1 -61 -5 -26 -7 -55 -6 -95 3 -51 12 -57 16 -52 35 19 64 19 88 -1 98 -14 8 -28 7 -48 -4z"/>
		<path d="M12205 1722 c-12 -5 -32 -26 -44 -46 -23 -39 -37 -47 -50 -27 -3 6 -19 10 -34 8 -26 -3 -28 -1 -25 31 4 36 -16 47 -38 21 -18 -23 -33 -116 -22 -136 14 -26 48 -24 62 3 12 21 13 21 33 3 20 -18 23 -18 52 -2 17 10 31 14 31 8 0 -26 41 -6 67 33 28 42 28 44 12 79 -10 19 -18 35 -20 35 -1 -1 -12 -5 -24 -10z"/>
		<path d="M13193 1716 c-17 -10 -43 -24 -57 -32 -15 -8 -34 -14 -44 -14 -21 -1 -39 -21 -67 -77 -15 -29 -32 -46 -53 -53 -17 -5 -38 -16 -47 -24 -9 -8 -27 -14 -40 -14 -13 0 -34 -6 -45 -12 -16 -8 -25 -8 -33 0 -35 35 -86 -4 -79 -59 5 -43 31 -52 80 -26 23 12 45 19 48 16 3 -4 18 1 32 11 14 9 35 17 45 17 11 0 29 6 40 14 11 8 35 18 52 22 17 4 52 18 79 30 69 32 149 59 176 60 23 0 23 -3 17 -58 -8 -63 6 -80 46 -59 18 10 20 21 17 92 -4 99 -13 111 -65 82 -23 -12 -56 -20 -81 -20 -23 1 -45 -3 -49 -9 -14 -22 -22 3 -10 30 7 17 20 26 36 26 39 0 93 31 89 51 -4 24 -49 27 -87 6z"/>
		<path d="M13759 1706 c-4 -10 -2 -22 4 -28 17 -16 45 -2 45 23 0 26 -40 29 -49 5z"/>
		<path d="M10961 1707 c-3 -3 -27 -10 -52 -16 -85 -17 -192 -52 -208 -68 -12 -12 -13 -19 -3 -30 11 -13 28 -10 120 19 59 19 136 41 170 49 77 17 88 43 21 48 -23 2 -45 1 -48 -2z"/>
		<path d="M3969 1691 c0 -6 5 -11 11 -11 6 0 8 5 5 11 -4 5 -9 10 -11 10 -3 0 -5 -5 -5 -10z"/>
		<path d="M11704 1524 c-26 -31 -29 -43 -18 -64 9 -16 16 -19 30 -12 10 5 32 7 50 4 21 -3 37 1 46 12 17 21 7 48 -20 48 -11 0 -23 4 -26 9 -11 18 -47 20 -62 3z"/>
		<path d="M12254 1387 c-6 -12 -15 -38 -19 -60 -10 -49 -34 -60 -34 -16 0 36 -12 48 -41 39 -19 -6 -28 -24 -42 -78 -9 -38 -37 -51 -59 -29 -24 24 -65 15 -97 -21 -26 -30 -30 -59 -10 -76 23 -19 121 -2 154 26 17 14 43 25 59 25 16 0 38 8 48 17 17 15 73 33 130 40 11 1 31 8 44 15 12 6 34 12 49 12 14 0 39 7 56 15 16 9 42 18 58 21 20 4 31 15 35 33 9 35 -10 56 -35 39 -35 -25 -87 -44 -103 -38 -8 3 -28 1 -44 -5 -16 -6 -43 -14 -61 -18 -31 -6 -32 -5 -28 27 8 49 -38 73 -60 32z"/>
		<path d="M788 1338 c1 -12 3 -15 7 -6 3 7 2 16 -1 20 -4 3 -6 -3 -6 -14z"/>
		<path d="M13225 1195 c-18 -6 -51 -14 -74 -19 -40 -9 -151 -44 -202 -64 -16 -6 -23 -18 -23 -37 l0 -28 -78 6 c-63 6 -80 4 -91 -9 -10 -12 -11 -22 -3 -34 13 -20 56 -30 56 -13 0 9 6 9 22 0 30 -16 61 -6 102 32 19 17 47 34 63 37 16 3 42 11 60 17 17 6 71 24 120 41 102 36 117 46 95 66 -12 11 -24 12 -47 5z"/>
		<path d="M7340 898 c0 -9 4 -16 10 -16 5 0 7 7 4 16 -4 8 -8 16 -10 16 -3 0 -4 -8 -4 -16z"/>
		<path d="M11089 839 c-18 -18 -40 -46 -49 -63 -8 -16 -42 -47 -76 -68 -33 -21 -76 -53 -96 -72 -72 -65 -147 -71 -147 -11 0 36 23 50 56 35 23 -10 31 -9 48 7 27 24 27 54 0 68 -31 17 -109 -20 -136 -65 -24 -40 -26 -69 -9 -108 16 -36 56 -44 110 -24 31 10 48 12 56 5 18 -19 64 9 64 38 0 25 35 81 52 81 5 0 6 -29 3 -63 -7 -79 5 -96 64 -94 32 2 52 11 77 33 l33 32 29 -23 28 -22 23 21 c21 19 25 20 37 6 18 -22 39 -21 71 5 l27 21 14 -32 c7 -17 18 -31 23 -32 21 0 44 14 44 25 0 7 11 26 25 44 l25 31 11 -28 c6 -16 24 -37 39 -47 27 -17 29 -17 73 6 47 25 73 64 63 95 -5 15 -22 20 -87 24 -74 6 -85 4 -121 -20 -24 -15 -48 -23 -59 -19 -11 3 -37 -2 -57 -12 -37 -18 -38 -18 -58 7 -20 24 -21 25 -41 7 -25 -22 -41 -23 -52 -2 -7 12 -24 15 -61 13 -48 -3 -54 -6 -67 -37 -10 -21 -23 -34 -35 -34 -17 0 -19 5 -13 34 16 75 45 123 93 152 58 36 74 65 52 96 -21 31 -38 28 -76 -10z m514 -219 c0 -22 -26 -29 -37 -11 -9 14 3 32 21 32 9 0 16 -10 16 -21z"/>
		<path d="M4038 811 c-80 -27 -120 -81 -69 -94 25 -7 26 -12 5 -35 -21 -23 -29 -167 -10 -167 8 0 16 7 19 15 7 18 39 22 39 6 0 -6 -5 -11 -10 -11 -5 0 -12 -9 -15 -21 -3 -11 -17 -25 -32 -31 -24 -9 -27 -15 -21 -40 10 -40 13 -44 36 -44 10 0 22 -5 26 -11 11 -18 24 -12 42 19 14 24 23 29 49 25 19 -3 37 2 49 13 17 15 21 15 33 1 15 -18 45 -21 73 -6 14 8 23 6 32 -5 17 -20 57 -20 74 0 7 9 19 16 26 16 8 0 23 13 35 29 l21 28 -2 -40 c-1 -45 18 -63 47 -45 13 8 25 8 42 -1 14 -7 37 -14 51 -16 21 -2 27 3 29 25 3 22 -4 34 -29 51 -18 13 -32 31 -31 41 4 34 -1 44 -21 44 -16 0 -21 7 -21 26 0 44 -27 41 -77 -7 -34 -33 -49 -58 -54 -88 l-8 -42 -23 40 c-23 40 -62 53 -87 27 -14 -14 -35 -3 -35 18 0 8 -6 15 -14 15 -18 0 -78 30 -86 42 -3 5 -14 6 -24 3 -13 -3 -26 5 -37 22 -17 26 -17 26 28 48 61 29 82 77 63 145 -7 29 -38 30 -113 5z m55 -82 c-32 -18 -61 -7 -61 23 0 15 6 25 16 25 8 0 16 5 16 11 0 6 11 -2 25 -18 25 -30 25 -30 4 -41z m-19 -246 c0 -51 -8 -52 -39 -8 -25 35 -19 49 21 50 14 0 18 -9 18 -42z"/>
		<path d="M10007 822 c-42 -15 -113 -110 -124 -164 -8 -42 -53 -91 -83 -91 -13 0 -28 -7 -32 -16 -5 -9 -26 -19 -47 -22 -34 -6 -38 -4 -44 22 -4 17 -2 35 5 43 15 18 53 20 70 3 10 -10 17 -8 34 7 40 36 22 58 -48 58 -28 0 -46 -11 -83 -46 -53 -51 -61 -88 -26 -122 31 -32 78 -26 171 20 l82 41 46 -31 c40 -27 49 -29 73 -18 23 10 29 9 42 -8 12 -16 17 -18 28 -7 7 7 26 13 41 13 35 0 58 24 39 39 -7 6 -23 13 -34 15 -16 3 -20 11 -18 33 2 16 -1 36 -8 43 -18 22 -63 7 -80 -26 -21 -42 -53 -57 -66 -33 -9 15 1 29 57 81 61 58 68 67 68 106 0 57 -20 76 -63 60z m9 -76 c-27 -47 -83 -106 -83 -86 0 37 65 128 92 128 11 0 9 -11 -9 -42z"/>
		<path d="M6238 762 c-8 -21 -9 -40 -2 -59 8 -23 4 -40 -17 -85 -34 -75 -43 -156 -19 -180 27 -28 76 -21 151 20 l68 39 18 -23 c17 -20 17 -25 2 -68 -9 -25 -14 -53 -10 -63 10 -25 83 -24 106 2 16 18 16 24 2 65 -14 43 -14 45 8 63 15 13 27 15 35 8 20 -16 50 7 72 54 10 23 16 46 12 49 -12 13 -57 -7 -110 -49 -69 -55 -103 -41 -54 22 25 32 26 54 1 77 -45 41 -106 -1 -107 -73 0 -39 -3 -43 -52 -71 -68 -38 -109 -35 -114 7 -4 39 17 89 42 103 14 7 18 17 14 31 -5 15 -1 20 14 20 19 0 21 7 22 68 0 61 -2 69 -20 69 -14 0 -21 -8 -21 -21 0 -29 -19 -27 -24 2 -4 22 -4 22 -17 -7z"/>
		<path d="M4986 743 c0 -7 0 -27 1 -45 1 -17 -6 -53 -15 -78 -10 -26 -24 -80 -33 -120 -14 -66 -13 -74 3 -92 26 -30 43 -24 67 24 19 36 22 55 16 103 -6 51 -4 61 16 77 18 16 21 26 15 63 -11 73 -16 81 -43 81 -14 0 -26 -6 -27 -13z"/>
		<path d="M5568 722 c-13 -13 -30 -41 -39 -62 -19 -46 -33 -52 -83 -37 -34 11 -38 16 -38 47 0 22 -7 36 -18 41 -25 9 -45 -25 -45 -76 0 -23 -5 -47 -10 -53 -6 -5 -12 -33 -13 -62 -3 -48 -2 -53 20 -56 19 -3 26 5 40 39 13 33 23 43 41 43 13 0 38 3 56 6 27 6 33 3 46 -23 12 -25 21 -30 51 -30 20 0 42 -4 49 -9 7 -4 31 -3 52 3 21 5 43 7 50 3 6 -4 30 -8 53 -9 23 -1 53 -5 66 -9 27 -9 41 14 28 44 -4 10 -8 31 -9 45 -1 35 -44 42 -65 11 -18 -25 -38 -28 -56 -6 -12 14 -17 14 -45 -2 -31 -18 -32 -18 -47 5 -9 13 -25 24 -36 24 -26 0 -25 13 8 62 15 23 25 50 23 60 -5 29 -52 30 -79 1z"/>
		<path d="M8090 735 c-9 -14 3 -31 22 -31 8 0 15 9 15 21 0 21 -25 28 -37 10z"/>
		<path d="M7242 726 c-22 -4 -24 -43 -3 -70 9 -12 16 -36 16 -55 0 -23 6 -34 16 -34 9 0 16 5 16 11 0 5 6 10 14 10 16 0 46 123 33 135 -7 7 -62 9 -92 3z"/>
		<path d="M6833 697 c-4 -3 -4 -13 -1 -21 4 -10 -2 -14 -21 -14 -14 0 -45 -13 -69 -29 -48 -31 -58 -60 -18 -50 22 6 26 2 32 -23 12 -50 33 -70 73 -69 20 1 42 -5 49 -14 33 -39 84 5 84 74 0 37 -5 49 -23 59 -21 11 -27 8 -61 -31 -42 -49 -50 -52 -70 -25 -22 29 -18 55 10 55 13 0 37 14 54 31 25 26 28 34 16 47 -13 17 -44 22 -55 10z"/>
		<path d="M7664 652 c-46 -46 -123 -106 -135 -106 -6 0 -11 5 -11 12 0 7 -13 9 -37 4 -26 -5 -42 -2 -53 9 -21 22 -72 5 -141 -47 -20 -15 -45 -30 -55 -34 -21 -7 -14 -38 9 -38 8 0 41 17 73 38 59 39 67 39 81 -2 3 -6 24 1 49 14 l44 25 25 -23 24 -23 47 49 47 49 7 -38 c9 -45 43 -67 78 -49 14 8 23 8 28 2 8 -14 53 -14 80 0 17 9 26 8 41 -6 18 -16 22 -16 64 3 25 11 57 33 71 48 28 31 43 35 43 14 0 -30 44 -71 72 -68 16 1 40 -6 54 -15 37 -26 57 -24 47 5 -4 13 -10 49 -13 79 -6 74 -42 74 -61 0 -4 -16 -10 -29 -14 -29 -18 1 -31 19 -38 53 -9 51 8 64 86 60 55 -2 61 -1 61 18 0 19 -8 22 -86 24 -59 2 -87 0 -87 -8 0 -14 -137 -147 -151 -147 -5 0 -15 8 -23 18 -12 17 -15 17 -49 -2 -33 -17 -39 -18 -60 -3 -12 9 -32 14 -43 11 -15 -4 -21 2 -26 32 -7 37 8 81 27 81 6 0 8 4 5 10 -12 19 -52 9 -80 -20z"/>
		<path d="M7844 662 c0 -15 6 -21 21 -21 27 0 24 34 -3 40 -13 2 -18 -4 -18 -19z"/>
		<path d="M4347 651 c0 -6 7 -10 16 -10 8 0 16 4 16 10 0 6 -8 11 -16 11 -9 0 -16 -5 -16 -11z"/>
		<path d="M10195 600 c-17 -17 -31 -39 -31 -48 0 -23 29 -33 62 -20 19 7 34 7 46 -1 12 -8 27 -7 49 1 18 7 34 8 37 3 3 -4 42 -8 87 -7 61 2 81 6 81 17 0 20 -67 54 -95 47 -13 -3 -26 -1 -30 5 -4 7 -19 6 -43 -4 -46 -20 -45 -20 -49 8 -3 19 -11 24 -43 27 -32 3 -45 -2 -71 -28z"/>
		<path d="M9086 612 c-29 -6 -77 -50 -77 -71 0 -9 12 -29 26 -43 28 -28 66 -32 116 -11 25 11 36 11 57 -1 15 -7 42 -13 61 -13 27 0 34 4 34 21 0 15 -7 21 -26 21 -31 0 -33 7 -9 33 14 15 16 25 7 38 -19 31 -44 27 -67 -12 -17 -29 -31 -38 -62 -44 -56 -9 -113 27 -68 44 9 3 22 -2 31 -14 13 -17 16 -17 26 -3 15 23 13 49 -6 56 -9 4 -18 6 -18 5 -1 -1 -12 -3 -25 -6z"/>
		<path d="M8705 541 c0 -75 17 -98 49 -65 13 12 21 13 35 4 15 -9 28 -8 56 5 29 14 42 16 67 6 17 -6 39 -8 48 -5 22 8 23 39 2 39 -9 0 -22 9 -29 21 -7 12 -21 21 -30 21 -9 0 -25 -9 -36 -21 -24 -27 -43 -27 -50 1 -4 14 -13 21 -25 18 -11 -2 -24 5 -30 18 -6 11 -21 22 -34 24 -22 3 -23 0 -23 -66z"/>
		<path d="M11815 556 c-16 -26 -9 -41 19 -41 26 0 38 26 20 47 -17 21 -23 20 -39 -6z"/>
		<path d="M10320 467 c-4 -3 -130 -6 -281 -5 -239 0 -275 -2 -281 -16 -3 -9 -4 -19 -1 -22 5 -5 557 -5 691 -1 50 2 57 5 57 23 0 19 -8 22 -89 24 -50 2 -93 1 -96 -3z"/>
		<path d="M8805 453 c-8 -14 21 -35 43 -31 30 6 23 34 -9 38 -15 2 -30 -1 -34 -7z"/>
		<path d="M10295 399 c-57 -4 -203 -6 -323 -5 -215 2 -219 2 -215 -19 2 -14 14 -25 34 -30 41 -11 460 -14 612 -4 101 7 118 11 124 28 13 43 -1 45 -232 30z"/>
	</g>
</svg>
