<?xml version="1.0" encoding="utf-8"?>
<svg xmlns="http://www.w3.org/2000/svg" height="196.800000pt" preserveAspectRatio="xMidYMid meet" version="1.0" viewBox="0 0 257.203192 196.800000" width="257.203192pt">
	<metadata>
Created by Potrace Professional 1.1m
</metadata>
	<g fill="#000000" stroke="none" transform="translate(-3.170320,200.880000) rotate(-360.00) scale(0.022857,-0.022857)">
		<path d="M3468 8716 c-57 -55 -79 -86 -96 -132 -40 -105 -23 -233 33 -258 21 -10 34 -8 67 9 23 12 47 28 53 35 18 22 118 227 119 242 0 8 4 21 10 30 8 13 12 12 26 -8 23 -33 55 -48 111 -55 l47 -6 0 -68 c0 -75 22 -126 55 -126 10 0 45 27 79 60 57 57 61 59 53 29 -29 -111 29 -148 107 -68 22 23 44 42 48 42 4 0 12 -14 18 -31 16 -45 50 -51 88 -15 18 17 39 46 47 64 15 36 41 49 30 15 -3 -11 4 -42 15 -69 l21 -49 74 7 c71 7 73 7 85 -20 23 -50 45 -35 59 37 9 50 20 72 44 95 28 26 35 61 13 61 -19 0 -56 -38 -76 -76 -16 -32 -25 -40 -39 -34 -20 9 -45 9 -93 -1 -41 -9 -57 14 -53 75 2 33 -2 41 -19 44 -11 2 -31 16 -43 31 -32 39 -61 26 -52 -24 5 -26 1 -50 -14 -84 -21 -48 -42 -62 -44 -29 -1 10 -2 30 -3 45 -3 47 -36 38 -101 -26 -38 -38 -63 -56 -68 -48 -4 6 -1 37 6 69 12 52 11 60 -5 76 -16 16 -22 13 -90 -55 -90 -89 -100 -85 -90 29 8 77 9 79 54 117 31 26 46 47 46 64 0 36 -19 42 -33 11 -18 -39 -29 -33 -27 12 3 62 -16 53 -40 -20 l-22 -66 -51 -3 c-49 -4 -51 -2 -104 55 -30 32 -59 58 -65 58 -5 0 -19 -39 -30 -87 -23 -100 -94 -243 -135 -274 -59 -44 -101 16 -85 121 12 78 66 151 148 202 51 31 62 70 21 70 -16 0 -50 -26 -99 -73z"/>
		<path d="M5502 8632 c-6 -11 -10 -38 -10 -59 0 -21 -18 -90 -38 -153 -21 -63 -36 -121 -32 -130 9 -24 37 -19 48 8 6 13 18 42 28 65 l17 42 9 -30 c18 -63 73 -89 119 -55 15 11 27 11 50 2 26 -9 38 -7 85 18 30 16 67 29 81 29 15 0 36 6 48 14 28 20 99 27 99 11 0 -7 -9 -42 -20 -78 -21 -67 -20 -94 5 -94 19 0 60 81 52 101 -3 9 2 47 10 84 9 38 13 73 10 78 -10 16 -32 11 -52 -12 -14 -15 -27 -20 -45 -15 -18 4 -33 -1 -51 -18 -25 -23 -27 -23 -40 -6 -19 26 -35 23 -64 -12 -14 -17 -40 -35 -57 -42 -27 -9 -34 -8 -45 10 -17 28 -38 26 -72 -8 -35 -32 -40 -29 -48 26 -5 36 -2 42 17 47 28 8 28 35 0 50 -17 9 -27 8 -48 -5 -14 -10 -28 -16 -30 -14 -1 2 4 33 13 68 9 36 13 73 10 82 -9 22 -36 20 -49 -4z"/>
		<path d="M6428 8537 c-1 -58 -6 -80 -24 -105 -20 -27 -21 -35 -11 -60 7 -17 11 -65 10 -108 -3 -67 -1 -79 14 -82 11 -2 26 8 35 22 17 25 19 60 13 159 -2 33 2 43 17 46 30 5 70 -27 70 -57 0 -39 30 -45 59 -12 32 37 44 36 48 -6 5 -53 36 -44 65 20 14 30 22 58 18 64 -12 18 -92 10 -116 -13 l-24 -21 -31 40 c-24 30 -39 39 -63 39 -32 0 -32 0 -26 47 8 58 -6 100 -33 100 -18 0 -21 -8 -21 -73z"/>
		<path d="M7763 8576 c-12 -13 -31 -43 -43 -67 -18 -36 -20 -51 -12 -94 6 -31 20 -62 38 -80 31 -33 47 -37 66 -14 10 12 7 25 -15 64 -30 54 -34 78 -13 78 7 0 23 7 34 15 17 13 18 19 7 36 -7 12 -8 24 -3 27 5 4 13 2 16 -4 10 -17 37 -13 37 5 0 9 -11 20 -25 26 -14 5 -29 14 -32 20 -11 18 -32 13 -55 -12z"/>
		<path d="M5010 8467 c-39 -47 -63 -133 -43 -156 17 -22 31 -20 59 7 l24 22 27 -28 c26 -28 51 -30 84 -7 30 22 48 20 57 -4 7 -19 21 -28 49 -33 35 -7 42 -4 65 22 30 36 26 89 -10 127 -29 32 -41 31 -72 -2 -31 -32 -114 -80 -127 -72 -5 3 -9 27 -9 52 0 38 -4 47 -20 47 -11 0 -26 -15 -36 -37 -10 -20 -22 -36 -28 -36 -20 0 -11 26 21 61 18 20 31 43 29 52 -6 32 -37 25 -70 -15z m297 -108 c9 -14 -5 -43 -20 -43 -19 0 -40 28 -32 42 8 13 44 14 52 1z"/>
		<path d="M7439 8486 c-54 -45 -71 -109 -36 -131 13 -8 30 -1 72 28 31 21 60 38 65 38 5 0 10 -13 10 -29 0 -41 22 -70 48 -61 26 8 80 85 76 108 -6 27 -37 29 -46 4 -9 -31 -23 -27 -43 12 -10 19 -23 38 -29 42 -22 14 -95 8 -117 -11z m24 -56 c-2 -7 -10 -15 -17 -17 -7 -3 -10 2 -6 12 8 19 29 23 23 5z"/>
		<path d="M6974 8482 c-20 -20 -15 -47 14 -65 28 -18 35 -57 14 -77 -15 -15 -4 -45 16 -45 9 0 31 22 49 48 36 52 63 58 73 15 10 -42 43 -38 73 8 l25 39 9 -33 c13 -51 34 -63 77 -42 34 16 46 36 30 52 -4 4 -14 2 -21 -4 -24 -20 -44 -3 -48 40 -3 31 -8 40 -26 43 -14 2 -29 -6 -39 -21 l-17 -23 -30 28 -29 29 -28 -21 c-36 -29 -55 -27 -81 10 -24 34 -41 39 -61 19z"/>
		<path d="M2735 8189 c-104 -10 -238 -24 -299 -30 -61 -6 -150 -13 -199 -16 -108 -6 -147 -16 -162 -41 -10 -15 -7 -22 13 -39 14 -11 28 -18 32 -15 12 7 317 56 458 73 141 17 341 30 482 32 76 0 95 4 104 18 18 28 -5 46 -34 28 -17 -11 -24 -11 -34 -1 -18 18 -128 15 -361 -9z"/>
		<path d="M6006 8088 c-96 -12 -178 -61 -148 -90 10 -10 17 -8 33 11 11 14 36 27 57 31 l37 6 -21 -49 c-27 -64 -45 -175 -31 -190 14 -14 62 44 62 76 0 21 5 24 39 20 50 -6 85 10 104 47 43 83 -22 151 -132 138z m76 -60 c11 -8 19 -27 19 -47 0 -32 -2 -32 -47 -32 l-47 0 10 32 c9 33 28 62 40 62 4 -1 15 -7 25 -15z"/>
		<path d="M2617 8051 c-6 -7 -10 -46 -9 -87 1 -49 -4 -90 -17 -123 -10 -28 -18 -62 -18 -77 0 -31 27 -45 47 -24 22 22 58 206 51 256 -10 61 -31 83 -54 55z"/>
		<path d="M2834 8046 c-1 -4 -3 -44 -4 -87 -2 -43 -5 -90 -7 -104 -6 -38 17 -38 61 2 81 72 119 76 119 12 0 -28 8 -46 32 -69 30 -31 34 -32 94 -25 56 7 65 5 81 -14 16 -18 110 -54 141 -54 14 0 10 49 -4 60 -7 6 -26 14 -42 18 -37 8 -37 32 -1 50 15 8 32 21 38 30 17 27 0 71 -34 88 -27 15 -32 14 -56 -5 -15 -11 -35 -42 -46 -67 -18 -43 -23 -48 -64 -54 -45 -7 -76 6 -76 31 0 34 -24 92 -43 101 -16 9 -32 6 -73 -15 l-52 -26 0 39 c0 47 -20 90 -45 95 -10 1 -19 -1 -19 -6z m471 -152 c4 -17 -36 -47 -47 -36 -3 3 -2 18 1 33 8 31 41 33 46 3z"/>
		<path d="M4074 8027 c-6 -15 -10 -38 -10 -52 0 -14 -15 -65 -32 -114 -37 -106 -38 -112 -10 -112 15 0 27 13 42 47 l20 48 68 0 69 0 -7 -63 c-4 -38 -2 -63 4 -63 16 0 56 41 56 58 0 9 6 26 14 39 19 32 11 197 -10 197 -18 0 -36 -34 -36 -67 0 -53 -9 -59 -75 -59 -70 0 -68 -3 -46 88 8 35 12 67 9 71 -11 19 -46 7 -56 -18z"/>
		<path d="M7773 7982 c-15 -20 -21 -39 -17 -54 4 -13 0 -49 -7 -80 -10 -42 -11 -64 -3 -82 14 -30 73 -59 119 -59 25 0 46 -11 79 -41 43 -40 113 -69 150 -62 9 2 19 15 21 28 4 27 -16 47 -38 38 -19 -6 -86 28 -86 44 0 7 17 18 37 24 21 5 47 18 58 28 27 24 26 72 -1 91 -41 29 -133 -13 -161 -73 -15 -29 -23 -35 -52 -35 -58 0 -74 28 -66 110 5 47 13 71 25 78 14 8 15 15 7 39 -14 41 -38 42 -65 6z m281 -180 c0 -23 -5 -26 -45 -36 -34 -8 -38 8 -12 37 24 26 57 25 57 -1z"/>
		<path d="M6259 7971 c-6 -12 -12 -37 -12 -56 0 -19 -8 -63 -19 -98 -10 -34 -17 -69 -15 -76 8 -23 46 -14 73 19 34 40 52 39 60 -4 10 -50 38 -72 87 -68 43 3 55 22 18 27 -15 3 -27 16 -35 37 -29 78 -47 92 -97 73 -18 -7 -34 -12 -36 -10 -1 1 6 32 15 68 13 48 14 71 6 83 -16 27 -33 28 -45 5z"/>
		<path d="M5035 7967 c-26 -87 -39 -118 -54 -129 -14 -9 -19 -32 -21 -93 -2 -71 0 -81 15 -78 10 2 26 21 36 41 14 32 24 39 58 45 23 3 59 20 81 38 37 29 44 31 109 27 38 -3 71 -10 73 -17 2 -6 -7 -49 -20 -94 -20 -69 -21 -86 -10 -99 8 -10 19 -16 24 -14 17 6 51 124 53 182 3 81 -11 91 -126 95 -51 2 -113 6 -137 10 l-45 7 6 46 c7 42 6 46 -15 46 -13 0 -24 -6 -27 -13z m68 -149 c0 -14 -50 -33 -60 -23 -4 4 0 13 7 22 17 20 53 21 53 1z"/>
		<path d="M7943 7971 c-52 -12 -39 -37 25 -47 64 -10 88 1 68 33 -12 20 -45 25 -93 14z"/>
		<path d="M4746 7932 c-6 -14 -13 -38 -16 -52 -3 -14 -8 -38 -11 -53 -4 -20 -10 -25 -24 -21 -10 4 -39 -1 -62 -9 -48 -17 -63 -8 -43 24 11 18 10 25 -6 43 -24 26 -81 20 -155 -17 -60 -30 -79 -58 -55 -82 22 -22 57 -20 89 5 34 27 46 26 60 -4 14 -31 58 -42 107 -28 72 21 76 18 68 -51 -5 -43 -3 -64 6 -69 23 -14 43 21 49 85 7 87 10 93 30 73 24 -24 50 -20 78 10 22 22 23 29 13 52 -13 29 -51 36 -73 14 -21 -20 -27 -1 -15 46 6 24 9 48 6 52 -11 18 -36 8 -46 -18z m-283 -114 c0 -3 -10 -10 -21 -16 -13 -7 -21 -8 -21 -2 0 6 8 13 18 15 10 3 19 6 21 6 1 1 3 -1 3 -3z"/>
		<path d="M7450 7854 c-12 -5 -57 -9 -100 -10 -44 0 -91 -7 -106 -15 -15 -8 -44 -17 -65 -21 -43 -8 -73 -47 -69 -88 6 -48 42 -43 87 12 41 49 81 70 139 70 32 0 34 -2 28 -31 -4 -23 0 -36 17 -53 20 -20 31 -23 71 -17 36 6 51 4 67 -10 16 -15 26 -16 64 -7 25 6 46 10 48 8 4 -4 4 -17 -4 -129 -5 -75 -4 -88 11 -93 26 -11 71 36 62 63 -4 12 -6 55 -5 96 2 60 -1 79 -18 100 -20 25 -21 25 -58 7 l-39 -18 -10 26 c-11 30 -12 30 -68 11 -65 -24 -80 -21 -77 12 4 28 7 29 56 29 60 0 76 23 35 52 -26 18 -36 19 -66 6z"/>
		<path d="M6837 7807 c-48 -61 -16 -108 64 -94 35 6 42 4 37 -9 -4 -8 -10 -37 -13 -63 -9 -54 6 -91 35 -91 17 0 20 12 26 80 15 180 11 192 -76 200 -45 5 -52 2 -73 -23z m104 -25 c0 -5 -13 -14 -28 -21 -30 -14 -54 -2 -41 19 8 13 69 15 69 2z"/>
		<path d="M6604 7807 c-15 -8 -36 -31 -47 -52 -19 -35 -19 -38 -2 -55 14 -15 22 -16 44 -5 39 17 67 15 97 -9 32 -25 72 -27 81 -4 4 11 -3 20 -25 28 -21 8 -36 23 -43 45 -9 27 -31 46 -73 63 -3 2 -17 -4 -32 -11z"/>
		<path d="M5649 7571 c-126 -20 -252 -49 -394 -92 -46 -14 -107 -32 -136 -40 -64 -17 -178 -70 -206 -95 -11 -10 -41 -52 -67 -93 -50 -80 -86 -113 -196 -179 -105 -64 -155 -114 -198 -199 -9 -17 -48 -65 -88 -108 -55 -59 -89 -85 -142 -109 -143 -66 -217 -107 -244 -136 -15 -16 -41 -36 -57 -45 -17 -8 -47 -34 -68 -56 -20 -22 -55 -57 -78 -77 -96 -84 -155 -195 -174 -321 -19 -127 -8 -189 46 -255 72 -88 85 -106 162 -232 148 -240 186 -293 280 -390 92 -94 114 -110 239 -166 50 -22 238 -67 360 -85 87 -14 204 -3 310 27 49 14 120 30 158 35 37 5 87 18 110 29 57 26 342 26 413 -1 25 -9 55 -16 67 -16 11 0 33 -9 48 -20 34 -24 476 -166 654 -210 190 -47 437 -18 745 88 103 36 157 61 249 116 41 26 81 46 87 47 13 0 48 31 189 170 66 65 110 118 131 159 17 34 46 88 65 120 18 31 39 84 46 116 6 33 16 69 21 80 21 51 41 124 41 152 0 17 7 58 16 91 8 34 16 87 16 119 0 32 4 86 10 120 9 56 7 67 -16 116 -14 31 -26 60 -26 65 0 5 -49 59 -108 120 -79 82 -127 122 -181 151 -72 39 -121 75 -316 229 -196 156 -233 187 -238 201 -3 8 -36 29 -72 48 -37 19 -83 47 -103 62 -20 15 -54 36 -76 48 -21 12 -71 44 -111 70 -97 67 -245 161 -270 174 -12 6 -66 21 -121 35 -55 13 -112 28 -126 34 -14 6 -50 17 -79 24 -29 8 -102 29 -162 47 -199 60 -218 61 -410 32z m329 -54 c51 -17 98 -30 105 -30 6 0 36 -9 65 -20 56 -21 114 -38 257 -75 115 -29 141 -41 228 -102 39 -28 93 -64 119 -80 25 -16 61 -39 78 -50 18 -12 82 -53 142 -92 110 -69 172 -113 215 -154 44 -41 141 -122 193 -160 28 -22 84 -65 124 -97 39 -32 111 -82 160 -110 106 -64 255 -206 304 -291 l33 -59 -4 -156 c-5 -168 -21 -322 -40 -381 -33 -103 -67 -187 -90 -220 -14 -21 -39 -65 -56 -98 -83 -163 -332 -359 -587 -462 -224 -91 -528 -141 -661 -110 -111 26 -235 60 -258 71 -11 5 -47 17 -78 25 -32 8 -84 23 -116 33 -32 10 -65 19 -73 20 -9 1 -26 6 -37 10 -114 47 -256 101 -264 101 -5 0 -23 7 -40 16 -19 9 -56 16 -90 15 -218 -3 -282 -9 -345 -30 -36 -12 -89 -22 -116 -22 -30 -1 -85 -14 -138 -34 -80 -29 -101 -33 -209 -34 -72 0 -136 5 -158 12 -20 7 -76 20 -123 28 -47 8 -97 23 -110 32 -13 9 -30 17 -38 17 -8 0 -58 27 -110 60 -72 45 -116 83 -178 155 -101 115 -115 136 -297 445 -23 39 -62 97 -86 129 -45 58 -45 58 -45 148 0 113 24 182 97 279 51 67 177 193 217 216 11 6 36 24 55 39 37 29 259 146 278 146 14 0 128 114 149 149 9 16 21 29 25 29 5 0 20 22 34 50 15 27 35 60 45 72 18 22 188 140 201 141 16 0 91 82 125 135 66 105 90 123 207 159 58 18 148 46 200 63 139 43 208 60 331 77 60 9 122 18 136 21 65 10 138 2 224 -26z"/>
		<path d="M6668 6937 c0 -8 23 -24 51 -37 65 -30 83 -70 62 -140 -16 -54 -130 -179 -209 -229 -52 -34 -64 -56 -36 -67 34 -13 204 141 260 236 44 74 49 112 21 167 -28 56 -149 113 -149 70z"/>
		<path d="M5072 6820 c-28 -33 19 -75 49 -45 12 13 13 21 4 38 -14 26 -35 29 -53 7z"/>
		<path d="M6605 6772 c0 -25 4 -32 18 -29 11 2 20 15 22 32 2 23 -1 29 -19 29 -17 0 -21 -7 -21 -32z"/>
		<path d="M4691 6766 c-11 -10 26 -62 54 -76 15 -8 65 -31 111 -51 46 -19 94 -40 105 -45 12 -5 67 -31 124 -57 56 -27 134 -58 173 -70 39 -12 75 -26 81 -31 16 -16 48 -12 55 7 9 25 -15 40 -102 66 -43 13 -86 27 -94 32 -33 19 -123 62 -195 90 -40 17 -123 55 -183 86 -116 58 -119 59 -129 49z"/>
		<path d="M5269 6148 c-2 -3 -79 -7 -172 -11 -173 -6 -246 -19 -246 -43 0 -11 15 -13 66 -8 36 3 72 8 80 11 9 2 210 7 447 10 400 6 446 4 611 -16 99 -13 195 -27 214 -33 19 -5 38 -7 42 -4 17 10 -4 46 -30 51 -57 12 -300 38 -352 39 -30 0 -189 2 -355 4 -165 2 -302 2 -305 0z"/>
		<path d="M4376 6019 c-22 -28 -64 -77 -93 -111 -49 -58 -52 -63 -35 -81 9 -10 43 -29 76 -42 33 -13 70 -33 81 -43 12 -11 30 -19 40 -19 10 0 31 -7 47 -15 49 -25 200 -58 417 -91 115 -17 224 -39 242 -48 17 -8 39 -13 48 -9 10 3 64 -5 121 -19 125 -32 270 -53 297 -44 11 3 23 1 26 -5 4 -5 14 -7 22 -4 9 3 23 -1 33 -8 10 -9 46 -15 89 -16 48 -1 81 -7 99 -19 23 -15 32 -16 58 -6 17 7 47 10 70 6 101 -16 255 -26 424 -26 l186 -1 14 -44 c19 -58 38 -69 83 -46 20 10 71 30 115 45 43 15 82 33 87 41 15 26 47 35 161 45 63 6 161 23 219 38 78 20 119 25 159 21 51 -6 81 5 56 21 -16 10 -13 43 6 62 16 16 16 19 1 36 -11 12 -13 23 -6 33 22 35 -23 124 -78 154 -33 17 -287 85 -348 93 -29 3 -62 8 -74 10 -196 35 -504 51 -829 43 -191 -5 -369 -2 -593 9 -177 9 -502 17 -723 18 -358 1 -405 -1 -420 -16 -16 -16 -11 -17 54 -17 46 0 70 -4 70 -12 0 -7 -21 -34 -46 -61 -26 -26 -60 -64 -77 -83 l-30 -35 -70 39 c-39 21 -71 42 -71 47 0 12 77 104 103 122 13 9 23 23 23 33 0 9 8 25 17 36 14 15 15 19 3 19 -8 -1 -33 -23 -54 -50z m363 -55 l65 0 -59 -55 c-32 -30 -84 -85 -116 -121 -56 -63 -60 -66 -89 -55 -53 21 -58 30 -38 69 30 57 139 175 157 168 8 -3 44 -6 80 -6z m332 -13 c0 -5 -10 -13 -24 -18 -28 -10 -179 -168 -209 -218 -25 -42 -30 -42 -194 -8 -13 3 -24 11 -24 17 0 6 51 62 113 124 l113 112 113 -1 c62 0 112 -4 112 -8z m248 0 c1 -2 -63 -70 -144 -153 l-146 -150 -81 12 c-45 7 -86 17 -91 22 -5 5 48 66 126 145 l136 136 99 -5 c55 -3 100 -6 101 -7z m532 -11 c108 -1 197 -5 197 -9 0 -3 -33 -51 -74 -105 -41 -54 -107 -141 -146 -193 -40 -52 -79 -101 -88 -109 -14 -11 -39 -10 -146 4 -161 21 -293 48 -289 60 3 10 228 91 381 137 138 41 151 47 159 66 9 24 -16 99 -35 107 -22 8 -43 -14 -27 -30 20 -20 -40 -87 -92 -102 -23 -7 -47 -10 -53 -6 -7 4 -22 -3 -34 -15 -13 -11 -36 -24 -52 -28 -24 -6 -29 -4 -29 12 0 15 -6 13 -34 -14 -19 -17 -50 -37 -70 -44 -43 -14 -43 -14 -43 -1 0 19 56 75 101 101 54 32 71 32 61 1 -5 -17 7 -9 50 31 39 37 71 57 96 62 24 4 39 13 39 23 0 24 -44 11 -207 -62 -80 -36 -200 -85 -266 -108 -107 -39 -120 -46 -118 -67 2 -25 -21 -31 -50 -13 -12 8 8 32 95 116 60 59 121 114 134 123 13 9 31 31 40 47 l16 31 144 -6 c79 -4 232 -8 340 -9z m365 -70 c0 -5 -9 -19 -19 -32 -15 -19 -23 -22 -39 -13 -12 6 -41 14 -67 18 -61 10 -55 -17 8 -31 48 -11 53 -23 24 -59 l-19 -24 -60 24 c-36 15 -56 29 -52 36 4 7 30 43 58 82 l52 69 57 -31 c31 -17 57 -34 57 -39z m376 60 c5 -7 21 -32 33 -55 l24 -41 -30 -25 c-17 -13 -42 -34 -55 -46 -44 -37 -81 1 -49 50 10 15 32 35 48 44 34 20 41 44 13 44 -10 0 -39 -12 -64 -26 -32 -18 -54 -24 -73 -20 -26 7 -27 6 -19 -39 4 -25 11 -48 17 -50 20 -7 109 -144 142 -220 l35 -81 -112 -3 c-129 -4 -515 18 -523 30 -9 15 74 128 183 251 59 65 107 128 107 139 0 13 -14 26 -37 35 -20 9 -37 18 -37 21 0 3 87 5 193 5 142 0 196 -3 204 -13z m264 -14 c66 -8 123 -18 126 -21 3 -4 -2 -12 -11 -18 -9 -7 -25 -28 -34 -46 -10 -19 -27 -40 -38 -48 -12 -9 -24 -30 -28 -49 -6 -32 -5 -33 19 -27 18 4 48 -4 94 -25 117 -55 265 -113 305 -121 88 -16 41 -33 -165 -59 -52 -6 -117 -15 -144 -20 -36 -6 -56 -4 -70 6 -27 18 -149 205 -178 270 -13 29 -37 75 -54 103 -17 28 -31 55 -31 61 0 15 70 13 209 -6z m291 -46 c154 -38 261 -69 284 -82 21 -12 42 -51 32 -61 -7 -7 -159 34 -250 67 -49 18 -108 37 -132 43 -41 11 -63 33 -49 47 10 10 27 8 115 -14z m-58 -75 c43 -18 101 -39 130 -47 89 -24 166 -44 196 -51 29 -6 70 -53 58 -65 -4 -4 -27 -1 -52 6 -24 7 -68 18 -97 24 -68 13 -329 81 -360 93 l-24 9 23 32 c13 17 29 32 36 32 7 0 48 -15 90 -33z m-402 -32 c13 -21 10 -27 -43 -79 l-57 -57 -20 38 -20 38 46 41 c52 47 74 51 94 19z m-647 -39 c35 -14 37 -33 5 -62 -21 -20 -28 -21 -74 -11 -60 13 -71 32 -37 68 26 27 45 28 106 5z m-674 -22 c0 -13 -53 -74 -64 -74 -18 0 -10 35 13 60 23 24 51 32 51 14z m1858 -50 c49 -14 124 -33 166 -43 75 -17 100 -42 34 -35 -69 7 -228 52 -294 83 -80 38 -53 36 94 -5z m-1950 5 c-10 -38 -24 -50 -63 -50 -33 0 -36 2 -33 29 3 22 11 30 35 35 60 13 67 11 61 -14z m1464 7 c9 -25 -91 -123 -109 -108 -22 18 -17 33 24 81 38 45 73 56 85 27z m-730 -43 c13 -7 -56 -88 -75 -87 -34 0 -93 21 -99 36 -3 8 5 27 17 43 21 26 25 27 85 21 35 -4 68 -10 72 -13z m771 -30 c4 -10 -12 -32 -45 -62 -28 -26 -54 -47 -59 -48 -20 -1 -3 46 30 84 40 44 64 53 74 26z m-911 -75 c19 -5 34 -13 34 -17 -1 -10 -6 -10 -72 -1 -54 6 -55 7 -38 26 11 13 22 16 29 10 7 -5 27 -13 47 -18z m966 -14 c12 -17 23 -33 23 -36 0 -3 -26 -6 -58 -6 -32 0 -58 3 -58 7 0 10 54 67 63 67 4 0 17 -14 30 -32z m31 -68 c-13 -13 -159 -68 -167 -63 -26 16 2 49 50 58 47 9 125 12 117 5z"/>
		<path d="M5687 5831 c-6 -14 -4 -15 9 -4 18 15 20 22 7 22 -6 0 -13 -8 -16 -18z"/>
		<path d="M7646 5866 c-7 -8 -17 -37 -22 -66 -6 -28 -20 -79 -32 -113 -12 -34 -21 -71 -21 -82 0 -11 -6 -28 -13 -40 -14 -21 -4 -42 12 -26 13 15 103 268 107 304 4 33 -13 46 -31 23z"/>
		<path d="M7707 5557 c0 -12 52 -28 61 -19 8 9 0 14 -32 22 -17 4 -29 3 -29 -3z"/>
		<path d="M5621 5381 c-10 -26 5 -33 92 -45 44 -7 86 -14 94 -17 9 -3 22 -1 31 4 25 16 1 30 -84 47 -43 9 -89 19 -103 22 -15 4 -26 0 -30 -11z"/>
		<path d="M4867 5355 c-23 -4 -99 -18 -168 -31 -70 -12 -155 -29 -189 -37 -35 -7 -87 -17 -116 -21 -79 -11 -141 -43 -141 -72 0 -50 54 -93 69 -54 10 24 57 20 57 -6 0 -19 4 -20 60 -14 225 24 530 74 574 95 42 20 46 37 23 92 -24 57 -62 68 -169 48z m116 -57 c36 -36 24 -55 -41 -64 -30 -3 -63 -9 -74 -12 -11 -3 -17 -1 -13 5 3 5 24 13 46 17 63 11 76 17 76 33 0 18 -25 19 -104 4 -32 -6 -132 -24 -221 -41 -241 -44 -248 -45 -237 -34 9 8 73 23 174 40 14 3 33 7 42 10 8 3 74 17 146 31 71 14 132 28 135 31 13 13 47 3 71 -20z m-321 -100 c0 -6 -8 -11 -18 -11 -16 0 -16 2 -3 11 20 12 21 12 21 0z"/>
		<path d="M6368 5249 c-25 -12 -57 -66 -57 -94 0 -25 4 -25 37 -3 20 13 39 15 86 9 155 -19 395 -37 488 -37 41 0 72 -3 68 -7 -10 -9 -339 -4 -412 7 -116 17 -206 21 -202 9 12 -35 260 -74 465 -72 171 1 215 11 215 48 0 14 10 35 22 47 26 26 20 50 -14 56 -26 5 -329 25 -491 33 -55 3 -119 7 -142 10 -23 3 -51 0 -63 -6z m368 -53 c75 -6 143 -15 152 -20 21 -12 13 -12 -194 0 -241 15 -310 22 -310 34 0 10 104 6 352 -14z"/>
		<path d="M11363 6761 c2 -7 11 -16 18 -18 8 -3 12 1 10 9 -3 8 -11 16 -19 19 -8 2 -12 -2 -9 -10z"/>
		<path d="M10122 6668 c0 -6 7 -11 16 -11 9 0 14 5 10 11 -3 5 -11 10 -16 10 -6 0 -10 -5 -10 -10z"/>
		<path d="M2568 4923 c-3 -14 -5 -34 -3 -45 2 -17 -9 -23 -61 -35 -34 -8 -79 -16 -99 -19 -20 -2 -91 -12 -158 -21 -66 -9 -137 -17 -157 -17 -42 0 -84 -22 -84 -44 0 -8 11 -22 24 -31 21 -14 29 -14 52 -2 15 8 55 18 89 22 33 4 100 16 150 28 116 27 229 44 237 36 4 -3 -3 -62 -15 -130 -47 -265 -48 -276 -35 -289 25 -25 57 45 68 144 7 68 38 235 49 263 9 22 17 26 59 26 64 0 115 -26 147 -74 36 -53 41 -101 20 -174 -31 -109 -99 -178 -210 -215 -82 -28 -143 -29 -329 -8 -98 11 -110 11 -126 -6 -17 -17 -17 -19 1 -32 24 -17 146 -31 265 -28 163 3 261 36 341 116 l49 49 -5 -48 c-3 -38 0 -51 18 -67 52 -47 169 37 169 120 0 60 -31 88 -86 79 -41 -6 -42 -6 -35 17 4 13 9 57 12 98 5 68 3 78 -27 128 -43 74 -71 90 -166 97 -56 4 -81 10 -86 22 -22 46 -31 58 -46 61 -10 2 -19 -6 -22 -21z m400 -466 c9 -23 -31 -84 -55 -84 -16 0 -20 7 -19 35 1 19 8 41 15 50 16 20 51 19 59 -1z"/>
		<path d="M9237 4738 c-35 -39 -14 -104 31 -95 16 3 19 14 19 56 0 58 -19 73 -50 39z"/>
		<path d="M7065 4673 c-69 -13 -121 -61 -95 -87 8 -8 17 -5 30 10 38 43 136 57 230 33 25 -6 52 -18 59 -27 19 -23 -2 -49 -45 -57 -20 -3 -43 -8 -51 -10 -11 -3 -17 5 -20 27 -5 48 -21 62 -45 41 -11 -10 -19 -27 -19 -38 0 -32 -32 -133 -53 -169 -11 -18 -23 -56 -27 -83 -6 -46 -5 -50 15 -50 26 0 29 4 76 120 20 52 44 97 52 101 9 4 39 13 68 20 59 14 121 56 121 83 0 26 -29 62 -64 80 -32 17 -160 20 -232 6z"/>
		<path d="M8728 4650 c-7 -7 -13 -22 -13 -33 0 -10 -9 -37 -20 -58 -27 -54 -77 -210 -77 -241 0 -31 20 -47 51 -40 13 4 45 -7 79 -25 31 -18 61 -32 67 -32 6 0 24 11 41 25 28 22 30 27 17 42 -10 13 -18 15 -25 7 -16 -16 -55 -14 -69 4 -10 12 -5 21 25 44 38 31 47 63 24 86 -30 30 -92 -5 -118 -67 -16 -38 -37 -48 -37 -17 0 32 72 170 88 170 21 0 31 18 20 34 -4 7 -8 34 -8 60 0 50 -19 67 -45 41z"/>
		<path d="M5781 4606 c-20 -21 -43 -58 -53 -83 -11 -29 -33 -56 -63 -78 -29 -22 -52 -50 -65 -82 -10 -26 -23 -47 -27 -47 -5 0 -19 11 -31 26 -18 21 -30 25 -53 20 -26 -5 -29 -3 -29 21 0 41 -28 33 -52 -15 -22 -42 -28 -79 -14 -88 5 -2 27 5 50 16 l42 20 23 -26 c49 -56 121 -22 152 71 l14 44 3 -58 c5 -77 14 -84 70 -53 44 24 48 25 67 8 23 -21 55 -23 73 -5 10 9 16 9 26 0 16 -16 53 -17 68 -1 9 9 21 5 45 -16 18 -15 43 -27 55 -27 21 0 70 31 109 70 17 18 18 17 12 -20 -4 -25 -1 -45 9 -57 14 -19 15 -19 30 1 9 11 16 29 16 39 0 11 8 47 17 81 33 118 -1 127 -79 21 -80 -107 -137 -120 -137 -31 0 27 -8 46 -24 61 -21 19 -28 20 -60 9 -22 -7 -46 -26 -58 -45 -27 -43 -46 -51 -70 -29 -18 17 -44 17 -85 -1 -16 -6 -18 -1 -18 39 0 50 16 73 60 87 36 11 87 57 87 79 0 25 -22 74 -33 74 -4 0 -15 2 -25 6 -11 4 -29 -7 -52 -31z m66 -46 c-4 -21 -57 -53 -68 -42 -10 10 37 60 56 60 9 0 14 -8 12 -18z m149 -197 c0 -7 -8 -16 -16 -20 -16 -6 -23 25 -9 39 9 9 25 -2 25 -19z"/>
		<path d="M9641 4606 c-44 -16 -60 -41 -43 -71 10 -20 18 -22 68 -17 64 7 92 -10 66 -41 -11 -14 -27 -16 -94 -10 -92 7 -112 -4 -99 -54 4 -16 9 -42 13 -58 13 -67 62 -59 68 11 3 38 4 39 45 36 82 -5 153 40 153 98 0 30 -56 95 -88 105 -46 13 -55 13 -89 1z"/>
		<path d="M8871 4592 c-16 -3 -34 -11 -40 -19 -16 -19 -2 -47 25 -47 12 0 28 -6 35 -12 16 -16 40 -6 47 20 6 21 -18 67 -32 63 -4 0 -20 -3 -35 -5z"/>
		<path d="M7421 4560 c-36 -41 -102 -210 -102 -259 0 -44 28 -46 62 -5 l30 35 23 -29 c23 -29 56 -38 69 -17 3 6 -1 19 -9 29 -9 9 -21 30 -27 45 -7 19 -20 30 -37 32 l-26 3 37 77 c20 43 34 84 31 92 -8 20 -31 19 -51 -3z"/>
		<path d="M4349 4554 c-5 -7 -18 -41 -28 -76 -10 -34 -25 -85 -33 -112 -26 -89 18 -116 50 -29 23 62 41 63 65 6 23 -58 71 -84 100 -55 16 17 16 19 -4 36 -22 18 -73 95 -67 100 3 2 23 10 46 19 23 8 44 23 46 33 4 23 -21 23 -85 0 -27 -9 -52 -15 -55 -12 -3 3 0 20 7 38 10 25 10 36 -1 49 -17 20 -26 21 -41 3z"/>
		<path d="M3166 4473 c-4 -6 -2 -10 4 -10 6 0 12 4 12 10 0 6 -3 11 -5 11 -3 0 -8 -5 -11 -11z"/>
		<path d="M615 4449 c3 -7 -2 -22 -9 -33 -13 -17 -12 -22 5 -39 44 -45 68 -5 32 55 -17 30 -38 43 -28 17z"/>
		<path d="M7810 4439 c-7 -13 -15 -43 -18 -66 -5 -36 -10 -42 -35 -45 -22 -3 -31 3 -44 29 -19 36 -29 39 -48 16 -7 -8 -21 -15 -30 -15 -15 0 -15 1 1 11 25 15 23 41 -3 41 -29 0 -75 -51 -71 -78 4 -25 48 -35 80 -17 16 8 24 7 33 -4 7 -9 36 -17 67 -19 l54 -3 13 -52 c9 -34 9 -56 3 -62 -7 -7 -10 -3 -10 12 0 28 -9 30 -28 5 -21 -28 -17 -53 12 -72 34 -22 55 -13 74 34 13 31 14 48 4 94 -11 55 -10 59 15 89 33 39 34 61 6 98 -27 34 -57 35 -75 4z m51 -65 c-3 -9 -11 -16 -17 -16 -12 0 -15 34 -4 45 12 12 28 -11 21 -29z"/>
		<path d="M3540 4410 c-7 -22 -17 -44 -22 -47 -5 -3 -32 10 -60 29 -28 20 -59 38 -68 42 -18 6 -51 -21 -51 -42 0 -13 59 -66 73 -66 5 0 25 -7 46 -16 l38 -16 -27 -76 c-15 -42 -44 -110 -63 -151 -39 -83 -44 -120 -19 -141 15 -12 20 -11 37 10 11 14 20 34 20 46 0 11 7 35 15 54 30 63 111 291 111 310 0 10 7 34 16 52 19 36 14 54 -15 54 -13 0 -23 -13 -31 -42z"/>
		<path d="M8251 4426 c-30 -20 -52 -26 -96 -26 -48 0 -64 -6 -92 -29 l-35 -29 21 34 c17 30 18 36 5 44 -28 17 -95 -63 -95 -113 0 -36 30 -34 112 9 44 23 85 42 92 42 7 0 17 -16 22 -35 l10 -34 75 0 c45 0 81 -5 91 -13 11 -10 32 -12 71 -7 62 9 60 21 18 -114 -17 -53 -19 -74 -10 -83 18 -19 39 5 69 81 54 135 45 189 -26 164 -48 -17 -58 -15 -86 15 -24 25 -26 26 -63 10 -49 -20 -88 -20 -95 0 -8 21 29 39 65 31 43 -9 62 17 39 53 -21 33 -44 33 -92 0z"/>
		<path d="M527 4407 c-8 -9 -6 -19 5 -34 12 -16 17 -18 24 -6 9 15 3 54 -10 54 -4 0 -13 -6 -19 -14z"/>
		<path d="M4543 4414 c-12 -12 -8 -55 9 -95 15 -37 17 -37 59 -31 34 6 48 3 64 -11 19 -18 22 -18 60 4 l40 23 11 -26 c14 -29 28 -31 65 -10 39 22 71 19 109 -10 46 -35 83 -34 111 2 16 20 21 36 16 60 -9 45 -27 80 -43 80 -23 0 -26 -19 -7 -58 13 -28 15 -40 5 -49 -9 -9 -22 -5 -54 17 -38 26 -49 29 -97 23 -41 -5 -59 -3 -73 10 -16 14 -21 14 -50 0 -43 -23 -53 -21 -53 9 0 33 -31 36 -58 6 -26 -29 -32 -27 -55 18 -18 38 -43 54 -59 38z"/>
		<path d="M6647 4407 c-35 -17 -51 -63 -32 -87 14 -16 42 -16 86 1 13 5 22 -2 34 -25 23 -44 52 -59 73 -38 14 14 13 22 -12 71 -15 30 -34 63 -43 73 -18 22 -69 24 -106 5z"/>
		<path d="M9095 4408 c-7 -7 -12 -24 -12 -37 0 -14 -8 -39 -16 -56 -22 -41 -4 -83 36 -83 15 0 32 -5 38 -10 21 -19 79 -32 102 -22 52 22 65 40 62 90 -1 31 4 54 14 64 30 30 -17 73 -54 48 -23 -15 -37 -57 -34 -100 3 -39 1 -44 -17 -41 -12 2 -29 11 -38 19 -9 8 -25 15 -35 15 -16 0 -16 2 4 30 34 47 23 96 -20 96 -10 0 -23 -6 -30 -13z"/>
		<path d="M3717 4387 c-49 -52 -65 -113 -29 -113 8 0 37 14 66 32 l51 33 20 -28 c24 -33 41 -34 80 -5 31 23 54 20 54 -6 0 -19 40 -32 55 -17 9 8 5 24 -11 59 -18 36 -29 47 -48 47 -14 0 -31 -7 -38 -16 -18 -21 -36 -20 -58 6 -25 27 -45 26 -76 -2 l-24 -23 0 22 c0 33 -17 37 -42 11z"/>
		<path d="M6313 4397 c-13 -6 -23 -18 -23 -26 0 -12 10 -13 49 -8 59 9 60 10 52 31 -7 18 -43 20 -78 3z"/>
		<path d="M428 4292 c-99 -117 -225 -408 -271 -627 -47 -227 -4 -403 130 -528 98 -92 216 -169 250 -164 35 5 39 46 7 62 -13 7 -42 29 -64 48 -21 20 -46 36 -55 36 -44 0 -145 91 -174 156 -40 91 -60 209 -47 279 34 185 51 261 70 321 35 107 140 314 192 377 27 32 49 62 49 66 0 4 -9 12 -20 18 -17 9 -28 2 -67 -44z"/>
		<path d="M9513 4227 c-20 -25 -8 -53 24 -57 34 -3 46 18 29 50 -14 26 -35 28 -53 7z"/>
		<path d="M6173 4140 c-61 -56 -114 -159 -114 -219 0 -24 -6 -36 -15 -36 -30 0 -151 -144 -195 -232 -45 -90 -51 -138 -19 -144 38 -7 110 101 157 238 27 79 62 110 90 82 16 -16 15 -19 -6 -48 -13 -18 -23 -37 -23 -43 0 -19 27 -11 52 15 20 22 28 24 49 14 14 -6 25 -15 25 -19 0 -4 -19 -36 -42 -72 -37 -58 -54 -106 -36 -106 4 0 31 17 59 39 l53 38 -8 -34 c-8 -38 16 -74 49 -74 24 0 36 19 21 34 -7 6 -12 31 -12 56 0 50 -17 69 -52 60 -28 -8 -32 -15 48 103 51 76 68 114 51 114 -20 0 -48 -27 -73 -68 -39 -67 -57 -63 -101 22 -43 85 -12 187 77 253 49 35 61 64 32 74 -7 2 -37 -19 -67 -47z"/>
		<path d="M6982 4119 c-60 -63 -67 -76 -73 -128 -5 -46 -7 -49 -45 -58 -47 -12 -76 1 -76 32 0 22 31 28 33 7 1 -8 2 -16 3 -20 0 -4 11 6 23 21 18 23 20 31 9 44 -22 26 -58 17 -93 -22 -39 -45 -40 -61 -7 -95 30 -30 35 -30 110 -10 38 10 63 12 75 5 27 -14 286 -2 313 15 12 8 49 -2 104 -28 29 -14 33 -10 57 58 16 47 17 57 4 69 -12 13 -17 11 -34 -15 -33 -53 -52 -59 -66 -21 -20 53 -73 51 -128 -5 -23 -24 -45 -40 -48 -37 -3 3 0 13 8 22 20 25 -3 69 -38 69 -29 0 -78 -43 -78 -68 0 -11 -10 -16 -32 -16 l-33 0 48 53 c57 63 68 97 47 135 -22 39 -42 37 -83 -7z m53 -33 c0 -22 -58 -106 -74 -106 -15 0 -12 17 7 55 32 64 67 90 67 51z m64 -131 c-13 -13 -27 -3 -17 13 4 7 12 9 18 5 7 -4 7 -10 -1 -18z"/>
		<path d="M7481 4138 c-3 -12 1 -35 10 -52 21 -40 21 -109 1 -175 -10 -34 -12 -55 -5 -62 15 -16 38 22 63 102 19 61 20 77 9 110 -29 91 -63 124 -78 77z"/>
		<path d="M701 4106 c-38 -30 -56 -104 -53 -224 l3 -103 -37 -15 c-19 -9 -50 -15 -68 -15 -29 0 -73 -31 -73 -51 0 -5 8 -17 19 -27 19 -17 23 -17 84 14 35 18 66 32 69 32 10 0 5 -211 -6 -299 -23 -180 -23 -176 -8 -171 8 2 20 16 27 30 7 14 25 51 41 83 42 87 129 200 153 200 12 0 30 4 41 10 15 8 27 7 44 -4 30 -19 63 -7 87 30 23 35 33 34 42 -5 4 -17 11 -34 17 -38 12 -7 45 14 86 55 l31 30 -6 -31 c-4 -18 -9 -60 -13 -95 -4 -34 -13 -75 -20 -89 -15 -29 -11 -52 9 -52 7 0 41 37 75 83 60 81 63 84 98 78 44 -8 60 11 36 47 -14 22 -14 29 6 75 33 78 25 116 -25 115 -33 0 -79 -89 -79 -153 -1 -41 -7 -59 -32 -88 -40 -48 -40 -29 2 99 44 136 34 146 -63 60 l-72 -64 -10 34 c-11 40 -46 51 -68 21 -8 -10 -24 -26 -35 -34 -21 -16 -21 -16 -2 7 11 13 17 31 14 40 -6 14 -19 8 -74 -31 -37 -26 -70 -48 -74 -48 -3 0 1 14 9 31 22 41 21 56 -5 80 -20 18 -23 18 -50 2 -33 -20 -55 -80 -48 -134 5 -42 1 -50 -43 -81 l-32 -22 -3 128 -3 127 51 39 c54 41 111 100 142 144 41 61 12 148 -59 180 -56 26 -92 26 -125 0z m121 -66 c22 -15 29 -29 29 -57 0 -31 -10 -47 -63 -99 -90 -90 -98 -86 -93 44 3 97 5 108 28 126 28 23 52 19 99 -14z"/>
		<path d="M6318 4109 c-21 -9 -39 -23 -39 -32 0 -13 10 -14 53 -8 l52 7 0 -37 c0 -21 -10 -62 -21 -91 -32 -80 -10 -98 48 -41 l33 32 50 -38 c55 -43 93 -46 98 -8 2 14 -2 24 -10 24 -7 0 -3 10 10 24 28 29 29 51 4 73 -18 16 -22 16 -57 -8 -44 -30 -47 -31 -84 -14 -22 11 -26 19 -22 45 4 22 -1 40 -17 61 -26 32 -42 34 -98 11z"/>
		<path d="M2273 3860 c-40 -53 -45 -114 -15 -184 24 -55 24 -57 5 -71 -30 -22 -60 -17 -84 14 -21 25 -23 26 -40 9 -10 -9 -18 -25 -18 -33 0 -21 57 -77 78 -77 26 0 71 25 99 56 28 29 27 50 -3 132 -21 56 -14 111 16 127 29 16 125 -3 125 -24 0 -6 -17 -47 -38 -91 -21 -44 -47 -100 -58 -124 -16 -34 -18 -49 -9 -65 15 -29 33 -28 63 4 25 26 25 26 44 6 34 -36 114 -19 114 24 0 13 -10 16 -40 15 -39 -3 -39 -2 -39 37 l0 39 83 0 83 0 -21 -24 c-42 -45 -49 -69 -29 -99 26 -41 89 -30 176 31 38 27 71 46 74 43 3 -3 -2 -24 -10 -48 -19 -53 -19 -81 -1 -81 21 0 49 35 49 62 l0 24 28 -27 c15 -16 34 -28 42 -28 22 0 29 30 13 60 -13 24 -12 28 9 42 13 9 24 24 24 34 0 26 115 35 270 21 165 -16 190 -31 134 -83 -30 -28 -35 -63 -10 -63 9 0 36 20 60 44 l44 45 5 -42 c7 -52 28 -58 72 -21 l32 27 3 -35 c3 -26 9 -35 27 -38 34 -4 51 33 36 83 -18 59 -36 69 -74 42 -38 -27 -43 -27 -43 0 0 26 -25 37 -56 23 -19 -9 -27 -5 -49 20 -39 44 -152 60 -388 54 -102 -3 -273 -6 -381 -7 -221 -1 -232 2 -209 59 27 68 27 68 -21 92 -25 12 -68 25 -94 28 -46 6 -50 4 -78 -32z m184 -191 c0 -5 -55 -90 -70 -109 -2 -2 -6 -1 -9 2 -9 8 18 95 31 105 13 9 48 11 48 2z m473 -31 c-14 -14 -27 -24 -30 -21 -7 7 30 48 43 48 6 0 0 -12 -13 -27z m-116 11 c0 -10 -165 -89 -172 -82 -14 14 -5 24 28 32 19 5 38 19 44 32 8 18 19 23 55 23 25 0 45 -2 45 -5z"/>
		<path d="M5108 3820 c-40 -56 -99 -166 -99 -185 0 -17 -114 -87 -145 -89 -26 -2 -29 1 -29 33 0 27 -7 41 -29 58 l-28 21 -29 -21 c-67 -50 -100 -163 -49 -170 14 -2 33 9 52 29 l30 31 23 -21 c29 -27 76 -20 129 20 20 15 38 23 40 17 10 -28 31 -61 40 -64 6 -2 30 15 53 38 47 48 57 52 57 21 0 -29 25 -36 64 -20 30 12 34 12 52 -11 16 -22 22 -24 45 -13 22 10 29 8 44 -9 12 -12 32 -20 54 -20 30 0 47 11 105 71 39 39 67 64 64 55 -3 -9 -11 -33 -19 -54 -15 -41 -9 -72 15 -72 9 0 17 17 21 44 4 25 20 72 35 105 43 97 12 126 -50 48 -67 -84 -128 -144 -146 -144 -10 0 -27 9 -38 21 -14 16 -28 21 -48 17 -22 -5 -32 0 -45 20 -13 20 -26 26 -58 26 -23 0 -44 4 -47 9 -3 5 -18 11 -34 14 -22 5 -35 -2 -63 -33 -25 -27 -35 -33 -35 -20 0 10 38 57 84 105 47 48 88 99 91 112 10 40 -9 80 -40 83 -22 3 -34 -6 -67 -52z m26 -72 c-18 -28 -38 -52 -43 -52 -12 0 -8 8 37 75 44 65 49 44 6 -23z m-345 -154 c-11 -22 -53 -62 -53 -51 0 13 23 53 35 61 20 13 29 9 18 -10z"/>
		<path d="M7552 3814 c-24 -27 -44 -55 -44 -63 0 -8 -16 -42 -35 -76 -32 -59 -33 -64 -18 -92 18 -32 67 -44 103 -24 32 17 86 -6 86 -36 0 -48 49 -61 72 -19 14 25 -6 66 -38 83 -36 18 -39 23 -19 45 14 16 16 25 6 42 -20 38 -56 25 -85 -32 -15 -30 -27 -40 -46 -40 -14 0 -28 4 -31 10 -9 13 19 76 54 122 l29 38 87 -6 c95 -7 110 1 86 46 -11 20 -19 22 -73 18 -53 -3 -62 -1 -67 15 -7 28 -18 23 -67 -31z"/>
		<path d="M3570 3832 c-10 -19 -9 -26 4 -40 16 -15 19 -15 35 2 14 13 16 22 7 35 -17 27 -33 28 -46 3z"/>
		<path d="M8804 3720 c-17 -17 -17 -19 0 -29 38 -22 58 -48 58 -77 0 -30 -46 -107 -63 -107 -18 0 -11 21 16 48 30 30 33 47 9 47 -23 0 -75 -55 -83 -89 -7 -27 8 -58 29 -58 29 0 86 39 108 73 47 75 44 128 -9 186 -25 29 -41 30 -65 6z"/>
		<path d="M6631 3704 c-9 -13 -16 -36 -16 -51 0 -37 -22 -54 -65 -50 -29 3 -35 8 -38 33 -4 35 -15 36 -57 5 -18 -12 -29 -16 -24 -8 6 9 2 19 -10 27 -25 18 -52 4 -75 -39 -15 -31 -15 -34 4 -53 20 -20 23 -20 53 -4 41 21 59 21 92 0 18 -12 36 -15 62 -10 68 12 69 -12 3 -87 -33 -38 -35 -72 -6 -90 28 -17 95 42 106 94 5 23 16 55 25 72 10 21 12 33 4 35 -6 3 -8 15 -5 28 4 16 1 26 -10 30 -11 4 -14 13 -10 25 6 15 8 14 15 -5 12 -31 29 -29 37 4 4 18 1 33 -12 47 -25 27 -52 26 -73 -3z m-30 -251 c-3 -9 -6 -6 -6 6 -1 11 2 17 5 14 4 -4 4 -13 1 -20z"/>
		<path d="M1632 3692 c-18 -47 24 -60 190 -61 99 -1 152 12 152 37 0 22 -30 27 -191 35 -129 6 -145 5 -151 -11z"/>
		<path d="M7077 3685 c-14 -4 -51 -8 -82 -9 -65 -1 -88 -12 -134 -60 -48 -51 -80 -42 -42 13 9 12 11 27 6 35 -7 11 -19 8 -56 -16 -45 -29 -68 -64 -33 -50 12 4 16 -2 16 -26 0 -18 4 -35 10 -39 22 -13 71 8 122 52 35 31 64 47 89 50 35 3 36 2 32 -32 -6 -66 50 -93 134 -63 28 9 37 8 54 -7 19 -17 33 -17 77 1 18 7 19 4 14 -28 -3 -20 -12 -56 -19 -80 -15 -48 -8 -66 19 -49 18 11 65 131 66 168 0 12 -9 30 -21 41 -20 17 -22 17 -49 0 -27 -18 -28 -18 -46 6 -18 24 -20 24 -54 8 -76 -36 -130 -33 -122 8 2 14 14 21 37 23 25 2 35 9 35 22 0 28 -23 41 -53 32z"/>
		<path d="M9828 3655 c-34 -68 -164 -179 -190 -163 -6 4 -9 16 -6 28 7 26 -2 50 -18 50 -6 0 -24 -10 -38 -21 -35 -27 -42 -26 -42 6 0 32 -27 45 -49 23 -39 -39 -5 -110 47 -97 18 4 32 -3 56 -26 37 -37 69 -40 107 -10 32 24 37 10 12 -32 -22 -40 -19 -53 14 -53 19 0 40 11 59 30 28 30 30 31 59 14 28 -16 33 -16 60 -2 36 21 39 56 5 61 -14 2 -29 14 -34 29 -11 28 -40 33 -62 12 -7 -7 -1 12 14 42 15 30 33 58 39 61 18 12 28 51 18 71 -15 28 -28 22 -51 -23z"/>
		<path d="M4292 3633 l-47 -52 -12 26 c-15 32 -28 32 -80 0 -54 -33 -57 -33 -70 5 -12 34 -46 51 -65 32 -9 -8 -8 -17 1 -32 20 -32 16 -66 -13 -104 -23 -32 -26 -64 -5 -64 5 0 24 18 43 40 20 22 58 54 86 70 l50 29 -23 -43 c-12 -24 -19 -51 -16 -59 11 -31 43 -15 103 49 64 68 74 65 40 -11 -27 -59 -28 -106 -2 -106 28 0 44 20 45 57 1 58 12 72 63 76 58 5 83 26 62 51 -9 11 -25 15 -44 12 -28 -4 -29 -2 -29 36 0 57 -29 53 -87 -12z"/>
		<path d="M8169 3632 c-39 -54 -47 -80 -31 -99 10 -13 18 -12 55 7 24 12 45 18 47 13 26 -74 67 -83 107 -22 21 32 31 39 61 39 l36 0 -7 -42 c-7 -37 -5 -42 13 -42 12 0 27 7 34 16 15 18 42 21 42 5 0 -14 45 -13 77 1 20 9 31 8 50 -4 18 -11 33 -13 49 -7 31 12 30 17 -9 53 -38 36 -43 36 -79 13 -26 -17 -28 -17 -42 1 -7 11 -16 25 -18 31 -2 7 -12 4 -26 -8 -22 -19 -23 -19 -60 13 -26 23 -45 32 -63 29 -33 -6 -76 -38 -84 -62 -10 -29 -26 -21 -26 14 0 39 -23 50 -59 26 -35 -23 -41 -16 -15 18 15 19 18 29 8 38 -19 19 -26 15 -60 -31z"/>
		<path d="M8959 3554 c-16 -12 -23 -27 -23 -52 0 -47 21 -62 70 -53 22 5 52 9 66 11 14 1 39 6 55 10 35 9 35 8 6 -59 -17 -40 -19 -55 -10 -64 18 -18 47 3 55 40 3 17 16 54 29 83 23 52 23 100 0 100 -6 0 -25 -12 -42 -26 -36 -30 -67 -34 -76 -11 -7 19 -44 21 -55 4 -5 -8 -10 -5 -16 10 -10 27 -27 29 -59 7z"/>
		<path d="M2636 3281 c0 -3 22 -44 49 -92 40 -68 50 -97 54 -147 5 -78 -15 -202 -48 -291 -32 -85 -35 -89 -47 -72 -7 10 -8 6 -4 -12 3 -15 -2 -40 -10 -57 -20 -39 -20 -79 2 -87 28 -11 50 12 58 61 5 25 16 61 25 81 21 45 53 154 72 251 20 100 9 164 -46 280 -40 84 -45 91 -74 91 -17 0 -31 -3 -31 -6z"/>
		<path d="M606 3044 c-22 -51 -23 -82 -2 -90 37 -14 66 93 33 121 -10 8 -17 1 -31 -31z"/>
		<path d="M2153 2977 c-44 -43 -83 -78 -87 -79 -4 0 -8 9 -8 19 0 48 -50 58 -90 18 -30 -30 -36 -32 -36 -12 0 18 -49 59 -70 59 -8 0 -24 -12 -37 -26 -28 -32 -36 -33 -43 -5 -8 30 -47 27 -62 -6 -15 -32 7 -110 31 -110 9 0 31 17 50 37 19 20 42 37 50 37 9 0 23 -17 33 -37 10 -20 22 -37 27 -37 5 0 27 15 48 34 37 32 39 33 53 13 8 -11 15 -26 15 -33 0 -32 52 -13 105 39 29 28 55 52 57 52 2 0 -2 -19 -7 -42 -8 -31 -8 -46 2 -58 18 -22 40 -3 48 43 13 70 43 58 58 -23 5 -27 17 -58 26 -68 9 -10 15 -27 13 -38 -4 -19 -20 -21 -74 -8 -35 9 -38 -7 -6 -37 29 -27 73 -27 98 0 18 20 19 28 7 95 -21 124 -18 144 24 162 20 8 37 19 37 23 0 11 -58 67 -69 67 -4 0 -18 -12 -32 -27 -30 -32 -44 -33 -48 -2 -6 42 -34 30 -113 -50z"/>
		<path d="M3100 3032 c-18 -18 -16 -44 6 -72 26 -31 55 -21 55 21 0 29 -23 64 -41 64 -4 0 -13 -6 -20 -13z"/>
		<path d="M6356 2984 c-27 -27 8 -43 79 -37 79 7 86 10 86 35 0 20 -6 22 -75 20 -51 -1 -79 -7 -90 -18z"/>
		<path d="M6096 2982 c-4 -5 -1 -19 7 -31 11 -19 20 -21 66 -15 59 7 74 16 64 40 -4 12 -21 17 -69 17 -34 0 -65 -5 -68 -11z"/>
		<path d="M7146 2974 c-51 -13 -85 -41 -85 -71 0 -35 25 -48 34 -16 7 26 39 36 119 36 98 0 101 -5 54 -75 -70 -104 -117 -181 -117 -192 0 -14 24 -13 43 3 9 7 34 40 56 74 21 33 45 60 53 60 42 0 120 -54 121 -83 0 -9 14 -28 31 -41 43 -33 116 -35 179 -4 34 16 58 21 82 17 42 -9 57 19 25 50 l-21 21 -63 -32 c-66 -34 -83 -33 -64 1 22 41 -19 72 -43 32 -9 -15 -12 -16 -20 -5 -6 9 -18 12 -32 8 -17 -6 -32 1 -57 23 -19 16 -50 36 -68 44 l-34 14 32 19 c38 23 40 41 8 69 -49 44 -160 67 -233 48z"/>
		<path d="M4190 2941 c-6 -10 -7 -22 -4 -26 11 -10 -51 -69 -72 -69 -23 0 -23 3 -2 44 16 31 16 34 -2 46 -10 8 -22 11 -27 8 -18 -11 -126 -244 -123 -263 8 -39 36 -18 69 52 34 71 58 93 78 73 8 -8 3 -30 -16 -72 -33 -71 -25 -93 25 -65 28 16 32 16 40 2 8 -15 13 -15 43 1 26 13 37 14 48 5 8 -6 28 -11 44 -10 47 3 56 1 56 -16 0 -17 37 -21 47 -5 4 6 14 11 23 11 9 0 29 9 45 20 22 16 39 20 62 15 25 -5 33 -3 33 9 0 9 9 27 20 41 11 14 21 34 23 46 4 19 15 21 120 26 63 3 134 4 156 2 l41 -3 -6 -57 c-5 -50 -3 -57 12 -57 10 0 28 7 41 16 21 15 24 14 39 -15 19 -37 47 -35 79 6 37 47 15 94 -22 49 -13 -16 -15 -15 -20 7 -8 35 -29 37 -44 6 -6 -15 -16 -27 -21 -27 -12 0 -11 49 2 57 18 11 12 46 -10 58 -14 7 -107 9 -286 5 -146 -4 -300 -7 -341 -8 -76 -2 -107 -15 -93 -39 6 -10 46 -11 152 -7 80 4 148 3 151 0 4 -4 -25 -30 -64 -59 -39 -28 -73 -55 -76 -59 -3 -5 -15 -12 -28 -16 -22 -6 -22 -5 -12 36 19 75 -27 98 -88 44 l-33 -30 -23 27 c-21 24 -27 25 -51 14 -23 -11 -27 -10 -27 4 0 8 15 22 34 30 47 20 52 27 32 49 -15 18 -15 21 0 45 22 33 23 69 2 69 -8 0 -20 -9 -26 -20z"/>
		<path d="M5338 2951 c-22 -9 -43 -49 -32 -60 9 -9 68 8 81 23 10 12 10 19 0 31 -15 18 -18 18 -49 6z"/>
		<path d="M3467 2898 c-39 -24 -37 -14 -17 -136 8 -45 7 -46 -18 -38 -55 18 -77 13 -81 -17 -6 -58 105 -80 150 -30 17 18 17 28 7 87 -6 37 -11 75 -11 85 0 26 34 21 63 -9 30 -33 42 -33 42 -1 0 62 -76 95 -135 59z"/>
		<path d="M10049 2882 c0 -19 5 -26 21 -26 21 0 25 8 14 36 -10 26 -35 20 -35 -10z"/>
		<path d="M5234 2872 c-17 -7 -44 -19 -60 -25 -33 -13 -40 -53 -11 -61 20 -5 32 -66 13 -66 -5 0 -10 -8 -10 -16 0 -18 42 -22 59 -5 7 7 17 4 30 -11 24 -26 77 -28 86 -3 5 10 2 19 -7 22 -8 3 -26 17 -40 31 -15 14 -34 23 -44 20 -17 -4 -16 1 6 49 38 82 35 91 -22 65z"/>
		<path d="M6182 2862 c-10 -14 -18 -28 -18 -31 0 -3 -17 -33 -37 -66 -20 -34 -37 -70 -37 -80 0 -27 28 -34 57 -14 33 21 54 22 62 1 11 -28 47 -17 102 32 57 51 78 52 68 5 -9 -38 13 -46 56 -20 44 26 47 26 62 -12 9 -25 17 -32 36 -29 25 3 26 9 11 72 -9 35 -11 36 -54 34 -33 -1 -50 3 -63 17 -11 13 -38 22 -75 26 -58 6 -60 5 -104 -35 -42 -38 -74 -46 -74 -18 0 7 12 30 27 52 40 60 22 122 -19 66z"/>
		<path d="M9450 2844 c-35 -20 -94 -97 -94 -122 0 -14 -87 -65 -110 -65 -13 0 -16 11 -16 46 0 49 -20 80 -51 80 -31 0 -96 -54 -96 -79 0 -31 25 -52 54 -44 15 4 33 -3 53 -20 35 -30 64 -32 117 -10 33 14 41 14 62 2 40 -25 79 -29 119 -12 21 8 40 16 42 16 2 0 4 -19 4 -42 0 -30 -7 -49 -26 -70 -30 -32 -35 -75 -10 -84 11 -5 29 7 52 31 35 37 37 41 37 124 0 75 2 88 26 116 42 50 48 106 11 120 -30 11 -96 -60 -89 -97 4 -24 -4 -37 -35 -57 -40 -24 -74 -26 -91 -6 -9 11 -6 18 14 31 70 46 112 120 83 149 -19 19 -12 19 -56 -7z"/>
		<path d="M5715 2835 c-20 -31 -152 -136 -172 -136 -11 0 -20 11 -24 31 -7 38 -54 72 -78 56 -26 -16 -27 -35 -2 -35 16 0 21 -5 19 -18 -3 -15 -12 -18 -48 -15 -38 3 -44 0 -44 -17 0 -35 25 -49 64 -35 27 9 37 9 51 -4 26 -24 60 -19 110 16 56 38 61 38 45 4 -9 -20 -9 -29 1 -39 11 -10 18 -8 34 12 11 14 20 31 20 39 0 10 12 15 35 15 20 0 41 6 48 14 16 20 3 49 -21 49 -19 0 -20 2 -4 32 25 48 -6 76 -34 31z"/>
		<path d="M8988 2838 c-9 -3 -28 -17 -44 -32 -25 -24 -28 -32 -24 -84 5 -68 13 -79 54 -74 32 4 50 40 19 40 -12 0 -15 6 -10 21 3 11 1 29 -5 41 -13 24 2 39 42 45 18 2 26 10 26 24 0 22 -27 31 -58 19z"/>
		<path d="M8732 2805 c-21 -23 -22 -37 -1 -54 9 -8 16 -31 16 -59 0 -38 3 -46 19 -46 31 0 47 28 48 84 1 35 -5 57 -19 72 -25 28 -40 28 -63 3z"/>
		<path d="M3599 2766 c-55 -30 -69 -101 -24 -122 33 -15 70 7 89 54 12 27 11 36 -4 58 -20 31 -22 31 -61 10z m34 -51 c0 -18 -17 -31 -31 -22 -14 9 -1 37 16 37 8 0 15 -7 15 -15z"/>
		<path d="M6651 2747 c-37 -37 -46 -76 -23 -99 19 -19 46 -15 91 13 50 32 61 59 37 95 -25 37 -62 34 -105 -9z m63 -41 c-7 -19 -57 -25 -57 -8 0 15 45 43 55 34 5 -5 6 -17 2 -26z"/>
		<path d="M8318 2766 c-28 -19 -30 -46 -5 -47 15 -1 14 -3 -4 -10 -20 -8 -45 -40 -45 -57 0 -11 48 -6 60 7 10 9 16 9 26 0 7 -7 37 -13 67 -13 39 0 56 -4 61 -16 9 -26 -30 -130 -89 -231 -29 -51 -50 -99 -47 -107 13 -36 45 -2 111 118 97 179 109 230 66 279 -11 13 -27 16 -67 12 -51 -5 -52 -5 -52 24 0 27 -24 56 -48 57 -5 0 -21 -7 -34 -16z"/>
		<path d="M8042 2740 c-27 -27 -22 -44 18 -54 16 -4 40 -10 53 -14 28 -9 40 21 25 62 -13 35 -64 38 -96 6z"/>
		<path d="M10058 2743 c-15 -10 -35 -27 -45 -37 -10 -10 -27 -18 -37 -18 -10 0 -23 -6 -30 -12 -21 -21 -28 0 -8 22 19 21 14 43 -9 43 -17 0 -65 -52 -74 -80 -9 -29 16 -50 63 -51 19 -1 41 -7 48 -14 20 -20 59 -16 83 8 11 12 21 25 21 30 0 5 11 22 26 37 31 34 33 50 7 73 -17 15 -21 15 -45 -1z"/>
		<path d="M7819 2711 c-27 -17 -36 -38 -20 -48 18 -11 82 -17 95 -8 12 8 12 14 -3 36 -23 36 -38 40 -72 20z"/>
		<path d="M7266 2688 c0 -30 44 -49 79 -33 31 14 34 33 6 33 -12 0 -24 5 -27 11 -4 5 -18 10 -32 10 -19 0 -26 -6 -26 -21z"/>
		<path d="M8043 2580 c-9 -7 -29 -35 -45 -62 -16 -27 -38 -52 -50 -56 -32 -10 -55 14 -48 50 4 21 1 32 -10 36 -24 9 -46 -17 -46 -54 0 -69 81 -106 138 -62 26 19 103 133 103 152 0 13 -23 11 -42 -4z"/>
		<path d="M9781 2356 c-29 -9 -60 -23 -70 -31 -15 -14 -40 -81 -40 -108 0 -27 32 -9 49 27 10 22 32 46 47 53 70 34 145 -33 95 -84 -28 -28 -40 -19 -26 20 13 39 6 56 -23 56 -34 0 -52 -26 -50 -72 1 -32 -6 -51 -36 -89 -58 -74 -92 -91 -165 -84 -49 5 -64 3 -81 -12 -26 -24 -26 -65 0 -79 34 -18 110 -13 140 11 15 11 36 21 47 21 12 0 29 11 38 26 10 14 25 26 35 26 14 0 15 -3 5 -13 -7 -7 -12 -20 -12 -31 0 -10 -8 -22 -18 -28 -20 -11 -12 -43 12 -43 8 0 31 14 51 31 42 37 66 40 75 10 19 -58 89 -64 178 -14 63 35 101 29 101 -18 0 -22 -11 -45 -32 -69 -47 -54 -36 -104 21 -93 31 6 36 12 51 65 9 31 28 58 65 91 47 42 56 46 92 42 28 -4 44 -1 54 11 7 9 20 17 27 17 7 0 19 7 26 16 21 25 42 19 42 -13 0 -44 13 -56 61 -61 58 -5 65 -11 58 -46 -5 -29 20 -85 38 -85 5 0 28 18 53 41 35 32 43 45 37 63 -9 29 -21 28 -46 -7 -29 -40 -37 -25 -22 45 15 74 2 88 -49 57 -35 -22 -72 -27 -82 -10 -9 13 38 43 80 51 18 4 38 17 44 28 7 11 13 23 15 26 6 8 139 6 139 -2 0 -4 -15 -29 -33 -55 -43 -65 -40 -104 10 -109 24 -2 47 -15 70 -39 31 -34 36 -36 67 -25 20 7 33 19 33 31 0 26 -17 34 -42 21 -17 -9 -23 -7 -32 10 -10 18 -7 23 26 39 29 13 37 24 37 46 0 15 -7 34 -16 41 -14 12 -23 6 -63 -35 -54 -57 -89 -68 -64 -20 22 41 71 86 107 95 17 5 66 6 110 2 93 -8 105 -5 105 27 0 28 -20 35 -78 24 -53 -9 -125 1 -118 16 2 6 8 19 11 29 4 10 0 24 -11 35 -18 18 -20 17 -51 -18 -47 -54 -67 -60 -178 -60 -55 1 -105 -2 -111 -6 -6 -4 -10 -17 -8 -30 2 -20 -3 -23 -63 -29 -36 -3 -74 -13 -84 -22 -36 -31 -47 -33 -40 -9 11 32 -23 43 -46 15 -16 -20 -54 -45 -68 -45 -3 0 -6 11 -6 25 0 13 -9 35 -19 48 -26 32 -55 16 -84 -46 -25 -53 -44 -70 -44 -41 0 26 -46 66 -76 66 -31 0 -39 -7 -76 -63 l-32 -47 -3 34 c-4 43 -36 67 -78 58 l-31 -6 25 38 c13 21 33 41 43 45 25 8 39 46 39 107 0 57 -18 88 -65 112 -18 9 -33 16 -34 15 0 0 -24 -8 -53 -16z m37 -217 c0 -7 -10 -19 -21 -26 -25 -15 -27 -11 -8 19 14 23 29 27 29 7z m394 -108 c-3 -10 -9 -16 -12 -13 -3 3 -2 13 2 23 4 10 9 16 12 13 3 -3 2 -14 -2 -23z m5 -72 c0 -2 -8 -6 -16 -10 -9 -3 -16 -1 -16 4 0 6 7 11 16 11 8 0 16 -2 16 -5z"/>
		<path d="M4216 2321 c-4 -6 -2 -11 4 -11 6 0 12 5 12 11 0 5 -3 10 -5 10 -3 0 -8 -5 -11 -10z"/>
		<path d="M8163 2305 c-21 -21 -25 -33 -20 -66 5 -33 1 -46 -27 -84 -18 -24 -36 -44 -41 -44 -4 0 -17 -17 -27 -37 -11 -20 -24 -37 -28 -37 -12 0 -101 -129 -108 -158 -9 -34 28 -83 62 -83 28 0 86 60 95 97 14 59 24 129 20 136 -3 4 4 22 16 38 17 23 32 32 64 35 40 4 58 -12 32 -28 -14 -8 -14 -47 -1 -47 5 0 36 14 68 32 45 24 59 28 59 16 0 -9 -5 -19 -11 -22 -19 -12 -12 -47 10 -47 20 0 53 25 53 42 0 5 18 10 39 12 29 2 41 9 43 23 6 32 -11 38 -107 40 -58 1 -95 7 -102 15 -6 7 -25 16 -42 20 -36 8 -37 14 -9 50 33 42 46 89 31 107 -19 23 -39 20 -69 -10z m-128 -355 c-3 -13 -18 -42 -33 -65 -25 -39 -27 -40 -31 -18 -2 14 9 42 24 66 30 45 49 54 40 17z"/>
		<path d="M5519 2274 c-15 -20 -27 -39 -27 -42 0 -4 -17 -31 -37 -60 -39 -56 -45 -81 -24 -101 18 -19 41 -16 98 13 43 22 53 24 60 11 27 -48 120 -31 150 27 10 19 21 28 31 24 18 -7 20 -21 5 -30 -6 -4 -10 -18 -10 -33 0 -51 56 -46 125 12 67 55 116 45 62 -13 -17 -17 -20 -28 -12 -36 13 -13 61 9 91 42 20 22 20 23 1 59 -22 40 -35 44 -88 25 -24 -8 -41 -8 -57 -1 -20 10 -47 15 -154 26 -23 2 -27 -2 -30 -32 -2 -25 -10 -38 -29 -46 -37 -17 -54 2 -31 35 32 46 9 87 -26 45 -16 -19 -115 -71 -122 -64 -2 2 17 36 44 74 47 67 55 101 22 101 -8 0 -27 -16 -42 -36z m330 -152 c0 -13 -21 -26 -29 -18 -7 7 6 28 19 28 5 0 10 -5 10 -10z"/>
		<path d="M6445 2265 c-21 -24 -64 -58 -96 -75 l-59 -31 -26 25 -27 24 -57 -28 c-31 -15 -66 -27 -78 -27 -21 0 -39 -27 -24 -37 5 -3 24 -1 42 5 22 6 33 5 33 -2 0 -6 -9 -13 -20 -16 -44 -11 -29 -66 22 -82 26 -9 72 21 72 47 0 21 40 48 96 64 30 9 37 2 20 -17 -20 -22 -32 -80 -21 -100 10 -20 51 -27 66 -12 5 4 30 8 57 8 27 1 70 5 95 10 43 8 45 7 39 -12 -4 -14 0 -27 11 -36 15 -12 21 -10 45 19 21 25 33 31 54 27 31 -5 58 19 48 45 -6 14 -19 16 -88 10 -45 -4 -97 -11 -115 -16 -41 -10 -43 -5 -11 29 25 26 20 47 -16 70 -13 8 -24 4 -49 -20 -17 -17 -35 -40 -39 -52 -10 -33 -56 -54 -56 -25 0 19 73 125 118 173 27 28 40 50 36 60 -10 27 -31 19 -72 -28z m58 -160 c-3 -8 -12 -15 -20 -15 -8 0 -12 6 -8 15 3 9 12 16 20 16 8 0 12 -7 8 -16z"/>
		<path d="M8934 2253 c-21 -43 -27 -48 -59 -48 -27 0 -37 5 -41 21 -13 49 -69 8 -96 -70 -6 -19 -31 -63 -54 -98 -43 -63 -51 -100 -22 -100 16 0 66 65 116 150 28 49 36 55 67 55 19 0 37 -3 41 -7 4 -3 -10 -27 -31 -52 -52 -63 -32 -108 24 -55 28 26 46 18 46 -21 0 -29 27 -64 49 -64 6 0 17 -8 25 -16 15 -18 65 -21 95 -5 16 9 20 22 20 72 0 54 -3 64 -26 79 -37 24 -42 22 -69 -30 -29 -53 -39 -51 -43 10 -3 38 -6 42 -33 40 -25 -2 -27 0 -18 18 6 11 15 20 19 19 4 -1 16 2 27 7 16 7 322 1 390 -8 13 -2 21 3 21 13 0 28 -94 44 -254 43 l-149 -1 5 34 c4 25 1 39 -10 49 -15 12 -20 7 -40 -35z m138 -211 c0 -8 -5 -15 -10 -15 -6 0 -11 7 -11 15 0 9 5 16 11 16 5 0 10 -7 10 -16z"/>
		<path d="M7035 2254 c-28 -14 -53 -35 -62 -53 -13 -27 -12 -36 8 -77 12 -25 23 -50 23 -56 0 -15 -23 -12 -44 7 -35 31 -68 -6 -42 -47 12 -19 96 -34 119 -22 29 16 33 64 9 116 -28 63 -27 80 9 98 43 22 54 21 54 -9 0 -32 25 -42 58 -20 27 18 34 54 13 75 -20 20 -93 14 -145 -12z m113 -24 c-4 -3 -13 -4 -20 -1 -9 4 -6 6 6 7 11 0 17 -2 14 -6z"/>
		<path d="M6610 2231 c-6 -2 -24 -6 -40 -10 -16 -3 -28 -13 -28 -21 0 -13 17 -16 88 -16 90 0 113 9 90 37 -12 14 -80 20 -110 10z"/>
		<path d="M2327 2160 c-25 -24 -58 -55 -74 -69 -66 -55 26 -56 113 -2 56 36 75 79 43 102 -28 20 -33 18 -82 -31z"/>
		<path d="M3384 2194 c-8 -8 -10 -31 -6 -64 l6 -50 -39 6 c-39 7 -79 -16 -79 -44 0 -19 69 -29 110 -15 43 14 58 36 58 87 0 28 5 37 21 42 15 3 21 12 19 25 -5 22 -70 32 -90 13z"/>
		<path d="M4120 2158 c-12 -18 -15 -37 -10 -62 4 -21 2 -39 -4 -43 -6 -4 -11 -21 -11 -38 0 -61 59 -21 70 48 4 21 13 41 21 44 22 9 17 42 -9 61 -31 21 -37 21 -57 -10z"/>
		<path d="M4459 2135 c-41 -34 -54 -39 -95 -36 -47 3 -85 -12 -130 -50 -51 -44 -18 -65 44 -29 26 15 54 28 63 28 16 0 16 -3 0 -33 -22 -44 -5 -64 29 -35 64 55 93 84 93 94 0 13 33 47 46 47 4 0 -7 -26 -26 -58 -48 -85 -25 -128 26 -48 22 35 33 42 66 45 29 2 41 9 43 23 5 25 -17 39 -49 31 -22 -6 -24 -4 -17 17 7 24 -7 42 -33 42 -6 0 -33 -17 -60 -38z"/>
		<path d="M3229 2133 c-29 -57 -18 -78 27 -54 24 13 27 55 5 73 -12 10 -18 7 -32 -19z"/>
		<path d="M3761 2121 c-62 -45 -59 -64 9 -56 50 6 56 5 78 -24 31 -38 48 -24 24 19 -10 17 -18 38 -18 45 0 16 -28 48 -42 48 -4 0 -27 -15 -51 -32z"/>
		<path d="M7590 2118 c-66 -73 -77 -82 -98 -79 -16 3 -20 10 -18 32 4 36 -10 37 -46 3 -35 -32 -46 -33 -46 -5 0 34 -30 37 -58 6 -14 -15 -36 -27 -48 -27 -19 0 -22 4 -17 24 10 39 -4 42 -40 9 -41 -39 -71 -51 -67 -26 2 10 14 20 27 22 12 2 28 10 35 19 11 13 10 19 -4 33 -16 16 -19 15 -41 -5 -13 -12 -34 -27 -47 -34 -20 -9 -24 -21 -24 -59 0 -41 3 -46 24 -46 13 0 35 7 48 17 18 12 30 14 47 6 13 -5 63 -9 112 -8 51 2 95 -2 103 -8 10 -8 29 -6 65 7 51 19 52 19 84 -4 29 -21 37 -22 79 -11 36 8 52 8 67 -2 15 -9 29 -9 50 -2 34 12 47 47 18 47 -16 0 -15 3 7 26 20 21 23 31 14 45 -21 32 -60 22 -81 -22 -19 -38 -21 -39 -76 -39 -41 0 -57 4 -57 14 0 21 28 43 36 28 11 -16 48 7 48 30 0 51 -53 57 -96 9z"/>
		<path d="M4916 2124 c-17 -6 -44 -59 -44 -86 0 -13 12 -28 29 -37 16 -8 36 -26 43 -41 13 -24 10 -31 -42 -107 -31 -45 -63 -90 -71 -101 -11 -16 -12 -23 -2 -33 17 -17 78 50 153 166 31 49 62 85 74 87 38 8 49 24 30 45 -14 16 -15 25 -4 56 6 20 9 41 6 47 -6 9 -146 12 -172 4z m100 -80 c-12 -27 -39 -39 -39 -17 0 12 42 56 48 49 2 -2 -2 -16 -9 -32z"/>
		<path d="M3436 1637 c-93 -12 -121 -60 -76 -133 25 -42 20 -55 -30 -79 -22 -10 -45 -30 -52 -44 -10 -22 -8 -28 16 -47 54 -43 145 3 193 96 11 21 31 46 44 56 71 50 102 66 102 55 0 -15 -45 -106 -87 -177 -28 -47 -28 -49 -8 -66 19 -18 21 -18 47 -1 15 10 27 26 27 36 0 10 16 50 36 88 45 85 58 159 34 183 -16 16 -21 15 -61 -8 l-44 -24 -27 31 c-34 40 -46 43 -114 34z m55 -48 c10 -9 15 -24 11 -32 -3 -8 -5 -19 -5 -25 0 -5 -13 -17 -28 -27 -27 -18 -28 -17 -47 6 -11 13 -20 38 -20 54 0 24 5 30 29 34 16 2 32 5 36 6 4 1 15 -6 24 -16z m-85 -188 c-8 -20 -43 -39 -57 -30 -6 3 0 15 13 26 29 24 52 26 44 4z"/>
		<path d="M4364 1598 c-11 -17 5 -45 24 -42 22 5 22 44 -1 48 -9 2 -20 -1 -23 -6z"/>
		<path d="M7427 1596 c-12 -5 -31 -23 -41 -41 -22 -37 -25 -39 -103 -49 -58 -7 -59 -6 -56 18 1 16 -3 25 -13 25 -11 0 -15 -9 -14 -25 3 -21 -1 -23 -36 -21 -36 3 -39 6 -37 33 5 42 -23 48 -59 14 -20 -19 -40 -27 -66 -27 -43 0 -72 -25 -53 -45 7 -7 12 -17 12 -23 0 -16 -66 -67 -96 -74 -22 -6 -25 -3 -24 27 0 40 -27 62 -55 46 -10 -6 -28 -31 -39 -55 -26 -55 -44 -56 -58 -6 -8 29 -7 45 5 67 42 80 1 82 -71 4 -71 -78 -157 -122 -137 -70 4 9 -2 22 -13 30 -18 13 -17 16 10 56 30 43 30 74 1 74 -9 0 -21 -11 -26 -24 -5 -13 -26 -47 -47 -76 -21 -29 -38 -59 -38 -68 0 -9 -26 -61 -57 -115 -64 -110 -69 -130 -36 -125 15 3 36 31 71 98 70 134 63 126 91 100 21 -20 29 -21 63 -12 22 6 53 24 70 40 16 16 30 23 30 16 0 -13 -9 -28 -69 -123 -19 -29 -37 -63 -41 -76 -12 -37 22 -30 46 11 95 158 97 161 114 136 13 -21 24 -23 91 -23 85 0 150 26 213 86 40 38 49 35 32 -11 -10 -25 -10 -36 -1 -45 18 -18 32 -4 66 65 l32 62 55 1 c30 1 77 2 105 3 27 1 49 -2 49 -6 0 -4 -15 -18 -34 -30 -18 -13 -47 -36 -64 -51 l-30 -27 7 26 c19 64 19 74 3 74 -23 0 -94 -108 -86 -130 11 -26 69 -22 111 8 20 14 49 34 66 43 29 17 29 17 22 -7 -4 -14 -10 -30 -12 -37 -13 -33 56 -56 107 -36 14 6 27 4 38 -6 21 -18 57 -11 66 14 4 10 -1 18 -15 21 -26 7 -37 42 -21 62 15 17 42 20 42 5 0 -6 5 -11 11 -11 14 0 13 35 -3 50 -23 23 -43 14 -99 -47 -31 -32 -59 -56 -62 -53 -12 12 6 65 32 97 24 31 27 32 117 33 118 1 120 1 120 20 0 28 -30 51 -47 37 -13 -11 -117 -19 -127 -9 -3 3 3 20 12 39 19 39 10 56 -24 43z"/>
		<path d="M10413 1578 c-12 -11 -9 -43 4 -51 16 -10 45 22 38 42 -7 17 -30 22 -42 9z"/>
		<path d="M8548 1537 c-26 -33 -26 -36 -7 -62 26 -34 19 -47 -33 -69 -123 -53 -202 -165 -140 -198 78 -42 202 37 258 166 21 49 47 71 89 77 40 5 37 -21 -10 -91 -48 -73 -52 -90 -19 -89 25 0 166 99 166 116 0 16 -34 11 -56 -9 -21 -18 -21 -17 -14 8 19 69 18 79 -4 102 -25 28 -51 30 -79 9 -29 -22 -47 -20 -47 5 0 26 -36 63 -62 63 -11 0 -30 -13 -42 -28z m62 -68 c0 -5 -5 -9 -10 -9 -6 0 -11 7 -11 16 0 9 5 13 11 10 5 -4 10 -11 10 -17z m-59 -110 c10 -26 -12 -56 -65 -89 -106 -68 -120 -11 -16 68 53 41 72 46 81 21z"/>
		<path d="M4925 1534 c0 -15 6 -22 21 -22 27 0 24 35 -3 40 -13 2 -18 -3 -18 -18z"/>
		<path d="M5148 1530 c-23 -29 -169 -144 -183 -144 -14 0 -11 12 9 34 20 22 5 47 -22 36 -25 -10 -60 -72 -57 -101 5 -42 47 -40 105 4 27 21 52 38 55 38 3 0 6 -12 6 -26 0 -36 21 -45 43 -18 10 13 20 28 22 34 2 6 20 14 39 18 42 9 55 32 23 41 -26 6 -27 12 -6 39 34 45 1 89 -34 45z"/>
		<path d="M6620 1533 c4 -6 11 -10 17 -10 5 0 10 4 10 10 0 6 -8 11 -17 11 -9 0 -13 -5 -10 -11z"/>
		<path d="M10553 1479 c-99 -87 -200 -166 -200 -155 0 6 8 25 18 42 13 22 15 33 6 42 -30 30 -103 -72 -96 -133 3 -25 9 -31 33 -34 24 -3 45 11 113 72 46 42 87 73 90 70 5 -5 -36 -81 -49 -91 -15 -12 -32 -54 -26 -64 17 -26 90 15 90 50 0 10 77 116 94 129 4 3 13 16 20 30 12 21 11 29 -6 52 -11 15 -25 28 -30 30 -6 1 -32 -16 -57 -40z"/>
		<path d="M5598 1483 c-105 -53 -145 -113 -100 -151 15 -12 24 -10 68 15 l50 28 3 -24 c5 -31 43 -35 88 -8 33 19 37 20 46 4 8 -15 15 -16 49 -6 35 11 41 10 57 -10 11 -14 24 -20 35 -15 33 12 32 39 -2 73 -29 30 -36 32 -55 20 -18 -12 -24 -10 -41 11 l-19 24 -25 -23 c-27 -25 -82 -43 -82 -27 0 6 7 17 16 24 22 18 16 62 -11 79 -18 12 -28 11 -77 -14z m51 -34 c0 -6 -12 -16 -26 -23 -15 -6 -26 -15 -26 -20 0 -4 -15 -13 -34 -19 -40 -14 -40 -14 -40 -1 0 10 102 73 118 73 4 0 8 -4 8 -10z"/>
		<path d="M9676 1463 c-22 -26 -64 -63 -93 -82 -30 -19 -63 -45 -74 -57 -26 -29 -38 -28 -38 2 0 61 -67 68 -112 12 -36 -44 -89 -55 -96 -20 -7 36 -24 48 -56 41 -20 -4 -30 -2 -30 6 0 8 -12 11 -32 8 -24 -3 -35 0 -39 12 -10 28 -36 54 -56 54 -29 0 -43 -37 -46 -118 -4 -85 10 -93 63 -35 19 20 38 37 44 37 5 0 7 -17 5 -37 -5 -45 14 -49 51 -10 31 33 52 33 52 0 0 -21 7 -28 44 -37 33 -9 49 -9 67 1 16 8 49 10 94 7 75 -6 89 1 165 81 30 31 30 31 23 6 -4 -15 -14 -34 -21 -43 -19 -21 -19 -52 -1 -52 18 0 39 25 70 81 27 49 36 50 46 3 5 -26 16 -37 56 -55 29 -13 74 -23 108 -24 32 0 70 -7 84 -14 37 -18 78 -1 105 43 32 52 37 81 17 101 -16 16 -20 16 -46 -1 -28 -18 -134 -72 -155 -79 -6 -2 2 8 17 22 16 14 34 36 41 49 11 21 9 27 -15 51 l-27 27 -36 -36 c-21 -19 -42 -50 -48 -69 -9 -26 -16 -33 -32 -28 -33 8 -24 42 24 87 40 37 43 42 29 57 -15 15 -20 14 -52 -10 -46 -34 -60 -34 -38 -1 21 34 21 45 -3 58 -16 8 -26 2 -59 -38z m199 -108 c-10 -12 -21 -19 -24 -16 -3 3 3 14 14 26 10 12 21 19 24 16 3 -3 -3 -15 -14 -26z"/>
		<path d="M4499 1469 c-35 -31 -38 -32 -56 -16 -27 24 -37 22 -74 -20 -27 -31 -32 -34 -32 -16 0 34 -21 36 -77 5 l-55 -30 18 28 c16 24 16 29 2 40 -13 11 -22 6 -57 -29 -39 -39 -41 -44 -30 -75 15 -42 35 -42 95 -2 56 39 64 39 55 6 -11 -45 23 -46 69 -1 36 35 41 38 67 26 15 -7 35 -24 44 -37 12 -19 26 -25 55 -25 22 0 46 5 54 10 11 6 24 3 41 -11 54 -42 104 -8 93 64 -5 26 -3 42 3 42 19 0 12 41 -9 52 -17 9 -25 6 -43 -17 -12 -17 -19 -35 -15 -45 19 -45 19 -57 0 -50 -10 4 -41 8 -70 8 -28 0 -51 3 -51 7 0 5 20 18 44 29 53 25 57 36 29 66 -30 32 -56 29 -100 -9z"/>
		<path d="M4032 1473 c-36 -24 -50 -44 -57 -82 -5 -24 -2 -36 17 -52 14 -12 36 -37 49 -56 21 -29 23 -39 14 -61 -15 -32 -75 -37 -75 -5 0 11 7 25 15 33 20 16 21 52 2 52 -7 0 -29 -16 -48 -36 -34 -34 -35 -38 -22 -69 19 -46 64 -68 111 -52 79 26 90 96 26 174 -44 52 -50 71 -32 99 8 12 14 13 31 2 37 -23 53 -16 53 23 0 50 -37 63 -84 30z"/>
		<path d="M6183 1435 c-82 -62 -95 -122 -27 -122 19 0 45 7 58 16 23 16 25 16 30 -5 6 -23 46 -40 66 -28 16 10 13 34 -5 41 -10 4 -15 21 -15 47 0 29 -8 47 -25 63 -13 13 -27 23 -30 23 -4 0 -27 -16 -52 -35z m25 -62 c-13 -12 -27 -19 -31 -14 -5 4 3 17 17 28 32 27 43 16 14 -14z"/>
		<path d="M10868 1420 c-47 -6 -71 -25 -90 -67 -19 -40 -19 -41 6 -67 34 -36 68 -33 111 10 l36 36 18 -36 c14 -30 23 -36 49 -36 41 0 80 26 80 54 0 17 -7 20 -39 17 -34 -2 -39 0 -50 31 -6 18 -16 38 -22 43 -13 12 -66 20 -99 15z m21 -60 c-35 -20 -53 -20 -27 0 11 9 27 15 36 15 11 0 7 -6 -9 -15z"/>
		<path d="M7993 1247 c-23 -22 -16 -59 13 -67 14 -3 30 -3 36 1 18 11 13 42 -8 62 -23 20 -25 21 -41 4z"/>
		<path d="M7704 1190 c-9 -8 1 -24 14 -24 6 0 10 7 10 15 0 16 -12 21 -24 9z"/>
		<path d="M7335 1030 c-4 -6 -8 -46 -10 -89 -3 -59 -9 -86 -27 -110 -21 -30 -36 -37 -126 -58 -33 -7 -83 -68 -91 -111 -6 -27 -2 -33 22 -44 37 -17 79 5 157 82 70 69 101 74 68 12 -15 -29 -3 -72 20 -72 10 0 35 17 55 37 42 44 55 46 71 11 13 -29 24 -32 57 -15 20 11 21 10 14 -18 -4 -17 -28 -65 -54 -108 -47 -78 -50 -96 -16 -95 23 0 37 16 48 52 9 30 73 131 102 159 10 11 19 24 19 29 0 8 63 43 78 43 3 0 6 -14 6 -31 0 -66 24 -79 85 -47 30 15 34 15 51 0 22 -20 44 -21 62 -3 11 10 16 9 28 -7 13 -18 21 -18 107 -7 51 7 103 18 116 24 19 9 27 8 43 -7 15 -13 30 -16 57 -11 31 6 37 4 42 -15 7 -29 53 -29 89 -1 l27 22 24 -29 c28 -35 33 -93 8 -102 -32 -13 -71 -6 -95 16 -20 19 -27 20 -40 9 -21 -18 -20 -45 3 -66 15 -14 32 -16 91 -11 110 10 147 60 105 141 -18 34 -1 44 22 12 11 -16 17 -16 50 -4 30 10 41 10 59 -1 18 -11 24 -11 31 2 21 32 -14 133 -49 145 -7 2 -33 -15 -58 -39 -53 -48 -79 -58 -36 -13 39 40 40 73 4 100 -27 21 -31 21 -57 6 -16 -8 -30 -26 -32 -39 -3 -22 -1 -24 34 -17 24 4 38 3 38 -4 0 -19 -70 -66 -88 -59 -8 3 -28 -2 -42 -11 -25 -17 -27 -16 -30 6 -5 33 -35 49 -61 33 -28 -18 -52 -16 -52 3 0 8 -9 16 -20 16 -11 0 -26 -8 -33 -16 -20 -24 -33 -19 -26 9 6 23 -16 59 -36 59 -13 0 -61 -56 -68 -80 -7 -22 -54 -50 -69 -41 -4 2 -5 18 -3 35 6 41 -12 50 -46 24 -38 -30 -55 -28 -49 4 7 36 -16 34 -65 -5 -43 -34 -53 -37 -63 -21 -10 16 50 71 85 80 47 11 122 52 147 79 40 45 46 63 29 96 -42 80 -143 35 -226 -99 -30 -48 -88 -93 -120 -93 -20 0 -20 3 17 61 17 29 31 64 31 80 0 50 -33 27 -76 -52 -59 -109 -118 -149 -155 -105 -19 23 -44 20 -88 -10 -40 -28 -41 -27 -38 20 2 27 -1 29 -25 25 -22 -4 -27 -1 -27 14 0 15 7 20 31 20 30 0 32 2 30 34 -1 18 4 47 11 63 17 43 14 75 -8 95 -21 19 -60 23 -69 8z m644 -102 c-19 -23 -100 -77 -116 -77 -17 0 29 49 70 74 40 26 66 27 46 3z m-765 -200 c0 -13 -46 -56 -60 -56 -22 0 -16 29 9 47 25 17 51 21 51 9z m1403 -53 c-16 -16 -17 -16 -17 -1 0 10 5 19 13 22 21 8 23 -2 4 -21z"/>
		<path d="M9057 1007 c-96 -16 -141 -47 -126 -87 8 -21 19 -21 37 -1 26 33 72 47 172 54 l102 7 -4 -25 c-2 -18 -16 -32 -43 -44 -47 -22 -60 -48 -35 -66 24 -18 22 -24 -31 -92 -52 -67 -70 -104 -61 -128 11 -29 56 -10 70 28 3 10 10 9 25 -4 17 -15 27 -17 57 -8 19 5 43 20 52 32 15 20 20 21 42 9 19 -10 36 -10 81 0 41 9 60 10 69 1 6 -6 23 -11 36 -11 15 0 35 -11 46 -26 24 -30 58 -34 88 -11 29 22 54 20 61 -5 7 -30 60 -27 112 5 l42 27 21 -21 c24 -25 32 -26 87 -10 34 9 43 8 67 -11 29 -23 62 -27 87 -12 9 6 23 4 40 -7 20 -13 30 -14 45 -5 12 8 38 10 67 6 82 -11 117 2 164 61 23 29 42 59 42 67 0 8 -11 27 -25 43 -21 24 -30 27 -61 21 -28 -5 -41 -15 -54 -43 -20 -42 -34 -47 -44 -16 -10 31 -26 26 -42 -14 -12 -29 -33 -49 -52 -49 -2 0 2 19 8 42 6 23 8 45 3 49 -4 5 -34 -19 -65 -52 -31 -33 -61 -60 -66 -60 -25 0 -14 18 50 83 73 73 98 125 73 155 -33 40 -86 0 -147 -111 -26 -48 -44 -66 -79 -84 -57 -27 -59 -13 -3 31 41 32 73 88 73 126 0 10 -9 29 -20 43 -17 21 -23 22 -46 12 -25 -12 -102 -136 -102 -166 0 -14 -91 -68 -113 -68 -5 0 -7 14 -5 32 3 17 1 31 -3 31 -4 0 -30 -14 -58 -31 -70 -43 -128 -24 -75 24 18 16 21 16 34 2 17 -21 51 -17 66 7 9 14 7 23 -8 39 -33 37 -86 26 -144 -28 -32 -29 -63 -28 -72 3 -3 11 -11 30 -18 42 -10 17 -16 19 -31 9 -11 -6 -21 -20 -23 -31 -2 -11 -11 -26 -20 -33 -42 -33 -46 -1 -6 40 16 18 25 36 21 46 -9 22 -21 20 -58 -11 l-32 -26 -16 32 c-10 17 -22 32 -27 32 -18 0 -11 34 12 59 20 21 21 27 9 55 -8 19 -25 35 -45 42 -36 13 -125 13 -201 0z m1089 -175 c-10 -29 -47 -78 -53 -72 -6 6 46 91 55 91 3 0 2 -9 -2 -19z m-177 -39 c-10 -15 -20 -25 -23 -22 -2 2 4 17 14 32 10 15 20 25 23 22 2 -2 -4 -17 -14 -32z m-710 -23 c5 -36 -16 -66 -46 -66 -18 0 -25 5 -25 20 0 11 4 23 10 27 6 3 11 16 11 27 0 31 46 23 50 -8z"/>
		<path d="M3394 957 c-19 -28 -36 -58 -39 -66 -4 -8 -21 -24 -38 -34 -27 -16 -32 -24 -27 -48 5 -23 -1 -36 -26 -59 -23 -23 -30 -38 -26 -57 3 -15 -3 -37 -15 -54 -41 -57 -85 -169 -78 -200 5 -23 3 -29 -10 -29 -28 0 -18 -19 12 -25 35 -6 45 -1 45 24 0 11 7 22 15 25 8 3 20 30 26 59 19 89 58 154 114 189 55 35 98 40 119 15 23 -28 133 -16 187 22 52 36 80 24 38 -15 -28 -27 -34 -47 -15 -59 13 -8 76 34 118 79 60 64 65 31 12 -89 -49 -112 -49 -183 -1 -183 28 0 74 44 91 89 7 17 16 61 19 97 l7 67 50 -27 c55 -29 82 -33 114 -16 15 8 25 8 37 -2 19 -16 65 -1 149 50 33 19 62 35 65 35 3 0 4 -16 1 -36 -3 -29 0 -37 13 -37 10 0 21 8 24 18 11 30 37 56 58 56 22 0 25 22 6 52 -10 17 -10 26 5 51 35 59 -15 60 -78 0 -64 -60 -146 -121 -176 -130 -25 -8 -26 -7 -9 17 9 14 29 27 44 29 34 4 38 37 7 54 -16 8 -29 7 -53 -5 -17 -9 -32 -20 -32 -24 0 -18 -76 -86 -97 -86 -20 0 -19 2 11 34 37 38 41 56 21 84 -22 30 -79 12 -105 -31 -12 -20 -23 -34 -26 -31 -6 6 65 115 87 133 53 44 -41 43 -96 -2 -23 -17 -74 -53 -113 -79 -66 -43 -74 -45 -90 -30 -25 22 -46 20 -106 -10 -62 -32 -72 -33 -48 -6 11 11 17 32 15 49 -3 26 -9 31 -38 34 -28 2 -44 -5 -77 -35 -22 -20 -45 -37 -51 -37 -5 0 -14 14 -20 31 -9 27 -5 41 25 102 43 85 45 98 12 98 -18 0 -34 -14 -57 -51z m-37 -192 c-4 -9 -6 -6 -7 6 0 11 2 17 6 14 3 -4 4 -13 1 -20z m675 -4 c-8 -9 -16 -14 -18 -11 -8 7 7 27 20 27 7 0 6 -6 -2 -16z m-168 -151 c0 -30 -19 -74 -31 -74 -15 0 -14 34 1 67 15 32 30 35 30 7z"/>
		<path d="M6036 958 c-38 -39 -124 -167 -124 -183 0 -5 -5 -8 -11 -8 -5 0 -31 -16 -57 -34 -51 -36 -97 -97 -112 -147 -10 -36 4 -82 25 -82 23 0 127 116 148 165 24 54 43 56 81 11 l28 -34 51 26 c28 14 55 27 59 30 4 2 8 -11 8 -29 0 -26 5 -32 21 -32 12 0 25 8 28 18 4 10 25 38 47 63 25 26 41 55 41 71 0 35 -14 33 -63 -11 -24 -22 -43 -33 -47 -26 -11 17 -48 12 -77 -10 -34 -27 -55 -27 -55 -1 0 14 -9 23 -26 28 -15 3 -26 9 -26 12 0 4 19 39 42 78 53 89 68 94 63 17 -1 -15 4 -31 11 -35 37 -24 58 103 22 135 -27 25 -35 22 -77 -22z m-182 -295 c-19 -38 -69 -99 -76 -92 -5 5 34 87 52 109 6 7 17 13 25 13 13 0 13 -5 -1 -30z"/>
		<path d="M5394 893 c-59 -54 -117 -74 -235 -81 l-97 -6 -27 -41 c-31 -46 -47 -52 -47 -15 0 14 -8 33 -17 42 -19 19 -17 19 -51 6 -35 -13 -34 -9 6 36 32 38 35 69 5 69 -18 0 -101 -95 -126 -144 -39 -76 -6 -107 58 -56 55 44 70 42 74 -13 5 -68 31 -65 103 12 44 49 66 65 88 65 29 0 31 -4 43 -56 3 -16 13 -28 22 -28 31 0 76 31 100 70 l24 39 9 -33 c11 -44 32 -59 76 -54 41 5 41 5 26 -23 -6 -12 -22 -20 -36 -20 -31 0 -82 -19 -91 -34 -16 -27 4 -42 45 -36 48 8 50 1 18 -64 -26 -55 -20 -79 19 -75 22 3 31 11 36 35 13 57 41 110 60 112 10 1 31 1 47 -1 18 -1 31 4 35 15 9 23 -14 48 -45 48 -13 0 -24 2 -24 4 0 12 50 91 96 150 28 36 51 73 51 82 0 33 -42 14 -84 -40 -69 -86 -159 -129 -176 -85 -9 25 8 47 49 60 47 16 83 63 64 85 -22 27 -51 19 -98 -25z m-144 -131 c0 -3 -5 -8 -10 -11 -6 -4 -11 -2 -11 4 0 6 5 12 11 12 5 0 10 -3 10 -5z"/>
		<path d="M6734 904 c-19 -23 -87 -32 -87 -11 0 18 -38 11 -58 -11 -10 -11 -34 -25 -53 -32 -42 -13 -55 -41 -29 -60 15 -11 16 -17 6 -32 -29 -41 -76 -126 -76 -136 0 -6 7 -16 15 -24 21 -17 54 11 76 64 9 20 30 59 47 86 26 41 37 50 62 50 37 0 37 -2 4 -59 -40 -68 -10 -109 36 -50 18 23 25 25 38 15 8 -8 16 -30 16 -49 0 -33 4 -38 48 -57 54 -23 80 -25 110 -10 23 13 27 40 6 48 -11 4 -13 19 -10 51 5 38 2 48 -18 62 -31 21 -47 13 -72 -37 l-21 -41 -7 32 c-4 21 -17 38 -32 45 -34 15 -32 28 6 36 43 8 52 23 49 83 -2 59 -25 74 -56 37z m112 -211 c0 -6 -5 -10 -10 -10 -6 0 -11 4 -11 10 0 6 5 11 11 11 5 0 10 -5 10 -11z"/>
		<path d="M9809 837 c-19 -18 -15 -39 9 -39 13 0 21 7 21 20 0 26 -15 35 -30 19z"/>
		<path d="M1554 578 c0 -6 7 -11 16 -11 9 0 14 5 10 11 -3 5 -11 10 -16 10 -6 0 -10 -5 -10 -10z"/>
		<path d="M10474 337 c-3 -6 -1 -13 5 -17 6 -3 11 1 11 10 0 19 -7 21 -16 7z"/>
		<path d="M4200 189 c0 -6 5 -10 11 -10 5 0 10 4 10 10 0 6 -5 11 -10 11 -6 0 -11 -5 -11 -11z"/>
	</g>
</svg>
