<?xml version="1.0" encoding="utf-8"?>
<svg xmlns="http://www.w3.org/2000/svg" height="196.058179pt" preserveAspectRatio="xMidYMid meet" version="1.0" viewBox="0 0 270.555513 196.058179" width="270.555513pt">
	<metadata>
Created by Potrace Professional 1.1m
</metadata>
	<g fill="#000000" stroke="none" transform="translate(-3.354070,199.178179) rotate(-360.00) scale(0.022857,-0.022857)">
		<path d="M4916 8703 c3 -8 13 -16 24 -18 12 -2 17 2 14 11 -3 7 -13 15 -24 17 -12 3 -17 -1 -14 -10z"/>
		<path d="M4631 8668 c0 -9 4 -16 10 -16 6 0 11 7 11 16 0 8 -5 16 -11 16 -6 0 -10 -8 -10 -16z"/>
		<path d="M11149 8585 c-17 -8 -25 -23 -28 -47 -4 -49 15 -66 40 -36 15 19 26 22 50 18 24 -5 33 -2 38 11 7 17 -8 57 -22 59 -35 7 -58 5 -78 -5z"/>
		<path d="M920 8511 c-18 -28 -15 -48 7 -48 7 0 19 10 27 22 12 19 11 25 -1 38 -13 13 -18 11 -33 -12z"/>
		<path d="M5373 8525 c-40 -23 -9 -83 43 -83 28 0 81 -10 404 -78 191 -41 298 -48 308 -22 9 24 -15 46 -57 53 -98 15 -173 30 -275 54 -61 15 -148 34 -194 42 -93 17 -157 30 -189 39 -12 4 -30 1 -40 -5z"/>
		<path d="M11483 8519 c-3 -4 -6 -16 -6 -27 0 -30 -71 -94 -95 -87 -11 4 -35 -4 -58 -20 -44 -30 -78 -35 -78 -12 0 40 -45 29 -64 -16 -18 -44 -36 -52 -28 -12 4 21 2 36 -8 44 -12 10 -22 3 -52 -38 -20 -28 -51 -64 -68 -81 l-31 -30 2 67 c2 62 0 67 -22 70 -41 6 -58 -17 -51 -67 5 -37 2 -49 -20 -72 -26 -28 -57 -36 -58 -14 0 36 -16 41 -66 19 l-49 -21 0 64 c0 105 -45 158 -93 110 l-26 -26 33 -50 c19 -27 34 -55 34 -62 0 -21 -35 -57 -74 -76 -51 -25 -51 -46 1 -82 40 -28 43 -32 37 -67 -4 -20 -10 -75 -13 -122 -6 -71 -4 -87 11 -102 10 -10 21 -18 26 -18 21 0 75 74 87 118 11 43 10 61 -5 121 -10 39 -18 91 -18 116 0 43 1 44 29 38 16 -4 37 -14 46 -22 18 -16 78 -11 117 9 16 8 18 4 18 -34 0 -52 28 -96 73 -115 26 -10 35 -10 48 0 22 18 19 66 -6 97 -11 15 -24 42 -27 60 -6 27 0 39 31 73 32 36 39 39 50 26 15 -18 60 -12 78 10 6 7 34 18 63 24 29 6 61 15 71 19 14 6 18 3 18 -14 0 -41 37 -23 95 46 65 76 97 89 92 35 -5 -47 25 -52 69 -11 41 38 65 47 79 30 14 -16 -2 -33 -36 -40 -26 -5 -27 -33 -1 -38 57 -11 130 26 116 60 -4 9 -7 28 -8 42 -2 32 -62 56 -99 40 -13 -6 -23 -14 -23 -19 0 -4 -8 -10 -17 -13 -22 -9 -57 15 -57 38 0 10 -12 23 -27 29 -32 12 -31 12 -40 3z"/>
		<path d="M5271 8505 c-12 -7 -17 -44 -23 -154 -4 -80 -10 -185 -14 -234 -3 -50 -8 -116 -10 -147 -2 -32 -7 -85 -11 -119 -7 -52 -6 -60 10 -60 9 0 21 11 27 25 5 14 14 28 19 32 13 7 20 60 34 232 20 252 29 407 24 421 -7 17 -33 19 -56 4z"/>
		<path d="M8364 8459 c-43 -46 -85 -132 -100 -207 -7 -32 -21 -82 -31 -110 -11 -29 -23 -73 -27 -99 -5 -26 -24 -70 -44 -99 -40 -61 -43 -73 -14 -64 25 8 27 -11 10 -68 -26 -83 -24 -141 4 -130 15 5 21 24 52 156 14 61 16 62 27 35 13 -32 41 -50 77 -50 14 0 31 -6 38 -13 10 -11 17 -10 34 0 17 10 25 10 45 -3 21 -14 31 -14 55 -4 17 7 57 13 89 14 47 2 60 -1 75 -20 27 -33 54 -11 61 50 4 27 12 55 19 62 17 17 16 50 -1 50 -16 0 -52 -36 -70 -71 -10 -20 -19 -24 -51 -21 -38 3 -39 4 -39 45 0 35 -3 42 -20 42 -15 0 -26 -13 -37 -44 -21 -56 -28 -62 -47 -46 -11 9 -16 31 -16 63 0 51 -14 74 -44 74 -22 0 -67 -57 -76 -98 -10 -42 -26 -31 -48 35 l-20 57 61 80 c93 122 123 193 141 337 6 45 -16 83 -48 83 -12 0 -37 -17 -55 -36z m47 -111 c0 -74 -60 -194 -90 -183 -15 6 -14 33 1 137 6 36 47 88 72 88 12 0 17 -12 17 -42z m-95 -227 c0 -4 -9 -18 -21 -33 -22 -28 -29 -16 -10 19 10 18 31 28 31 14z"/>
		<path d="M10086 8461 c-32 -45 -12 -74 31 -46 14 9 35 17 46 17 27 0 38 17 22 37 -20 24 -80 19 -99 -8z"/>
		<path d="M6158 8332 c-14 -20 -17 -41 -13 -82 3 -31 -3 -103 -13 -167 -11 -62 -23 -146 -27 -186 -7 -73 -23 -103 -49 -93 -7 3 -119 1 -247 -4 -245 -9 -327 -23 -409 -72 -31 -18 -43 -19 -116 -10 -45 5 -93 14 -107 20 -15 6 -61 15 -103 20 -51 7 -101 23 -151 47 -73 37 -74 37 -94 17 -25 -25 -25 -34 -2 -54 17 -14 37 -23 103 -45 18 -6 14 -11 -28 -32 -75 -39 -156 -151 -156 -216 0 -18 -19 -44 -58 -83 -54 -53 -57 -60 -57 -107 0 -41 5 -55 35 -86 19 -21 50 -41 68 -45 19 -3 36 -10 38 -14 6 -10 -58 -136 -69 -136 -4 0 -5 -10 -2 -21 6 -24 -38 -274 -48 -273 -23 0 -103 35 -110 48 -6 11 -18 14 -34 10 -24 -6 -96 8 -199 39 -119 36 -165 50 -176 50 -16 0 -437 135 -480 154 -20 9 -60 24 -89 35 -73 25 -220 95 -224 106 -2 5 -10 9 -19 9 -8 0 -14 5 -14 11 0 5 5 10 13 10 7 0 45 17 83 36 39 20 73 32 76 28 3 -4 -6 -24 -19 -44 -25 -37 -26 -62 -1 -62 14 0 121 185 121 209 0 21 -32 12 -56 -16 -30 -36 -176 -105 -241 -115 -28 -4 -50 -4 -50 -1 0 3 12 23 26 45 32 46 32 48 7 78 -26 33 -73 30 -154 -10 -36 -18 -68 -32 -71 -32 -3 0 -38 18 -77 41 -55 31 -76 39 -90 31 -26 -14 -24 -25 9 -55 l27 -26 -32 -7 c-18 -4 -38 -14 -45 -22 -6 -8 -21 -15 -32 -15 -19 0 -19 2 -3 26 20 30 5 69 -26 69 -34 0 -85 -23 -96 -44 -14 -26 -29 -25 -60 4 -21 20 -28 21 -57 10 -41 -15 -46 -11 -30 28 12 28 68 62 134 80 35 10 87 81 80 109 -7 25 -43 39 -81 29 -27 -7 -77 -56 -114 -111 -14 -21 -39 -41 -60 -48 -42 -14 -53 -35 -27 -53 16 -12 16 -18 4 -51 -20 -56 -2 -69 61 -46 47 17 50 17 75 -3 14 -11 32 -20 41 -20 8 0 25 -7 38 -15 27 -19 203 -20 226 -3 10 9 20 4 38 -19 23 -30 27 -31 132 -33 68 -2 114 2 123 9 10 9 19 7 34 -10 11 -11 69 -45 128 -74 103 -50 133 -62 250 -103 26 -9 52 -21 57 -26 6 -5 18 -9 27 -9 9 0 101 -28 205 -62 104 -34 242 -75 307 -91 96 -24 118 -33 118 -49 0 -20 37 -28 44 -9 2 5 53 -4 114 -20 60 -16 123 -32 138 -36 28 -6 29 -9 23 -57 -3 -27 -15 -61 -26 -75 -11 -15 -41 -59 -68 -98 -26 -39 -51 -71 -55 -71 -4 0 -19 15 -34 33 -28 34 -74 45 -96 22 -18 -17 -1 -44 27 -44 45 0 79 -86 46 -113 -7 -6 -34 -13 -60 -15 -45 -3 -47 -2 -57 31 -11 39 -27 43 -53 14 -13 -15 -16 -29 -11 -59 7 -37 7 -38 -22 -35 -46 6 -63 48 -48 122 18 91 16 110 -12 106 -20 -3 -24 -12 -32 -72 -4 -38 -13 -70 -19 -72 -6 -2 -18 -12 -25 -21 -67 -83 -70 -85 -105 -85 -59 0 -63 52 -10 136 39 60 47 112 21 122 -9 4 -24 0 -34 -8 -22 -18 -66 -112 -66 -141 0 -13 -22 -47 -50 -77 -48 -53 -52 -55 -128 -65 -43 -6 -87 -16 -98 -22 -11 -5 -22 -8 -24 -6 -3 3 5 45 16 93 30 125 28 220 -5 220 -30 0 -39 -34 -42 -157 -2 -76 -10 -147 -21 -185 -19 -64 -19 -68 -32 -231 -8 -109 1 -152 31 -152 30 0 51 85 57 228 3 97 9 143 19 151 7 6 36 12 64 13 41 1 50 -2 50 -16 0 -10 6 -24 12 -30 9 -9 23 4 54 49 40 59 84 107 89 98 2 -3 10 -19 19 -36 14 -28 21 -31 58 -29 23 2 59 4 82 5 30 2 46 10 64 33 l24 29 27 -27 c33 -33 47 -34 110 -2 61 31 104 41 112 28 4 -6 -29 -83 -73 -171 -43 -87 -79 -163 -79 -167 0 -17 -66 -145 -75 -145 -5 0 -9 19 -9 42 0 38 -2 43 -24 40 -13 -2 -24 -12 -26 -25 -7 -43 -12 -48 -33 -37 -15 8 -26 5 -48 -12 -27 -21 -29 -27 -23 -78 6 -66 -12 -92 -44 -63 -10 9 -24 17 -31 17 -7 0 -9 13 -5 37 11 66 -40 92 -80 40 -12 -15 -22 -41 -22 -57 0 -24 -6 -32 -27 -37 -15 -4 -38 -1 -53 7 -22 12 -28 11 -49 -9 -58 -54 -77 1 -29 80 42 68 42 123 1 123 -32 0 -63 -54 -63 -109 -1 -47 -15 -71 -65 -102 -58 -37 -88 -31 -88 16 0 33 4 38 32 43 42 7 45 45 3 50 -46 5 -82 -41 -82 -105 0 -50 23 -103 44 -103 6 0 41 24 80 52 l69 53 13 -32 c16 -37 40 -49 62 -31 9 8 40 15 70 18 29 2 67 11 83 19 32 17 68 9 93 -21 19 -23 70 -12 109 24 27 26 29 33 23 77 -6 47 -4 50 26 65 l31 16 -6 -44 c-4 -24 -11 -55 -16 -68 -5 -13 -9 -42 -9 -64 0 -23 -11 -59 -26 -86 -36 -63 -51 -94 -95 -198 -20 -50 -47 -109 -58 -132 -34 -67 -106 -259 -112 -296 -4 -27 -2 -34 11 -34 19 -1 57 74 117 231 21 54 47 118 57 141 11 23 46 99 77 168 32 70 80 174 106 231 l48 105 60 13 c76 15 109 30 109 49 0 21 -25 28 -79 21 -26 -4 -47 -4 -47 -1 0 4 18 46 41 94 23 47 65 139 94 202 29 64 59 116 67 116 41 0 71 47 71 110 0 24 8 58 17 77 34 65 101 156 109 147 5 -5 19 -44 32 -87 18 -63 33 -90 77 -139 91 -100 104 -107 330 -177 72 -22 78 -22 94 -6 31 30 5 50 -94 70 -128 26 -217 71 -273 139 -25 30 -48 57 -51 60 -27 22 -73 169 -73 233 0 58 12 70 42 40 11 -11 26 -21 32 -21 5 0 10 -9 10 -21 0 -12 4 -21 8 -21 10 1 52 46 89 95 51 68 164 177 206 198 46 24 59 37 49 53 -12 20 -73 -22 -164 -114 -49 -49 -98 -103 -109 -119 -16 -26 -47 -40 -47 -22 0 4 25 34 57 67 32 34 58 66 58 72 0 30 -36 5 -89 -61 -53 -67 -60 -72 -87 -65 -37 10 -40 29 -20 115 9 39 19 89 23 111 12 74 57 202 76 219 11 10 47 20 82 24 101 12 120 47 25 47 -29 0 -52 3 -52 8 0 4 30 36 66 71 44 43 79 68 108 76 24 7 65 31 91 54 l48 42 12 -30 c7 -17 20 -34 29 -37 29 -11 95 15 123 48 32 38 32 37 6 80 -27 44 -26 45 6 45 20 0 26 4 23 18 -4 19 -23 22 -78 9 -22 -5 -37 -3 -47 7 -8 8 -26 21 -40 28 -21 12 -27 11 -38 -3 -6 -10 -26 -18 -42 -18 -17 -1 -61 -14 -99 -29 -52 -21 -72 -36 -84 -60 -15 -31 -16 -32 -87 -30 -40 2 -75 5 -77 7 -2 2 1 20 8 40 21 62 69 112 141 147 l68 33 81 -16 c45 -9 104 -20 132 -23 43 -6 49 -10 44 -27 -8 -25 7 -26 41 -5 33 22 217 11 187 -11 -14 -11 -15 -16 -6 -26 10 -10 22 -9 56 4 56 23 108 22 130 -2 9 -10 20 -41 24 -68 13 -95 70 -97 141 -5 19 25 36 47 38 50 8 10 24 -26 24 -53 0 -35 37 -83 64 -83 32 0 38 32 10 54 -14 12 -26 35 -29 61 -5 37 -3 43 14 43 11 0 31 -8 43 -17 18 -12 29 -13 44 -5 11 6 54 11 95 11 73 0 75 -1 95 -34 12 -19 21 -38 21 -42 0 -4 -21 -16 -47 -28 -35 -15 -47 -27 -47 -44 0 -22 3 -22 62 -16 60 7 64 6 75 -18 9 -20 9 -35 0 -60 -14 -42 -14 -52 -1 -52 23 0 45 66 39 121 -5 45 -2 56 14 66 28 17 39 16 38 -6 -2 -19 5 -19 58 -7 16 4 46 4 67 0 69 -13 94 -120 50 -208 -14 -28 -19 -31 -60 -33 -11 -1 -22 -7 -24 -13 -5 -13 23 -46 38 -46 17 0 65 46 89 83 32 51 39 96 26 157 -13 64 -54 105 -106 109 -43 3 -43 19 -1 19 27 0 86 15 119 31 8 4 39 13 68 19 106 25 222 55 294 76 113 33 132 39 189 54 54 14 76 44 42 57 -17 7 -194 -31 -226 -47 -9 -5 -51 -17 -94 -27 -44 -10 -87 -23 -97 -28 -27 -14 -106 -41 -120 -41 -7 0 -9 11 -7 26 4 20 1 27 -12 27 -31 0 -70 -33 -67 -57 2 -15 -5 -24 -25 -31 -23 -9 -33 -6 -61 18 -18 15 -41 28 -51 28 -9 0 -26 7 -38 16 -24 18 -74 19 -120 3 -29 -10 -38 -8 -75 16 -22 15 -47 28 -54 28 -8 0 -20 14 -28 32 -16 35 -11 111 14 230 39 182 51 275 41 334 -11 69 -34 83 -62 39z m-360 -595 c-28 -18 -34 -27 -29 -47 6 -24 4 -25 -46 -25 -28 0 -88 5 -134 11 -45 7 -96 13 -113 15 -58 5 -62 5 -56 11 6 6 160 45 203 50 17 2 71 5 121 6 l89 1 -35 -22z m192 -4 c30 -9 64 -23 75 -31 19 -15 19 -15 -1 -34 -19 -17 -36 -19 -143 -16 l-122 4 5 26 c6 29 14 36 66 53 50 16 57 16 120 -2z m-149 -141 c5 -4 -10 -28 -33 -54 -48 -53 -59 -49 -69 24 l-7 50 50 -6 c28 -4 54 -10 59 -14z m-665 -53 c10 -6 20 -5 29 2 15 12 45 4 45 -12 0 -7 -11 -16 -24 -21 -13 -5 -38 -23 -55 -40 -70 -69 -156 -108 -91 -41 31 32 43 60 26 60 -4 0 -27 -20 -52 -44 -48 -47 -72 -49 -83 -4 -10 39 18 65 94 89 74 23 90 25 111 11z m1177 -6 c0 -19 -23 -15 -30 4 -2 7 4 13 13 13 9 0 17 -8 17 -17z m-3654 -29 c0 -18 -27 -41 -67 -58 -46 -19 -48 -4 -4 36 40 37 71 47 71 22z m2625 -18 c16 -40 6 -51 -48 -55 -50 -3 -58 17 -26 59 30 37 57 36 74 -4z m-426 -78 c0 -13 -10 -24 -29 -31 -26 -9 -33 -7 -50 15 -23 32 -11 43 43 39 28 -2 36 -7 36 -23z m-120 -49 c21 -29 28 -32 65 -27 23 3 53 16 66 29 24 23 47 21 47 -4 0 -8 -14 -27 -31 -44 -18 -16 -44 -48 -59 -69 -33 -48 -56 -57 -104 -41 -44 14 -79 56 -79 92 0 27 46 97 63 97 5 0 20 -15 32 -33z m-1544 -61 c0 -10 -12 -29 -26 -43 -26 -24 -27 -24 -64 -6 -49 23 -44 49 11 65 51 14 79 8 79 -16z m-478 -11 c-3 -6 -13 -10 -21 -10 -9 0 -15 4 -15 10 0 6 9 11 21 11 12 0 19 -5 15 -11z m245 -16 c35 -18 53 -53 36 -70 -17 -17 -55 10 -55 39 0 14 -8 30 -18 36 -30 17 1 13 37 -5z m558 -1469 c-10 -9 -11 -3 -6 24 4 20 7 43 8 53 1 9 4 -2 6 -24 3 -23 -1 -46 -8 -53z m106 -68 c0 -6 -5 -13 -11 -17 -6 -3 -10 1 -10 10 0 9 4 17 10 17 6 0 11 -5 11 -10z m220 -85 c0 -6 -5 -10 -10 -10 -6 0 -11 4 -11 10 0 6 5 11 11 11 5 0 10 -5 10 -11z"/>
		<path d="M2576 8311 c-7 -19 4 -37 23 -37 21 0 30 20 15 37 -16 20 -30 20 -38 0z"/>
		<path d="M2650 8305 c-20 -20 -21 -26 -9 -58 17 -50 28 -59 69 -55 46 4 51 30 19 89 -28 51 -47 56 -79 24z"/>
		<path d="M10352 8197 c-33 -34 -57 -96 -69 -175 -11 -69 -72 -104 -79 -45 -4 32 -32 44 -56 24 -9 -7 -21 -31 -28 -54 -14 -46 -22 -50 -37 -17 -14 32 1 75 51 138 63 80 67 167 7 134 -34 -19 -80 -82 -93 -127 -12 -41 -88 -105 -125 -105 -17 0 -21 6 -21 36 0 20 -5 39 -11 43 -22 13 -39 -18 -63 -108 -26 -98 -58 -159 -96 -185 -29 -21 -38 -15 -46 29 -11 56 -47 59 -93 7 -11 -12 -29 -22 -41 -22 -11 0 -32 -9 -47 -21 -14 -12 -37 -21 -50 -21 -14 0 -38 -12 -56 -26 -17 -15 -35 -26 -41 -26 -6 0 -14 11 -17 26 -15 59 -80 4 -80 -67 0 -24 -7 -56 -16 -69 -13 -20 -14 -30 -5 -47 26 -50 105 -3 105 62 0 31 50 91 64 76 4 -4 9 -20 11 -34 6 -41 34 -32 49 17 8 26 24 48 39 57 22 12 29 11 48 -6 21 -19 23 -19 53 -2 24 13 37 15 52 7 25 -13 53 0 107 52 37 35 41 36 54 19 7 -10 23 -18 34 -18 25 0 61 36 52 51 -4 6 5 28 20 49 14 22 26 47 26 57 0 9 14 22 31 29 29 11 31 10 37 -18 12 -52 38 -66 107 -57 61 7 109 25 142 54 14 12 21 12 38 2 32 -20 55 -5 55 38 0 21 5 48 11 60 24 45 51 178 40 199 -14 27 -25 24 -63 -16z"/>
		<path d="M8535 8164 c-9 -20 -9 -30 1 -42 19 -23 42 -20 52 8 19 51 -31 83 -53 34z"/>
		<path d="M11499 8166 c-28 -30 -29 -51 -3 -74 23 -21 54 -22 80 -3 19 14 19 15 -3 46 -13 18 -23 37 -23 43 0 20 -27 13 -51 -12z"/>
		<path d="M7534 8167 c-76 -27 -132 -84 -164 -166 -35 -92 -17 -169 50 -211 30 -19 35 -19 76 -5 34 12 49 13 64 4 15 -10 25 -8 48 7 23 15 40 17 87 12 32 -4 67 -15 77 -24 25 -22 48 -11 66 31 8 20 23 42 32 50 16 13 23 9 64 -34 52 -55 55 -75 25 -132 -25 -46 -27 -74 -5 -83 22 -8 44 13 58 58 7 21 20 54 28 73 15 32 15 35 -11 61 -16 15 -28 31 -28 35 0 4 -16 17 -36 27 -21 11 -39 25 -41 31 -3 7 14 39 36 73 55 81 54 141 -1 111 -22 -12 -84 -111 -84 -135 0 -7 -17 -34 -38 -59 l-38 -46 -59 6 c-42 4 -64 12 -76 27 -16 20 -17 20 -40 -12 -30 -42 -44 -42 -40 1 3 46 -27 52 -50 9 -30 -58 -87 -55 -116 6 -31 66 -2 165 61 203 33 21 113 28 148 15 25 -10 20 -33 -6 -32 -29 1 -39 -34 -14 -52 37 -27 90 8 90 60 0 47 -12 63 -61 84 -52 22 -58 22 -102 7z"/>
		<path d="M2251 8021 c-9 -11 -15 -33 -14 -53 2 -20 -4 -48 -11 -64 -25 -52 -14 -50 133 14 44 19 56 39 47 76 -9 40 -124 60 -155 27z m78 -68 c-9 -10 -22 -14 -28 -10 -21 13 -12 27 17 27 26 0 27 -2 11 -17z"/>
		<path d="M2143 7966 c-6 -8 -16 -40 -22 -72 -16 -88 -50 -198 -66 -217 -40 -47 -41 -125 -1 -101 19 12 91 144 111 205 22 66 37 165 27 182 -11 21 -33 22 -49 3z"/>
		<path d="M2613 7905 c-14 -19 -37 -58 -51 -87 -37 -74 -166 -160 -156 -103 2 10 17 24 33 32 37 18 35 51 -3 46 -15 -1 -40 -4 -58 -5 -25 -2 -31 -7 -28 -24 2 -16 -7 -26 -35 -39 -62 -30 -83 -21 -56 23 7 10 9 27 6 37 -10 26 -46 3 -68 -42 -13 -28 -14 -41 -5 -62 15 -32 46 -34 108 -9 39 15 44 15 61 0 25 -23 62 -22 105 4 l34 21 18 -22 c16 -19 22 -20 52 -9 29 10 38 9 54 -5 15 -14 31 -16 77 -11 43 5 64 3 83 -9 13 -9 50 -19 81 -23 31 -4 72 -19 92 -32 27 -18 43 -22 64 -16 32 8 47 43 20 43 -14 0 -15 4 -5 26 16 34 -3 79 -33 79 -22 0 -63 -35 -63 -53 0 -19 -38 -11 -78 16 -27 18 -46 24 -64 20 -15 -4 -33 -1 -41 5 -12 10 -22 9 -47 -4 -34 -17 -36 -16 -33 23 2 29 -10 30 -62 3 -23 -12 -44 -21 -47 -21 -17 0 -1 31 36 71 51 55 76 101 72 132 -6 35 -35 33 -63 -5z"/>
		<path d="M2869 7833 c-25 -11 -32 -40 -10 -47 7 -3 103 -11 214 -20 110 -8 206 -18 212 -22 7 -4 12 -23 12 -42 0 -47 12 -52 62 -27 51 26 63 13 28 -29 -21 -24 -25 -38 -20 -68 4 -23 -1 -55 -12 -85 -19 -48 -15 -69 11 -69 19 0 56 73 66 129 7 43 8 44 49 43 23 0 61 -4 84 -9 31 -5 47 -3 63 8 20 16 20 17 2 35 -15 15 -35 19 -95 19 l-76 0 0 53 c1 40 -3 52 -15 52 -9 0 -15 -7 -15 -16 1 -14 -4 -15 -34 -5 -26 8 -35 17 -35 34 0 12 -5 26 -12 30 -17 11 -147 25 -266 30 -58 2 -124 6 -147 10 -23 3 -53 2 -66 -4z"/>
		<path d="M8932 7780 c-4 -19 0 -48 9 -70 8 -20 15 -57 15 -80 0 -42 0 -43 -13 -17 -10 18 -21 25 -39 23 -41 -5 -47 -19 -26 -61 14 -30 16 -53 11 -98 -10 -82 -36 -166 -54 -173 -21 -8 -19 -35 5 -48 28 -15 51 15 71 95 21 84 35 102 35 44 0 -47 14 -64 36 -46 11 9 13 44 10 146 -4 150 -1 170 28 170 23 0 26 -11 41 -136 11 -87 29 -126 52 -111 14 8 15 75 2 135 -6 24 -15 77 -22 118 -13 80 -42 141 -68 141 -9 0 -26 -6 -39 -13 -17 -11 -23 -11 -26 0 -9 23 -22 14 -28 -19z m98 -74 c0 -5 -5 -9 -10 -9 -6 0 -11 7 -11 16 0 9 5 13 11 10 5 -4 10 -11 10 -17z"/>
		<path d="M11027 7749 c-20 -16 -29 -18 -46 -10 -17 10 -27 5 -64 -36 -27 -31 -51 -48 -67 -48 -23 0 -24 3 -18 39 8 51 -16 78 -44 51 -9 -10 -25 -21 -34 -27 -10 -5 -25 -32 -32 -60 -8 -30 -17 -44 -20 -35 -13 34 -59 84 -78 84 -50 0 -113 -71 -113 -127 0 -9 -8 -6 -24 10 -22 22 -22 24 -5 34 22 13 24 55 2 72 -22 19 -67 4 -78 -25 -6 -14 -7 -41 -4 -61 5 -32 2 -36 -32 -53 -23 -11 -38 -25 -38 -37 0 -27 42 -63 81 -71 31 -6 35 -4 52 34 l19 40 92 1 c83 1 96 4 135 31 32 22 53 29 83 28 24 -2 58 6 81 17 22 11 55 24 73 28 18 3 41 16 51 27 11 12 31 19 51 19 39 -2 122 38 122 59 0 19 -21 25 -50 15 -18 -7 -26 -5 -30 6 -8 22 -36 19 -65 -5z m-390 -114 c0 -4 -10 -13 -21 -20 -19 -11 -21 -11 -21 6 0 11 2 22 6 26 7 7 36 -2 36 -12z"/>
		<path d="M7722 7724 c-5 -11 -1 -25 9 -35 16 -16 18 -16 24 1 5 11 1 25 -9 35 -16 16 -18 16 -24 -1z"/>
		<path d="M7826 7712 c-3 -9 -3 -19 0 -23 11 -10 39 6 39 23 0 21 -31 21 -39 0z"/>
		<path d="M9889 7693 c-60 -19 -78 -31 -118 -79 -27 -32 -48 -66 -48 -80 0 -26 25 -58 45 -58 8 0 8 -4 -1 -13 -10 -10 -18 -10 -35 1 -12 7 -41 15 -65 18 -24 2 -66 7 -93 10 -43 6 -50 4 -61 -15 -14 -26 -18 -25 105 -48 49 -10 95 -22 102 -28 7 -6 22 -8 33 -4 11 3 23 2 27 -3 3 -5 35 -13 71 -17 68 -8 111 -25 134 -52 20 -25 34 -9 26 29 -11 53 -31 67 -106 75 -37 4 -74 14 -82 22 -8 8 -20 15 -26 15 -23 0 -12 69 15 94 15 14 25 32 24 41 -4 21 51 47 97 46 50 -1 107 -9 126 -17 9 -3 25 -7 36 -9 12 -2 32 -22 45 -45 34 -59 28 -156 -16 -244 -20 -40 -5 -66 39 -66 19 0 48 -17 84 -47 30 -26 58 -48 62 -48 4 -1 16 -3 26 -5 28 -5 34 22 12 55 -21 33 -46 54 -101 89 -21 13 -41 32 -43 42 -3 10 1 52 9 95 8 42 15 88 15 103 0 32 -42 116 -63 126 -90 42 -181 48 -275 17z"/>
		<path d="M11532 7664 c-68 -33 -125 -123 -144 -223 -6 -33 -15 -45 -56 -68 -27 -16 -67 -47 -89 -70 -35 -36 -45 -41 -83 -39 -25 2 -53 -4 -67 -13 -14 -9 -41 -16 -61 -16 -20 0 -48 -10 -62 -21 -18 -14 -43 -21 -72 -21 -28 0 -52 -7 -65 -19 -14 -12 -23 -14 -25 -7 -2 7 -10 20 -17 30 -13 17 -15 16 -41 -4 -73 -57 -67 0 7 71 44 42 58 63 58 86 0 66 -29 81 -83 43 -30 -22 -85 -122 -85 -156 0 -26 -20 -44 -49 -44 -14 0 -26 -9 -30 -21 -4 -13 -12 -18 -22 -14 -13 5 -15 17 -9 63 7 58 -4 87 -33 87 -24 0 -35 -37 -40 -143 -3 -57 -7 -118 -9 -135 -3 -46 28 -48 45 -3 35 89 134 142 150 81 7 -25 32 -26 72 -2 24 14 34 15 50 6 15 -10 26 -9 48 3 16 8 43 15 60 15 17 0 49 9 72 21 23 12 47 18 53 15 5 -4 31 1 56 11 26 10 51 15 58 11 6 -4 11 -28 11 -53 0 -44 3 -48 47 -74 67 -39 85 -27 92 63 6 70 53 184 76 184 6 0 20 -16 31 -36 10 -20 33 -42 50 -49 26 -10 33 -9 51 7 13 11 35 18 59 17 68 -3 88 38 40 82 -23 22 -30 24 -47 13 -12 -7 -30 -18 -41 -25 -10 -7 -28 -9 -38 -5 -17 6 -17 8 -1 26 9 10 17 29 17 41 0 13 18 37 47 61 50 41 62 79 30 97 -10 6 -14 15 -9 22 6 10 13 8 28 -5 18 -17 21 -17 40 0 37 34 35 98 -4 124 -16 11 -17 11 -66 -14z m-46 -176 c-3 -7 -10 -8 -19 -2 -8 5 -11 14 -6 21 9 15 31 -2 25 -19z m-738 -185 c-17 -26 -38 -36 -38 -17 0 5 7 15 16 22 8 7 16 21 16 30 0 12 2 13 12 4 9 -9 7 -19 -6 -39z"/>
		<path d="M9167 7655 c-6 -11 -11 -30 -11 -41 0 -12 -4 -24 -8 -26 -12 -7 -7 -74 7 -100 7 -12 22 -22 34 -22 20 0 21 4 15 46 -4 27 -3 56 3 67 8 13 8 33 1 58 -12 43 -25 49 -41 18z"/>
		<path d="M3070 7408 c-4 -10 -2 -22 4 -29 16 -16 47 -1 43 21 -5 24 -39 30 -47 8z"/>
		<path d="M3659 7364 c-62 -69 -64 -77 -32 -157 15 -38 26 -76 23 -83 -3 -7 -18 -10 -38 -7 -30 4 -33 2 -30 -20 8 -58 135 -20 135 40 0 16 -9 47 -21 69 -33 60 -29 75 18 67 22 -4 52 -9 67 -13 20 -5 29 -2 35 12 10 27 -4 35 -76 43 -70 7 -79 20 -30 43 15 8 28 21 28 29 0 29 -43 16 -79 -23z"/>
		<path d="M9533 7379 c-39 -32 -62 -91 -110 -281 -17 -67 -28 -136 -27 -179 0 -78 -2 -84 -99 -201 -35 -42 -78 -98 -96 -124 -17 -26 -78 -108 -133 -182 -153 -204 -182 -264 -128 -264 14 0 30 18 51 57 49 96 313 455 421 574 22 25 37 50 33 56 -3 6 -1 21 6 33 6 13 13 60 15 106 3 46 9 90 14 96 5 7 12 29 15 49 19 116 32 153 72 195 49 51 53 78 11 78 -16 0 -37 -6 -45 -13z"/>
		<path d="M5660 7369 c-106 -48 -218 -106 -289 -148 -103 -61 -198 -146 -193 -172 6 -28 39 -30 49 -4 10 28 102 104 135 112 15 4 37 17 50 31 34 33 240 131 278 131 22 0 33 -7 38 -22 8 -24 24 -23 41 3 7 12 7 27 0 47 -8 24 -17 30 -47 31 -20 2 -48 -3 -62 -9z"/>
		<path d="M5870 7362 c-5 -11 -15 -61 -21 -112 -16 -128 -78 -362 -92 -348 -3 3 1 49 7 102 12 103 2 147 -19 82 -10 -31 -31 -186 -34 -245 l0 -21 -9 21 c-5 11 -10 41 -10 66 -1 62 -23 53 -42 -16 -12 -48 -12 -60 4 -113 24 -73 67 -142 91 -142 27 0 31 14 20 70 -19 98 -20 149 -4 153 30 6 109 241 129 386 6 38 13 84 17 102 6 27 4 35 -10 35 -9 0 -21 -9 -27 -20z"/>
		<path d="M6364 7318 c-23 -39 -29 -79 -43 -330 -6 -104 -13 -220 -16 -257 -3 -38 -6 -85 -8 -105 -3 -42 17 -54 35 -21 6 12 16 98 21 190 5 91 11 170 14 174 2 5 6 72 7 150 2 92 8 152 17 170 30 61 7 85 -27 29z"/>
		<path d="M8264 7333 c-9 -3 -54 -17 -100 -31 -46 -14 -99 -31 -116 -36 -18 -6 -55 -13 -82 -17 -27 -4 -52 -11 -55 -16 -3 -5 -15 -9 -25 -9 -31 0 -245 -73 -262 -89 -22 -22 -6 -47 30 -47 25 0 32 -5 32 -21 0 -38 19 -38 137 5 96 35 231 75 231 68 0 -4 -13 -13 -29 -19 -92 -34 -302 -153 -302 -170 0 -26 40 -24 97 5 29 14 57 27 63 27 5 0 52 13 103 29 161 52 216 67 222 61 4 -4 -29 -22 -72 -42 -258 -117 -327 -152 -336 -167 -12 -18 10 -37 36 -32 75 17 165 49 177 64 13 15 10 16 -33 9 -25 -4 -44 -5 -41 -2 8 8 302 153 310 153 4 0 27 9 51 19 23 11 71 31 105 46 37 15 65 33 67 43 4 24 -25 23 -95 -2 -31 -10 -82 -27 -113 -36 -184 -53 -283 -83 -320 -97 -62 -23 -57 -11 12 25 291 151 367 185 439 198 37 7 58 22 58 42 0 16 -25 18 -51 4 -21 -12 -80 -33 -191 -68 -43 -14 -98 -32 -121 -41 -23 -8 -65 -21 -94 -28 -29 -7 -59 -14 -66 -16 -7 -3 -13 -1 -13 3 1 17 199 102 261 113 24 4 46 11 49 16 4 6 22 10 40 10 36 0 60 16 60 39 0 13 -32 17 -63 7z m-337 -144 c-32 -21 -133 -62 -177 -70 -68 -13 -64 -13 -64 -1 0 8 119 49 226 79 11 3 22 -2 15 -8z"/>
		<path d="M9937 7255 c-24 -11 -58 -37 -76 -58 -30 -33 -33 -43 -31 -97 3 -97 25 -120 70 -72 27 29 30 81 5 119 -18 26 -17 28 6 47 33 27 56 25 84 -7 44 -52 73 1 33 58 -26 36 -32 37 -91 10z"/>
		<path d="M6044 7255 c-68 -20 -104 -91 -59 -115 18 -10 21 -8 21 15 0 14 8 31 18 36 33 17 94 23 122 12 36 -13 38 -60 6 -131 -27 -61 -13 -88 19 -35 30 52 56 121 56 151 0 44 -41 75 -101 76 -28 0 -65 -4 -82 -9z"/>
		<path d="M5652 7190 c-12 -13 -26 -33 -33 -45 -10 -18 -11 -16 -6 12 8 40 -16 54 -42 26 -23 -26 -35 -152 -17 -174 8 -9 19 -15 26 -14 6 1 20 -3 31 -7 29 -13 55 27 75 116 22 101 10 134 -34 86z"/>
		<path d="M5771 7183 c-5 -7 -6 -16 -2 -19 9 -10 19 4 14 19 -3 11 -6 11 -12 0z"/>
		<path d="M10103 7173 c-12 -7 -12 -20 -3 -66 32 -162 32 -181 -2 -216 -32 -35 -53 -30 -100 26 -51 60 -63 56 -109 -29 -37 -70 -55 -91 -85 -98 -85 -20 -134 -54 -117 -82 27 -43 246 71 246 129 0 24 18 25 63 2 40 -20 106 -20 136 -1 11 7 28 30 38 52 16 34 16 49 5 126 -7 48 -16 104 -20 124 -8 37 -27 49 -52 33z"/>
		<path d="M6071 7127 c-7 -7 -12 -23 -12 -35 0 -18 -5 -22 -21 -18 -30 8 -41 -25 -34 -97 5 -46 12 -63 23 -63 11 0 18 19 25 69 9 62 11 65 18 33 4 -19 5 -44 2 -55 -4 -14 0 -20 10 -20 20 0 29 21 29 67 0 19 5 49 12 68 17 49 -19 85 -52 51z"/>
		<path d="M3276 7035 c0 -6 5 -10 11 -10 5 0 10 4 10 10 0 6 -5 11 -10 11 -6 0 -11 -5 -11 -11z"/>
		<path d="M8327 7019 c-38 -14 -111 -38 -163 -53 -114 -34 -137 -45 -124 -58 7 -7 26 -5 54 4 67 24 43 4 -64 -50 -118 -60 -160 -92 -152 -115 9 -22 84 -23 102 -1 11 13 9 17 -11 25 -22 8 -21 10 23 35 58 34 227 114 390 185 28 13 50 29 50 38 0 22 -23 19 -105 -10z"/>
		<path d="M4974 6903 c-62 -59 -72 -78 -44 -78 23 0 121 96 121 118 0 29 -12 23 -77 -40z"/>
		<path d="M8836 6930 c-20 -8 -83 -27 -173 -52 -135 -38 -479 -116 -536 -122 -38 -4 -75 -13 -84 -20 -22 -19 -105 -43 -215 -64 -52 -9 -118 -23 -147 -31 -29 -8 -79 -17 -110 -21 -74 -9 -126 -31 -126 -52 0 -9 5 -16 13 -16 22 0 253 44 275 53 12 4 52 16 90 25 37 9 101 26 141 36 79 21 89 21 70 -2 -19 -23 -43 -100 -37 -117 4 -9 13 -16 21 -16 8 0 15 -7 15 -15 0 -20 38 -28 53 -10 8 10 10 38 6 83 -5 53 -3 68 8 68 14 0 33 -38 40 -79 2 -11 10 -21 19 -21 22 0 26 70 5 109 -9 18 -16 34 -16 37 0 8 168 50 178 43 6 -3 24 1 40 9 16 8 76 25 134 38 58 13 126 31 153 39 26 8 74 19 105 24 89 15 115 27 115 58 0 28 -4 30 -37 16z"/>
		<path d="M5050 6786 c-150 -139 -293 -283 -293 -295 0 -30 33 -4 167 129 141 139 215 205 233 205 5 0 9 7 9 16 0 33 -43 13 -116 -55z"/>
		<path d="M11327 6795 c-38 -36 -43 -45 -33 -61 16 -27 36 -28 75 -4 35 22 46 53 18 53 -18 0 -20 12 -4 28 8 8 8 14 0 19 -6 3 -31 -12 -56 -35z"/>
		<path d="M6154 6762 c-74 -61 -211 -199 -211 -212 0 -21 31 -5 74 39 26 27 86 82 133 124 79 68 104 102 77 102 -5 0 -38 -24 -73 -53z"/>
		<path d="M7571 6799 c0 -9 4 -16 10 -16 6 0 11 7 11 16 0 8 -5 16 -11 16 -6 0 -10 -8 -10 -16z"/>
		<path d="M10495 6803 c-23 -4 -66 -9 -95 -9 -65 -1 -100 -22 -83 -50 10 -15 26 -19 84 -18 40 0 83 4 95 8 32 11 63 -36 44 -66 -8 -12 -20 -21 -28 -21 -16 0 -104 -50 -113 -65 -3 -5 0 -17 7 -25 10 -13 15 -13 35 1 13 8 45 18 72 22 l49 6 3 -46 c3 -38 7 -46 24 -46 16 0 22 8 24 34 2 18 11 39 19 46 8 6 15 23 15 35 0 18 10 27 41 37 53 18 75 9 75 -29 0 -66 68 -71 106 -7 30 50 72 48 115 -7 l31 -39 -32 -22 c-46 -33 -58 -61 -37 -84 19 -22 91 -43 119 -36 38 10 89 335 56 355 -5 3 -38 -9 -73 -27 -44 -23 -77 -32 -109 -32 -164 4 -219 3 -268 -4 -54 -7 -55 -7 -62 23 -8 34 -43 78 -61 76 -6 0 -30 -5 -53 -10z"/>
		<path d="M8629 6710 c-12 -18 -66 -66 -118 -108 -52 -41 -119 -97 -148 -124 -29 -26 -66 -59 -84 -72 -36 -27 -152 -129 -233 -205 -52 -48 -68 -81 -46 -95 9 -5 59 37 206 173 81 76 190 170 278 241 32 26 81 69 110 97 29 28 58 51 65 51 18 0 25 -43 30 -199 4 -115 26 -284 52 -400 22 -100 107 -358 212 -640 35 -93 79 -168 99 -168 22 0 7 76 -32 168 -24 54 -42 106 -42 117 0 17 -19 72 -43 129 -5 12 -23 55 -41 97 -18 41 -32 83 -32 94 0 11 -16 78 -36 151 -49 182 -68 297 -79 474 -13 225 -55 303 -118 219z"/>
		<path d="M8476 6711 c-17 -11 -28 -71 -15 -79 15 -9 44 34 44 64 0 25 -7 29 -29 15z"/>
		<path d="M9791 6701 c-36 -26 -194 -296 -195 -334 0 -11 -18 -62 -40 -114 l-39 -95 -63 -10 c-96 -17 -133 -46 -95 -78 18 -14 67 7 76 33 8 26 24 23 36 -8 13 -35 39 -44 57 -20 12 17 17 17 32 5 15 -12 19 -12 34 2 14 15 15 22 3 49 -11 28 -10 40 8 88 12 30 39 102 61 160 22 58 54 126 72 152 58 83 92 148 86 163 -6 17 -17 19 -33 7z"/>
		<path d="M6186 6675 c-12 -14 -19 -28 -15 -32 7 -8 56 33 56 47 0 16 -17 9 -41 -15z"/>
		<path d="M5121 6656 c-22 -13 -23 -34 -3 -51 21 -17 124 -30 311 -38 83 -3 206 -13 273 -20 121 -14 147 -10 147 21 0 30 6 29 -294 52 -202 15 -345 31 -394 42 -12 3 -30 0 -40 -6z"/>
		<path d="M6048 6567 c-92 -82 -114 -111 -115 -145 0 -20 -11 -20 -371 -13 -370 8 -693 17 -742 20 -20 2 -27 -3 -27 -19 0 -16 10 -22 48 -27 85 -12 398 -22 819 -25 263 -2 428 -8 451 -15 20 -6 54 -11 76 -11 32 0 40 3 40 19 0 24 -16 31 -91 40 -37 4 -56 11 -56 20 0 8 35 41 78 74 82 61 94 78 58 78 -18 0 -142 -95 -173 -133 -6 -7 -26 -16 -45 -20 -60 -12 -41 25 60 122 85 81 111 115 87 114 -4 0 -48 -36 -97 -79z"/>
		<path d="M7887 6618 c-6 -11 -8 -31 -5 -47 5 -25 2 -28 -36 -34 -79 -14 -137 -69 -90 -87 9 -3 40 1 68 10 51 17 52 16 61 -6 32 -85 37 -75 -141 -253 -91 -90 -171 -163 -178 -163 -8 0 -22 -12 -31 -27 -11 -16 -26 -25 -41 -23 -19 2 -24 -4 -27 -32 -2 -28 -6 -32 -21 -24 -9 5 -31 13 -47 16 -28 6 -30 9 -24 40 17 84 19 131 7 138 -24 15 -42 -16 -43 -71 0 -41 -8 -71 -34 -122 -39 -76 -54 -87 -64 -48 -7 27 -37 37 -39 13 -1 -7 -3 -17 -4 -23 -1 -6 -3 -17 -4 -25 -1 -9 -10 -13 -27 -9 -17 3 -33 -2 -44 -15 -13 -15 -27 -18 -51 -14 -30 6 -37 1 -83 -57 -71 -88 -90 -92 -118 -26 -20 49 -18 112 5 141 22 28 53 22 62 -12 7 -28 38 -22 43 8 8 58 -63 98 -106 60 -59 -53 -71 -161 -28 -247 25 -49 56 -60 87 -32 12 11 36 25 53 30 33 11 43 24 53 69 5 25 8 27 25 17 16 -10 26 -8 52 10 17 13 40 23 51 23 11 0 26 6 33 12 22 23 26 1 7 -48 -20 -52 -15 -94 13 -105 33 -13 57 31 54 98 -2 44 3 70 21 103 21 42 44 59 44 34 0 -13 83 -1 103 15 12 9 14 7 8 -11 -14 -42 10 -34 67 25 32 32 73 65 92 73 26 11 34 21 34 41 0 26 1 26 24 8 22 -16 24 -27 25 -121 1 -57 0 -103 -3 -103 -3 0 -13 7 -21 16 -20 20 -35 11 -35 -20 0 -24 29 -59 49 -59 5 0 19 10 30 22 16 18 20 40 21 108 1 47 2 123 3 169 l2 84 98 102 c97 101 98 101 140 96 61 -8 64 10 11 70 -44 48 -47 54 -46 112 0 34 -3 74 -7 90 -9 33 -33 38 -48 11z m-646 -903 c-11 -11 -20 5 -11 19 7 11 9 11 13 0 2 -7 1 -16 -2 -19z"/>
		<path d="M6322 6533 c-7 -14 4 -50 48 -149 91 -204 141 -368 229 -740 9 -35 28 -115 43 -179 16 -65 30 -161 33 -220 l6 -106 -78 -25 c-68 -22 -99 -26 -263 -28 -183 -2 -235 -12 -226 -39 6 -18 54 -33 77 -23 11 4 72 7 136 7 117 1 174 8 273 36 30 8 64 15 76 15 32 0 53 39 61 111 7 68 0 110 -54 335 -161 668 -193 785 -244 882 -16 31 -27 66 -25 86 1 25 -4 37 -19 45 -31 17 -62 13 -73 -8z"/>
		<path d="M2564 6433 c-36 -38 -65 -76 -65 -86 0 -10 -21 -57 -47 -105 -54 -98 -81 -224 -62 -289 9 -33 54 -70 86 -72 11 -1 68 76 79 108 2 8 11 5 25 -7 27 -24 63 -23 106 3 48 30 64 26 82 -16 8 -21 21 -36 28 -34 7 3 23 34 35 70 29 84 42 98 56 60 6 -16 11 -36 11 -44 0 -27 30 -16 47 17 18 34 37 33 37 -1 0 -31 29 -37 56 -11 28 26 49 29 49 7 0 -15 30 -37 51 -37 13 0 44 29 44 41 0 5 -12 12 -25 15 -18 4 -27 16 -32 38 -7 38 -26 40 -59 5 -31 -32 -38 -33 -46 -1 -9 35 -34 41 -58 15 l-21 -22 -25 29 c-21 25 -28 28 -48 17 -12 -7 -32 -31 -44 -55 -17 -33 -25 -40 -36 -30 -14 12 -64 5 -86 -12 -26 -21 -75 -28 -94 -15 -22 16 -16 63 18 152 69 179 77 211 66 270 -8 44 -13 52 -36 54 -21 3 -40 -11 -92 -64z m91 -6 c2 -13 -13 -64 -34 -114 -20 -51 -47 -131 -59 -180 -36 -143 -89 -227 -109 -173 -11 27 -7 160 4 167 6 3 11 15 11 26 0 49 148 309 172 301 6 -2 13 -14 15 -27z"/>
		<path d="M11613 6384 c0 -6 9 -10 21 -10 12 0 21 4 21 10 0 6 -9 11 -21 11 -12 0 -21 -5 -21 -11z"/>
		<path d="M7452 6331 c-21 -27 -29 -31 -50 -23 -14 5 -34 7 -45 5 -18 -4 -38 -41 -38 -71 0 -23 29 -19 42 6 9 17 15 19 32 9 17 -9 26 -7 42 7 22 20 27 13 33 -43 2 -19 9 -32 20 -34 16 -3 17 6 14 78 -2 45 -4 86 -4 90 -2 17 -22 7 -46 -24z"/>
		<path d="M7164 6333 c-3 -12 -11 -19 -19 -16 -22 9 -37 -32 -43 -117 -5 -67 -4 -79 12 -85 10 -4 21 -2 24 4 4 6 21 10 37 10 39 0 91 50 91 87 0 16 -11 38 -26 52 -14 13 -27 36 -29 52 -4 34 -38 44 -47 13z m45 -97 c32 -30 22 -51 -23 -51 -34 0 -36 1 -29 28 13 53 18 55 52 23z"/>
		<path d="M6853 6239 c-9 -10 -21 -37 -26 -60 -6 -32 -13 -41 -27 -38 -30 5 -45 -16 -65 -89 -17 -63 -17 -69 -1 -85 23 -24 34 -11 52 60 8 31 20 58 26 60 6 2 20 -13 32 -33 24 -41 48 -47 77 -20 18 16 21 16 38 0 24 -21 42 -10 55 36 21 73 8 159 -21 141 -9 -6 -11 -26 -8 -60 5 -52 -5 -76 -18 -43 -6 16 -11 14 -36 -17 -20 -24 -35 -34 -47 -29 -24 9 -21 31 10 77 27 40 28 75 2 106 -14 18 -23 16 -43 -6z"/>
		<path d="M7536 6240 c-4 -3 -7 -18 -7 -31 0 -31 37 -34 47 -4 10 33 -18 58 -40 35z"/>
		<path d="M3360 6227 c0 -6 5 -11 11 -11 5 0 10 5 10 11 0 5 -5 10 -10 10 -6 0 -11 -5 -11 -10z"/>
		<path d="M3247 6210 c-26 -18 -30 -52 -12 -92 9 -20 8 -31 -6 -52 -15 -24 -16 -27 0 -43 21 -21 26 -21 55 -1 24 17 30 62 14 105 -5 12 -3 29 3 39 8 13 8 24 0 36 -15 25 -27 27 -54 8z"/>
		<path d="M10542 6179 c-12 -14 -11 -19 3 -33 22 -23 52 -10 48 20 -4 29 -32 36 -51 13z"/>
		<path d="M10749 6167 c-29 -8 -21 -41 19 -71 29 -23 40 -26 57 -17 26 14 27 21 3 63 -18 31 -34 36 -79 25z"/>
		<path d="M6019 5998 c-39 -7 -111 -49 -217 -128 -55 -41 -128 -89 -161 -107 -33 -18 -72 -40 -86 -50 -15 -9 -59 -34 -98 -54 -46 -24 -70 -43 -70 -55 0 -10 4 -18 11 -18 21 0 277 140 315 172 68 59 199 148 233 160 27 9 40 8 64 -4 21 -11 33 -12 41 -3 20 19 44 13 148 -41 88 -44 125 -61 203 -92 27 -11 13 36 -21 67 -45 42 -209 128 -275 144 -55 13 -63 14 -87 9z"/>
		<path d="M8149 5940 c-96 -48 -78 -94 44 -114 39 -7 71 -17 71 -23 0 -6 -15 -26 -32 -44 -34 -35 -50 -94 -33 -119 13 -20 29 -8 36 27 4 16 25 52 49 80 40 49 42 53 38 115 -2 51 -8 68 -27 83 -31 25 -89 23 -146 -5z m125 -45 c14 -14 14 -17 0 -26 -9 -5 -22 -7 -30 -5 -7 3 -24 6 -37 6 -13 0 -33 6 -44 15 -20 14 -20 15 6 26 32 13 84 5 105 -16z"/>
		<path d="M7878 5931 c-9 -9 -4 -27 19 -71 22 -42 34 -84 41 -143 11 -101 26 -156 48 -174 14 -11 18 -11 26 2 5 8 7 22 3 31 -3 8 -10 55 -15 105 -12 115 -34 190 -68 230 -30 35 -37 38 -54 20z"/>
		<path d="M4605 5885 c-21 -22 -21 -23 11 -78 16 -26 36 -62 45 -80 34 -67 235 -279 395 -417 169 -146 246 -216 320 -292 71 -71 82 -79 105 -70 14 5 28 13 31 17 3 4 27 22 53 40 47 31 157 104 187 124 9 6 50 33 91 61 40 28 107 72 147 99 41 27 122 86 181 131 58 45 111 82 117 82 15 0 25 34 13 45 -12 12 -11 12 -129 -77 -72 -55 -250 -181 -290 -204 -58 -35 -183 -121 -231 -160 -31 -25 -62 -45 -69 -45 -6 -1 -31 -14 -54 -31 l-42 -30 -157 155 c-87 86 -181 176 -210 200 -169 142 -336 322 -421 452 -58 90 -71 100 -93 78z"/>
		<path d="M9358 5679 c-13 -7 -23 -20 -23 -29 0 -14 14 -17 81 -18 48 -1 97 -8 121 -18 37 -15 39 -19 39 -63 0 -25 -7 -69 -16 -97 -9 -29 -20 -82 -25 -118 -6 -37 -13 -70 -16 -73 -4 -4 -34 20 -67 53 -62 62 -85 71 -106 45 -18 -21 -4 -43 78 -122 80 -78 79 -65 23 -225 -65 -186 -142 -430 -150 -470 -5 -31 -1 -48 21 -86 32 -54 61 -76 77 -56 20 24 12 75 -16 105 -34 36 -30 64 44 286 30 93 66 203 79 244 14 44 30 77 38 77 18 0 97 -68 199 -172 46 -47 90 -84 97 -83 8 2 10 -3 6 -13 -3 -9 0 -23 7 -31 9 -12 7 -24 -12 -57 -21 -36 -22 -43 -9 -59 14 -17 16 -17 34 5 10 13 19 30 19 38 0 8 14 21 31 30 25 13 31 23 31 50 0 31 -2 32 -14 16 -13 -16 -16 -13 -39 31 -14 27 -44 67 -67 89 -230 217 -260 251 -253 279 31 133 55 262 51 276 -3 10 0 21 7 25 14 9 14 64 0 90 -20 38 -220 75 -270 51z"/>
		<path d="M2850 5651 c-23 -14 -34 -50 -38 -116 -4 -81 12 -95 45 -39 12 21 28 38 36 38 7 0 19 7 26 16 12 14 17 12 44 -13 30 -29 31 -29 61 -12 23 13 46 16 94 11 53 -4 64 -3 70 13 10 25 -8 38 -64 49 -43 8 -54 6 -81 -14 l-32 -22 -25 28 c-27 29 -46 27 -90 -11 -22 -20 -35 -1 -18 26 21 33 1 66 -28 46z"/>
		<path d="M8253 5613 c0 -26 -47 -69 -75 -69 -63 0 -122 -42 -108 -77 8 -21 51 -38 80 -33 13 3 35 0 47 -7 23 -12 93 -5 102 10 13 21 -17 34 -91 40 -81 7 -113 25 -45 25 51 0 102 27 131 69 20 29 22 39 12 52 -22 25 -53 20 -53 -10z"/>
		<path d="M4469 5546 c-21 -24 -22 -38 -1 -54 19 -17 47 2 47 31 0 32 -26 45 -46 23z"/>
		<path d="M8378 5145 c-70 -37 -138 -127 -181 -236 -44 -114 -49 -173 -17 -205 24 -25 41 -26 67 -7 23 17 14 39 -16 39 -19 0 -21 4 -14 49 16 109 135 315 193 334 10 3 61 -11 112 -32 51 -20 98 -35 106 -32 18 7 17 49 -1 75 -14 19 -16 19 -35 2 -19 -18 -23 -17 -72 8 -62 31 -91 32 -142 5z"/>
		<path d="M6563 4995 c-5 -13 -6 -27 -4 -31 3 -5 5 -106 4 -226 0 -136 5 -250 14 -303 7 -47 12 -100 9 -118 -5 -37 12 -64 40 -64 29 0 31 22 14 154 -9 75 -15 209 -15 341 1 119 -4 229 -10 244 -12 33 -40 35 -52 3z"/>
		<path d="M9029 4928 c-20 -23 -42 -254 -30 -306 5 -21 10 -88 10 -149 0 -137 -13 -166 -101 -231 -65 -47 -107 -104 -94 -125 14 -22 37 -11 57 28 14 26 37 48 70 65 97 51 132 142 121 316 -4 59 -2 106 4 117 7 12 6 26 -4 44 -11 21 -11 42 -1 116 18 121 5 170 -32 125z"/>
		<path d="M4394 4852 c-28 -11 -168 -28 -393 -48 -102 -9 -227 -21 -279 -27 -52 -6 -163 -16 -246 -22 -84 -7 -172 -14 -195 -16 -23 -2 -91 -8 -152 -13 -103 -9 -140 -13 -291 -28 -136 -14 -338 -20 -354 -10 -24 15 -57 -20 -42 -44 9 -14 25 -17 74 -15 125 5 284 13 330 18 25 2 84 7 128 9 45 3 87 8 93 12 6 3 73 10 149 15 76 5 177 14 223 20 46 5 119 13 163 16 43 4 102 11 131 16 29 5 144 15 257 22 113 7 209 15 213 17 5 3 59 8 121 11 120 6 160 15 160 37 0 34 -43 48 -90 30z"/>
		<path d="M1073 4655 c-39 -19 -75 -61 -75 -87 0 -9 7 -27 16 -40 18 -26 47 -21 47 8 0 11 5 33 11 49 11 29 12 29 26 9 28 -37 19 -80 -46 -214 -29 -59 -38 -103 -23 -112 13 -8 53 23 53 41 0 14 60 91 71 91 4 0 6 -21 4 -46 -3 -32 1 -49 13 -59 17 -14 22 -12 93 42 l29 22 0 -26 c0 -43 17 -42 59 6 22 24 65 70 95 102 59 62 67 58 44 -23 -16 -60 16 -104 51 -70 8 9 8 17 -1 31 -12 20 -5 67 26 175 7 24 10 48 6 52 -9 9 -127 -104 -188 -179 -37 -47 -42 -50 -47 -29 -9 32 -26 28 -80 -19 -26 -24 -51 -42 -55 -42 -4 0 -6 20 -5 44 5 78 -5 89 -44 54 -16 -15 -19 -16 -19 -2 0 9 7 36 15 60 24 68 24 148 1 165 -25 18 -34 18 -77 -3z"/>
		<path d="M9769 4623 c-15 -28 -44 -76 -62 -108 -19 -32 -37 -69 -41 -82 -9 -29 -204 -253 -294 -338 -113 -107 -120 -133 -45 -161 100 -36 134 -31 134 19 0 23 -18 35 -82 53 -13 3 -23 10 -23 14 0 5 33 39 74 76 41 37 88 81 103 98 15 18 51 58 81 90 49 54 151 214 151 239 0 6 7 16 16 24 22 18 49 79 45 100 -7 35 -28 26 -57 -24z"/>
		<path d="M3859 4630 c-14 -22 -48 -161 -43 -174 9 -24 36 -4 49 36 19 58 26 63 106 71 73 7 91 19 79 50 -6 15 -18 14 -119 -9 -27 -6 -33 -4 -38 15 -6 23 -23 29 -34 11z"/>
		<path d="M2900 4607 c-27 -29 -54 -93 -54 -127 0 -35 -23 -51 -81 -57 -38 -4 -47 -3 -43 9 2 8 21 20 40 27 20 6 36 17 35 23 -2 29 -5 33 -22 33 -9 0 -40 -24 -68 -52 -57 -60 -78 -65 -93 -26 l-10 27 -28 -22 c-32 -25 -51 -27 -60 -6 -5 14 -11 13 -40 -5 l-35 -21 -18 24 c-15 20 -20 22 -40 9 -19 -11 -25 -11 -43 5 -18 16 -24 17 -43 5 -20 -13 -24 -12 -34 4 -32 53 -32 53 -63 33 -36 -24 -35 -79 2 -96 14 -5 27 -18 30 -29 9 -27 24 -22 44 13 21 38 30 40 37 10 6 -20 8 -20 35 -6 27 14 30 13 47 -7 18 -22 20 -22 49 -6 19 11 37 14 47 9 8 -5 33 -4 55 2 34 9 42 8 50 -6 13 -24 143 -11 212 21 46 22 54 23 73 9 39 -27 101 -16 101 18 0 15 -8 20 -31 20 -41 0 -50 17 -24 45 44 48 58 105 32 131 -19 18 -34 15 -59 -11z m30 -43 c0 -2 -6 -19 -12 -37 -11 -31 -30 -46 -30 -23 0 21 21 64 31 64 6 0 11 -2 11 -4z"/>
		<path d="M3253 4610 c-15 -11 -38 -46 -51 -76 l-24 -56 -8 35 c-9 42 -14 48 -35 40 -21 -8 -21 -56 -1 -105 20 -48 44 -48 64 -1 8 20 20 37 26 37 6 0 18 -17 28 -37 19 -40 52 -50 63 -19 3 10 24 41 47 68 39 48 51 82 29 82 -6 0 -25 -21 -44 -47 -18 -26 -38 -47 -45 -47 -7 0 -21 16 -32 36 -19 36 -19 36 6 63 33 36 15 57 -23 27z"/>
		<path d="M1792 4573 c-22 -22 -22 -55 -2 -104 20 -47 20 -49 -2 -47 -40 4 -55 -2 -55 -20 0 -44 49 -58 93 -27 25 17 26 44 5 132 -5 23 -3 29 11 29 13 0 17 7 15 24 -5 29 -42 36 -65 13z"/>
		<path d="M3428 4510 c-19 -24 -26 -43 -21 -57 8 -25 43 -39 61 -24 12 10 53 18 134 28 20 2 52 9 71 15 31 9 34 8 28 -9 -11 -34 18 -37 44 -5 48 60 23 92 -49 63 -55 -21 -63 -21 -63 5 0 30 -24 25 -51 -11 -27 -36 -43 -41 -43 -11 0 26 -18 37 -36 22 -11 -9 -16 -8 -21 4 -9 25 -24 20 -54 -20z m50 -29 c-7 -6 -16 -8 -20 -4 -5 4 -1 12 7 17 20 12 28 3 13 -13z"/>
		<path d="M1918 4472 c-43 -25 -46 -104 -5 -126 17 -9 25 -8 40 8 21 22 46 104 37 119 -9 14 -48 13 -72 -1z"/>
		<path d="M3932 4452 c-3 -6 -3 -20 0 -31 7 -23 40 -34 153 -51 37 -6 94 -16 126 -22 56 -11 123 -21 288 -43 145 -20 154 -22 148 -38 -3 -8 -1 -27 5 -42 14 -37 121 -139 193 -182 33 -21 75 -48 94 -60 33 -23 149 -92 240 -144 28 -16 50 -33 50 -38 0 -14 -85 -71 -188 -125 -15 -8 -37 -22 -48 -32 -12 -10 -43 -30 -68 -45 -26 -14 -80 -46 -120 -70 -65 -41 -109 -66 -169 -100 -12 -6 -61 -38 -110 -70 -50 -33 -135 -86 -189 -119 -251 -150 -291 -176 -318 -206 -31 -34 -29 -58 7 -74 12 -5 29 -14 38 -20 8 -5 60 -29 115 -53 55 -24 149 -67 209 -96 92 -44 114 -50 134 -41 14 6 25 20 25 32 0 24 -27 43 -100 70 l-53 19 49 7 c27 4 58 12 69 18 11 6 30 9 41 6 12 -3 47 3 78 14 57 19 143 26 139 11 -1 -5 -9 -21 -18 -38 -19 -36 -6 -65 19 -45 20 17 63 144 54 159 -12 19 -51 11 -139 -28 -48 -21 -90 -36 -93 -32 -3 3 -1 15 4 26 12 22 -4 66 -27 73 -21 8 -86 -65 -86 -95 0 -20 -7 -29 -26 -34 -37 -9 -71 -2 -84 19 -9 15 -2 26 42 65 70 61 105 126 90 166 -7 17 -19 29 -31 29 -31 0 -89 -69 -133 -160 -30 -61 -48 -88 -63 -90 -23 -3 -178 64 -189 82 -9 14 31 49 79 70 20 9 66 37 102 62 37 26 103 66 147 90 45 24 110 64 144 88 35 25 81 53 102 64 21 11 60 34 87 51 145 95 196 125 264 158 42 20 77 40 79 45 8 17 149 108 178 114 22 4 45 -3 90 -31 34 -20 73 -40 88 -44 14 -5 38 -16 52 -26 27 -18 136 -72 247 -121 118 -53 451 -218 467 -232 9 -7 39 -21 68 -31 29 -9 75 -28 102 -43 27 -14 75 -35 105 -46 129 -46 197 -73 271 -108 43 -21 112 -50 152 -65 41 -15 93 -37 116 -47 23 -11 63 -28 89 -38 26 -10 55 -25 64 -32 29 -25 68 -18 82 14 7 16 35 64 62 107 27 43 48 82 47 86 -2 5 6 13 16 19 11 6 33 31 49 55 17 25 41 58 54 72 38 44 243 353 251 380 4 13 14 31 21 40 29 34 55 93 78 173 13 46 28 98 33 115 6 20 6 35 -1 42 -18 17 -66 -39 -68 -80 -1 -19 -5 -42 -8 -50 -3 -9 -16 -47 -29 -84 -13 -38 -40 -97 -59 -132 -36 -63 -208 -313 -301 -436 -27 -37 -49 -70 -49 -74 0 -5 -15 -24 -33 -43 -18 -19 -47 -60 -64 -90 -17 -30 -38 -55 -46 -55 -8 0 -68 23 -133 51 -65 28 -144 59 -176 70 -32 10 -91 35 -132 53 -40 19 -102 45 -136 57 -35 13 -91 37 -126 53 -34 16 -86 39 -115 52 -63 28 -247 115 -420 200 -70 34 -164 75 -210 92 -134 50 -180 72 -206 100 -14 14 -69 46 -122 70 -54 25 -97 51 -97 58 0 12 22 26 94 57 15 6 46 24 69 40 24 16 73 48 110 73 94 60 129 85 196 138 l57 45 117 -11 c65 -6 156 -14 202 -17 46 -2 100 -6 121 -8 31 -2 37 1 40 21 4 32 -31 44 -144 50 -551 27 -728 38 -826 47 -89 10 -132 13 -320 27 -43 4 -93 8 -110 10 -61 9 -336 59 -373 68 -20 5 -86 15 -147 22 -111 13 -331 53 -399 73 -47 13 -91 14 -100 0z m994 -210 c56 -6 194 -19 305 -28 112 -8 217 -17 234 -19 18 -2 97 -8 176 -14 80 -5 148 -12 151 -16 9 -8 -43 -51 -135 -111 -74 -49 -98 -63 -176 -102 -20 -10 -67 -39 -103 -65 -64 -44 -69 -46 -106 -35 -21 6 -76 37 -122 67 -46 31 -114 74 -152 95 -132 74 -215 138 -213 163 2 15 -9 31 -34 50 -20 15 -36 31 -36 36 0 4 24 3 54 -1 30 -5 101 -14 157 -20z m-463 -1130 c0 -31 -85 -131 -93 -109 -8 21 62 126 84 126 5 0 9 -8 9 -17z m105 -134 c0 -21 -28 -42 -37 -28 -11 17 2 43 20 43 9 0 17 -7 17 -15z"/>
		<path d="M8248 4358 c-26 -34 -51 -63 -55 -65 -5 -2 -71 -68 -147 -147 l-139 -142 0 -58 c0 -53 3 -61 44 -105 65 -68 145 -163 181 -214 18 -24 65 -84 106 -132 73 -86 99 -124 99 -143 0 -32 -221 -52 -272 -24 -20 11 -30 11 -50 0 -28 -15 -30 -28 -12 -67 12 -27 44 -36 56 -16 10 16 37 12 37 -6 0 -17 17 -21 22 -5 2 6 30 13 62 17 31 3 73 13 93 21 19 8 58 15 86 15 46 0 52 2 58 25 9 37 -52 131 -138 215 -38 38 -85 97 -105 132 -20 35 -64 93 -98 129 -66 72 -131 181 -121 206 3 8 29 35 57 59 29 24 59 57 68 74 9 17 22 31 30 31 8 0 55 42 104 94 61 64 96 93 106 89 18 -7 34 37 24 64 -13 32 -48 16 -96 -47z"/>
		<path d="M2951 4224 c-28 -23 -23 -59 11 -77 44 -24 68 30 33 74 -19 23 -19 23 -44 3z"/>
		<path d="M3560 4106 c-19 -18 -32 -40 -32 -56 0 -14 -7 -32 -16 -39 -25 -21 -78 6 -86 43 -11 60 -26 58 -131 -11 -77 -50 -103 -63 -124 -58 -14 4 -28 11 -30 16 -5 16 -22 12 -58 -16 -40 -30 -65 -34 -74 -10 -4 12 -14 15 -36 10 -22 -5 -32 -2 -36 9 -4 9 -16 21 -28 27 -31 17 -77 -29 -68 -68 9 -35 -18 -56 -69 -54 -32 2 -37 5 -40 31 -3 26 -7 29 -32 24 -15 -4 -54 -11 -85 -16 -32 -5 -66 -12 -76 -16 -24 -10 -30 6 -18 50 13 47 -2 81 -35 81 -29 0 -164 -40 -276 -81 -87 -32 -93 -40 -78 -97 7 -24 -60 -28 -85 -6 -18 17 -22 16 -65 -9 -56 -33 -75 -34 -103 -6 -21 21 -24 21 -48 5 -18 -12 -37 -15 -62 -10 -31 6 -42 1 -83 -32 l-48 -39 -53 53 c-52 52 -53 53 -29 65 13 7 54 15 92 16 38 2 72 4 77 4 4 0 8 9 8 20 0 34 -54 46 -124 28 -70 -19 -104 -40 -120 -74 -14 -31 4 -63 60 -105 43 -33 46 -56 12 -88 -14 -13 -33 -41 -43 -63 -17 -36 -17 -43 -2 -78 9 -21 22 -38 30 -38 25 0 72 83 89 154 15 62 22 75 57 100 35 25 44 27 62 16 17 -11 27 -10 54 5 29 17 34 18 57 3 28 -18 67 -15 104 10 28 18 41 21 32 7 -3 -5 2 -16 11 -24 14 -11 19 -11 29 2 7 9 25 14 47 12 49 -5 98 41 94 87 l-3 32 131 44 c72 24 137 44 144 44 20 1 18 -98 -2 -114 -9 -8 -16 -29 -16 -47 0 -18 -10 -63 -22 -99 -21 -61 -21 -68 -6 -83 23 -23 32 -11 52 74 29 119 34 125 122 148 l78 20 20 -28 c16 -22 29 -27 62 -27 23 0 56 7 74 16 31 16 32 16 25 -2 -28 -70 -30 -79 -13 -96 42 -42 116 32 91 92 -22 54 28 100 63 58 18 -22 37 -20 85 7 37 20 46 22 77 10 34 -12 39 -11 128 47 85 55 93 58 103 40 22 -38 68 -78 90 -78 13 0 42 14 67 31 35 26 51 31 87 27 29 -3 48 1 56 11 17 19 4 36 -27 36 -22 0 -24 4 -19 31 5 23 2 33 -15 41 -17 10 -27 7 -54 -19z m-654 -139 c-6 -19 -29 -23 -29 -4 0 9 7 17 17 17 9 0 14 -6 12 -13z m-18 -140 c0 -9 -8 -15 -16 -15 -18 0 -19 1 -10 25 8 19 26 12 26 -10z"/>
		<path d="M8663 4072 c0 -12 -15 -48 -33 -80 -17 -31 -29 -63 -26 -71 8 -21 37 -18 38 3 0 10 12 39 26 64 30 52 35 107 10 107 -9 0 -15 -10 -15 -23z"/>
		<path d="M8584 4051 c-64 -50 -184 -169 -184 -182 0 -14 128 -141 143 -141 6 0 46 -32 89 -72 43 -39 109 -96 146 -127 63 -53 230 -255 231 -280 0 -5 -35 -22 -79 -35 -82 -27 -98 -45 -53 -66 21 -9 34 -7 71 11 25 12 59 24 75 28 38 10 64 48 54 81 -14 42 -148 210 -222 278 -120 109 -258 223 -314 260 -91 61 -95 79 -23 134 63 49 135 124 129 134 -10 16 -19 13 -63 -23z"/>
		<path d="M9515 3869 c-30 -21 -29 -48 1 -77 30 -28 61 -29 85 -3 23 26 22 40 -9 70 -30 30 -45 32 -77 10z"/>
		<path d="M6458 3801 c0 -6 4 -10 10 -10 6 0 11 4 11 10 0 6 -5 11 -11 11 -6 0 -10 -5 -10 -11z"/>
		<path d="M3889 3062 c-3 -10 1 -36 11 -59 9 -23 16 -55 16 -71 0 -28 -1 -28 -16 -8 -14 19 -17 19 -52 2 -46 -22 -68 -22 -68 -1 0 28 -29 28 -78 -1 -47 -27 -48 -27 -48 -6 0 16 -7 22 -26 22 -15 0 -30 1 -34 2 -5 1 -10 -7 -12 -18 -10 -50 -67 -61 -85 -16 -17 41 -6 57 38 50 29 -5 35 -3 35 14 0 11 -12 28 -27 38 -23 15 -30 15 -53 3 -54 -29 -71 -113 -30 -147 21 -18 20 -24 -15 -62 -61 -65 -51 -105 25 -105 54 0 107 24 116 54 5 14 -1 32 -16 52 -18 25 -20 34 -10 46 14 18 52 21 52 5 0 -19 36 -11 76 16 40 27 61 27 61 0 0 -26 19 -28 63 -5 l44 22 23 -22 c32 -29 45 -27 65 12 12 24 15 48 11 84 -10 82 -49 142 -66 99z m-355 -273 c24 -24 18 -37 -23 -44 -49 -9 -66 7 -37 36 26 26 40 28 60 8z"/>
		<path d="M4946 3058 c-23 -8 -42 -36 -42 -59 0 -12 -8 -29 -17 -39 -20 -22 -12 -39 24 -52 58 -22 84 15 49 69 -9 14 -13 27 -8 27 5 1 18 2 29 3 27 2 32 21 11 42 -18 18 -22 19 -46 9z"/>
		<path d="M5174 3006 c-12 -14 -14 -24 -7 -37 13 -23 44 -24 62 -3 11 13 10 20 -5 37 -23 26 -29 26 -50 3z"/>
		<path d="M6105 2973 c-5 -4 -31 -15 -57 -22 -122 -36 -178 -58 -184 -72 -10 -26 4 -28 57 -10 28 10 63 19 78 19 15 0 30 4 33 10 4 6 22 11 41 11 37 0 70 26 70 55 0 19 -21 24 -38 9z"/>
		<path d="M5651 2854 c-7 -7 -12 -24 -12 -38 0 -14 -8 -58 -18 -98 -23 -94 -10 -106 56 -55 55 42 68 44 82 12 14 -31 44 -36 52 -9 8 24 -20 85 -38 85 -7 0 -32 -12 -57 -27 -44 -25 -46 -26 -46 -5 0 12 6 43 13 69 10 40 10 50 -3 63 -13 12 -19 13 -29 3z"/>
		<path d="M6274 2836 c-25 -28 -12 -63 27 -71 17 -3 31 -8 31 -10 0 -1 -6 -27 -12 -55 -13 -62 2 -107 28 -85 8 7 15 24 15 39 0 14 10 58 22 99 27 89 17 110 -33 68 -18 -16 -37 -25 -43 -22 -6 4 -2 12 8 20 19 14 12 37 -11 37 -7 0 -21 -9 -32 -20z"/>
		<path d="M5895 2778 c-27 -27 -35 -83 -14 -96 6 -4 33 8 58 26 44 31 48 32 72 16 24 -16 28 -16 63 6 35 22 39 22 64 6 14 -10 31 -15 36 -11 20 12 10 34 -26 53 -36 19 -37 19 -67 -3 -27 -20 -33 -21 -44 -8 -17 21 -37 19 -73 -7 -17 -13 -35 -20 -39 -15 -5 4 0 14 10 21 10 8 19 19 19 26 0 20 -32 13 -59 -14z"/>
		<path d="M5466 2735 c-20 -21 -20 -16 0 -56 9 -19 14 -41 11 -49 -8 -20 -58 -20 -81 1 -16 14 -19 14 -35 -2 -17 -16 -16 -19 6 -42 32 -34 82 -33 124 3 30 25 33 31 26 69 -6 36 -4 42 15 47 30 7 29 30 -1 38 -36 10 -47 8 -65 -9z"/>
		<path d="M5089 2721 c-27 -29 -21 -62 16 -97 40 -36 46 -37 61 -10 19 35 13 103 -10 116 -29 15 -47 13 -67 -9z"/>
		<path d="M1902 2706 c-18 -18 -17 -270 2 -270 7 0 18 5 24 11 8 8 15 6 25 -5 16 -21 29 -21 67 0 34 17 43 13 43 -20 0 -17 8 -24 30 -26 38 -5 72 25 68 59 -3 27 -12 34 -68 52 -29 9 -36 8 -57 -14 -36 -39 -55 -34 -47 11 10 52 -1 65 -32 36 -33 -31 -32 -17 2 27 30 40 128 91 160 83 32 -9 67 14 63 41 -3 20 -9 23 -49 20 -34 -2 -66 -16 -119 -50 -40 -25 -74 -46 -77 -46 -3 0 -5 20 -5 46 0 50 -10 65 -30 45z"/>
		<path d="M3732 2656 c-108 -19 -183 -73 -183 -135 0 -44 51 -89 123 -109 34 -9 70 -26 81 -38 23 -26 27 -93 7 -130 -27 -51 10 -81 50 -40 17 16 20 32 17 90 -5 92 -27 129 -95 157 -118 49 -156 88 -115 121 38 32 200 54 265 36 18 -5 24 -14 24 -37 0 -19 -5 -30 -15 -30 -24 0 -31 -21 -14 -39 38 -37 99 60 71 112 -25 47 -98 61 -216 42z"/>
		<path d="M1806 2625 c-6 -11 -11 -38 -11 -60 0 -22 -6 -64 -14 -93 -15 -56 -6 -104 17 -96 7 2 16 23 20 47 4 24 13 53 19 64 17 33 14 145 -5 152 -9 4 -20 -2 -26 -14z"/>
		<path d="M6524 2630 c-9 -24 5 -49 25 -45 23 4 31 40 12 52 -21 13 -30 11 -37 -7z"/>
		<path d="M4830 2578 c-18 -21 -3 -58 24 -59 13 -1 61 -3 107 -4 46 -1 97 -5 113 -10 19 -5 35 -4 45 5 20 16 20 42 1 42 -8 0 -20 7 -27 15 -18 21 -41 20 -65 -1 -17 -15 -24 -16 -45 -5 -14 8 -37 11 -56 7 -21 -5 -35 -2 -44 9 -17 21 -36 21 -53 1z"/>
		<path d="M4509 2530 c-39 -41 -26 -68 31 -67 43 2 44 -3 25 -74 -10 -37 -10 -50 0 -60 22 -22 44 13 57 88 14 85 7 117 -28 133 -40 18 -51 15 -85 -20z m59 -20 c0 -6 -8 -11 -17 -11 -9 0 -13 5 -10 11 4 5 11 10 17 10 5 0 10 -5 10 -10z"/>
		<path d="M6754 2539 c-6 -8 -18 -31 -27 -53 -9 -22 -23 -39 -31 -39 -20 0 -102 -73 -102 -91 0 -8 12 -20 26 -27 20 -9 31 -8 52 6 15 10 27 22 27 28 0 16 20 12 53 -13 30 -22 34 -23 76 -8 37 13 52 14 92 3 75 -20 140 -17 162 7 17 19 18 32 4 84 -2 10 3 15 15 13 29 -5 23 38 -9 52 -22 10 -30 9 -48 -10 -20 -19 -21 -26 -10 -56 16 -47 4 -56 -59 -45 -50 9 -50 10 -47 48 6 72 -44 61 -81 -17 -23 -51 -50 -62 -75 -32 -10 12 -10 29 0 80 13 65 5 97 -18 70z m-65 -144 c0 -12 -44 -45 -51 -38 -7 7 30 48 42 48 5 0 9 -5 9 -10z"/>
		<path d="M6375 2479 c-48 -10 -92 -25 -99 -31 -7 -7 -13 -32 -13 -57 -1 -24 -5 -58 -10 -74 -13 -48 7 -57 63 -28 36 19 50 22 60 12 17 -17 61 -15 86 4 11 9 34 16 50 16 32 0 38 16 16 45 -13 18 -15 18 -41 -3 -32 -25 -67 -28 -75 -6 -9 23 -28 20 -62 -12 -34 -33 -50 -24 -43 25 8 49 81 78 188 75 48 -1 84 3 91 11 37 36 -88 50 -211 23z"/>
		<path d="M504 2479 c0 -5 -21 -31 -47 -58 -63 -65 -82 -102 -73 -148 4 -20 11 -39 16 -42 5 -4 10 -10 10 -15 0 -12 -194 -105 -218 -105 -42 0 -61 -58 -29 -85 14 -11 21 -9 45 14 15 15 54 40 86 56 32 15 74 39 94 53 48 32 57 31 80 -11 l19 -36 -31 -43 c-56 -78 -62 -96 -45 -126 23 -41 66 -52 100 -26 16 12 37 33 48 48 18 24 19 32 7 90 -14 67 -7 94 16 63 18 -24 50 -23 92 2 19 12 49 21 66 22 18 0 46 7 63 16 45 24 193 70 204 63 5 -3 5 -29 0 -59 -17 -107 14 -110 90 -7 48 64 56 70 90 70 41 1 63 16 63 45 0 15 -9 19 -43 19 l-43 0 6 39 c5 28 2 45 -9 60 -16 21 -17 21 -38 -4 -16 -19 -20 -40 -20 -92 -1 -46 -6 -79 -19 -99 -24 -41 -34 -38 -34 9 0 22 -6 49 -13 59 -12 16 -18 16 -55 3 -23 -8 -61 -18 -84 -22 -23 -4 -59 -17 -81 -28 -21 -11 -51 -20 -66 -20 -15 0 -45 -12 -66 -26 -55 -37 -68 -35 -60 10 9 48 -8 49 -56 3 l-35 -34 -26 30 -26 30 48 46 c57 54 89 105 89 138 1 34 -28 87 -47 87 -9 0 -15 4 -15 10 0 6 -12 11 -27 11 -14 0 -26 -5 -26 -10z m63 -110 c0 -29 -53 -105 -84 -122 -31 -16 -52 3 -52 47 0 39 14 60 57 83 49 25 79 22 79 -8z m-42 -373 c0 -32 -17 -53 -43 -53 -32 0 -33 20 -4 58 30 40 47 39 47 -5z"/>
		<path d="M4081 2463 c-22 -15 -48 -27 -59 -27 -24 0 -63 -47 -63 -75 0 -40 30 -33 83 21 56 59 81 67 86 30 5 -31 33 -35 70 -7 30 22 32 22 59 4 23 -15 33 -16 54 -6 15 7 38 12 52 12 33 0 42 17 25 48 -14 28 -35 33 -48 12 -5 -7 -17 -19 -27 -27 -16 -12 -19 -11 -30 13 -16 35 -31 35 -72 0 -18 -15 -34 -26 -35 -24 -1 2 -7 14 -14 25 -17 31 -37 31 -81 1z"/>
		<path d="M1552 2426 c-35 -54 -50 -65 -50 -37 0 22 -29 31 -48 15 -20 -16 -20 -56 0 -73 20 -16 51 -5 95 34 40 34 49 22 15 -21 -20 -25 -20 -29 -5 -40 15 -11 15 -16 0 -58 -19 -54 -13 -97 14 -91 13 2 22 24 33 82 19 92 25 104 52 97 11 -2 23 0 26 6 12 19 -6 44 -31 44 -21 0 -25 5 -25 30 0 79 -29 84 -76 12z"/>
		<path d="M8264 2457 c0 -6 5 -10 11 -10 6 0 8 4 4 10 -3 6 -8 11 -11 11 -2 0 -4 -5 -4 -11z"/>
		<path d="M6112 2400 c-10 -11 -9 -24 4 -54 19 -46 20 -55 3 -38 -19 19 -29 15 -29 -12 0 -40 83 -64 85 -24 0 6 1 35 3 64 2 29 -1 59 -7 66 -13 17 -44 17 -59 -2z"/>
		<path d="M5320 2376 c-8 -16 -24 -63 -34 -105 -19 -73 -19 -77 -1 -95 18 -17 20 -17 44 13 14 18 26 38 26 45 0 31 41 55 96 55 51 0 53 -1 47 -25 -9 -35 25 -65 56 -49 26 14 28 30 5 39 -9 4 -14 13 -10 22 3 9 3 25 0 35 -5 16 -17 20 -64 20 -32 0 -75 -8 -95 -17 -20 -10 -38 -15 -41 -12 -3 3 2 23 11 45 9 21 13 43 10 48 -11 19 -36 9 -50 -19z"/>
		<path d="M5705 2341 c-51 -20 -58 -90 -9 -81 34 6 34 -12 5 -92 -25 -64 -22 -89 10 -89 16 0 24 11 32 45 6 24 19 68 28 98 17 52 14 88 -9 117 -12 15 -25 15 -57 2z"/>
		<path d="M2179 2152 c-15 -15 -28 -18 -67 -13 -41 4 -52 2 -69 -17 -11 -12 -32 -22 -48 -22 -17 0 -39 -12 -58 -31 -35 -38 -53 -40 -61 -9 -5 18 -9 20 -21 10 -21 -18 -59 -1 -89 39 -13 18 -31 33 -39 33 -23 0 -31 -29 -14 -49 34 -40 38 -70 18 -111 -13 -25 -27 -39 -40 -39 -26 0 -38 19 -17 27 46 18 39 93 -7 86 -27 -4 -71 -65 -71 -98 0 -57 84 -76 158 -34 l42 24 21 -26 c11 -15 29 -43 39 -63 19 -38 93 -151 149 -226 40 -55 134 -206 144 -232 19 -51 164 -249 239 -327 96 -100 173 -228 222 -370 12 -38 27 -67 32 -66 16 6 4 109 -19 175 -12 34 -33 84 -47 112 -13 27 -24 55 -24 61 0 6 -48 60 -105 119 -71 73 -117 131 -143 179 -20 39 -41 71 -46 71 -5 0 -30 39 -56 87 -26 48 -67 115 -91 149 -23 33 -42 65 -42 71 0 5 -19 32 -41 59 -51 61 -169 238 -169 253 0 6 7 11 17 11 9 0 32 11 50 25 22 17 42 23 60 20 20 -4 35 3 61 29 29 29 37 32 54 22 11 -7 27 -12 35 -12 17 0 90 65 90 81 0 20 -30 22 -47 2z"/>
		<path d="M1502 2027 c-14 -26 -14 -60 0 -69 16 -10 12 -23 -11 -29 -38 -10 -19 -70 22 -70 9 0 30 9 45 21 24 19 27 28 24 81 -1 33 -6 66 -10 73 -13 21 -58 16 -70 -7z"/>
		<path d="M2670 1988 c-3 -9 2 -39 13 -65 11 -27 19 -67 19 -89 -2 -57 -33 -182 -58 -235 -12 -24 -18 -48 -15 -54 4 -6 2 -44 -4 -86 -11 -76 -7 -115 11 -115 15 0 38 54 44 103 4 25 9 48 12 51 3 4 26 -3 51 -15 25 -12 72 -28 105 -35 58 -14 61 -15 61 -49 0 -47 37 -49 54 -2 9 27 16 31 49 31 21 0 48 3 60 6 18 5 24 -1 36 -37 18 -56 34 -68 80 -60 24 4 49 1 66 -8 32 -17 190 -179 190 -196 0 -6 11 -9 24 -8 15 3 24 12 27 28 2 19 -18 45 -92 118 -53 52 -95 101 -95 110 0 9 -10 16 -22 16 -26 0 -62 17 -62 30 0 5 16 11 36 15 51 8 100 45 100 74 0 35 -31 58 -86 65 -43 6 -54 3 -96 -26 -26 -18 -49 -32 -51 -32 -2 0 -32 26 -65 59 l-62 59 18 121 c17 110 17 122 2 137 -31 30 -51 -6 -59 -108 -4 -50 -10 -93 -14 -97 -17 -17 -150 145 -166 202 -6 22 -20 41 -35 48 -13 6 -29 23 -36 36 -13 30 -30 33 -40 8z m186 -290 l84 -86 -6 -53 c-4 -29 -9 -55 -11 -59 -6 -10 -115 24 -171 53 l-46 24 6 49 c8 65 37 159 49 159 6 0 48 -39 95 -87z m193 -181 l41 -36 -53 0 c-60 0 -69 7 -59 46 8 35 22 33 71 -10z m243 5 c4 -7 3 -16 -2 -21 -13 -13 -121 -17 -126 -4 -9 25 114 48 128 25z"/>
		<path d="M1294 1971 c-6 -7 -23 -37 -39 -67 -34 -66 -53 -85 -62 -62 -8 23 -42 20 -64 -4 -23 -25 -37 -27 -37 -6 0 24 -35 19 -69 -10 -28 -24 -32 -25 -43 -9 -17 22 -43 11 -56 -23 -28 -74 1 -96 63 -47 39 31 46 33 69 21 22 -12 29 -10 61 14 31 24 38 25 49 12 20 -25 38 -18 74 29 53 69 53 69 50 24 -3 -37 -1 -43 20 -46 19 -2 24 2 24 21 0 14 3 57 6 96 7 66 6 71 -14 71 -12 0 -26 -6 -32 -14z"/>
		<path d="M722 1935 c-27 -32 -29 -42 -19 -71 13 -33 34 -30 43 6 13 54 94 8 94 -53 0 -32 -31 -78 -65 -96 -19 -10 -20 -9 -14 36 9 54 -6 71 -37 43 -29 -26 -37 -83 -16 -115 22 -34 35 -33 88 5 48 35 86 99 86 144 0 48 -36 95 -81 108 -53 15 -60 14 -79 -7z"/>
		<path d="M5856 1820 c-21 -20 11 -77 42 -77 18 0 24 29 13 58 -9 24 -40 35 -55 19z"/>
		<path d="M7158 1764 c-46 -9 -80 -36 -65 -52 7 -7 36 -6 82 1 39 6 74 8 78 5 9 -9 -27 -120 -43 -130 -7 -4 -45 -10 -86 -13 -64 -5 -73 -8 -73 -26 0 -19 6 -21 70 -18 l71 3 -11 -32 c-7 -18 -16 -35 -21 -38 -5 -3 -9 -15 -9 -27 0 -16 5 -20 23 -18 16 3 33 21 53 59 23 42 36 55 54 55 35 0 40 11 17 36 -21 22 -21 23 0 90 12 38 19 79 16 92 -6 21 -13 23 -61 22 -31 0 -73 -4 -95 -9z"/>
		<path d="M1493 1742 c-13 -20 -12 -25 7 -44 18 -18 24 -19 38 -8 19 16 21 44 3 61 -18 19 -33 16 -48 -9z"/>
		<path d="M6037 1745 c-11 -7 -20 -21 -20 -29 0 -18 1 -18 37 -4 23 8 37 6 69 -11 23 -11 52 -21 66 -21 37 0 120 -40 133 -65 11 -20 7 -26 -29 -57 -23 -19 -50 -53 -61 -77 -18 -39 -18 -45 -3 -60 14 -14 20 -14 60 7 56 28 84 75 84 140 1 90 -53 155 -150 180 -71 19 -158 17 -186 -3z"/>
		<path d="M10891 1719 c-62 -66 -106 -102 -126 -102 -11 0 -32 -9 -46 -19 -13 -10 -66 -40 -117 -65 -50 -26 -91 -50 -91 -52 0 -3 -36 -5 -79 -4 -69 2 -79 0 -84 -18 -10 -30 2 -42 37 -35 42 9 39 -1 -10 -32 -22 -14 -57 -49 -78 -77 -51 -70 -52 -114 -3 -168 32 -35 39 -38 65 -28 16 5 50 36 74 68 49 63 120 196 120 224 0 34 20 56 75 85 31 16 83 47 116 69 51 33 62 37 72 24 10 -12 9 -23 -5 -52 -39 -83 -7 -112 52 -47 21 24 42 43 45 43 4 0 6 -18 3 -40 -2 -28 2 -44 15 -55 16 -13 22 -10 56 30 37 42 40 44 55 26 9 -10 23 -30 29 -43 21 -41 75 -57 148 -45 35 6 68 13 73 17 6 3 22 -2 36 -11 33 -22 84 -17 89 9 2 12 -4 21 -19 25 -18 5 -22 13 -20 46 1 22 0 43 -3 46 -3 3 -25 6 -49 7 -52 2 -95 -23 -111 -66 -8 -21 -18 -30 -34 -30 -37 0 -39 19 -4 37 30 15 32 21 29 61 -3 41 -4 44 -33 40 -17 -1 -46 -14 -64 -28 l-34 -26 -24 26 c-14 15 -33 27 -44 27 -12 0 -19 7 -19 21 0 25 -28 39 -45 22 -6 -7 -15 -12 -20 -12 -15 0 -9 28 8 43 25 20 35 54 24 75 -14 26 -22 23 -59 -16z m418 -227 c0 -6 -5 -13 -11 -17 -6 -3 -10 1 -10 10 0 9 4 17 10 17 6 0 11 -5 11 -10z m-809 -90 c0 -19 -54 -124 -92 -178 -38 -53 -63 -69 -76 -48 -35 53 -25 99 33 158 70 70 135 103 135 68z"/>
		<path d="M3757 1719 c-16 -26 -35 -80 -45 -130 -6 -31 -10 -34 -38 -28 -43 9 -88 -35 -111 -108 -16 -52 -16 -57 1 -83 20 -31 47 -28 89 9 15 14 27 18 29 11 11 -29 33 -49 49 -43 14 5 16 18 10 74 -4 53 -2 75 12 103 21 41 59 167 59 198 0 29 -36 27 -55 -3z m-72 -217 c6 -11 8 -26 5 -34 -10 -23 -66 -63 -79 -55 -16 10 -2 57 25 86 27 29 35 29 49 3z"/>
		<path d="M11642 1704 c-13 -22 -31 -53 -39 -69 -21 -41 -45 -39 -29 3 9 24 9 34 -1 44 -9 10 -18 7 -39 -12 -14 -14 -26 -31 -26 -38 0 -8 -14 -23 -30 -35 -25 -17 -30 -29 -30 -61 1 -22 -2 -52 -6 -68 -5 -19 -2 -33 9 -45 22 -22 32 -14 40 34 6 43 32 86 43 74 4 -4 -1 -24 -11 -46 -18 -37 -18 -40 1 -75 25 -47 51 -59 105 -52 45 6 45 6 63 -38 22 -57 34 -71 54 -63 23 9 68 106 64 138 -4 38 -35 42 -44 7 -9 -36 -29 -29 -40 12 -12 47 -37 52 -58 14 -30 -53 -70 -32 -79 39 -9 73 10 87 121 88 64 1 95 6 103 16 24 28 3 43 -68 51 -55 6 -69 11 -69 25 0 10 5 23 11 30 15 14 9 58 -8 63 -7 3 -23 -14 -37 -36z"/>
		<path d="M5036 1662 c-21 -22 -38 -44 -38 -48 0 -16 -108 -123 -124 -123 -8 0 -21 8 -29 18 -12 17 -15 17 -32 2 -11 -10 -31 -23 -44 -30 -22 -11 -28 -10 -49 10 -13 12 -33 21 -44 19 -20 -3 -21 2 -10 40 9 29 -22 64 -39 46 -15 -15 -40 -160 -29 -171 12 -12 41 2 49 25 8 26 33 26 41 0 10 -30 36 -35 68 -12 37 27 45 27 61 1 19 -31 46 -17 144 79 49 49 89 82 89 75 0 -7 -8 -32 -16 -55 -47 -125 -51 -157 -19 -150 16 3 43 68 73 171 17 59 16 133 -2 139 -7 2 -29 -14 -50 -36z"/>
		<path d="M1575 1647 c-11 -20 -21 -39 -21 -43 0 -5 -15 -34 -33 -66 -26 -47 -35 -56 -47 -46 -25 21 -48 3 -44 -35 6 -66 53 -48 114 43 27 42 31 44 31 21 0 -37 24 -67 47 -58 14 6 17 15 11 48 l-7 42 40 3 c33 3 41 8 44 27 4 31 -23 41 -56 20 l-25 -17 -4 43 c-4 56 -22 62 -50 18z"/>
		<path d="M9690 1602 c-45 -31 -52 -45 -44 -92 5 -30 1 -38 -22 -50 -29 -16 -36 -50 -14 -72 32 -32 118 4 125 53 2 12 10 24 18 27 15 5 14 -10 -3 -52 -5 -12 -1 -21 12 -28 15 -8 32 -2 80 27 47 29 63 35 69 24 5 -7 7 -21 4 -31 -2 -10 3 -24 11 -31 13 -11 19 -8 35 16 24 39 151 164 151 150 0 -6 -15 -45 -32 -86 -37 -86 -39 -139 -6 -139 15 0 24 10 31 37 5 20 23 73 40 119 35 94 36 136 2 141 -26 4 -116 -69 -145 -117 l-19 -30 -25 24 -25 24 -32 -24 c-35 -26 -64 -17 -56 18 2 10 1 22 -4 28 -15 20 -97 90 -105 90 -5 0 -25 -12 -46 -26z m96 -93 c0 -14 -5 -18 -17 -14 -9 4 -25 7 -37 7 -22 0 -35 23 -27 46 9 22 81 -13 81 -39z"/>
		<path d="M1208 1600 c-61 -19 -82 -39 -64 -61 12 -14 16 -14 44 0 17 9 58 19 91 23 51 7 60 11 63 31 3 22 -1 24 -42 23 -25 -1 -66 -8 -92 -16z"/>
		<path d="M8894 1585 c-43 -27 -68 -81 -59 -129 3 -20 14 -39 23 -43 19 -7 58 11 71 33 7 13 13 11 33 -8 28 -26 71 -22 115 13 24 18 31 20 58 9 25 -11 36 -10 61 2 29 15 33 14 53 -6 21 -20 23 -20 66 -4 24 10 46 16 49 13 3 -3 -12 -58 -32 -123 -30 -97 -41 -121 -63 -132 -35 -17 -58 -70 -39 -92 7 -9 23 -15 35 -13 26 3 49 48 105 197 71 190 75 240 20 226 -16 -4 -37 -14 -46 -22 -24 -21 -53 -18 -59 6 -7 28 -42 27 -72 -1 -28 -26 -46 -19 -46 17 0 27 -25 36 -38 15 -13 -22 -92 -73 -112 -73 -18 0 -20 5 -14 29 15 60 13 66 -32 86 -43 19 -44 19 -77 0z"/>
		<path d="M6776 1553 c-80 -84 -85 -162 -8 -114 37 23 40 23 53 5 7 -10 15 -23 17 -28 1 -5 18 -12 37 -15 30 -6 34 -4 34 15 0 12 -6 25 -14 30 -25 15 -57 83 -52 110 8 45 -23 44 -67 -3z"/>
		<path d="M7658 1575 c-19 -10 -77 -24 -130 -31 -94 -13 -96 -13 -121 11 -24 22 -26 23 -45 5 -27 -24 -46 -71 -42 -102 6 -39 43 -37 84 5 31 32 44 37 106 44 74 7 82 3 61 -37 -13 -24 -4 -52 16 -52 18 0 20 -38 4 -56 -6 -7 -27 -39 -45 -70 -41 -69 -64 -76 -111 -36 -31 26 -35 27 -51 11 -26 -26 -3 -66 47 -80 52 -14 79 -14 100 2 21 17 187 339 187 364 0 34 -23 42 -60 22z m-275 -76 c-11 -11 -12 -9 -6 6 4 10 10 16 13 13 3 -4 0 -12 -7 -19z"/>
		<path d="M8613 1585 c-13 -5 -39 -9 -58 -8 -19 1 -55 -9 -79 -22 l-46 -23 -18 23 c-26 32 -56 19 -83 -38 -45 -92 -27 -104 70 -48 91 54 114 55 118 9 5 -45 30 -45 51 0 10 22 31 41 60 55 31 14 45 28 45 42 0 23 -20 26 -60 10z"/>
		<path d="M4068 1539 c-37 -38 -49 -45 -74 -40 -17 3 -37 11 -46 17 -65 48 -79 45 -115 -29 -25 -51 -28 -114 -7 -132 19 -15 71 27 90 73 10 22 21 32 38 32 39 0 75 -18 81 -42 3 -11 18 -26 33 -32 23 -9 40 -4 101 26 85 43 101 46 57 11 -23 -19 -28 -29 -19 -38 16 -16 44 -5 84 31 35 32 38 62 7 87 -19 15 -71 -1 -131 -41 -22 -14 -48 -23 -58 -21 -14 4 -11 7 12 13 45 12 69 36 69 69 0 31 -29 63 -58 63 -11 0 -39 -21 -64 -47z m76 -23 c5 -15 -46 -38 -55 -24 -3 6 0 18 7 26 14 17 42 16 48 -2z m-255 -44 c-4 -13 -11 -23 -16 -23 -12 0 -11 7 2 33 14 26 22 21 14 -10z"/>
		<path d="M5510 1562 c-37 -21 -40 -22 -59 -4 -24 22 -52 19 -68 -5 -11 -18 -8 -23 62 -111 28 -35 47 -25 47 27 0 27 7 46 21 59 31 28 57 9 57 -40 0 -51 9 -56 49 -28 23 17 35 21 38 12 8 -24 35 -44 60 -44 60 0 81 35 28 47 -23 5 -32 14 -37 38 -7 36 -32 50 -59 33 -16 -10 -22 -7 -36 14 -21 31 -51 32 -103 2z"/>
		<path d="M8006 1571 c-11 -8 -16 -21 -13 -30 13 -34 233 -39 253 -6 19 29 -1 37 -115 43 -79 5 -111 3 -125 -7z"/>
		<path d="M5829 1548 c-26 -32 -26 -35 -12 -72 11 -31 36 -34 80 -11 35 18 57 20 57 6 0 -6 7 -17 16 -26 17 -17 36 -12 80 23 15 13 19 11 31 -8 14 -21 62 -31 62 -13 0 19 -34 76 -45 76 -6 0 -27 -10 -46 -22 -36 -22 -56 -20 -56 6 0 26 -20 27 -63 5 -58 -29 -65 -27 -61 17 4 48 -14 56 -43 19z"/>
		<path d="M1021 1552 c-7 -7 -13 -25 -13 -40 0 -34 -42 -118 -62 -124 -12 -4 -13 2 -6 31 5 19 9 57 9 83 1 39 -2 47 -19 47 -34 0 -62 -51 -61 -110 1 -46 -2 -55 -29 -74 -41 -29 -73 -28 -73 3 0 44 -114 64 -146 25 -17 -21 -24 -76 -13 -105 14 -36 41 -36 70 0 22 28 22 28 54 9 32 -19 32 -19 91 13 35 19 68 30 81 26 14 -3 35 6 62 28 49 39 63 41 63 7 0 -31 36 -57 46 -33 4 12 21 15 66 12 51 -3 65 0 85 18 39 36 25 74 -18 48 -18 -12 -24 -10 -46 10 l-25 24 -20 -27 c-19 -26 -21 -26 -44 -10 -23 16 -24 22 -17 84 6 55 4 68 -8 68 -8 0 -20 -6 -27 -13z"/>
		<path d="M5156 1539 c-28 -34 12 -63 52 -38 12 8 13 15 4 29 -15 25 -40 29 -56 9z"/>
		<path d="M7833 1444 c-12 -14 -11 -20 3 -34 22 -22 52 -10 48 20 -4 29 -32 36 -51 14z"/>
		<path d="M475 1279 c-30 -29 -3 -98 35 -91 27 5 31 43 9 77 -20 30 -26 32 -44 14z"/>
		<path d="M2884 1213 c-3 -8 -1 -58 6 -111 9 -73 9 -111 -1 -156 -6 -33 -12 -121 -12 -196 0 -75 -4 -141 -8 -148 -4 -6 -30 -11 -58 -10 l-51 1 6 34 c19 109 19 108 3 108 -23 0 -36 -21 -45 -68 -11 -65 -21 -78 -54 -72 -29 5 -118 71 -118 87 0 5 -21 19 -45 32 -25 13 -54 31 -66 41 -67 56 -226 133 -254 122 -7 -2 -13 -15 -13 -26 0 -17 17 -30 78 -58 45 -20 111 -63 157 -102 109 -93 133 -110 199 -144 53 -28 65 -30 150 -27 54 2 97 0 105 -7 16 -13 298 -17 387 -4 34 4 91 8 126 8 68 -1 119 22 147 65 13 20 24 23 71 22 70 -2 113 12 113 37 0 28 -31 33 -111 20 -76 -12 -89 -9 -68 16 11 14 30 15 114 10 56 -4 105 -9 109 -12 4 -2 84 -4 176 -4 93 0 181 -4 196 -10 35 -14 56 2 39 30 -12 19 -134 29 -448 37 -79 2 -147 6 -150 9 -3 4 4 16 17 28 26 24 19 44 -16 44 -17 0 -28 -10 -37 -32 -7 -18 -18 -35 -24 -38 -5 -4 -89 -9 -185 -11 -173 -5 -215 -14 -196 -44 7 -12 125 -10 292 4 39 4 71 3 71 -1 0 -4 -13 -33 -28 -64 -32 -63 -20 -59 -182 -56 -96 2 -101 3 -128 32 -36 39 -62 39 -107 -1 -29 -25 -45 -32 -72 -29 -30 3 -35 7 -37 36 -2 19 6 63 18 99 22 68 21 84 -6 84 -14 0 -15 8 -8 55 13 84 10 323 -4 357 -13 31 -39 38 -48 13z"/>
		<path d="M1523 1165 c-49 -12 -200 -28 -333 -37 -116 -7 -128 -15 -106 -63 10 -22 17 -26 39 -20 26 7 75 13 300 36 147 15 159 18 167 38 6 17 -10 58 -23 56 -4 -1 -24 -5 -44 -10z"/>
		<path d="M4519 1142 c-31 -44 -44 -79 -38 -107 l6 -31 -44 34 c-53 42 -89 42 -94 -1 -3 -29 17 -55 72 -93 21 -14 22 -20 14 -47 -21 -62 18 -116 43 -60 6 13 14 24 18 24 12 0 28 -36 26 -58 -1 -14 10 -26 34 -38 20 -10 51 -33 69 -51 22 -21 39 -30 51 -25 24 9 22 39 -3 62 -12 10 -21 27 -21 38 0 26 36 26 60 0 82 -87 105 -116 111 -141 15 -59 43 -27 53 61 4 34 11 67 16 71 5 5 28 -7 51 -28 47 -42 57 -45 76 -22 10 12 11 22 2 41 -9 21 -7 28 16 49 l26 25 17 -25 c30 -42 90 -95 108 -95 37 -1 42 25 13 67 -25 37 -26 40 -7 53 17 13 20 11 25 -15 13 -57 37 -68 81 -37 29 20 30 46 4 80 -11 13 -23 42 -27 63 -5 31 -13 41 -40 50 -18 7 -41 19 -50 28 -13 11 -28 13 -59 7 -58 -12 -59 -41 -4 -85 41 -33 55 -65 29 -64 -7 0 -55 47 -107 105 -51 57 -99 105 -105 105 -22 0 -37 -25 -38 -63 0 -20 -6 -51 -13 -68 l-13 -30 -76 82 c-42 44 -84 94 -94 111 -23 38 -33 42 -87 29 -31 -7 -49 -6 -56 1 -15 15 -34 14 -45 -2z m93 -81 c-5 -34 -20 -42 -30 -16 -8 21 3 47 20 47 10 0 13 -10 10 -31z m145 -137 c0 -17 -20 -42 -33 -42 -4 0 -24 21 -46 47 -33 40 -38 53 -31 80 l7 33 51 -51 c28 -28 52 -58 52 -67z m-173 2 c32 -37 37 -47 25 -55 -24 -15 -30 -12 -46 25 -8 20 -20 39 -26 43 -6 4 -11 17 -11 30 0 13 3 18 9 12 4 -5 27 -30 49 -55z m393 20 c0 -6 15 -25 33 -42 26 -27 30 -36 19 -49 -17 -20 -42 -19 -70 5 -27 23 -29 32 -12 69 12 26 30 36 30 17z m-133 -92 c10 -10 -27 -34 -53 -35 -28 0 -33 28 -6 35 30 7 51 8 59 0z m-3 -72 c0 -8 -5 -15 -11 -15 -6 0 -10 7 -10 15 0 9 4 16 10 16 6 0 11 -7 11 -16z"/>
		<path d="M8595 913 c-15 -18 -27 -36 -27 -40 0 -13 -155 -166 -160 -158 -20 33 -50 102 -50 112 0 7 11 13 25 13 47 0 91 13 91 28 0 34 -141 1 -167 -40 -11 -18 -9 -28 19 -69 18 -27 32 -59 32 -72 0 -15 -31 -53 -94 -113 -89 -85 -112 -121 -85 -138 6 -3 18 2 26 12 79 92 144 152 156 147 9 -3 18 -19 21 -35 6 -26 -1 -37 -51 -83 -41 -39 -57 -62 -57 -81 0 -49 51 -58 116 -20 l26 15 -26 -22 c-36 -31 -140 -109 -164 -123 -21 -13 -12 -36 14 -36 23 0 88 45 170 118 38 33 71 60 74 61 4 0 22 -34 42 -74 35 -73 64 -98 87 -74 13 13 -11 67 -52 116 -13 15 -26 41 -30 56 -7 26 1 37 74 107 45 43 84 76 87 74 5 -6 -15 -72 -36 -119 -17 -37 -16 -82 1 -80 6 1 26 38 44 84 28 69 39 84 63 90 55 15 60 3 25 -62 -17 -32 -32 -63 -32 -68 0 -15 32 -9 38 7 8 20 25 21 25 2 0 -22 50 -63 68 -56 20 8 20 27 0 54 -9 11 -15 29 -15 39 0 11 -6 29 -14 41 -22 36 11 50 104 45 64 -3 79 -1 84 12 11 28 -9 36 -89 38 l-77 2 6 36 c3 19 3 42 0 50 -10 26 -35 17 -41 -13 -17 -74 -22 -82 -55 -85 -32 -3 -32 -3 -27 38 7 52 -10 64 -42 29 -16 -18 -36 -27 -57 -27 -34 0 -71 -34 -125 -116 -29 -44 -45 -46 -45 -5 0 17 30 56 102 128 105 106 175 197 165 214 -16 26 -46 6 -84 -55 -38 -61 -171 -203 -182 -192 -2 2 1 18 8 35 10 24 10 37 1 53 -11 21 -9 22 14 16 31 -8 47 21 20 37 -10 6 -13 11 -6 11 15 0 130 138 130 156 0 24 -41 11 -68 -20z m-121 -236 c0 -16 -6 -26 -16 -26 -22 0 -30 20 -16 37 19 23 32 19 32 -11z m188 -65 c-1 -11 -62 -59 -62 -50 0 10 45 57 55 57 4 0 7 -3 7 -7z m-212 -141 c3 -12 -13 -28 -45 -46 -26 -16 -50 -26 -53 -24 -2 3 10 25 28 49 34 45 64 54 70 21z"/>
		<path d="M9598 782 c-19 -21 -43 -58 -54 -82 -11 -25 -29 -53 -40 -64 -28 -24 -48 -115 -32 -144 20 -38 45 -18 68 54 45 139 68 148 68 26 0 -68 2 -79 23 -94 29 -20 88 -21 127 0 17 8 37 16 45 16 8 0 21 15 29 34 l15 34 1 -33 c1 -18 10 -41 22 -51 18 -17 28 -18 68 -9 44 10 46 9 52 -14 8 -30 34 -31 65 -3 22 21 24 21 50 5 20 -13 38 -16 77 -10 45 6 48 5 30 -9 -24 -18 -16 -49 14 -49 42 0 80 58 64 100 -10 25 -14 27 -45 20 -18 -4 -43 -7 -55 -6 -11 0 -29 1 -39 2 -26 1 -23 19 13 76 17 27 32 59 32 70 0 36 -31 23 -61 -26 -34 -54 -99 -93 -172 -104 -55 -8 -67 1 -57 41 7 28 54 58 93 58 32 0 81 44 81 72 0 11 -10 28 -23 37 -20 14 -26 13 -61 -5 -22 -11 -59 -42 -83 -70 -38 -45 -45 -49 -64 -37 -35 22 -54 15 -101 -36 -53 -58 -66 -54 -72 26 -2 30 -14 71 -28 95 -24 41 -24 42 -5 63 19 21 17 54 -2 54 -5 0 -24 -17 -43 -37z"/>
		<path d="M11406 743 c-12 -13 -26 -38 -32 -55 -10 -31 -11 -32 -77 -29 -46 3 -74 -1 -87 -11 -26 -19 -13 -39 24 -39 17 0 44 -3 61 -6 37 -8 36 -26 -2 -88 -13 -21 -31 -60 -40 -87 -15 -46 -15 -51 2 -72 29 -36 85 -21 129 35 l35 44 5 -36 c5 -31 9 -36 30 -34 28 3 25 -3 -32 -72 -42 -50 -49 -73 -26 -92 20 -16 56 12 64 50 4 16 23 49 43 72 40 46 57 84 64 138 4 32 3 35 -19 28 -14 -4 -49 -11 -79 -16 -65 -12 -89 -23 -116 -58 -26 -32 -38 -23 -20 14 8 15 24 56 35 91 l21 63 102 -3 c102 -4 103 -3 99 21 -3 21 -11 25 -79 33 -84 10 -88 16 -60 71 29 56 -3 84 -45 38z"/>
		<path d="M10588 680 c-21 -42 -61 -117 -89 -167 -29 -50 -51 -96 -51 -102 0 -20 36 -14 55 9 24 28 37 26 50 -6 12 -31 31 -28 96 13 46 29 51 30 51 9 0 -20 28 -20 63 0 36 21 42 19 42 -10 0 -37 14 -41 56 -17 31 17 38 18 49 5 7 -8 21 -15 31 -15 10 0 21 -7 25 -16 8 -20 47 -20 55 0 7 19 -22 69 -40 69 -7 0 -21 8 -32 17 -16 15 -25 16 -51 7 -26 -11 -33 -9 -45 8 -11 16 -21 19 -47 13 -18 -3 -36 -10 -39 -15 -10 -17 -25 -10 -25 11 0 35 -21 35 -59 1 -51 -44 -67 -42 -67 10 0 23 -5 42 -11 42 -18 0 -11 30 21 91 17 32 32 72 32 89 0 53 -30 34 -70 -46z"/>
		<path d="M7478 724 c-42 -25 -50 -45 -35 -79 17 -37 44 -33 44 6 0 25 5 32 28 38 24 6 34 1 67 -36 62 -71 62 -91 0 -148 -55 -51 -70 -96 -41 -125 57 -56 170 72 151 171 -12 62 -58 132 -109 164 -57 36 -60 36 -105 9z m144 -289 c-23 -28 -34 1 -13 33 19 29 19 30 23 6 2 -13 -3 -31 -10 -39z"/>
		<path d="M10861 667 c-3 -8 -4 -23 -2 -34 5 -26 54 -26 59 0 7 38 -44 68 -57 34z"/>
		<path d="M4602 644 c-24 -10 -15 -46 15 -57 34 -13 79 -9 84 8 4 11 -16 24 -81 52 -3 1 -11 0 -18 -3z"/>
		<path d="M5720 622 c-27 -31 -71 -126 -71 -154 0 -59 54 -11 95 84 11 27 21 57 21 68 0 26 -24 26 -45 2z"/>
		<path d="M11915 624 c-16 -9 -29 -21 -29 -28 0 -7 -7 -3 -15 8 -14 19 -17 18 -65 -24 -75 -65 -81 -71 -102 -101 -22 -32 -49 -36 -49 -7 0 32 -22 38 -44 12 -11 -14 -19 -41 -19 -65 0 -34 4 -41 21 -41 12 0 35 12 50 26 28 26 61 38 36 14 -15 -15 -16 -47 -2 -56 18 -11 53 16 53 42 0 14 11 39 25 55 l26 29 -6 -53 c-5 -42 -1 -62 16 -97 13 -24 28 -44 33 -44 6 0 11 -7 11 -16 0 -26 30 -17 37 11 10 38 -2 72 -29 84 -17 7 -25 21 -28 45 -5 53 10 64 73 52 58 -10 80 -1 69 29 -5 11 -14 15 -27 11 -11 -4 -23 -2 -26 3 -9 15 15 65 32 65 21 0 36 36 22 50 -16 16 -28 15 -63 -4z"/>
		<path d="M5781 613 c-4 -10 -2 -22 3 -28 16 -16 49 -4 49 19 0 27 -42 34 -52 9z"/>
		<path d="M5052 572 c-17 -15 -37 -43 -44 -63 -13 -40 -37 -51 -27 -13 20 79 20 84 6 80 -24 -8 -52 -55 -59 -96 -6 -35 -4 -40 23 -50 41 -15 83 1 87 33 8 63 25 95 48 91 34 -4 32 -35 -4 -80 -36 -45 -38 -79 -5 -83 28 -4 49 20 79 95 l24 60 -24 26 c-32 34 -64 34 -104 0z"/>
		<path d="M7070 583 c-20 -14 -23 -26 -22 -84 1 -76 5 -79 65 -54 34 15 36 14 42 -10 5 -20 13 -25 41 -25 18 0 44 6 56 15 17 12 29 13 61 3 22 -7 42 -19 45 -26 3 -8 -7 -38 -22 -67 -31 -59 -36 -94 -14 -93 45 0 106 138 85 193 -10 26 -107 50 -151 38 -21 -6 -38 -11 -40 -11 -1 0 -2 12 -2 26 0 31 -6 32 -57 10 -45 -18 -59 -13 -59 22 0 19 6 26 21 26 27 0 27 27 1 42 -26 13 -24 13 -50 -5z"/>
		<path d="M9270 581 c-8 -10 -42 -40 -75 -68 -66 -55 -109 -67 -99 -29 7 26 -10 69 -31 77 -36 14 -129 -54 -129 -94 0 -29 28 -39 61 -21 41 21 42 21 54 -10 7 -18 18 -26 35 -26 28 0 148 75 164 103 16 27 12 2 -10 -71 -15 -47 -18 -71 -11 -79 20 -19 52 27 78 112 22 71 23 83 10 102 -18 26 -28 27 -47 4z m-219 -55 c0 -5 -12 -17 -26 -26 -30 -20 -35 -12 -9 16 18 21 35 25 35 10z"/>
		<path d="M4860 528 c-27 -62 -31 -122 -9 -126 18 -4 34 29 52 105 20 85 -9 98 -43 21z"/>
		<path d="M5226 560 c-52 -28 -62 -77 -15 -77 12 0 32 -9 44 -21 19 -18 27 -19 55 -8 30 11 35 10 54 -13 20 -26 21 -26 58 -8 48 23 67 60 50 98 -13 29 -29 26 -44 -10 -8 -19 -9 -16 -7 14 3 49 -16 51 -51 6 -15 -20 -34 -37 -41 -37 -6 0 -20 17 -30 37 -19 40 -29 42 -73 19z"/>
		<path d="M5845 571 c-4 -4 -4 -18 0 -32 3 -13 3 -33 -1 -43 -7 -17 -8 -17 -22 1 -10 14 -22 18 -40 14 -61 -16 -34 -76 31 -72 60 4 78 12 88 40 18 46 -27 120 -56 92z"/>
		<path d="M5954 551 c-6 -15 -11 -33 -11 -41 0 -20 35 -48 60 -48 29 0 77 39 77 64 0 24 -14 26 -32 4 -20 -24 -40 -18 -44 13 -4 40 -37 45 -50 8z"/>
		<path d="M6558 537 c-35 -50 -33 -89 3 -94 14 -2 37 2 50 9 20 11 30 11 50 0 26 -14 48 -10 114 18 65 27 69 7 18 -86 -24 -45 -56 -95 -71 -113 -32 -38 -21 -53 36 -49 46 4 65 38 27 47 -19 5 -16 12 30 72 110 146 87 233 -45 170 -30 -14 -59 -24 -63 -21 -4 3 -8 21 -8 41 0 20 -5 36 -10 36 -6 0 -29 -20 -52 -45 -37 -38 -43 -41 -43 -22 0 14 8 25 22 28 28 8 23 43 -7 47 -16 3 -30 -9 -51 -38z"/>
		<path d="M6491 543 c-22 -22 -23 -22 -37 -3 -18 25 -49 15 -49 -15 0 -36 -32 -39 -58 -6 -18 22 -29 28 -46 22 -29 -9 -28 -28 4 -57 22 -22 33 -24 89 -20 76 5 78 0 31 -82 -41 -73 -59 -83 -114 -61 -50 20 -65 52 -33 74 23 16 30 46 11 46 -13 0 -65 -32 -75 -47 -5 -6 -8 -23 -8 -37 0 -20 13 -34 55 -60 30 -19 66 -35 80 -35 55 0 168 153 184 249 9 52 -3 63 -34 32z"/>
		<path d="M6095 525 c-3 -6 -3 -20 0 -32 7 -22 52 -29 64 -9 4 7 24 9 52 5 47 -7 70 6 49 28 -15 15 -156 22 -165 8z"/>
		<path d="M7740 498 c-18 -20 -33 -45 -33 -55 1 -41 16 -47 126 -51 58 -2 111 -6 117 -10 16 -9 1 -56 -28 -91 -50 -59 -24 -81 34 -29 36 34 59 94 54 142 -4 33 -20 39 -69 23 -20 -7 -23 -4 -22 24 1 34 -17 64 -41 64 -13 0 -38 -23 -74 -68 -17 -20 -44 -22 -44 -3 0 8 11 25 26 39 14 14 26 31 26 39 0 26 -40 13 -72 -24z"/>
		<path d="M10385 331 c-35 -42 21 -55 278 -64 174 -7 263 -15 287 -28 21 -11 27 -10 40 8 37 51 -4 66 -185 67 -55 1 -166 8 -247 17 -81 8 -150 15 -154 15 -3 0 -12 -7 -19 -15z"/>
		<path d="M10511 234 c-44 -6 -66 -21 -61 -44 3 -17 24 -18 256 -21 24 0 55 -5 71 -11 32 -12 55 -6 64 18 12 32 -19 45 -121 50 -55 2 -116 6 -136 9 -20 2 -53 1 -73 -1z"/>
		<path d="M488 147 c-4 -6 9 -10 32 -10 22 0 35 4 31 10 -3 6 -17 11 -31 11 -14 0 -28 -5 -32 -11z"/>
	</g>
</svg>
