<?xml version="1.0" encoding="utf-8"?>
<svg xmlns="http://www.w3.org/2000/svg" version="1.0" viewBox="0 0 270 196">
	<title>Sketch showing the germ of the well-known “Fog” poster.</title>
	<path d="M109.026.227c.068.183.297.366.548.412.275.046.389-.046.32-.252-.068-.16-.297-.342-.548-.388-.275-.069-.389.023-.32.228zm-6.515.8c0 .206.091.366.228.366s.252-.16.252-.365c0-.183-.115-.366-.252-.366s-.228.183-.228.366zm149.001 1.898c-.388.183-.571.526-.64 1.074-.091 1.12.343 1.51.914.823.343-.434.595-.503 1.143-.411.55.114.755.046.87-.252.16-.388-.184-1.303-.504-1.348-.8-.16-1.326-.115-1.783.114zM17.677 4.617c-.411.64-.343 1.097.16 1.097.16 0 .435-.229.617-.503.275-.434.252-.572-.022-.869-.298-.297-.412-.251-.755.275zm101.796-.32c-.915.525-.206 1.897.983 1.897.64 0 1.851.228 9.235 1.783 4.366.937 6.812 1.097 7.041.503.206-.549-.343-1.052-1.303-1.212-2.24-.343-3.955-.685-6.286-1.234-1.395-.343-3.384-.777-4.435-.96-2.126-.389-3.59-.686-4.32-.892-.275-.091-.687-.023-.915.115zm139.674.137c-.068.091-.137.365-.137.617 0 .686-1.623 2.149-2.171 1.989-.252-.092-.8.091-1.326.457-1.006.686-1.783.8-1.783.274 0-.914-1.03-.663-1.463.366-.412 1.006-.823 1.189-.64.274.09-.48.045-.823-.183-1.006-.275-.228-.503-.068-1.19.87a17.774 17.774 0 0 1-1.554 1.85l-.708.687.045-1.532c.046-1.417 0-1.532-.503-1.6-.937-.137-1.325.388-1.165 1.531.114.846.045 1.12-.458 1.646-.594.64-1.303.823-1.325.32 0-.823-.366-.937-1.51-.434l-1.12.48V9.76c0-2.4-1.028-3.612-2.125-2.515l-.595.595.755 1.143c.434.617.777 1.257.777 1.417 0 .48-.8 1.303-1.692 1.737-1.166.572-1.166 1.052.023 1.875.915.64.983.732.846 1.532-.091.457-.229 1.714-.297 2.789-.137 1.623-.092 1.988.251 2.331.229.229.48.412.595.412.48 0 1.714-1.692 1.988-2.698.252-.983.229-1.394-.114-2.766-.228-.891-.411-2.08-.411-2.652 0-.983.023-1.005.663-.868.365.091.845.32 1.051.503.412.365 1.783.251 2.675-.206.366-.183.411-.091.411.777 0 1.189.64 2.195 1.669 2.63.594.228.8.228 1.097 0 .503-.412.435-1.51-.137-2.218-.251-.343-.548-.96-.617-1.372-.137-.617 0-.891.709-1.669.731-.823.891-.891 1.143-.594.342.411 1.371.274 1.783-.229.137-.16.777-.411 1.44-.548.663-.137 1.394-.343 1.623-.435.32-.137.411-.068.411.32 0 .938.846.526 2.172-1.051 1.486-1.738 2.218-2.035 2.103-.8-.114 1.074.572 1.188 1.578.251.937-.868 1.485-1.074 1.806-.686.32.366-.046.755-.823.915-.595.114-.618.754-.023.868 1.303.252 2.971-.594 2.651-1.371-.091-.206-.16-.64-.182-.96-.046-.732-1.418-1.28-2.264-.915-.297.138-.525.32-.525.435 0 .091-.183.228-.389.297-.503.206-1.303-.343-1.303-.869 0-.228-.274-.526-.617-.663-.732-.274-.709-.274-.915-.068zm-142.006.32c-.274.16-.389 1.006-.526 3.52-.091 1.829-.228 4.23-.32 5.35-.068 1.142-.183 2.651-.228 3.36-.046.731-.16 1.943-.252 2.72-.16 1.189-.137 1.372.229 1.372.206 0 .48-.252.617-.572.114-.32.32-.64.434-.731.298-.16.458-1.372.778-5.304.457-5.76.663-9.304.548-9.624-.16-.388-.754-.434-1.28-.091zm70.706 1.051c-.983 1.052-1.943 3.018-2.286 4.732a25.06 25.06 0 0 1-.709 2.515c-.251.663-.525 1.669-.617 2.263-.114.594-.548 1.6-1.006 2.263-.914 1.395-.983 1.669-.32 1.463.572-.183.617.252.229 1.555-.594 1.897-.549 3.223.091 2.971.343-.114.48-.548 1.189-3.566.32-1.394.366-1.417.617-.8.297.732.938 1.143 1.76 1.143.32 0 .71.137.87.297.228.252.388.229.776 0 .389-.228.572-.228 1.03.069.48.32.708.32 1.256.091.389-.16 1.303-.297 2.035-.32 1.074-.045 1.372.023 1.714.458.618.754 1.235.251 1.395-1.143.091-.618.274-1.258.434-1.418.389-.388.366-1.143-.023-1.143-.365 0-1.188.823-1.6 1.623-.228.458-.434.549-1.166.48-.868-.068-.891-.091-.891-1.028 0-.8-.069-.96-.457-.96-.343 0-.595.297-.846 1.005-.48 1.28-.64 1.418-1.075 1.052-.251-.206-.365-.709-.365-1.44 0-1.166-.32-1.692-1.006-1.692-.503 0-1.532 1.303-1.738 2.24-.228.96-.594.71-1.097-.8l-.457-1.303 1.394-1.828c2.126-2.79 2.812-4.412 3.224-7.704.137-1.029-.366-1.898-1.098-1.898-.274 0-.845.389-1.257.823zm1.074 2.538c0 1.691-1.371 4.435-2.057 4.183-.343-.137-.32-.754.023-3.132.137-.823 1.074-2.011 1.646-2.011.274 0 .388.274.388.96zm-2.171 5.189c0 .091-.206.411-.48.754-.503.64-.663.366-.229-.434.229-.411.709-.64.709-.32zm40.462-7.772c-.732 1.028-.274 1.691.709 1.051.32-.206.8-.389 1.051-.389.617 0 .869-.388.503-.845-.457-.549-1.829-.435-2.263.183z"/>
	<path d="M137.418 8.708c-.32.458-.389.938-.297 1.875.068.709-.069 2.355-.297 3.818-.252 1.417-.526 3.337-.618 4.252-.16 1.668-.525 2.354-1.12 2.126-.16-.069-2.72-.023-5.646.091-5.601.206-7.475.526-9.35 1.646-.709.411-.983.434-2.652.229-1.028-.115-2.126-.32-2.446-.458-.343-.137-1.394-.343-2.354-.457-1.166-.16-2.31-.526-3.452-1.074-1.669-.846-1.692-.846-2.15-.389-.57.572-.57.777-.045 1.235.389.32.846.525 2.355 1.028.411.137.32.252-.64.732-1.715.891-3.566 3.452-3.566 4.938 0 .411-.435 1.005-1.326 1.897-1.235 1.211-1.303 1.371-1.303 2.446 0 .937.114 1.257.8 1.966.434.48 1.143.937 1.554 1.029.435.068.823.228.869.32.137.228-1.326 3.109-1.577 3.109-.092 0-.115.228-.046.48.137.548-.869 6.263-1.097 6.24-.526 0-2.355-.8-2.515-1.097-.137-.251-.412-.32-.777-.228-.549.137-2.195-.183-4.55-.892-2.72-.823-3.771-1.143-4.023-1.143-.366 0-9.99-3.086-10.973-3.52-.457-.206-1.371-.55-2.034-.8-1.669-.572-5.03-2.172-5.12-2.424-.046-.114-.23-.205-.435-.205-.183 0-.32-.115-.32-.252 0-.114.114-.229.297-.229.16 0 1.029-.388 1.897-.822.892-.458 1.67-.732 1.738-.64.068.09-.137.548-.435 1.005-.571.846-.594 1.418-.022 1.418.32 0 2.766-4.23 2.766-4.778 0-.48-.732-.274-1.28.366-.686.823-4.024 2.4-5.51 2.629-.64.091-1.143.091-1.143.022 0-.068.275-.525.595-1.028.731-1.052.731-1.098.16-1.783-.595-.755-1.67-.686-3.52.228-.824.412-1.555.732-1.624.732-.068 0-.869-.412-1.76-.938-1.257-.708-1.737-.891-2.058-.708-.594.32-.548.571.206 1.257l.617.594-.731.16c-.412.092-.869.32-1.029.503-.137.183-.48.343-.731.343-.435 0-.435-.045-.069-.594.457-.686.114-1.577-.594-1.577-.777 0-1.943.525-2.195 1.005-.32.595-.663.572-1.371-.091-.48-.457-.64-.48-1.303-.229-.938.343-1.052.252-.686-.64.274-.64 1.554-1.417 3.063-1.828.8-.23 1.989-1.852 1.829-2.492-.16-.572-.983-.892-1.852-.663-.617.16-1.76 1.28-2.606 2.537-.32.48-.891.938-1.371 1.098-.96.32-1.212.8-.618 1.211.366.274.366.412.092 1.166-.457 1.28-.046 1.577 1.394 1.052 1.075-.389 1.143-.389 1.715.068.32.252.731.457.937.457.183 0 .571.16.869.343.617.435 4.64.457 5.166.069.229-.206.457-.092.869.434.525.686.617.709 3.017.755 1.555.045 2.606-.046 2.812-.206.229-.206.434-.16.777.228.252.252 1.578 1.03 2.926 1.692 2.355 1.143 3.04 1.417 5.715 2.355.595.205 1.189.48 1.303.594.137.114.412.206.618.206.205 0 2.308.64 4.686 1.417 2.377.777 5.532 1.715 7.018 2.08 2.194.549 2.697.755 2.697 1.12 0 .458.846.64 1.006.206.046-.114 1.212.092 2.606.457 1.372.366 2.812.732 3.155.823.64.138.663.206.526 1.303-.069.618-.343 1.395-.595 1.715-.251.343-.937 1.349-1.554 2.24-.595.892-1.166 1.623-1.257 1.623-.092 0-.435-.343-.778-.754-.64-.777-1.691-1.029-2.194-.503-.412.389-.023 1.006.617 1.006 1.029 0 1.806 1.966 1.052 2.583-.16.137-.778.297-1.372.343-1.029.068-1.074.046-1.303-.709-.252-.891-.617-.983-1.212-.32-.297.343-.365.663-.251 1.349.16.846.16.869-.503.8-1.052-.137-1.44-1.097-1.097-2.789.411-2.08.365-2.515-.275-2.423-.457.068-.548.274-.731 1.646-.092.869-.297 1.6-.435 1.646-.137.045-.411.274-.571.48-1.532 1.897-1.6 1.943-2.4 1.943-1.349 0-1.44-1.189-.229-3.11.892-1.37 1.075-2.56.48-2.788-.206-.091-.548 0-.777.183-.503.411-1.509 2.56-1.509 3.223 0 .297-.503 1.075-1.143 1.76-1.097 1.212-1.189 1.258-2.926 1.486-.983.137-1.989.366-2.24.503-.252.115-.503.183-.549.137-.068-.068.114-1.028.366-2.126.686-2.857.64-5.029-.114-5.029-.686 0-.892.777-.96 3.59-.046 1.737-.23 3.36-.48 4.228-.435 1.463-.435 1.555-.732 5.281-.183 2.492.023 3.475.709 3.475.685 0 1.165-1.943 1.303-5.212.068-2.218.205-3.27.434-3.452.16-.137.823-.275 1.463-.297.937-.023 1.143.045 1.143.365 0 .229.137.549.274.686.206.206.526-.091 1.235-1.12.914-1.349 1.92-2.446 2.034-2.24.046.068.229.434.435.823.32.64.48.708 1.326.663a51.527 51.527 0 0 1 1.874-.115c.686-.045 1.052-.228 1.463-.754l.549-.663.617.617c.754.755 1.074.777 2.515.046 1.394-.709 2.377-.937 2.56-.64.091.137-.663 1.897-1.669 3.909-.983 1.989-1.806 3.726-1.806 3.818 0 .388-1.509 3.314-1.714 3.314-.115 0-.206-.434-.206-.96 0-.869-.046-.983-.549-.914a.704.704 0 0 0-.594.571c-.16.983-.274 1.097-.754.846-.343-.183-.595-.114-1.098.274-.617.48-.663.618-.526 1.783.138 1.51-.274 2.104-1.005 1.44-.229-.205-.549-.388-.71-.388-.16 0-.205-.297-.113-.846.251-1.509-.915-2.103-1.83-.914-.273.343-.502.937-.502 1.303 0 .548-.137.731-.617.846-.343.091-.869.022-1.212-.16-.503-.275-.64-.252-1.12.205-1.326 1.235-1.76-.023-.663-1.828.96-1.555.96-2.812.023-2.812-.732 0-1.44 1.234-1.44 2.491-.023 1.075-.343 1.624-1.486 2.332-1.326.846-2.012.709-2.012-.366 0-.754.092-.868.732-.983.96-.16 1.028-1.028.068-1.143-1.051-.114-1.874.938-1.874 2.4 0 1.144.525 2.355 1.006 2.355.137 0 .937-.548 1.828-1.188l1.578-1.212.297.732c.366.845.914 1.12 1.417.708.206-.183.915-.343 1.6-.411.663-.046 1.532-.252 1.898-.435.731-.388 1.554-.205 2.126.48.434.526 1.6.275 2.492-.548.617-.595.662-.755.525-1.76-.137-1.075-.091-1.143.595-1.486l.708-.366-.137 1.006c-.091.548-.251 1.257-.366 1.554-.114.297-.205.96-.205 1.463 0 .526-.252 1.349-.595 1.966-.823 1.44-1.166 2.15-2.171 4.527a59.119 59.119 0 0 1-1.326 3.017c-.778 1.532-2.423 5.92-2.56 6.767-.092.617-.046.777.25.777.435.023 1.304-1.692 2.675-5.28.48-1.235 1.075-2.698 1.303-3.224.252-.526 1.052-2.263 1.76-3.84.732-1.6 1.83-3.978 2.424-5.281l1.097-2.4 1.372-.298c1.737-.343 2.491-.685 2.491-1.12 0-.48-.571-.64-1.805-.48-.595.092-1.075.092-1.075.023 0-.091.412-1.052.937-2.149.526-1.074 1.486-3.177 2.15-4.618.662-1.463 1.348-2.651 1.53-2.651.938 0 1.624-1.075 1.624-2.515 0-.549.183-1.326.389-1.76.777-1.486 2.308-3.566 2.491-3.36.115.114.435 1.005.732 1.988.411 1.44.754 2.058 1.76 3.178 2.08 2.286 2.377 2.446 7.544 4.046 1.646.503 1.783.503 2.149.137.708-.686.114-1.143-2.15-1.6-2.925-.594-4.96-1.623-6.24-3.178a58.103 58.103 0 0 0-1.166-1.371c-.617-.503-1.669-3.864-1.669-5.327 0-1.325.275-1.6.96-.914.252.252.595.48.732.48.114 0 .229.206.229.48s.091.48.182.48c.23-.023 1.19-1.051 2.035-2.171 1.166-1.555 3.75-4.047 4.71-4.527 1.05-.548 1.348-.846 1.12-1.211-.275-.458-1.67.503-3.75 2.606-1.12 1.12-2.24 2.354-2.491 2.72-.366.594-1.075.914-1.075.503 0-.091.572-.777 1.303-1.532.732-.777 1.326-1.508 1.326-1.646 0-.685-.823-.114-2.035 1.395-1.211 1.532-1.371 1.646-1.988 1.486-.846-.229-.915-.663-.458-2.63.206-.89.435-2.034.526-2.537.275-1.691 1.303-4.617 1.738-5.006.251-.229 1.074-.457 1.874-.549 2.309-.274 2.743-1.074.572-1.074-.663 0-1.19-.069-1.19-.183 0-.091.687-.823 1.51-1.623 1.006-.983 1.806-1.554 2.469-1.737.548-.16 1.485-.709 2.08-1.235l1.097-.96.274.686c.16.389.458.777.663.846.663.251 2.172-.343 2.812-1.097.732-.87.732-.846.137-1.83-.617-1.005-.594-1.028.137-1.028.458 0 .595-.091.526-.411-.091-.435-.526-.503-1.783-.206-.503.114-.846.068-1.074-.16a4.264 4.264 0 0 0-.915-.64c-.48-.275-.617-.252-.868.068-.138.229-.595.412-.96.412-.39.023-1.395.32-2.264.663-1.188.48-1.646.823-1.92 1.371-.343.709-.366.732-1.989.686-.914-.046-1.714-.114-1.76-.16-.046-.046.023-.457.183-.914.48-1.418 1.577-2.56 3.223-3.36l1.555-.755 1.851.366c1.03.205 2.378.457 3.018.525.983.138 1.12.229 1.006.618-.183.571.16.594.937.114.754-.503 4.96-.252 4.275.251-.32.252-.343.366-.137.595.228.228.503.205 1.28-.092 1.28-.525 2.469-.503 2.972.046.205.229.457.937.548 1.555.297 2.171 1.6 2.217 3.224.114.434-.572.822-1.075.868-1.143.183-.229.549.594.549 1.211 0 .8.846 1.898 1.463 1.898.731 0 .869-.732.228-1.235-.32-.274-.594-.8-.662-1.394-.115-.846-.069-.983.32-.983.251 0 .708.183.983.389.411.274.663.297 1.005.114.252-.137 1.235-.252 2.172-.252 1.669 0 1.715.023 2.172.778.274.434.48.868.48.96 0 .091-.48.365-1.075.64-.8.343-1.074.617-1.074 1.006 0 .503.069.503 1.417.365 1.372-.16 1.463-.137 1.715.412.206.457.206.8 0 1.371-.32.96-.32 1.19-.023 1.19.526 0 1.029-1.51.892-2.767-.115-1.029-.046-1.28.32-1.509.64-.388.891-.365.868.138-.045.434.115.434 1.326.16.366-.092 1.052-.092 1.532 0 1.577.297 2.149 2.743 1.143 4.754-.32.64-.435.71-1.372.755-.251.023-.503.16-.548.297-.115.297.525 1.052.868 1.052.389 0 1.486-1.052 2.035-1.898.731-1.166.891-2.194.594-3.589-.297-1.463-1.234-2.4-2.423-2.492-.983-.068-.983-.434-.023-.434.617 0 1.966-.343 2.72-.709.183-.091.892-.297 1.555-.434 2.423-.571 5.075-1.257 6.72-1.737 2.584-.755 3.018-.892 4.321-1.235 1.235-.32 1.738-1.006.96-1.303-.388-.16-4.434.709-5.166 1.075-.206.114-1.166.388-2.149.617-1.006.228-1.989.526-2.217.64-.617.32-2.423.937-2.743.937-.16 0-.206-.251-.16-.594.091-.457.022-.617-.275-.617-.708 0-1.6.754-1.531 1.303.045.343-.115.548-.572.708-.526.206-.754.137-1.394-.411-.412-.343-.938-.64-1.166-.64-.206 0-.595-.16-.869-.366-.549-.411-1.692-.434-2.743-.069-.663.229-.869.183-1.715-.365-.503-.343-1.074-.64-1.234-.64-.183 0-.457-.32-.64-.732-.366-.8-.252-2.537.32-5.258.891-4.16 1.166-6.286.937-7.635-.251-1.577-.777-1.897-1.417-.892zm-8.23 13.602c-.64.412-.777.617-.663 1.075.137.548.092.571-1.051.571-.64 0-2.012-.114-3.063-.251-1.03-.16-2.195-.298-2.584-.343-1.326-.115-1.417-.115-1.28-.252s3.658-1.028 4.64-1.143c.39-.045 1.624-.114 2.767-.137l2.034-.023-.8.503zm4.39.092c.685.205 1.462.525 1.714.708.434.343.434.343-.023.778-.434.388-.823.434-3.269.365l-2.789-.091.114-.595c.138-.662.32-.822 1.51-1.211 1.142-.366 1.302-.366 2.742.046zm-3.407 3.223c.115.091-.228.64-.754 1.234-1.097 1.212-1.349 1.12-1.577-.548l-.16-1.143 1.143.137c.64.091 1.234.228 1.348.32zm-15.202 1.211c.229.138.458.115.663-.045.343-.275 1.029-.092 1.029.274 0 .16-.251.366-.549.48-.297.114-.868.526-1.257.915-1.6 1.577-3.566 2.468-2.08.937.708-.732.983-1.372.594-1.372-.091 0-.617.457-1.189 1.006-1.097 1.074-1.645 1.12-1.897.091-.229-.891.412-1.485 2.149-2.034 1.692-.526 2.057-.572 2.537-.252zm26.907.138c0 .434-.526.343-.686-.092-.046-.16.091-.297.297-.297a.4.4 0 0 1 .389.389zm-83.53.663c0 .411-.618.937-1.532 1.325-1.052.435-1.098.092-.092-.823.914-.845 1.623-1.074 1.623-.502zm60.007.411c.365.914.137 1.166-1.098 1.257-1.143.069-1.326-.388-.594-1.348.686-.846 1.303-.823 1.692.091zm-9.739 1.783c0 .297-.228.549-.663.709-.594.206-.754.16-1.143-.343-.525-.732-.251-.983.983-.892.64.046.823.16.823.526zm-2.743 1.12c.48.663.64.732 1.486.617.526-.068 1.212-.365 1.509-.662.548-.526 1.074-.48 1.074.091 0 .183-.32.617-.709 1.006-.411.366-1.005 1.097-1.348 1.577-.755 1.097-1.28 1.303-2.378.937-1.006-.32-1.806-1.28-1.806-2.103 0-.617 1.052-2.217 1.44-2.217.115 0 .458.343.732.754zm-35.296 1.395c0 .228-.274.663-.594.983-.594.548-.617.548-1.463.137-1.12-.526-1.006-1.12.251-1.486 1.166-.32 1.806-.183 1.806.366zm-10.927.251c-.068.137-.297.229-.48.229-.206 0-.343-.092-.343-.229s.206-.251.48-.251c.275 0 .435.114.343.251zm5.6.366c.801.411 1.212 1.212.824 1.6-.389.389-1.257-.228-1.257-.891 0-.32-.183-.686-.412-.823-.686-.389.023-.298.846.114zm12.757 33.581c-.229.206-.252.069-.137-.548.091-.458.16-.983.182-1.212.023-.206.092.046.138.549.068.525-.023 1.051-.183 1.211zm2.423 1.555c0 .137-.114.297-.252.388-.137.069-.228-.022-.228-.228 0-.206.091-.389.228-.389.138 0 .252.114.252.229zm5.03 1.943a.23.23 0 0 1-.23.228c-.137 0-.251-.091-.251-.228s.114-.252.251-.252c.115 0 .23.115.23.252zM55.532 9.189c-.16.434.092.845.526.845.48 0 .686-.457.343-.845-.366-.458-.686-.458-.869 0zm1.692.137c-.457.457-.48.594-.206 1.326.389 1.143.64 1.348 1.578 1.257 1.051-.092 1.165-.686.434-2.035-.64-1.166-1.074-1.28-1.806-.548zm176.068 2.469c-.755.777-1.303 2.194-1.578 4-.251 1.577-1.646 2.378-1.806 1.029-.091-.732-.731-1.006-1.28-.549-.205.16-.48.709-.64 1.235-.32 1.051-.503 1.143-.846.388-.32-.731.023-1.714 1.166-3.154 1.44-1.83 1.532-3.818.16-3.064-.777.435-1.829 1.875-2.126 2.904-.274.937-2.011 2.4-2.857 2.4-.389 0-.48-.137-.48-.823 0-.457-.115-.892-.252-.983-.503-.297-.891.411-1.44 2.469-.594 2.24-1.326 3.634-2.194 4.229-.663.48-.87.343-1.052-.663-.252-1.28-1.074-1.349-2.126-.16-.251.274-.663.503-.937.503-.252 0-.732.206-1.075.48-.32.274-.846.48-1.143.48-.32 0-.868.274-1.28.594-.388.343-.8.595-.937.595s-.32-.252-.389-.595c-.343-1.348-1.829-.091-1.829 1.532 0 .549-.16 1.28-.365 1.577-.297.457-.32.686-.115 1.075.595 1.143 2.4.068 2.4-1.418 0-.708 1.144-2.08 1.464-1.737.091.091.205.457.251.777.137.937.777.732 1.12-.388.183-.595.549-1.098.892-1.303.503-.275.663-.252 1.097.137.48.434.526.434 1.212.045.548-.297.846-.342 1.188-.16.572.298 1.212 0 2.446-1.188.846-.8.938-.823 1.235-.435.16.229.526.412.777.412.572 0 1.395-.823 1.189-1.166-.092-.137.114-.64.457-1.12.32-.503.594-1.075.594-1.303 0-.206.32-.503.71-.663.662-.252.708-.229.845.411.274 1.19.869 1.51 2.446 1.303 1.394-.16 2.492-.571 3.246-1.234.32-.274.48-.274.869-.046.731.457 1.257.115 1.257-.868 0-.48.114-1.098.251-1.372.55-1.029 1.166-4.07.915-4.55-.32-.616-.572-.548-1.44.367zm-41.537.754c-.206.457-.206.686.023.96.434.526.96.457 1.189-.183.434-1.166-.709-1.897-1.212-.777zm67.757-.046c-.64.686-.663 1.166-.068 1.692.525.48 1.234.503 1.828.068.435-.32.435-.342-.068-1.051-.297-.412-.526-.846-.526-.983 0-.457-.617-.297-1.166.274zm-90.64-.023c-1.737.618-3.017 1.92-3.749 3.795-.8 2.103-.388 3.863 1.143 4.824.686.434.8.434 1.738.114.777-.274 1.12-.297 1.463-.092.342.23.571.183 1.097-.16.526-.342.914-.388 1.989-.274.731.092 1.531.343 1.76.549.571.503 1.097.251 1.509-.709.183-.457.525-.96.731-1.143.366-.297.526-.206 1.463.777 1.189 1.258 1.258 1.715.572 3.018-.572 1.051-.617 1.692-.115 1.897.503.183 1.006-.297 1.326-1.326.16-.48.458-1.234.64-1.668.343-.732.343-.8-.251-1.395-.366-.343-.64-.709-.64-.8 0-.091-.366-.389-.823-.617-.48-.252-.892-.572-.937-.709-.069-.16.32-.891.823-1.669 1.257-1.851 1.234-3.223-.023-2.537-.503.274-1.92 2.537-1.92 3.086 0 .16-.39.777-.87 1.349l-.868 1.051-1.349-.137c-.96-.091-1.463-.274-1.737-.617-.366-.457-.389-.457-.914.274-.686.96-1.006.96-.915-.023.069-1.051-.617-1.188-1.143-.205-.686 1.326-1.989 1.257-2.652-.138-.708-1.508-.045-3.771 1.395-4.64.754-.48 2.583-.64 3.383-.343.572.229.457.754-.137.732-.663-.023-.891.777-.32 1.188.846.617 2.057-.183 2.057-1.371 0-1.075-.274-1.44-1.394-1.92-1.189-.504-1.326-.504-2.332-.16zm-120.77 3.338c-.205.251-.342.754-.32 1.212.047.457-.09 1.097-.25 1.463-.572 1.188-.32 1.143 3.04-.32 1.006-.435 1.28-.892 1.074-1.738-.206-.914-2.834-1.371-3.543-.617zm1.784 1.554c-.206.229-.503.32-.64.229-.48-.297-.274-.617.388-.617.595 0 .618.046.252.388zm-4.252-.297c-.137.183-.366.915-.503 1.646-.366 2.012-1.143 4.526-1.509 4.96-.914 1.075-.937 2.858-.023 2.31.435-.275 2.08-3.292 2.538-4.687.503-1.508.846-3.772.617-4.16-.251-.48-.754-.503-1.12-.069z"/>
	<path d="M56.38 18.47c-.32.434-.847 1.326-1.167 1.989-.846 1.691-3.794 3.657-3.566 2.354.046-.228.389-.549.755-.731.845-.412.8-1.166-.069-1.052-.343.023-.914.091-1.326.114-.571.046-.709.16-.64.549.046.366-.16.594-.8.892-1.417.685-1.897.48-1.28-.526.16-.229.205-.617.137-.846-.229-.594-1.052-.069-1.555.96-.297.64-.32.937-.114 1.417.343.732 1.052.778 2.469.206.892-.343 1.006-.343 1.394 0 .572.526 1.418.503 2.4-.091l.778-.48.411.503c.366.434.503.457 1.19.205.662-.228.868-.205 1.234.115.343.32.708.365 1.76.251.983-.114 1.463-.069 1.897.206.297.205 1.143.434 1.852.526.709.091 1.646.434 2.103.731.617.412.983.503 1.463.366.732-.183 1.074-.983.457-.983-.32 0-.343-.092-.114-.595.366-.777-.069-1.805-.754-1.805-.503 0-1.44.8-1.44 1.211 0 .434-.87.252-1.784-.366-.617-.411-1.051-.548-1.463-.457-.343.092-.754.023-.937-.114-.274-.229-.503-.206-1.074.091-.778.389-.823.366-.755-.525.046-.663-.228-.686-1.417-.07-.526.275-1.006.481-1.075.481-.388 0-.022-.709.823-1.623 1.166-1.257 1.738-2.309 1.646-3.018-.137-.8-.8-.754-1.44.115z"/>
	<path d="M62.231 20.116c-.571.251-.731.914-.228 1.074.16.069 2.354.252 4.892.457 2.514.183 4.709.412 4.846.503.16.092.274.526.274.96 0 1.075.275 1.189 1.418.618 1.166-.595 1.44-.298.64.662-.48.55-.572.87-.457 1.555.091.526-.023 1.257-.275 1.943-.434 1.097-.343 1.577.252 1.577.434 0 1.28-1.668 1.509-2.949.16-.983.182-1.005 1.12-.983.525 0 1.394.092 1.92.206.709.114 1.074.069 1.44-.183.457-.365.457-.388.046-.8-.343-.343-.8-.434-2.172-.434H75.72V23.11c.023-.914-.069-1.188-.343-1.188-.206 0-.343.16-.343.365.023.32-.091.343-.777.115-.595-.183-.8-.389-.8-.778 0-.274-.115-.594-.275-.685-.388-.252-3.36-.572-6.08-.686-1.326-.046-2.835-.137-3.36-.229-.527-.068-1.212-.046-1.51.092zm138.6 1.211c-.09.435 0 1.097.206 1.6.183.458.343 1.303.343 1.83 0 .96 0 .982-.297.388-.229-.412-.48-.572-.892-.526-.937.114-1.074.434-.594 1.395.32.685.366 1.211.252 2.24-.23 1.874-.823 3.795-1.235 3.955-.48.182-.434.8.114 1.097.64.343 1.166-.343 1.623-2.172.48-1.92.8-2.332.8-1.006 0 1.075.32 1.463.824 1.052.251-.206.297-1.006.228-3.338-.091-3.429-.023-3.886.64-3.886.526 0 .595.252.937 3.11.252 1.988.663 2.88 1.19 2.537.32-.183.342-1.715.045-3.087-.137-.548-.343-1.76-.503-2.697-.297-1.829-.96-3.223-1.555-3.223-.205 0-.594.137-.891.297-.389.251-.526.251-.594 0-.206-.526-.503-.32-.64.434zm2.24 1.692c0 .114-.113.206-.228.206-.137 0-.251-.16-.251-.366s.114-.297.251-.229c.115.092.229.252.229.389zm45.652-.983c-.457.366-.663.411-1.051.228-.389-.228-.618-.114-1.463.823-.618.71-1.166 1.098-1.532 1.098-.526 0-.549-.069-.411-.892.182-1.166-.366-1.783-1.006-1.166-.206.229-.572.48-.778.618-.228.114-.571.731-.731 1.371-.183.686-.389 1.006-.457.8-.297-.777-1.349-1.92-1.783-1.92-1.143 0-2.584 1.623-2.584 2.903 0 .206-.182.137-.548-.228-.503-.503-.503-.549-.114-.778.502-.297.548-1.257.045-1.646-.503-.434-1.531-.091-1.783.572-.137.32-.16.937-.091 1.394.114.732.045.823-.732 1.212-.526.251-.868.571-.868.846 0 .617.96 1.44 1.851 1.623.709.137.8.091 1.189-.777l.434-.915 2.103-.023c1.898-.022 2.195-.091 3.086-.708.732-.503 1.212-.663 1.898-.64.548.045 1.326-.138 1.851-.389.503-.251 1.258-.549 1.67-.64.41-.069.937-.366 1.165-.617.252-.275.709-.435 1.166-.435.892.046 2.789-.868 2.789-1.348 0-.435-.48-.572-1.143-.343-.412.16-.594.114-.686-.137-.183-.503-.823-.435-1.486.114zm-8.915 2.606c0 .091-.229.297-.48.457-.435.252-.48.252-.48-.137 0-.252.045-.503.137-.594.16-.16.823.045.823.274zm-66.637-2.035c-.114.252-.023.572.206.8.365.366.411.366.548-.022.115-.252.023-.572-.205-.8-.366-.366-.412-.366-.55.022zm2.377.275c-.068.205-.068.434 0 .525.252.23.892-.137.892-.525 0-.48-.709-.48-.892 0zm47.16.434c-1.371.434-1.783.709-2.697 1.806-.617.731-1.097 1.509-1.097 1.829 0 .594.571 1.326 1.028 1.326.183 0 .183.091-.022.297-.229.228-.412.228-.8-.023-.275-.16-.938-.343-1.486-.412-.549-.045-1.51-.16-2.126-.228-.983-.137-1.143-.092-1.395.343-.32.594-.411.571 2.4 1.097 1.12.229 2.172.503 2.332.64.16.137.503.183.755.092.251-.069.525-.046.617.068.068.114.8.297 1.623.389 1.554.183 2.537.571 3.063 1.189.457.571.777.205.594-.663-.251-1.212-.708-1.532-2.423-1.715-.846-.091-1.691-.32-1.874-.503-.183-.183-.457-.343-.595-.343-.525 0-.274-1.577.343-2.149.343-.32.572-.731.549-.937-.091-.48 1.166-1.074 2.217-1.051 1.143.022 2.446.205 2.88.388.206.069.572.16.824.206.274.046.731.503 1.028 1.029.778 1.348.64 3.566-.365 5.577-.458.915-.115 1.51.891 1.51.435 0 1.097.388 1.92 1.074.686.594 1.326 1.097 1.418 1.097.091.023.365.069.594.114.64.115.777-.503.274-1.257-.48-.754-1.051-1.234-2.308-2.035-.48-.297-.938-.731-.983-.96-.069-.228.022-1.188.205-2.171.183-.96.343-2.012.343-2.355 0-.732-.96-2.652-1.44-2.88-2.057-.96-4.138-1.098-6.286-.389zm37.56.663c-1.555.754-2.858 2.812-3.292 5.098-.137.754-.343 1.028-1.28 1.554-.618.366-1.532 1.075-2.035 1.6-.8.823-1.029.938-1.897.892-.572-.046-1.212.091-1.532.297-.32.206-.937.366-1.394.366-.458 0-1.098.229-1.418.48-.411.32-.983.48-1.646.48-.64 0-1.188.16-1.486.434-.32.275-.525.32-.571.16-.046-.16-.229-.457-.389-.685-.297-.389-.343-.366-.937.091-1.669 1.303-1.532 0 .16-1.623 1.006-.96 1.326-1.44 1.326-1.966 0-1.509-.663-1.852-1.897-.983-.686.503-1.944 2.789-1.944 3.566 0 .595-.457 1.006-1.12 1.006a.723.723 0 0 0-.686.48c-.091.297-.274.412-.502.32-.298-.114-.343-.388-.206-1.44.16-1.326-.092-1.989-.755-1.989-.548 0-.8.846-.914 3.27-.069 1.302-.16 2.697-.206 3.085-.068 1.052.64 1.097 1.029.069.8-2.035 3.063-3.246 3.429-1.852.16.572.732.594 1.646.046.549-.32.777-.343 1.143-.137.343.228.594.205 1.097-.069.366-.183.983-.343 1.372-.343.388 0 1.12-.206 1.646-.48.526-.274 1.074-.411 1.211-.343.115.092.709-.023 1.28-.251.595-.229 1.166-.343 1.326-.252.138.092.252.64.252 1.212 0 1.006.068 1.097 1.074 1.692 1.532.891 1.943.617 2.103-1.44.138-1.6 1.212-4.207 1.738-4.207.137 0 .457.366.708.823.229.457.755.96 1.143 1.12.595.229.755.206 1.166-.16.297-.251.8-.411 1.349-.388 1.554.068 2.012-.87.914-1.875-.525-.503-.685-.549-1.074-.297-.274.16-.686.411-.937.571-.229.16-.64.206-.869.115-.389-.137-.389-.183-.023-.595.206-.228.389-.663.389-.937 0-.297.411-.846 1.074-1.394 1.143-.938 1.418-1.806.686-2.218-.229-.137-.32-.343-.206-.503.137-.228.297-.183.64.115.412.388.48.388.915 0 .846-.778.8-2.24-.092-2.835-.365-.252-.388-.252-1.508.32zm-1.052 4.023c-.069.16-.229.183-.434.046-.183-.114-.252-.32-.138-.48.206-.343.71.046.572.434zm-16.87 4.23c-.39.594-.87.822-.87.388 0-.114.16-.343.366-.503.183-.16.366-.48.366-.686 0-.274.046-.297.274-.091.206.206.16.434-.137.891zm-36.142-8.047c-.138.251-.252.686-.252.937 0 .274-.091.549-.183.594-.274.16-.16 1.692.16 2.286.16.275.503.503.778.503.457 0 .48-.091.342-1.051-.091-.618-.068-1.28.069-1.532.183-.297.183-.754.023-1.326-.274-.983-.572-1.12-.937-.411zM66.826 29.83a.676.676 0 0 0 .092.663c.365.366 1.074.023.983-.48-.115-.549-.892-.686-1.075-.183zm13.465 1.006c-1.418 1.577-1.463 1.76-.732 3.589.343.869.595 1.737.526 1.897-.069.16-.411.229-.869.16-.685-.091-.754-.045-.685.458.182 1.325 3.086.457 3.086-.915 0-.366-.206-1.074-.48-1.577-.755-1.372-.663-1.715.411-1.532.503.092 1.189.206 1.532.297.457.115.663.046.8-.274.228-.617-.092-.8-1.738-.983-1.6-.16-1.806-.457-.685-.983.343-.183.64-.48.64-.663 0-.663-.983-.366-1.806.526zm134.28-.343c-.892.732-1.418 2.08-2.515 6.424-.389 1.531-.64 3.109-.617 4.092 0 1.783-.046 1.92-2.264 4.595-.8.96-1.783 2.24-2.194 2.834-.389.595-1.783 2.469-3.04 4.16-3.498 4.664-4.161 6.036-2.927 6.036.32 0 .686-.412 1.166-1.303 1.12-2.195 7.155-10.402 9.624-13.122.503-.571.846-1.143.755-1.28-.069-.137-.023-.48.137-.754.137-.298.297-1.372.343-2.424.068-1.051.206-2.057.32-2.194.114-.16.274-.663.343-1.12.434-2.652.731-3.498 1.646-4.458 1.12-1.166 1.211-1.783.251-1.783-.366 0-.846.137-1.029.297zm-88.537.229c-2.424 1.097-4.984 2.423-6.607 3.383-2.355 1.394-4.526 3.338-4.412 3.932.137.64.892.686 1.12.091.229-.64 2.332-2.377 3.086-2.56.343-.091.846-.389 1.143-.709.778-.754 5.487-2.994 6.355-2.994.503 0 .755.16.87.503.182.548.548.525.936-.069.16-.274.16-.617 0-1.074-.183-.55-.388-.686-1.074-.71-.457-.045-1.097.07-1.417.207zm4.8.16c-.114.251-.343 1.394-.48 2.56-.366 2.926-1.783 8.275-2.103 7.955-.069-.068.023-1.12.16-2.331.274-2.355.046-3.36-.434-1.875-.229.709-.709 4.252-.778 5.6v.48l-.205-.48c-.115-.25-.229-.937-.229-1.508-.023-1.417-.526-1.212-.96.366-.274 1.097-.274 1.371.091 2.583.55 1.669 1.532 3.246 2.08 3.246.618 0 .71-.32.458-1.6-.434-2.24-.457-3.406-.092-3.498.686-.137 2.492-5.509 2.95-8.824.137-.868.297-1.92.388-2.331.137-.618.091-.8-.229-.8-.205 0-.48.205-.617.457zm11.293 1.006c-.526.891-.663 1.805-.983 7.543-.137 2.378-.297 5.03-.366 5.875-.068.869-.137 1.943-.183 2.4-.068.96.389 1.235.8.48.138-.274.366-2.24.48-4.343.115-2.08.252-3.886.32-3.977.046-.115.138-1.646.16-3.43.046-2.102.184-3.474.39-3.886.685-1.394.16-1.943-.618-.662zm43.434-.343c-.206.068-1.234.388-2.286.708-1.052.32-2.263.709-2.652.823-.411.137-1.257.297-1.874.389-.617.091-1.189.251-1.258.366-.068.114-.342.205-.571.205-.709 0-5.6 1.67-5.99 2.035-.502.503-.137 1.074.686 1.074.572 0 .732.115.732.48 0 .87.434.87 3.132-.114 2.194-.8 5.28-1.714 5.28-1.554 0 .091-.297.297-.662.434-2.104.777-6.904 3.498-6.904 3.886 0 .595.914.549 2.217-.114.663-.32 1.303-.617 1.44-.617.115 0 1.19-.298 2.355-.663 3.68-1.189 4.938-1.532 5.075-1.395.091.092-.663.503-1.646.96-5.898 2.675-7.475 3.475-7.681 3.818-.274.411.229.846.823.731 1.714-.388 3.772-1.12 4.046-1.463.297-.342.229-.365-.754-.205-.572.091-1.006.114-.937.045.182-.182 6.903-3.497 7.086-3.497.092 0 .617-.206 1.166-.434.526-.252 1.623-.71 2.4-1.052.846-.343 1.486-.754 1.532-.983.091-.549-.572-.526-2.172.046-.708.228-1.874.617-2.583.823-4.206 1.211-6.47 1.897-7.315 2.217-1.417.526-1.303.252.274-.571 6.652-3.452 8.39-4.23 10.036-4.527.846-.16 1.326-.503 1.326-.96 0-.366-.572-.411-1.166-.091-.48.274-1.83.754-4.367 1.554-.983.32-2.24.732-2.766.937-.525.183-1.485.48-2.148.64-.663.16-1.35.32-1.51.366-.16.069-.296.023-.296-.068.022-.389 4.549-2.332 5.966-2.583.549-.092 1.052-.252 1.12-.366.092-.137.503-.229.915-.229.823 0 1.371-.366 1.371-.891 0-.298-.731-.389-1.44-.16zm-7.704 3.291c-.731.48-3.04 1.418-4.046 1.6-1.554.298-1.463.298-1.463.024 0-.183 2.72-1.12 5.166-1.806.252-.069.503.045.343.182z"/>
	<path d="M223.806 33.329c-.549.251-1.326.846-1.738 1.326-.685.754-.754.983-.708 2.217.068 2.217.571 2.743 1.6 1.646.617-.663.686-1.852.114-2.72-.411-.595-.388-.64.137-1.075.755-.617 1.28-.571 1.92.16 1.007 1.189 1.67-.023.755-1.326-.594-.823-.731-.846-2.08-.228zm-88.994 0c-1.555.457-2.378 2.08-1.349 2.629.412.228.48.182.48-.343 0-.32.183-.709.412-.823.754-.389 2.148-.526 2.789-.275.823.298.868 1.372.137 2.995-.618 1.395-.297 2.012.434.8.686-1.189 1.28-2.766 1.28-3.452 0-1.006-.937-1.714-2.309-1.737-.64 0-1.486.091-1.874.206zm-8.961 1.486a6.894 6.894 0 0 0-.755 1.028c-.228.412-.251.366-.137-.274.183-.914-.366-1.234-.96-.594-.526.594-.8 3.474-.389 3.977.183.206.435.343.595.32.137-.023.457.069.708.16.663.297 1.258-.617 1.715-2.651.503-2.31.229-3.064-.777-1.966zm2.72.16c-.114.16-.137.365-.046.434.206.229.435-.091.32-.434-.068-.252-.137-.252-.274 0zm99.03.228c-.275.16-.275.457-.069 1.509.732 3.703.732 4.138-.046 4.938-.731.8-1.211.686-2.286-.595-1.166-1.371-1.44-1.28-2.491.663-.846 1.6-1.258 2.08-1.944 2.24-1.943.458-3.063 1.235-2.674 1.875.617.983 5.623-1.623 5.623-2.949 0-.548.412-.571 1.44-.046.915.458 2.424.458 3.11.023.251-.16.64-.685.868-1.188.366-.778.366-1.12.115-2.88a78.057 78.057 0 0 0-.458-2.835c-.183-.846-.617-1.12-1.188-.755z"/>
	<path d="M135.43 36.255c-.161.16-.275.526-.275.8 0 .411-.115.503-.48.411-.686-.183-.938.572-.778 2.218.115 1.051.275 1.44.526 1.44.252 0 .412-.434.572-1.577.205-1.418.251-1.486.411-.755.092.435.114 1.006.046 1.258-.092.32 0 .457.229.457.457 0 .662-.48.662-1.532a5.3 5.3 0 0 1 .275-1.554c.388-1.12-.435-1.943-1.189-1.166zm-63.895 2.103c0 .137.115.229.252.229a.23.23 0 0 0 .228-.23c0-.136-.114-.25-.228-.25a.254.254 0 0 0-.252.25zm115.466.366c-.868.32-2.537.868-3.726 1.211-2.606.777-3.132 1.029-2.835 1.326.16.16.595.114 1.235-.091 1.531-.549.983-.092-1.463 1.143-2.698 1.371-3.658 2.103-3.475 2.629.206.503 1.92.525 2.332.022.251-.297.206-.388-.252-.571-.503-.183-.48-.229.526-.8 1.326-.777 5.19-2.606 8.916-4.23.64-.296 1.143-.662 1.143-.868 0-.503-.526-.434-2.4.229zm-76.65 2.651c-1.417 1.35-1.645 1.784-1.005 1.784.526 0 2.766-2.195 2.766-2.698 0-.663-.274-.526-1.76.914zm88.286-.617c-.457.183-1.897.617-3.955 1.189-3.086.869-10.95 2.652-12.253 2.789-.868.091-1.714.297-1.92.457-.503.434-2.4.983-4.915 1.463-1.189.206-2.697.526-3.36.709-.663.183-1.806.388-2.515.48-1.692.206-2.88.708-2.88 1.189 0 .205.114.365.297.365.503 0 5.783-1.006 6.286-1.211a29.667 29.667 0 0 1 2.058-.572c.846-.206 2.309-.594 3.223-.823 1.806-.48 2.035-.48 1.6.046-.434.526-.983 2.286-.846 2.675.092.205.298.365.48.365.183 0 .343.16.343.343 0 .457.87.64 1.212.229.183-.229.229-.869.137-1.898-.114-1.211-.068-1.554.183-1.554.32 0 .754.869.914 1.806.046.251.229.48.435.48.503 0 .594-1.6.114-2.492-.206-.411-.366-.777-.366-.846 0-.182 3.84-1.143 4.07-.983.137.069.548-.022.914-.205s1.737-.572 3.063-.869a66.076 66.076 0 0 0 3.498-.892 21.887 21.887 0 0 1 2.4-.548c2.034-.343 2.629-.617 2.629-1.326 0-.64-.092-.686-.846-.366zm-86.548 3.292c-3.429 3.178-6.698 6.47-6.698 6.744 0 .686.754.091 3.818-2.95 3.223-3.177 4.915-4.685 5.326-4.685.114 0 .206-.16.206-.366 0-.755-.983-.297-2.652 1.257zm143.492-.206c-.868.823-.983 1.029-.754 1.395.366.617.823.64 1.714.091.8-.503 1.052-1.211.412-1.211-.412 0-.457-.275-.092-.64.183-.183.183-.32 0-.435-.137-.068-.708.275-1.28.8zm-118.255.755c-1.691 1.394-4.823 4.549-4.823 4.846 0 .48.709.114 1.692-.892.594-.617 1.966-1.874 3.04-2.834 1.806-1.555 2.377-2.332 1.76-2.332-.114 0-.868.549-1.669 1.212zm32.393-.846c0 .206.091.366.229.366.137 0 .251-.16.251-.366 0-.183-.114-.366-.251-.366-.138 0-.229.183-.229.366zm66.843-.092c-.526.092-1.51.206-2.172.206-1.486.023-2.286.503-1.897 1.143.228.343.594.435 1.92.412.914 0 1.897-.092 2.172-.183.731-.252 1.44.823 1.005 1.509-.182.274-.457.48-.64.48-.365 0-2.377 1.143-2.583 1.485-.068.115 0 .39.16.572.229.297.343.297.8-.023.297-.183 1.029-.411 1.646-.503l1.12-.137.069 1.052c.068.868.16 1.051.549 1.051.365 0 .502-.183.548-.777.046-.412.252-.892.435-1.052.182-.137.342-.525.342-.8 0-.411.229-.617.938-.846 1.211-.411 1.714-.205 1.714.663 0 1.51 1.555 1.623 2.423.16.686-1.143 1.646-1.097 2.63.16l.708.892-.732.503c-1.051.754-1.326 1.394-.845 1.92.434.503 2.08.983 2.72.823.869-.229 2.034-7.658 1.28-8.115-.114-.069-.869.206-1.669.617-1.006.526-1.76.732-2.491.732-3.75-.092-5.007-.07-6.127.091-1.234.16-1.257.16-1.417-.526-.183-.777-.983-1.783-1.395-1.737-.137 0-.686.114-1.211.228zm-42.657 2.126c-.274.412-1.509 1.51-2.698 2.47-1.188.937-2.72 2.217-3.383 2.834-.663.594-1.509 1.349-1.92 1.646-.823.617-3.475 2.949-5.326 4.686-1.19 1.097-1.555 1.852-1.052 2.172.206.114 1.349-.846 4.71-3.955 1.85-1.737 4.343-3.886 6.354-5.51a47.054 47.054 0 0 0 2.515-2.217c.663-.64 1.326-1.165 1.486-1.165.411 0 .571.983.686 4.549.091 2.629.594 6.492 1.188 9.144.503 2.286 2.446 8.184 4.847 14.63.8 2.126 1.806 3.84 2.263 3.84.503 0 .16-1.737-.732-3.84-.548-1.234-.96-2.423-.96-2.675 0-.388-.434-1.645-.983-2.949a271.51 271.51 0 0 0-.937-2.217c-.412-.937-.732-1.897-.732-2.149 0-.251-.365-1.783-.823-3.452-1.12-4.16-1.554-6.789-1.806-10.835-.297-5.144-1.257-6.927-2.697-5.007z"/>
	<path d="M190.407 45.765c-.388.251-.64 1.623-.343 1.805.343.206 1.006-.777 1.006-1.463 0-.571-.16-.662-.663-.342zm30.061.228c-.823.595-4.435 6.767-4.457 7.635 0 .252-.412 1.418-.915 2.606l-.891 2.172-1.44.229c-2.195.388-3.04 1.051-2.172 1.783.411.32 1.531-.16 1.737-.755.183-.594.549-.525.823.183.297.8.892 1.006 1.303.458.274-.39.389-.39.732-.115.343.275.434.275.777-.046.32-.342.343-.502.068-1.12-.251-.64-.228-.914.183-2.011.275-.686.892-2.332 1.395-3.658s1.234-2.88 1.646-3.475c1.326-1.897 2.103-3.383 1.966-3.726-.138-.388-.389-.434-.755-.16zm-82.41.595c-.274.32-.434.64-.343.731.16.183 1.28-.754 1.28-1.074 0-.366-.388-.206-.937.343zm-24.346.434c-.503.297-.526.777-.069 1.166.48.388 2.835.686 7.11.868 1.897.069 4.71.298 6.24.458 2.767.32 3.361.228 3.361-.48 0-.686.137-.663-6.72-1.19-4.618-.342-7.887-.708-9.008-.96-.274-.068-.685 0-.914.138z"/>
	<path d="M134.903 49.056c-2.103 1.875-2.606 2.538-2.629 3.315 0 .457-.251.457-8.48.297-8.459-.183-15.843-.388-16.963-.457-.457-.046-.617.069-.617.434 0 .366.229.503 1.097.618 1.943.274 9.099.503 18.723.571 6.012.046 9.784.183 10.31.343a7.245 7.245 0 0 0 1.737.251c.731 0 .914-.068.914-.434 0-.548-.366-.709-2.08-.914-.846-.092-1.28-.252-1.28-.457 0-.183.8-.938 1.783-1.692 1.874-1.395 2.149-1.783 1.326-1.783-.412 0-3.246 2.172-3.955 3.04-.137.16-.594.366-1.029.457-1.371.275-.937-.571 1.372-2.789 1.943-1.851 2.537-2.628 1.989-2.606-.092 0-1.098.823-2.218 1.806zm42.04-1.165c-.137.251-.183.708-.114 1.074.114.571.045.64-.823.777-1.806.32-3.132 1.578-2.058 1.989.206.069.915-.023 1.555-.229 1.165-.388 1.188-.365 1.394.138.732 1.943.846 1.714-3.223 5.783-2.08 2.058-3.91 3.726-4.07 3.726-.182 0-.502.275-.708.618-.251.365-.594.571-.937.525-.435-.045-.549.092-.617.732-.046.64-.138.731-.48.548a4.508 4.508 0 0 0-1.075-.365c-.64-.137-.686-.206-.549-.915.39-1.92.435-2.994.16-3.154-.548-.343-.96.365-.982 1.623 0 .937-.183 1.623-.778 2.789-.891 1.737-1.234 1.988-1.463 1.097-.16-.617-.846-.846-.891-.297-.023.16-.069.388-.092.526-.023.137-.068.388-.091.571-.023.206-.229.297-.617.206-.389-.069-.755.045-1.006.343-.297.343-.617.411-1.166.32-.686-.137-.846-.023-1.897 1.303-1.624 2.011-2.058 2.103-2.698.594-.457-1.12-.411-2.56.114-3.223.503-.64 1.212-.503 1.418.274.16.64.868.503.983-.183.183-1.326-1.44-2.24-2.424-1.371-1.348 1.211-1.623 3.68-.64 5.646.572 1.12 1.28 1.372 1.99.732a3.71 3.71 0 0 1 1.21-.686c.755-.252.984-.549 1.212-1.578.115-.571.183-.617.572-.388.366.228.594.183 1.189-.229.388-.297.914-.526 1.165-.526.252 0 .595-.137.755-.274.503-.526.594-.023.16 1.097-.457 1.19-.343 2.15.297 2.4.754.298 1.303-.708 1.234-2.24-.045-1.005.07-1.6.48-2.354.48-.96 1.006-1.349 1.006-.777 0 .297 1.898.022 2.355-.343.274-.206.32-.16.183.251-.32.96.228.777 1.531-.571.732-.732 1.67-1.486 2.104-1.67.594-.25.777-.48.777-.936 0-.595.023-.595.548-.183.503.366.55.617.572 2.766.023 1.303 0 2.354-.069 2.354-.068 0-.297-.16-.48-.365-.457-.458-.8-.252-.8.457 0 .548.663 1.349 1.12 1.349.115 0 .435-.229.686-.503.366-.412.457-.915.48-2.47.023-1.074.046-2.811.069-3.863l.046-1.92 2.24-2.332c2.217-2.308 2.24-2.308 3.2-2.194 1.395.183 1.463-.229.252-1.6-1.006-1.098-1.075-1.235-1.052-2.56 0-.778-.068-1.692-.16-2.058-.206-.754-.754-.869-1.097-.251zm-14.768 20.642c-.251.252-.457-.114-.251-.434.16-.252.206-.252.297 0 .046.16.023.366-.046.434zm-21.008-18.7c-.16.32.091 1.144 1.097 3.407 2.08 4.663 3.223 8.412 5.235 16.916.206.8.64 2.63.983 4.092.366 1.486.686 3.68.754 5.03l.138 2.422-1.783.572c-1.555.503-2.264.594-6.013.64-4.183.046-5.372.274-5.166.892.137.411 1.234.754 1.76.525.252-.091 1.646-.16 3.11-.16 2.674-.023 3.977-.183 6.24-.823.686-.182 1.463-.343 1.737-.343.732 0 1.212-.891 1.395-2.537.16-1.554 0-2.515-1.235-7.658-3.68-15.27-4.412-17.945-5.577-20.163-.366-.708-.618-1.508-.572-1.966.023-.571-.091-.845-.434-1.028-.709-.389-1.418-.297-1.67.183zM55.259 52.12c-.823.868-1.486 1.737-1.486 1.966 0 .228-.48 1.303-1.074 2.4-1.235 2.24-1.852 5.12-1.418 6.606.206.755 1.235 1.6 1.966 1.646.252.023 1.555-1.737 1.806-2.469.046-.182.252-.114.572.16.617.55 1.44.526 2.423-.068 1.097-.686 1.463-.594 1.874.366.183.48.48.823.64.777.16-.069.526-.777.8-1.6.664-1.92.96-2.24 1.28-1.372.138.366.252.823.252 1.006 0 .617.686.366 1.075-.389.411-.777.846-.754.846.023 0 .709.662.846 1.28.252.64-.595 1.12-.663 1.12-.16 0 .343.686.845 1.166.845.297 0 1.006-.662 1.006-.937 0-.114-.275-.274-.572-.343-.411-.091-.617-.365-.732-.868-.16-.87-.594-.915-1.348-.115-.709.732-.869.755-1.052.023-.206-.8-.777-.937-1.326-.343l-.48.503-.571-.663c-.48-.571-.64-.64-1.098-.388-.274.16-.731.708-1.005 1.257-.389.754-.572.914-.823.686-.32-.275-1.463-.115-1.966.274-.595.48-1.715.64-2.15.343-.502-.366-.365-1.44.412-3.475 1.578-4.092 1.76-4.823 1.51-6.172-.184-1.006-.298-1.189-.824-1.234-.48-.069-.914.251-2.103 1.463zm2.08.137c.046.297-.297 1.463-.777 2.606-.457 1.166-1.074 2.994-1.349 4.115-.823 3.269-2.034 5.189-2.491 3.954-.252-.617-.16-3.657.091-3.817.137-.069.251-.343.251-.595 0-1.12 3.384-7.063 3.932-6.88.138.045.298.32.343.617zm204.78.983c0 .137.206.228.48.228.275 0 .48-.091.48-.228s-.205-.252-.48-.252c-.274 0-.48.115-.48.252z"/>
	<path d="M166.999 54.451c-.48.618-.663.709-1.143.526-.32-.114-.778-.16-1.029-.114-.411.091-.869.937-.869 1.623 0 .526.663.434.96-.137.206-.389.343-.435.732-.206.389.206.594.16.96-.16.503-.457.617-.297.754.983.046.434.206.731.458.777.365.069.388-.137.32-1.783-.046-1.029-.092-1.966-.092-2.057-.045-.389-.503-.16-1.051.548zm-6.584-.045c-.069.274-.251.434-.434.365-.503-.205-.846.732-.983 2.675-.115 1.532-.092 1.806.274 1.943.229.092.48.046.549-.091.091-.137.48-.229.845-.229.892 0 2.08-1.143 2.08-1.989 0-.366-.25-.868-.594-1.188-.32-.298-.617-.823-.663-1.19-.091-.776-.868-1.005-1.074-.296zm1.029 2.217c.731.686.503 1.166-.526 1.166-.777 0-.823-.023-.663-.64.297-1.212.411-1.257 1.189-.526zm-8.138-.069c-.206.23-.48.846-.595 1.372-.137.732-.297.937-.617.869-.686-.115-1.029.366-1.486 2.034-.389 1.44-.389 1.578-.023 1.943.526.549.777.252 1.189-1.371.183-.709.457-1.326.594-1.372.137-.046.458.297.732.755.548.937 1.097 1.074 1.76.457.412-.366.48-.366.869 0 .548.48.96.228 1.257-.823.48-1.669.183-3.635-.48-3.223-.206.137-.251.594-.183 1.371.114 1.189-.114 1.738-.411.983-.138-.366-.252-.32-.823.389-.458.548-.8.777-1.075.663-.548-.206-.48-.709.229-1.76.617-.915.64-1.715.046-2.424-.32-.411-.526-.365-.983.137zm15.613-.022c-.091.068-.16.411-.16.708 0 .709.846.778 1.074.092.229-.755-.411-1.326-.914-.8zm-95.463.297c0 .137.114.251.251.251.114 0 .229-.114.229-.251a.246.246 0 0 0-.229-.229c-.137 0-.251.114-.251.229zm-2.584.388c-.594.412-.685 1.19-.274 2.104.206.457.183.708-.137 1.188-.343.549-.366.617 0 .983.48.48.594.48 1.257.023.549-.389.686-1.417.32-2.4-.114-.275-.068-.663.069-.892.183-.297.183-.548 0-.823-.343-.571-.617-.617-1.235-.183zm166.764.71c-.274.32-.251.433.069.753.503.526 1.188.229 1.097-.457-.091-.663-.732-.823-1.166-.297zm4.732.273c-.663.183-.48.938.434 1.623.663.526.915.595 1.303.39.595-.321.618-.481.07-1.441-.412-.709-.778-.823-1.807-.572zM134.24 62.064c-.891.16-2.537 1.12-4.96 2.926-1.258.937-2.926 2.034-3.68 2.446-.755.411-1.647.914-1.967 1.143-.343.206-1.348.777-2.24 1.234-1.052.549-1.6.983-1.6 1.258 0 .228.091.411.251.411.48 0 6.333-3.2 7.201-3.932 1.555-1.349 4.55-3.383 5.327-3.657.617-.206.914-.183 1.463.091.48.251.754.274.937.069.457-.435 1.006-.298 3.383.937 2.012 1.006 2.858 1.394 4.64 2.103.618.251.298-.823-.48-1.532-1.028-.96-4.777-2.926-6.286-3.292-1.257-.297-1.44-.32-1.989-.205zm48.692 1.326c-2.194 1.097-1.783 2.148 1.006 2.606.892.16 1.623.388 1.623.525 0 .138-.343.595-.731 1.006-.778.8-1.143 2.15-.755 2.72.297.458.663.183.823-.617.092-.365.572-1.188 1.12-1.828.915-1.12.96-1.212.869-2.63-.046-1.165-.183-1.554-.617-1.897-.709-.571-2.035-.525-3.338.115zm2.858 1.028c.32.32.32.389 0 .595-.206.114-.503.16-.686.114-.16-.069-.549-.137-.846-.137-.297 0-.754-.137-1.006-.343-.457-.32-.457-.343.137-.594.732-.298 1.92-.115 2.4.365zm-9.053-.823c-.206.206-.091.618.434 1.623.503.96.778 1.92.938 3.27.251 2.308.594 3.566 1.097 3.977.32.251.411.251.594-.046.115-.183.16-.503.069-.708-.069-.183-.229-1.258-.343-2.4-.274-2.63-.777-4.344-1.554-5.258-.686-.8-.846-.87-1.235-.458z"/>
	<path d="M101.916 64.647c-.48.503-.48.526.252 1.783a29.26 29.26 0 0 1 1.028 1.829c.778 1.531 5.373 6.378 9.03 9.532 3.863 3.338 5.624 4.938 7.315 6.676 1.623 1.623 1.875 1.805 2.4 1.6.32-.115.64-.297.71-.389.068-.091.617-.503 1.21-.914 1.075-.709 3.59-2.378 4.276-2.835.205-.137 1.143-.754 2.08-1.394.914-.64 2.446-1.646 3.36-2.264.938-.617 2.79-1.965 4.138-2.994 1.326-1.029 2.538-1.875 2.675-1.875.343 0 .571-.777.297-1.028-.274-.275-.252-.275-2.95 1.76-1.645 1.257-5.714 4.137-6.628 4.663-1.326.8-4.184 2.766-5.281 3.658-.709.571-1.417 1.029-1.577 1.029-.138.022-.71.32-1.235.708l-.96.686-3.59-3.543c-1.988-1.966-4.137-4.024-4.8-4.572-3.863-3.246-7.68-7.361-9.624-10.333-1.326-2.057-1.623-2.286-2.126-1.783zm108.654 4.71c-.297.16-.526.456-.526.662 0 .32.32.389 1.852.411 1.097.023 2.217.183 2.766.412.846.343.891.434.891 1.44 0 .572-.16 1.577-.365 2.218-.206.663-.458 1.874-.572 2.697-.137.846-.297 1.6-.366 1.669-.091.091-.777-.457-1.531-1.212-1.418-1.417-1.943-1.623-2.423-1.028-.412.48-.092.983 1.783 2.788 1.828 1.784 1.806 1.486.525 5.144-1.485 4.252-3.246 9.83-3.429 10.744-.114.709-.022 1.097.48 1.966.732 1.235 1.395 1.737 1.76 1.28.458-.548.275-1.714-.365-2.4-.777-.823-.686-1.463 1.006-6.538.686-2.126 1.509-4.64 1.806-5.578.32-1.006.686-1.76.868-1.76.412 0 2.218 1.554 4.55 3.932 1.051 1.074 2.057 1.92 2.217 1.897.183-.045.229.069.137.297-.068.206 0 .526.16.71.206.273.16.548-.274 1.302-.48.823-.503.983-.206 1.349.32.388.366.388.777-.114.229-.298.435-.686.435-.87 0-.182.32-.48.708-.685.572-.297.709-.526.709-1.143 0-.709-.046-.731-.32-.366-.297.366-.366.298-.892-.708-.32-.618-1.005-1.532-1.531-2.035-5.258-4.96-5.944-5.738-5.784-6.378.709-3.04 1.258-5.99 1.166-6.31-.069-.228 0-.48.16-.57.32-.206.32-1.464 0-2.058-.457-.869-5.03-1.715-6.172-1.166zm-148.773.64c-.526.32-.777 1.142-.869 2.65-.091 1.853.275 2.173 1.029.892.274-.48.64-.868.823-.868.16 0 .434-.16.594-.366.275-.32.389-.274 1.006.297.686.663.709.663 1.395.275.525-.298 1.051-.366 2.148-.252 1.212.091 1.464.069 1.6-.297.23-.572-.182-.869-1.462-1.12-.983-.183-1.235-.137-1.852.32l-.732.503-.571-.64c-.617-.663-1.052-.618-2.057.251-.503.457-.8.023-.412-.594.48-.755.023-1.51-.64-1.052zm123.513.868c0 .594-1.075 1.577-1.715 1.577-1.44 0-2.789.96-2.469 1.76.183.48 1.166.87 1.829.755.297-.069.8 0 1.074.16.526.274 2.126.114 2.332-.229.297-.48-.388-.777-2.08-.914-1.852-.16-2.583-.572-1.029-.572 1.166 0 2.332-.617 2.995-1.577.457-.663.503-.892.274-1.189-.503-.571-1.211-.457-1.211.229zm-86.503 1.531c-.48.55-.503.87-.023 1.235.435.389 1.075-.046 1.075-.709 0-.731-.594-1.028-1.052-.526zm89.36 9.167c-1.6.846-3.155 2.904-4.138 5.395-1.005 2.606-1.12 3.955-.388 4.687.548.571.937.594 1.531.16.526-.389.32-.892-.365-.892-.435 0-.48-.091-.32-1.12.365-2.492 3.086-7.201 4.412-7.635.228-.069 1.394.251 2.56.731 1.166.457 2.24.8 2.423.732.412-.16.389-1.12-.023-1.715-.32-.434-.366-.434-.8-.046-.434.412-.526.39-1.646-.182-1.417-.71-2.08-.732-3.246-.115zm-41.49 3.43c-.115.296-.138.617-.092.708.068.114.114 2.423.091 5.166 0 3.11.114 5.715.32 6.927.16 1.074.275 2.286.206 2.697-.114.846.274 1.463.914 1.463.663 0 .709-.502.32-3.52-.205-1.715-.343-4.778-.343-7.795.023-2.72-.09-5.235-.228-5.578-.274-.754-.915-.8-1.189-.069zm56.372 1.53c-.457.527-.96 5.807-.686 6.996.114.48.229 2.012.229 3.406 0 3.132-.297 3.795-2.31 5.28-1.485 1.075-2.445 2.378-2.148 2.858.32.503.846.252 1.303-.64.32-.594.846-1.097 1.6-1.486 2.218-1.165 3.018-3.246 2.766-7.223-.091-1.35-.045-2.424.092-2.675.16-.274.137-.594-.092-1.006-.251-.48-.251-.96-.023-2.652.412-2.766.115-3.886-.731-2.857zM97.093 88.262c-.64.252-3.84.64-8.984 1.098-2.332.205-5.19.48-6.378.617-1.189.137-3.726.366-5.624.503-1.92.16-3.932.32-4.457.365-.526.046-2.08.183-3.475.298-2.355.205-3.2.297-6.652.64-3.11.32-7.727.457-8.093.228-.548-.343-1.303.458-.96 1.006.206.32.572.389 1.692.343 2.857-.114 6.492-.297 7.544-.411.571-.046 1.92-.16 2.926-.206 1.028-.069 1.988-.183 2.126-.274.137-.07 1.668-.23 3.406-.343 1.737-.115 4.046-.32 5.098-.458 1.051-.114 2.72-.297 3.726-.365.983-.092 2.331-.252 2.994-.366.663-.114 3.292-.343 5.875-.503 2.584-.16 4.778-.343 4.87-.389.114-.068 1.348-.183 2.766-.251 2.743-.137 3.657-.343 3.657-.846 0-.777-.983-1.097-2.057-.686zm-75.918 4.504c-.892.434-1.715 1.394-1.715 1.989 0 .205.16.617.366.914.412.594 1.074.48 1.074-.183 0-.251.115-.754.252-1.12.251-.663.274-.663.594-.206.64.846.435 1.829-1.051 4.892-.663 1.349-.869 2.355-.526 2.56.297.183 1.212-.525 1.212-.937 0-.32 1.371-2.08 1.623-2.08.091 0 .137.48.091 1.052-.069.731.023 1.12.297 1.348.389.32.503.275 2.126-.96l.663-.503v.595c0 .983.389.96 1.349-.138.503-.548 1.486-1.6 2.172-2.331 1.348-1.418 1.531-1.326 1.005.526-.365 1.371.366 2.377 1.166 1.6.183-.206.183-.389-.023-.709-.274-.457-.114-1.532.595-4 .16-.55.228-1.098.137-1.19-.206-.205-2.903 2.378-4.298 4.093-.846 1.074-.96 1.143-1.074.663-.206-.732-.595-.64-1.829.434-.594.549-1.166.96-1.257.96-.092 0-.137-.457-.115-1.006.115-1.783-.114-2.034-1.005-1.234-.366.343-.435.366-.435.046 0-.206.16-.823.343-1.372.549-1.554.549-3.383.023-3.772-.572-.411-.777-.411-1.76.069z"/>
	<path d="M219.965 93.496c-.343.64-1.006 1.738-1.417 2.47-.434.73-.846 1.576-.937 1.874-.206.663-4.664 5.783-6.721 7.726-2.583 2.446-2.743 3.04-1.029 3.68 2.286.824 3.063.71 3.063-.434 0-.525-.411-.8-1.874-1.211-.297-.069-.526-.229-.526-.32 0-.115.755-.892 1.692-1.738.937-.845 2.011-1.851 2.354-2.24a61.629 61.629 0 0 1 1.852-2.057c1.12-1.235 3.452-4.892 3.452-5.464 0-.137.16-.366.366-.548.503-.412 1.12-1.806 1.028-2.286-.16-.8-.64-.595-1.303.548zm-135.102-.16c-.32.503-1.098 3.68-.983 3.978.205.548.823.091 1.12-.823.434-1.326.594-1.44 2.423-1.623 1.669-.16 2.08-.435 1.806-1.143-.137-.343-.411-.32-2.72.206-.618.137-.755.091-.869-.343-.137-.526-.526-.663-.777-.252zm-21.923.526c-.617.663-1.234 2.126-1.234 2.903 0 .8-.526 1.166-1.852 1.303-.869.092-1.075.069-.983-.206.046-.182.48-.457.914-.617.458-.137.823-.388.8-.526-.045-.662-.114-.754-.503-.754-.205 0-.914.549-1.554 1.189-1.303 1.371-1.783 1.486-2.126.594l-.229-.617-.64.503c-.731.571-1.166.617-1.371.137-.115-.32-.252-.297-.915.114l-.8.48-.411-.548c-.343-.457-.457-.503-.915-.206-.434.251-.571.251-.983-.114-.411-.366-.548-.389-.983-.115-.457.298-.548.275-.777-.091-.731-1.212-.731-1.212-1.44-.754-.823.548-.8 1.806.046 2.194.32.114.617.412.686.663.205.617.548.503 1.005-.297.48-.869.686-.914.846-.229.137.458.183.458.8.137.617-.32.686-.297 1.075.16.411.503.457.503 1.12.138.434-.252.846-.32 1.074-.206.183.114.755.091 1.258-.046.777-.206.96-.183 1.143.137.297.549 3.269.252 4.846-.48 1.051-.503 1.234-.525 1.669-.205.891.617 2.309.365 2.309-.412 0-.343-.183-.457-.71-.457-.936 0-1.142-.389-.548-1.029 1.006-1.097 1.326-2.4.732-2.994-.435-.412-.778-.343-1.349.251zm.686.983c0 .046-.137.434-.275.846-.251.708-.685 1.051-.685.526 0-.48.48-1.463.708-1.463.137 0 .252.045.252.091zm7.384-1.052c-.343.252-.87 1.052-1.166 1.738l-.549 1.28-.183-.8c-.206-.96-.32-1.097-.8-.915-.48.183-.48 1.28-.023 2.4.457 1.098 1.006 1.098 1.463.024.183-.458.457-.846.595-.846.137 0 .411.388.64.846.434.914 1.188 1.143 1.44.434.068-.229.549-.937 1.074-1.555.892-1.097 1.166-1.874.663-1.874-.137 0-.571.48-1.006 1.074-.411.595-.868 1.075-1.028 1.075-.16 0-.48-.366-.732-.823-.434-.823-.434-.823.137-1.44.755-.823.343-1.303-.525-.618zm-33.399.846c-.503.503-.503 1.258-.046 2.378.458 1.074.458 1.12-.045 1.074-.915-.091-1.258.046-1.258.457 0 1.006 1.12 1.326 2.126.618.572-.39.595-1.006.115-3.018-.115-.526-.069-.663.251-.663.297 0 .389-.16.343-.549-.114-.663-.96-.823-1.486-.297zm37.4 1.44c-.435.549-.595.983-.481 1.303.183.572.983.892 1.394.55.275-.23 1.212-.412 3.064-.641a9.756 9.756 0 0 0 1.623-.343c.708-.206.777-.183.64.206-.252.777.411.846 1.006.114 1.097-1.371.525-2.103-1.12-1.44-1.258.48-1.44.48-1.44-.114 0-.686-.55-.572-1.166.251-.618.823-.983.937-.983.252 0-.595-.412-.846-.823-.503-.252.205-.366.183-.48-.092-.206-.571-.55-.457-1.235.457zm1.142.663c-.16.138-.366.183-.457.092-.114-.092-.023-.275.16-.389.457-.274.64-.068.297.297zm-35.662.206c-.983.572-1.051 2.378-.114 2.88.389.206.572.183.915-.182.48-.503 1.051-2.378.845-2.72-.205-.32-1.097-.298-1.646.022zm46.04.457c-.068.137-.068.457 0 .709.16.526.915.777 3.498 1.166.846.137 2.149.366 2.88.503 1.28.251 2.812.48 6.584.983 3.315.457 3.52.503 3.383.868-.068.183-.022.618.115.96.32.846 2.766 3.178 4.412 4.161.754.48 1.714 1.097 2.149 1.372.754.525 3.406 2.103 5.486 3.291.64.366 1.143.755 1.143.87 0 .32-1.943 1.622-4.298 2.857-.343.183-.846.503-1.097.731-.274.229-.983.686-1.555 1.029-.594.32-1.828 1.051-2.743 1.6-1.486.937-2.491 1.509-3.863 2.286-.274.137-1.395.869-2.515 1.6a178.332 178.332 0 0 1-4.32 2.72c-5.738 3.43-6.652 4.024-7.27 4.71-.708.777-.663 1.326.16 1.691.275.115.663.32.869.458.183.114 1.372.663 2.629 1.211 1.257.549 3.406 1.532 4.778 2.195 2.103 1.006 2.606 1.143 3.063.937.32-.137.571-.457.571-.732 0-.548-.617-.982-2.286-1.6l-1.211-.434 1.12-.16c.617-.092 1.326-.274 1.577-.412.252-.137.686-.205.938-.137.274.069 1.074-.068 1.783-.32 1.303-.434 3.269-.594 3.177-.251-.023.114-.206.48-.411.868-.435.823-.137 1.486.434 1.03.457-.39 1.44-3.293 1.234-3.636-.274-.434-1.165-.251-3.177.64-1.097.48-2.057.823-2.126.732-.069-.069-.023-.343.091-.594.275-.503-.091-1.51-.617-1.67-.48-.182-1.966 1.487-1.966 2.173 0 .457-.16.663-.594.777-.846.206-1.623.046-1.92-.435-.206-.342-.046-.594.96-1.485 1.6-1.395 2.4-2.88 2.057-3.795-.16-.389-.434-.663-.709-.663-.708 0-2.034 1.577-3.04 3.657-.686 1.395-1.097 2.012-1.44 2.058-.526.068-4.07-1.463-4.32-1.875-.206-.32.708-1.12 1.805-1.6.458-.206 1.51-.846 2.332-1.417.846-.595 2.355-1.509 3.36-2.058 1.03-.548 2.515-1.463 3.292-2.011.8-.572 1.852-1.212 2.332-1.463.48-.252 1.372-.778 1.989-1.166 3.315-2.172 4.48-2.858 6.035-3.612.96-.457 1.76-.914 1.806-1.029.183-.388 3.406-2.469 4.069-2.606.503-.091 1.029.069 2.057.709.778.457 1.67.914 2.012 1.006.32.114.869.366 1.189.594.617.412 3.109 1.646 5.646 2.766 2.698 1.212 10.31 4.984 10.676 5.304.206.16.891.48 1.554.708.663.206 1.715.64 2.332.983.617.32 1.714.8 2.4 1.052 2.95 1.051 4.504 1.669 6.195 2.469.983.48 2.56 1.143 3.475 1.486a55.48 55.48 0 0 1 2.652 1.074c.526.252 1.44.64 2.034.869.595.228 1.258.571 1.463.731.663.572 1.555.412 1.875-.32.16-.366.8-1.463 1.417-2.446.617-.983 1.098-1.874 1.075-1.966-.046-.114.137-.297.365-.434.252-.137.755-.709 1.12-1.257.39-.572.938-1.326 1.235-1.646.869-1.006 5.555-8.07 5.738-8.687a3.46 3.46 0 0 1 .48-.914c.663-.778 1.257-2.126 1.783-3.955.297-1.052.64-2.24.754-2.63.138-.456.138-.8-.022-.96-.412-.388-1.51.892-1.555 1.83-.023.434-.114.96-.183 1.142-.068.206-.366 1.075-.663 1.92-.297.87-.914 2.218-1.349 3.018-.822 1.44-4.754 7.155-6.88 9.967-.618.846-1.12 1.6-1.12 1.692 0 .114-.343.549-.755.983-.411.434-1.074 1.371-1.463 2.057-.389.686-.869 1.258-1.052 1.258-.182 0-1.554-.526-3.04-1.166-1.486-.64-3.292-1.35-4.023-1.6-.732-.23-2.08-.8-3.018-1.212a40.003 40.003 0 0 0-3.109-1.303c-.8-.297-2.08-.846-2.88-1.212-.777-.365-1.966-.891-2.629-1.188-1.44-.64-5.646-2.63-9.601-4.572-1.6-.778-3.75-1.715-4.8-2.104-3.064-1.143-4.116-1.645-4.71-2.286-.32-.32-1.577-1.051-2.789-1.6-1.234-.571-2.217-1.166-2.217-1.326 0-.274.503-.594 2.149-1.303.342-.137 1.051-.548 1.577-.914.549-.366 1.669-1.097 2.514-1.669 2.15-1.371 2.95-1.943 4.481-3.155l1.303-1.028 2.675.251c1.486.137 3.566.32 4.617.389a66.33 66.33 0 0 1 2.766.183c.71.045.846-.023.915-.48.091-.732-.709-1.006-3.292-1.143-12.596-.618-16.642-.869-18.882-1.075-2.035-.228-3.018-.297-7.316-.617-.983-.091-2.126-.183-2.514-.229-1.395-.205-7.681-1.348-8.527-1.554-.457-.114-1.966-.343-3.36-.503-2.538-.297-7.567-1.212-9.121-1.669-1.075-.297-2.08-.32-2.286 0zm22.723 4.8c1.28.138 4.435.435 6.973.641 2.56.183 4.96.389 5.349.434.411.046 2.217.183 4.023.32 1.83.115 3.384.275 3.452.366.206.183-.983 1.166-3.086 2.538-1.692 1.12-2.24 1.44-4.023 2.331-.458.229-1.532.892-2.355 1.486-1.463 1.006-1.577 1.052-2.423.8-.48-.137-1.737-.846-2.789-1.531-1.052-.709-2.606-1.692-3.475-2.172-3.017-1.692-4.915-3.155-4.869-3.726.046-.343-.206-.709-.777-1.143-.457-.343-.823-.709-.823-.823 0-.092.549-.069 1.234.023.686.114 2.31.32 3.59.457zM98.67 128.039c0 .708-1.943 2.994-2.126 2.491-.183-.48 1.418-2.88 1.92-2.88.115 0 .206.183.206.389zm2.4 3.063c0 .48-.64.96-.845.64-.252-.389.045-.983.457-.983.206 0 .388.16.388.343zm84.125-31.547c-.594.777-1.166 1.44-1.257 1.486-.114.046-1.623 1.555-3.36 3.36l-3.178 3.247v1.325c0 1.212.069 1.395 1.006 2.4 1.486 1.555 3.315 3.727 4.138 4.893.411.548 1.485 1.92 2.423 3.017 1.668 1.966 2.263 2.835 2.263 3.27 0 .73-5.052 1.188-6.218.548-.457-.252-.686-.252-1.143 0-.64.343-.686.64-.274 1.532.274.617 1.005.823 1.28.365.228-.365.846-.274.846.137 0 .39.388.48.502.115.046-.137.686-.297 1.418-.389.708-.068 1.669-.297 2.126-.48.434-.183 1.326-.343 1.966-.343 1.051 0 1.188-.046 1.326-.571.205-.846-1.19-2.995-3.155-4.915-.869-.869-1.943-2.218-2.4-3.018-.458-.8-1.463-2.126-2.24-2.949-1.51-1.646-2.995-4.137-2.767-4.709.069-.183.663-.8 1.303-1.349.663-.548 1.35-1.303 1.555-1.691.206-.389.503-.709.686-.709.182 0 1.257-.96 2.377-2.149 1.394-1.463 2.195-2.126 2.423-2.034.412.16.777-.846.549-1.463-.297-.732-1.097-.366-2.195 1.074zm-121.09 3.063c-.64.526-.525 1.35.252 1.76 1.006.55 1.555-.685.755-1.691-.435-.526-.435-.526-1.006-.069zm13.923 2.698c-.435.411-.732.914-.732 1.28 0 .32-.16.732-.366.892-.571.48-1.783-.138-1.966-.983-.251-1.372-.594-1.326-2.994.251-1.76 1.143-2.355 1.44-2.835 1.326-.32-.092-.64-.252-.686-.366-.114-.366-.503-.274-1.326.366-.914.686-1.486.777-1.691.229-.092-.275-.32-.343-.823-.23-.503.115-.732.047-.823-.205-.092-.206-.366-.48-.64-.617-.709-.389-1.76.663-1.555 1.554.206.8-.411 1.28-1.577 1.235-.732-.046-.846-.114-.914-.709-.07-.594-.16-.663-.732-.548-.343.091-1.234.251-1.943.365-.732.115-1.509.275-1.737.366-.55.229-.686-.137-.412-1.143.297-1.074-.046-1.852-.8-1.852-.663 0-3.75.915-6.31 1.852-1.988.732-2.125.914-1.782 2.218.16.548-1.372.64-1.944.137-.411-.389-.503-.366-1.485.205-1.28.755-1.715.778-2.355.138-.48-.48-.549-.48-1.097-.115-.412.275-.846.343-1.418.229-.708-.137-.96-.023-1.897.731l-1.097.892-1.212-1.212c-1.189-1.188-1.211-1.211-.663-1.486.297-.16 1.235-.342 2.103-.365.869-.046 1.646-.092 1.76-.092.092 0 .183-.205.183-.457 0-.777-1.234-1.052-2.834-.64-1.6.434-2.378.914-2.743 1.692-.32.708.091 1.44 1.371 2.4.983.754 1.052 1.28.274 2.012-.32.297-.754.937-.983 1.44-.388.823-.388.983-.045 1.783.206.48.503.869.686.869.571 0 1.645-1.898 2.034-3.52.343-1.418.503-1.715 1.303-2.287.8-.571 1.006-.617 1.417-.366.39.252.618.229 1.235-.114.663-.389.777-.411 1.303-.069.64.412 1.532.343 2.377-.228.64-.412.938-.48.732-.16-.069.114.046.366.251.548.32.252.435.252.663-.045.16-.206.572-.32 1.075-.275 1.12.115 2.24-.937 2.149-1.988l-.07-.732 2.996-1.006c1.646-.548 3.131-1.006 3.291-1.006.458-.022.412 2.24-.045 2.606-.206.183-.366.663-.366 1.075 0 .411-.229 1.44-.503 2.263-.48 1.394-.48 1.554-.137 1.897.526.526.731.252 1.189-1.691.663-2.72.777-2.858 2.789-3.384l1.783-.457.457.64c.366.503.663.618 1.417.618.526 0 1.28-.16 1.692-.366.708-.366.731-.366.571.046-.64 1.6-.686 1.805-.297 2.194.96.96 2.652-.731 2.08-2.103-.503-1.234.64-2.286 1.44-1.326.412.503.846.457 1.944-.16.845-.457 1.051-.503 1.76-.229.777.275.891.252 2.926-1.074 1.943-1.257 2.126-1.326 2.354-.914.503.868 1.555 1.783 2.058 1.783.297 0 .96-.32 1.532-.709.8-.594 1.165-.709 1.988-.617.663.068 1.098-.023 1.28-.252.39-.434.092-.823-.617-.823-.503 0-.548-.091-.434-.708.114-.526.046-.755-.343-.937-.389-.23-.617-.16-1.234.434zm-14.95 3.177c-.138.435-.664.526-.664.092 0-.206.16-.389.389-.389.206 0 .32.137.274.297zm-.412 3.2c0 .207-.183.344-.366.344-.412 0-.434-.023-.229-.572.183-.434.595-.274.595.229zm132.016-5.6c0 .274-.343 1.097-.754 1.829-.389.709-.663 1.44-.595 1.623.183.48.846.411.87-.069 0-.228.273-.891.593-1.463.686-1.188.8-2.446.23-2.446-.207 0-.344.229-.344.526z"/>
	<path d="M192.876 106.572c-1.463 1.143-4.206 3.863-4.206 4.16 0 .32 2.926 3.224 3.269 3.224.137 0 1.052.731 2.035 1.646.982.891 2.491 2.194 3.337 2.903 1.44 1.212 5.258 5.83 5.28 6.4 0 .115-.8.504-1.805.801-1.875.617-2.24 1.029-1.212 1.509.48.205.777.16 1.623-.252a11.13 11.13 0 0 1 1.715-.64c.868-.228 1.463-1.097 1.234-1.851-.32-.96-3.383-4.801-5.075-6.356-2.743-2.491-5.898-5.097-7.178-5.943-2.08-1.395-2.171-1.806-.526-3.063 1.44-1.12 3.087-2.835 2.95-3.064-.23-.365-.435-.297-1.44.526zm21.283 4.16c-.686.48-.663 1.098.023 1.76.686.641 1.394.664 1.943.07.526-.595.503-.915-.206-1.6-.686-.687-1.029-.732-1.76-.23zm-69.883 1.555c0 .137.091.229.228.229.138 0 .252-.092.252-.229a.254.254 0 0 0-.252-.251c-.137 0-.228.114-.228.251zm-58.727 16.894c-.069.228.022.823.251 1.348.206.526.366 1.258.366 1.623 0 .64-.023.64-.366.183-.32-.434-.389-.434-1.189-.045-1.051.503-1.554.503-1.554.023 0-.64-.663-.64-1.783.022-1.075.618-1.098.618-1.098.138 0-.366-.16-.503-.594-.503-.343 0-.686-.023-.777-.046-.114-.023-.229.16-.274.411-.23 1.143-1.532 1.395-1.944.366-.388-.937-.137-1.303.87-1.143.662.114.8.069.8-.32 0-.251-.275-.64-.618-.869-.526-.342-.686-.342-1.212-.068-1.234.663-1.623 2.583-.685 3.36.48.412.457.549-.343 1.418-1.395 1.485-1.166 2.4.571 2.4 1.235 0 2.446-.549 2.652-1.235.114-.32-.023-.731-.366-1.188-.411-.572-.457-.778-.228-1.052.32-.411 1.188-.48 1.188-.114 0 .434.823.251 1.738-.366.914-.617 1.394-.617 1.394 0 0 .594.434.64 1.44.114l1.006-.503.526.503c.731.663 1.029.618 1.486-.274.274-.549.343-1.097.251-1.92-.228-1.875-1.12-3.246-1.508-2.263zm-8.116 6.24c.549.55.412.846-.526 1.006-1.12.206-1.508-.16-.845-.823.594-.594.914-.64 1.371-.183zm32.279-6.149c-.526.183-.96.823-.96 1.349 0 .274-.183.663-.39.891-.456.503-.274.892.55 1.19 1.325.502 1.92-.344 1.12-1.578-.206-.32-.298-.617-.183-.617.114-.023.411-.046.663-.069.617-.046.731-.48.251-.96-.411-.412-.503-.434-1.051-.206zm5.212 1.189c-.275.32-.32.548-.16.846.297.525 1.005.548 1.417.068.251-.297.229-.457-.114-.846-.526-.594-.663-.594-1.143-.068zm21.282.754c-.114.092-.708.343-1.303.503-2.789.823-4.069 1.326-4.206 1.646-.229.594.091.64 1.303.229.64-.229 1.44-.435 1.783-.435.343 0 .686-.091.755-.228.091-.137.502-.252.937-.252.846 0 1.6-.594 1.6-1.257 0-.434-.48-.549-.869-.206zm-10.378 2.72c-.16.16-.274.55-.274.87 0 .32-.183 1.325-.412 2.24-.526 2.148-.229 2.423 1.28 1.257 1.258-.96 1.555-1.006 1.875-.275.32.71 1.006.823 1.188.206.183-.548-.457-1.943-.868-1.943-.16 0-.732.274-1.303.617-1.006.572-1.052.595-1.052.115 0-.275.137-.983.297-1.578.229-.914.229-1.143-.068-1.44-.297-.274-.435-.297-.663-.068zm14.242.412c-.572.64-.275 1.44.617 1.623.388.069.709.183.709.229 0 .023-.138.617-.275 1.257-.297 1.417.046 2.446.64 1.943.183-.16.343-.549.343-.891 0-.32.229-1.326.503-2.264.617-2.034.389-2.514-.754-1.554-.412.366-.846.571-.983.503-.137-.092-.046-.274.183-.457.434-.32.274-.846-.252-.846-.16 0-.48.206-.731.457zm-8.664 1.326c-.618.617-.8 1.897-.32 2.194.137.092.754-.182 1.326-.594 1.005-.709 1.097-.731 1.645-.366.55.366.64.366 1.44-.137.8-.503.892-.503 1.464-.137.32.229.708.343.823.252.457-.275.228-.778-.595-1.212-.823-.434-.846-.434-1.531.069-.618.457-.755.48-1.006.182-.389-.48-.846-.434-1.669.16-.389.298-.8.458-.892.343-.114-.091 0-.32.23-.48.228-.183.433-.434.433-.594 0-.457-.731-.297-1.348.32zm-9.807.983c-.457.48-.457.366 0 1.28.205.434.32.937.251 1.12-.183.457-1.326.457-1.851-.023-.366-.32-.435-.32-.8.046-.39.366-.366.434.137.96.731.777 1.874.755 2.834-.068.686-.572.755-.71.595-1.578-.138-.823-.092-.96.343-1.074.685-.16.662-.686-.023-.869-.823-.228-1.075-.183-1.486.206zm-8.618.32c-.618.663-.48 1.417.365 2.217.915.823 1.052.846 1.395.229.434-.8.297-2.355-.229-2.652-.663-.343-1.074-.297-1.531.206zm-72.855.343c-.412.411-.389 6.172.045 6.172.16 0 .412-.114.55-.251.182-.183.342-.138.57.114.366.48.664.48 1.532 0 .777-.389.983-.297.983.457 0 .389.183.549.686.594.869.115 1.646-.571 1.554-1.348-.068-.618-.274-.778-1.554-1.189-.663-.206-.823-.183-1.303.32-.823.892-1.257.777-1.074-.251.228-1.19-.023-1.486-.732-.823-.754.708-.732.388.046-.618.686-.914 2.926-2.08 3.657-1.897.732.206 1.532-.32 1.44-.937-.068-.457-.205-.526-1.12-.457-.777.045-1.508.365-2.72 1.143-.914.571-1.692 1.051-1.76 1.051-.069 0-.114-.457-.114-1.051 0-1.143-.23-1.486-.686-1.03zm41.834 1.143c-2.47.434-4.184 1.669-4.184 3.086 0 1.006 1.166 2.034 2.812 2.492.777.205 1.6.594 1.852.868.525.595.617 2.126.16 2.972-.618 1.166.228 1.852 1.143.915.388-.366.457-.732.388-2.058-.114-2.103-.617-2.949-2.171-3.589-2.698-1.12-3.567-2.012-2.63-2.766.87-.731 4.573-1.234 6.059-.823.411.114.548.32.548.846 0 .434-.114.686-.343.686-.548 0-.708.48-.32.891.869.846 2.263-1.371 1.623-2.56-.571-1.074-2.24-1.395-4.937-.96zm-44.029.709c-.137.251-.251.868-.251 1.371s-.137 1.463-.32 2.126c-.343 1.28-.138 2.378.388 2.195.16-.046.366-.526.457-1.075.092-.548.298-1.211.435-1.463.388-.754.32-3.315-.114-3.475-.206-.091-.458.046-.595.32zm107.854-.115c-.206.549.114 1.12.571 1.029.526-.092.709-.915.274-1.189-.48-.297-.685-.251-.845.16zm-38.725 1.189c-.412.48-.069 1.326.548 1.349.298.023 1.395.068 2.446.091 1.052.023 2.218.114 2.584.229.434.114.8.091 1.028-.115.458-.365.458-.96.023-.96-.183 0-.457-.16-.617-.343-.412-.48-.937-.457-1.486.023-.389.343-.549.366-1.029.115-.32-.183-.845-.252-1.28-.16-.48.114-.8.045-1.006-.206-.388-.48-.823-.48-1.211-.023zm-7.338 1.097c-.892.937-.595 1.555.708 1.532.983-.046 1.006.068.572 1.691-.229.846-.229 1.143 0 1.372.503.503 1.006-.297 1.303-2.012.32-1.943.16-2.674-.64-3.04-.915-.411-1.166-.343-1.943.457zm1.348.457c0 .138-.182.252-.388.252-.206 0-.297-.114-.229-.252.092-.114.252-.228.389-.228.114 0 .228.114.228.228zm49.972-.663c-.137.183-.411.71-.617 1.212-.206.503-.526.892-.708.892-.458 0-2.332 1.668-2.332 2.08 0 .183.274.457.594.617.457.206.709.183 1.189-.137.343-.229.617-.503.617-.64 0-.366.457-.274 1.212.297.686.503.777.526 1.737.183.846-.297 1.189-.32 2.103-.069 1.715.458 3.2.389 3.704-.16.388-.434.411-.731.091-1.92-.046-.229.069-.343.343-.297.663.114.526-.869-.206-1.189-.503-.228-.686-.206-1.097.229-.457.434-.48.594-.229 1.28.366 1.074.092 1.28-1.349 1.029-1.143-.206-1.143-.229-1.074-1.098.137-1.646-1.006-1.394-1.852.389-.525 1.166-1.143 1.417-1.714.731-.229-.274-.229-.662 0-1.828.297-1.486.114-2.218-.412-1.6zm-1.485 3.292c0 .275-1.006 1.029-1.166.869-.16-.16.685-1.097.96-1.097.114 0 .206.114.206.228zm-7.179-1.92c-1.097.229-2.103.572-2.263.709-.16.16-.297.731-.297 1.303-.023.548-.114 1.326-.228 1.691-.298 1.098.16 1.303 1.44.64.823-.434 1.143-.502 1.371-.274.389.389 1.395.343 1.966-.091.252-.206.778-.366 1.143-.366.732 0 .869-.366.366-1.029-.297-.411-.343-.411-.937.069-.732.571-1.532.64-1.715.137-.205-.526-.64-.457-1.417.274-.777.755-1.143.549-.983-.571.183-1.12 1.852-1.783 4.298-1.715 1.097.023 1.92-.068 2.08-.251.846-.823-2.012-1.143-4.824-.526zm-134.21 0c0 .114-.48.709-1.075 1.326-1.44 1.486-1.875 2.332-1.669 3.383.092.457.252.892.366.96.114.092.229.229.229.343 0 .275-4.435 2.4-4.984 2.4-.96 0-1.394 1.326-.663 1.944.32.251.48.205 1.029-.32.343-.343 1.234-.915 1.966-1.28.731-.343 1.691-.892 2.149-1.212 1.097-.732 1.303-.709 1.828.251l.435.823-.709.983c-1.28 1.783-1.417 2.195-1.029 2.88.526.938 1.51 1.19 2.286.595a6.23 6.23 0 0 0 1.098-1.097c.411-.549.434-.732.16-2.058-.32-1.531-.16-2.149.366-1.44.411.549 1.143.526 2.103-.046.434-.274 1.12-.48 1.508-.503.412 0 1.052-.16 1.44-.365 1.03-.549 4.413-1.6 4.664-1.44.114.068.114.662 0 1.348-.389 2.446.32 2.515 2.057.16 1.098-1.463 1.28-1.6 2.058-1.6.937-.023 1.44-.366 1.44-1.029 0-.342-.206-.434-.983-.434h-.983l.137-.891c.114-.64.046-1.03-.206-1.372-.365-.48-.388-.48-.868.091-.366.435-.457.915-.457 2.103-.023 1.052-.138 1.806-.435 2.264-.548.937-.777.868-.777-.206 0-.503-.137-1.12-.297-1.349-.275-.366-.412-.366-1.257-.068-.526.182-1.395.411-1.92.502-.527.092-1.35.39-1.852.64-.48.252-1.166.458-1.51.458-.342 0-1.028.274-1.508.594-1.257.846-1.554.8-1.372-.228.206-1.098-.182-1.12-1.28-.07l-.8.778-.594-.686-.594-.685 1.097-1.052c1.303-1.234 2.034-2.4 2.034-3.155.023-.777-.64-1.988-1.074-1.988-.206 0-.343-.092-.343-.23 0-.136-.274-.25-.617-.25-.32 0-.595.114-.595.228zm1.44 2.515c0 .663-1.212 2.4-1.92 2.789-.71.365-1.19-.069-1.19-1.075 0-.891.32-1.371 1.304-1.897 1.12-.572 1.806-.503 1.806.183zm-.96 8.526c0 .732-.39 1.212-.983 1.212-.732 0-.755-.457-.092-1.326.686-.914 1.074-.891 1.074.114zm81.29-10.675c-.503.343-1.098.617-1.35.617-.548 0-1.44 1.074-1.44 1.715 0 .914.687.754 1.898-.48 1.28-1.35 1.852-1.532 1.966-.686.114.708.754.8 1.6.16.686-.503.732-.503 1.349-.092.526.343.754.366 1.234.137.343-.16.87-.274 1.19-.274.754 0 .96-.389.57-1.097-.32-.64-.8-.755-1.097-.275-.114.16-.388.435-.617.618-.366.274-.434.251-.686-.297-.365-.8-.708-.8-1.646 0-.411.342-.777.594-.8.548-.023-.046-.16-.32-.32-.571-.388-.709-.846-.709-1.851-.023zm-57.813.846c-.8 1.234-1.143 1.486-1.143.845 0-.502-.663-.708-1.098-.342-.457.365-.457 1.28 0 1.668.458.366 1.166.115 2.172-.777.915-.777 1.12-.503.343.48-.457.572-.457.663-.114.915.343.251.343.365 0 1.325-.435 1.235-.297 2.218.32 2.08.297-.045.503-.548.754-1.874.434-2.103.572-2.377 1.189-2.217.251.045.526 0 .594-.137.275-.435-.137-1.006-.708-1.006-.48 0-.572-.115-.572-.686 0-1.806-.663-1.92-1.737-.274zm153.436-.709c0 .137.114.229.251.229.138 0 .183-.092.092-.229-.069-.137-.183-.251-.252-.251-.045 0-.091.114-.091.251zm-49.195 1.303c-.228.251-.205.549.092 1.234.434 1.052.457 1.258.068.87-.434-.435-.663-.344-.663.273 0 .915 1.898 1.463 1.943.55 0-.138.023-.801.07-1.464.045-.663-.024-1.349-.16-1.509-.298-.388-1.007-.388-1.35.046zm-18.105.549c-.183.365-.548 1.44-.777 2.4-.434 1.669-.434 1.76-.023 2.172.412.388.457.388 1.006-.298.32-.411.594-.868.594-1.028 0-.709.938-1.258 2.195-1.258 1.166 0 1.211.023 1.074.572-.205.8.572 1.486 1.28 1.12.595-.32.64-.686.115-.891-.206-.092-.32-.298-.229-.503.069-.206.069-.572 0-.8-.114-.366-.388-.458-1.463-.458-.731 0-1.714.183-2.172.389-.457.229-.868.343-.937.274-.068-.068.046-.525.252-1.028.205-.48.297-.983.228-1.098-.251-.434-.823-.205-1.143.435zm8.801.8c-1.166.457-1.326 2.057-.205 1.851.777-.137.777.275.114 2.104-.572 1.463-.503 2.034.228 2.034.366 0 .55-.251.732-1.029.137-.548.434-1.554.64-2.24.389-1.189.32-2.012-.206-2.675-.274-.342-.571-.342-1.303-.045zm-80.604 4.32c-.343.343-.64.412-1.532.297-.937-.091-1.188-.045-1.577.39-.251.273-.732.502-1.097.502-.389 0-.892.274-1.326.709-.8.868-1.212.914-1.395.205-.114-.411-.205-.457-.48-.228-.48.411-1.348.023-2.034-.892-.297-.411-.709-.754-.892-.754-.526 0-.708.663-.32 1.12.777.914.869 1.6.412 2.537-.298.572-.618.892-.915.892-.594 0-.868-.434-.388-.617 1.051-.412.891-2.126-.16-1.966-.618.091-1.623 1.486-1.623 2.24 0 1.303 1.92 1.737 3.611.777l.96-.548.48.594c.252.343.664.983.892 1.44.434.869 2.126 3.452 3.406 5.167.915 1.257 3.064 4.709 3.292 5.303.434 1.166 3.75 5.692 5.464 7.475 2.194 2.286 3.954 5.212 5.075 8.459.274.868.617 1.531.731 1.508.366-.137.092-2.491-.434-4a26.98 26.98 0 0 0-1.075-2.56c-.297-.618-.548-1.258-.548-1.395s-1.098-1.372-2.4-2.72c-1.624-1.67-2.675-2.995-3.27-4.092-.457-.892-.937-1.623-1.051-1.623-.114 0-.686-.892-1.28-1.99-.595-1.096-1.532-2.628-2.08-3.405-.526-.755-.96-1.486-.96-1.623 0-.115-.435-.732-.938-1.35-1.166-1.394-3.863-5.44-3.863-5.783 0-.137.16-.251.388-.251.206 0 .732-.252 1.143-.572.503-.388.96-.525 1.372-.457.457.092.8-.068 1.394-.663.663-.663.846-.731 1.235-.503.251.16.617.275.8.275.389 0 2.057-1.486 2.057-1.852 0-.457-.685-.503-1.074-.046zm-15.476 2.858c-.32.594-.32 1.371 0 1.577.365.229.274.526-.252.663-.868.229-.434 1.6.503 1.6.206 0 .686-.205 1.029-.48.549-.434.617-.64.549-1.851-.023-.755-.138-1.51-.23-1.67-.296-.48-1.325-.365-1.6.16zm26.7.891c-.068.206.046.892.297 1.486.252.617.435 1.532.435 2.035-.046 1.303-.755 4.16-1.326 5.372-.274.548-.412 1.097-.343 1.234.091.137.046 1.006-.092 1.966-.251 1.738-.16 2.63.252 2.63.343 0 .869-1.235 1.006-2.355.091-.572.206-1.098.274-1.166.069-.092.594.068 1.166.343.571.274 1.646.64 2.4.8 1.326.32 1.395.343 1.395 1.12 0 1.074.846 1.12 1.234.046.206-.618.366-.71 1.12-.71.48 0 1.098-.068 1.372-.136.411-.115.549.023.823.846.411 1.28.777 1.554 1.829 1.371.548-.091 1.12-.023 1.508.183.732.389 4.344 4.092 4.344 4.48 0 .138.251.206.548.183.343-.068.55-.274.618-.64.045-.434-.412-1.028-2.103-2.697-1.212-1.189-2.172-2.309-2.172-2.515 0-.205-.229-.365-.503-.365-.594 0-1.417-.389-1.417-.686 0-.115.365-.252.823-.343 1.165-.183 2.286-1.029 2.286-1.692 0-.8-.71-1.326-1.966-1.486-.983-.137-1.235-.068-2.195.595-.594.411-1.12.731-1.166.731-.046 0-.731-.594-1.486-1.349l-1.417-1.348.411-2.766c.39-2.515.39-2.79.046-3.132-.708-.686-1.166.137-1.349 2.469-.091 1.143-.228 2.126-.32 2.217-.388.389-3.429-3.315-3.794-4.618-.138-.502-.458-.937-.8-1.097-.298-.137-.663-.526-.823-.823-.298-.686-.686-.754-.915-.183zm4.252 6.63l1.92 1.966-.137 1.211c-.091.663-.206 1.258-.251 1.349-.137.229-2.63-.549-3.91-1.212l-1.05-.548.136-1.12c.183-1.486.846-3.635 1.12-3.635.138 0 1.098.891 2.172 1.989zm4.412 4.137l.937.823h-1.211c-1.372 0-1.578-.16-1.349-1.051.183-.8.503-.755 1.623.228zm5.555-.114c.092.16.069.366-.046.48-.297.297-2.766.389-2.88.092-.206-.572 2.606-1.098 2.926-.572zm-45.674-10.264c-.137.16-.526.846-.892 1.532-.777 1.508-1.211 1.943-1.417 1.417-.183-.526-.96-.457-1.463.091-.526.572-.846.618-.846.137 0-.548-.8-.434-1.577.23-.64.548-.732.57-.983.205-.389-.503-.983-.252-1.28.526-.64 1.691.022 2.194 1.44 1.074.891-.709 1.051-.754 1.577-.48.503.274.663.229 1.395-.32.708-.549.868-.572 1.12-.274.457.571.868.411 1.691-.663 1.212-1.578 1.212-1.578 1.143-.549-.068.846-.022.983.458 1.052.434.045.548-.046.548-.48 0-.32.069-1.304.137-2.195.16-1.509.138-1.623-.32-1.623-.274 0-.594.137-.731.32zm-13.076.823c-.617.731-.663.96-.434 1.623.297.754.777.686.983-.137.297-1.235 2.148-.183 2.148 1.211 0 .732-.708 1.783-1.486 2.195-.434.229-.457.206-.32-.823.206-1.234-.137-1.623-.845-.983-.663.594-.846 1.897-.366 2.629.503.777.8.754 2.012-.114 1.097-.8 1.966-2.264 1.966-3.292 0-1.098-.823-2.172-1.852-2.47-1.212-.342-1.372-.32-1.806.16zm117.363 2.629c-.48.457.252 1.76.96 1.76.412 0 .549-.663.297-1.326-.205-.549-.914-.8-1.257-.434zm29.764 1.28c-1.052.206-1.829.823-1.486 1.189.16.16.823.137 1.874-.023.892-.137 1.692-.183 1.784-.114.205.205-.618 2.743-.983 2.971-.16.092-1.03.229-1.966.297-1.463.115-1.67.183-1.67.595 0 .434.138.48 1.601.411l1.623-.068-.251.731c-.16.412-.366.8-.48.869-.115.069-.206.343-.206.617 0 .366.114.457.526.412.365-.069.754-.48 1.211-1.35.526-.96.823-1.256 1.235-1.256.8 0 .914-.252.388-.823-.48-.503-.48-.526 0-2.058.275-.868.435-1.806.366-2.103-.137-.48-.297-.526-1.394-.503-.71 0-1.67.092-2.172.206zm-129.502.503c-.297.457-.274.571.16 1.006.411.411.549.434.869.183.434-.366.48-1.006.068-1.395-.411-.434-.754-.366-1.097.206zm103.876-.069c-.252.16-.457.48-.457.663 0 .412.022.412.845.092.526-.183.846-.137 1.578.251.526.252 1.188.48 1.509.48.845 0 2.743.915 3.04 1.486.251.457.16.594-.663 1.303-.526.434-1.143 1.212-1.394 1.76-.412.892-.412 1.029-.07 1.372.321.32.458.32 1.373-.16 1.28-.64 1.92-1.715 1.92-3.2.023-2.058-1.212-3.544-3.43-4.115-1.622-.435-3.611-.389-4.251.068zm110.962.595c-1.417 1.508-2.423 2.331-2.88 2.331-.252 0-.732.206-1.052.435-.297.228-1.508.914-2.674 1.486-1.143.594-2.08 1.143-2.08 1.188 0 .069-.824.115-1.806.092-1.578-.046-1.806 0-1.92.411-.23.686.045.96.845.8.96-.205.892.023-.229.732-.502.32-1.303 1.12-1.783 1.76-1.165 1.6-1.188 2.606-.068 3.84.731.8.891.87 1.486.64.365-.114 1.143-.822 1.691-1.554 1.12-1.44 2.744-4.48 2.744-5.12 0-.778.457-1.28 1.714-1.944a33.57 33.57 0 0 0 2.652-1.577c1.166-.754 1.417-.846 1.646-.549.228.275.205.526-.115 1.19-.891 1.897-.16 2.56 1.19 1.074.48-.549.96-.983 1.028-.983.091 0 .137.411.068.914-.045.64.046 1.006.343 1.257.366.297.503.229 1.28-.685.846-.96.915-1.006 1.258-.595.206.229.526.686.663.983.48.937 1.714 1.303 3.383 1.029.8-.137 1.555-.297 1.669-.389.137-.068.503.046.823.252.754.503 1.92.388 2.034-.206.046-.274-.091-.48-.434-.572-.412-.114-.503-.297-.457-1.051.023-.503 0-.983-.069-1.052-.068-.068-.571-.137-1.12-.16-1.189-.045-2.172.526-2.537 1.51-.183.48-.412.685-.778.685-.845 0-.891-.434-.091-.846.686-.343.731-.48.663-1.394-.069-.938-.092-1.006-.755-.915-.388.023-1.051.32-1.463.64l-.777.595-.548-.595c-.32-.343-.755-.617-1.006-.617-.275 0-.435-.16-.435-.48 0-.572-.64-.892-1.028-.503-.137.16-.343.274-.458.274-.342 0-.205-.64.183-.983.572-.457.8-1.234.549-1.714-.32-.594-.503-.526-1.349.366zm9.556 5.189c0 .137-.115.297-.252.388-.137.07-.228-.022-.228-.228 0-.206.091-.389.228-.389s.252.115.252.229zm-18.494 2.057c0 .435-1.234 2.835-2.103 4.07-.869 1.21-1.44 1.577-1.737 1.097-.8-1.212-.572-2.263.754-3.612 1.6-1.6 3.086-2.355 3.086-1.555zm-154.145-7.246c-.366.594-.8 1.828-1.029 2.971-.137.71-.228.778-.868.64-.983-.205-2.012.8-2.538 2.47-.366 1.188-.366 1.302.023 1.897.457.708 1.074.64 2.035-.206.342-.32.617-.411.663-.251.251.663.754 1.12 1.12.983.32-.115.365-.412.228-1.692-.091-1.212-.045-1.715.275-2.355.48-.937 1.348-3.817 1.348-4.526 0-.663-.823-.617-1.257.069zm-1.646 4.96c.137.252.183.595.114.778-.228.525-1.508 1.44-1.806 1.257-.365-.229-.045-1.303.572-1.966s.8-.663 1.12-.069zm181.897-4.617a34.006 34.006 0 0 0-.891 1.577c-.48.937-1.03.891-.663-.069.205-.548.205-.777-.023-1.006-.206-.228-.412-.16-.892.275-.32.32-.594.708-.594.868 0 .183-.32.526-.686.8-.571.39-.686.664-.686 1.395.023.503-.045 1.189-.137 1.555-.114.434-.046.754.206 1.028.503.503.731.32.914-.777.137-.983.732-1.966.983-1.692.092.092-.023.549-.251 1.052-.412.846-.412.914.023 1.714.571 1.075 1.165 1.35 2.4 1.19 1.029-.138 1.029-.138 1.44.868.503 1.303.777 1.623 1.235 1.44.525-.206 1.554-2.423 1.463-3.155-.092-.868-.8-.96-1.006-.16-.206.823-.663.663-.915-.274-.274-1.074-.845-1.189-1.326-.32-.685 1.211-1.6.731-1.805-.892-.206-1.668.228-1.988 2.766-2.011 1.463-.023 2.171-.137 2.354-.366.549-.64.069-.983-1.554-1.166-1.258-.137-1.578-.251-1.578-.571 0-.229.115-.526.252-.686.343-.32.206-1.326-.183-1.44-.16-.069-.526.32-.846.823zm-151.013.96c-.48.503-.869 1.006-.869 1.097 0 .366-2.469 2.812-2.834 2.812-.183 0-.48-.183-.663-.412-.275-.388-.343-.388-.732-.045-.251.228-.708.525-1.006.685-.503.252-.64.229-1.12-.228-.297-.275-.754-.48-1.006-.435-.457.069-.48-.045-.228-.914.205-.663-.503-1.463-.892-1.052-.343.343-.914 3.658-.663 3.91.275.274.938-.046 1.12-.572.183-.594.755-.594.938 0 .228.686.823.8 1.554.274.846-.617 1.029-.617 1.395-.023.434.71 1.051.39 3.291-1.805 1.12-1.12 2.035-1.875 2.035-1.715 0 .16-.183.732-.366 1.257-1.074 2.858-1.166 3.59-.434 3.43.366-.07.983-1.555 1.669-3.91.388-1.348.365-3.04-.046-3.177-.16-.046-.663.32-1.143.823zm-79.119.343c-.251.457-.48.891-.48.983 0 .114-.342.777-.754 1.508-.594 1.075-.8 1.28-1.074 1.052-.572-.48-1.098-.069-1.006.8.137 1.509 1.211 1.097 2.606-.983.617-.96.708-1.006.708-.48 0 .846.55 1.532 1.075 1.326.32-.137.389-.343.251-1.097l-.16-.96.915-.07c.754-.068.937-.182 1.006-.616.091-.709-.526-.938-1.28-.458l-.572.389-.092-.983c-.09-1.28-.502-1.417-1.143-.411zm185.51 1.028c-1.03.709-1.19 1.029-1.006 2.103.114.686.022.87-.503 1.143-.663.366-.823 1.143-.32 1.646.731.732 2.697-.091 2.857-1.211.046-.275.229-.549.412-.617.342-.115.32.228-.069 1.188-.114.275-.023.48.274.64.343.183.732.046 1.83-.617 1.074-.663 1.44-.8 1.576-.549.115.16.16.48.092.71-.046.228.068.548.251.708.298.251.435.183.8-.366.55-.892 3.452-3.749 3.452-3.429 0 .137-.343 1.029-.731 1.966-.846 1.966-.892 3.178-.137 3.178.343 0 .548-.23.708-.846.115-.458.526-1.67.915-2.72.8-2.15.823-3.11.045-3.224-.594-.091-2.651 1.577-3.314 2.675l-.435.686-.571-.55-.572-.548-.731.549c-.8.594-1.463.388-1.28-.412.045-.228.023-.503-.092-.64-.343-.457-2.217-2.057-2.4-2.057-.114 0-.572.274-1.052.594zm2.194 2.126c0 .32-.114.412-.389.32a2.422 2.422 0 0 0-.845-.16c-.503 0-.8-.526-.618-1.051.206-.503 1.852.297 1.852.891zm-196.093-2.08c-1.395.434-1.875.892-1.463 1.394.274.32.366.32 1.006 0 .388-.205 1.326-.434 2.08-.525 1.166-.16 1.372-.252 1.44-.709.069-.503-.023-.549-.96-.526a9.906 9.906 0 0 0-2.103.366zm175.702.343c-.983.617-1.555 1.852-1.349 2.949.069.457.32.891.526.983.434.16 1.326-.252 1.623-.755.16-.297.297-.251.754.183.64.595 1.623.503 2.63-.297.548-.411.708-.457 1.325-.206.572.252.823.229 1.395-.045.662-.343.754-.32 1.211.137.48.457.526.457 1.509.091.549-.228 1.051-.365 1.12-.297.069.069-.274 1.326-.731 2.812-.686 2.217-.938 2.766-1.44 3.017-.8.389-1.327 1.6-.892 2.104.16.205.526.342.8.297.594-.069 1.12-1.098 2.4-4.504 1.623-4.343 1.715-5.486.457-5.166-.365.091-.845.32-1.051.503-.549.48-1.212.411-1.349-.137-.16-.64-.96-.618-1.646.023-.64.594-1.051.434-1.051-.39 0-.616-.572-.822-.87-.342-.296.503-2.102 1.669-2.56 1.669-.41 0-.457-.115-.32-.663.343-1.372.298-1.509-.73-1.966-.984-.434-1.007-.434-1.761 0zm-48.418.731c-1.828 1.92-1.943 3.704-.183 2.606.846-.525.915-.525 1.212-.114.16.229.343.526.389.64.023.115.411.275.845.343.686.137.778.092.778-.343 0-.274-.137-.571-.32-.686-.572-.342-1.303-1.897-1.189-2.514.183-1.029-.526-1.006-1.532.068zm20.163-.503c-.434.23-1.76.55-2.972.71-2.149.296-2.194.296-2.766-.252-.549-.503-.594-.526-1.029-.115-.617.549-1.051 1.623-.96 2.332.137.892.983.846 1.92-.114.71-.732 1.006-.846 2.424-1.006 1.691-.16 1.874-.069 1.394.846-.297.548-.091 1.189.366 1.189.411 0 .457.868.091 1.28-.137.16-.617.891-1.028 1.6-.938 1.577-1.463 1.737-2.538.823-.709-.595-.8-.617-1.166-.252-.594.595-.068 1.51 1.075 1.83 1.188.32 1.806.32 2.286-.047.48-.388 4.274-7.75 4.274-8.32 0-.778-.525-.96-1.371-.504zm-6.287 1.738c-.251.251-.274.206-.137-.137.092-.229.229-.366.297-.297.069.091 0 .274-.16.434zm28.118-1.966c-.297.114-.891.206-1.326.183-.434-.023-1.257.206-1.806.503l-1.051.525-.412-.525c-.594-.732-1.28-.435-1.897.868-1.029 2.103-.617 2.378 1.6 1.098 2.08-1.235 2.606-1.258 2.698-.206.114 1.029.685 1.029 1.165 0 .23-.503.71-.937 1.372-1.257.709-.32 1.029-.64 1.029-.96 0-.526-.457-.595-1.372-.23zM89.64 163.996c-.845.87-1.12 1.03-1.691.915-.389-.069-.846-.252-1.052-.389-1.486-1.097-1.806-1.028-2.629.663-.571 1.166-.64 2.606-.16 3.018.435.343 1.623-.618 2.058-1.67.228-.502.48-.73.868-.73.892 0 1.715.41 1.852.96.069.251.412.594.754.731.526.206.915.091 2.31-.594 1.942-.983 2.308-1.052 1.302-.252-.525.435-.64.663-.434.869.366.366 1.006.114 1.92-.709.8-.731.869-1.417.16-1.989-.434-.342-1.623.023-2.994.938-.503.32-1.098.525-1.326.48-.32-.092-.252-.16.274-.297 1.029-.275 1.577-.823 1.577-1.578 0-.708-.663-1.44-1.325-1.44-.252 0-.892.48-1.464 1.074zm1.738.526c.114.343-1.052.869-1.257.549-.069-.137 0-.412.16-.594.32-.39.96-.366 1.097.045zm-5.83 1.006c-.09.297-.25.526-.365.526-.275 0-.252-.16.045-.755.32-.594.503-.48.32.23zm37.057-2.057c-.846.48-.915.503-1.35.091-.548-.503-1.188-.434-1.554.114-.251.412-.183.526 1.418 2.538.64.8 1.074.571 1.074-.617 0-.618.16-1.052.48-1.35.709-.64 1.303-.205 1.303.915 0 1.166.206 1.28 1.12.64.526-.388.8-.48.869-.274.183.549.8 1.006 1.372 1.006 1.371 0 1.851-.8.64-1.075-.526-.114-.732-.32-.846-.868-.16-.823-.732-1.143-1.349-.755-.366.229-.503.16-.823-.32-.48-.708-1.166-.731-2.354-.045zm57.058-.206c-.251.183-.366.48-.297.686.297.777 5.326.891 5.784.137.434-.663-.023-.846-2.63-.983-1.805-.114-2.537-.069-2.857.16zm-49.766.526c-.594.731-.594.8-.274 1.646.251.708.823.777 1.828.251.8-.411 1.303-.457 1.303-.137 0 .137.16.389.366.594.389.389.823.275 1.829-.525.343-.298.434-.252.709.182.32.48 1.417.71 1.417.298 0-.435-.777-1.738-1.029-1.738-.137 0-.617.229-1.051.503-.823.503-1.28.457-1.28-.137 0-.594-.458-.617-1.44-.114-1.327.663-1.487.617-1.395-.389.091-1.097-.32-1.28-.983-.434zm-109.91-.092c-.161.16-.298.572-.298.915 0 .777-.96 2.697-1.417 2.834-.275.092-.298-.045-.138-.708.115-.435.206-1.303.206-1.898.023-.891-.046-1.074-.434-1.074-.777 0-1.418 1.166-1.395 2.514.023 1.052-.045 1.258-.663 1.692-.937.663-1.668.64-1.668-.068 0-1.006-2.606-1.464-3.338-.572-.389.48-.549 1.737-.297 2.4.32.823.937.823 1.6 0 .503-.64.503-.64 1.235-.205.731.434.731.434 2.08-.298.8-.434 1.554-.685 1.851-.594.32.069.8-.137 1.418-.64 1.12-.892 1.44-.937 1.44-.16 0 .709.823 1.303 1.051.754.092-.274.48-.343 1.51-.274 1.165.069 1.485 0 1.942-.411.892-.823.572-1.692-.411-1.098-.412.275-.549.229-1.052-.228l-.571-.549-.457.617c-.435.595-.48.595-1.006.229s-.549-.503-.389-1.92c.137-1.258.092-1.555-.183-1.555-.183 0-.457.137-.617.297zm94.525.297c-.64.778.274 1.44 1.189.87.274-.184.297-.344.091-.664-.343-.571-.914-.663-1.28-.206zm61.196 2.172c-.274.32-.251.457.069.777.503.503 1.189.229 1.097-.457-.091-.663-.731-.823-1.166-.32zM7.504 169.94c-.685.663-.068 2.24.8 2.08.618-.114.71-.983.206-1.76-.457-.686-.594-.731-1.006-.32z"/>
	<path d="M62.574 171.449c-.068.183-.023 1.326.137 2.537.206 1.67.206 2.538-.022 3.566-.138.755-.275 2.767-.275 4.481 0 1.715-.091 3.223-.183 3.383-.091.137-.685.252-1.326.229l-1.165-.023.137-.777c.434-2.492.434-2.47.068-2.47-.525 0-.823.481-1.028 1.555-.252 1.486-.48 1.783-1.235 1.646-.663-.114-2.697-1.623-2.697-1.989 0-.114-.48-.434-1.029-.731-.571-.297-1.234-.709-1.509-.937-1.531-1.28-5.166-3.04-5.806-2.79-.16.047-.297.344-.297.595 0 .389.388.686 1.783 1.326 1.028.457 2.537 1.44 3.589 2.332 2.491 2.126 3.04 2.514 4.549 3.292 1.211.64 1.486.685 3.429.617 1.234-.046 2.217 0 2.4.16.366.297 6.812.388 8.847.091.777-.091 2.08-.183 2.88-.183 1.555.023 2.72-.503 3.36-1.486.298-.457.55-.525 1.624-.502 1.6.045 2.583-.275 2.583-.846 0-.64-.709-.755-2.537-.457-1.738.274-2.035.205-1.555-.366.252-.32.686-.343 2.606-.229 1.28.092 2.4.206 2.492.275.091.045 1.92.09 4.023.09 2.126 0 4.138.092 4.48.23.8.32 1.28-.046.892-.686-.274-.435-3.063-.663-10.241-.846-1.806-.046-3.36-.137-3.429-.206-.069-.091.091-.366.389-.64.594-.549.434-1.006-.366-1.006-.389 0-.64.229-.846.732-.16.411-.411.8-.549.868-.114.092-2.034.206-4.229.252-3.954.114-4.915.32-4.48 1.006.16.274 2.857.228 6.675-.092.891-.091 1.623-.068 1.623.023 0 .092-.297.755-.64 1.463-.732 1.44-.457 1.349-4.16 1.28-2.195-.045-2.31-.068-2.927-.731-.823-.892-1.417-.892-2.446.023-.663.571-1.028.731-1.646.663-.685-.069-.8-.16-.845-.823-.046-.435.137-1.44.411-2.263.503-1.555.48-1.92-.137-1.92-.32 0-.343-.184-.183-1.258.297-1.92.229-7.384-.091-8.161-.298-.709-.892-.869-1.098-.297zm-31.112 1.097c-1.12.274-4.572.64-7.613.846-2.651.16-2.926.343-2.423 1.44.229.503.389.594.892.457.594-.16 1.714-.297 6.858-.823 3.36-.343 3.635-.411 3.817-.868.138-.389-.228-1.326-.525-1.28-.092.022-.549.114-1.006.228zm68.488.526c-.708 1.006-1.006 1.806-.868 2.446l.137.709-1.006-.778c-1.212-.96-2.035-.96-2.149.023-.068.663.389 1.257 1.646 2.126.48.32.503.457.32 1.075-.48 1.417.412 2.651.983 1.371.137-.297.32-.548.412-.548.274 0 .64.823.594 1.325-.023.32.229.595.777.87.457.228 1.166.753 1.577 1.165.503.48.892.686 1.166.571.549-.205.503-.891-.068-1.417-.275-.228-.48-.617-.48-.869 0-.594.823-.594 1.371 0 1.875 1.99 2.4 2.652 2.538 3.224.343 1.348.983.617 1.211-1.395.092-.777.252-1.531.366-1.623.114-.114.64.16 1.166.64 1.074.96 1.303 1.029 1.737.503.229-.274.252-.503.046-.937-.206-.48-.16-.64.366-1.12l.594-.572.389.572c.686.96 2.057 2.172 2.469 2.172.845.022.96-.572.297-1.532-.572-.846-.595-.915-.16-1.212.388-.297.457-.251.571.343.298 1.303.846 1.555 1.852.846.663-.457.686-1.052.091-1.829-.251-.297-.525-.96-.617-1.44-.114-.709-.297-.937-.914-1.143-.412-.16-.937-.434-1.143-.64-.297-.251-.64-.297-1.349-.16-1.326.274-1.349.937-.091 1.943.937.754 1.257 1.486.663 1.463-.16 0-1.258-1.074-2.446-2.4-1.166-1.303-2.264-2.4-2.4-2.4-.504 0-.847.571-.87 1.44 0 .457-.137 1.166-.297 1.554l-.297.686-1.737-1.875c-.96-1.005-1.92-2.148-2.149-2.537-.526-.869-.754-.96-1.989-.663-.708.16-1.12.137-1.28-.023-.343-.343-.777-.32-1.029.046zm2.126 1.852c-.114.777-.457.96-.685.365-.183-.48.068-1.074.457-1.074.228 0 .297.228.228.709zm3.315 3.131c0 .389-.457.96-.754.96-.092 0-.549-.48-1.052-1.074-.754-.914-.869-1.212-.709-1.829l.16-.754 1.166 1.166c.64.64 1.189 1.326 1.189 1.531zm-3.955-.045c.732.845.846 1.074.572 1.257-.549.343-.686.274-1.052-.572-.183-.457-.457-.891-.594-.983-.137-.091-.252-.388-.252-.685 0-.298.069-.412.206-.275.092.115.617.686 1.12 1.258zm8.984-.458c0 .138.343.572.755.96.594.618.685.824.434 1.12-.389.458-.96.435-1.6-.114-.617-.525-.663-.731-.275-1.577.275-.594.686-.823.686-.389zm-3.04 2.104c.228.228-.617.777-1.212.8-.64 0-.754-.64-.137-.8.686-.16 1.166-.183 1.349 0zm-.069 1.645c0 .183-.114.343-.251.343s-.229-.16-.229-.343c0-.205.092-.365.229-.365s.251.16.251.365zm85.817-2.994c-.343.411-.618.823-.618.914 0 .297-3.543 3.795-3.657 3.612-.457-.754-1.143-2.332-1.143-2.56 0-.16.251-.297.571-.297 1.075 0 2.08-.298 2.08-.64 0-.778-3.223-.023-3.817.914-.251.411-.206.64.434 1.577.412.617.732 1.349.732 1.646 0 .343-.709 1.212-2.149 2.583-2.035 1.943-2.56 2.766-1.943 3.155.137.069.411-.046.594-.274 1.806-2.103 3.292-3.475 3.566-3.36.206.068.412.434.48.8.138.594-.022.845-1.165 1.897-.938.891-1.303 1.417-1.303 1.851 0 1.12 1.165 1.326 2.651.458l.595-.343-.595.503c-.823.708-3.2 2.491-3.749 2.811-.48.298-.274.823.32.823.526 0 2.012-1.028 3.887-2.697.868-.754 1.623-1.372 1.691-1.395.092 0 .503.778.96 1.692.8 1.669 1.463 2.24 1.99 1.692.296-.297-.252-1.532-1.19-2.652a3.901 3.901 0 0 1-.685-1.28c-.16-.595.023-.846 1.691-2.446 1.029-.983 1.92-1.738 1.99-1.692.113.137-.344 1.646-.824 2.72-.388.846-.366 1.875.023 1.83.137-.024.594-.87 1.006-1.92.64-1.578.891-1.921 1.44-2.058 1.257-.343 1.372-.069.572 1.417-.39.731-.732 1.44-.732 1.554 0 .343.732.206.869-.16.183-.457.571-.48.571-.045 0 .503 1.143 1.44 1.555 1.28.457-.183.457-.617 0-1.235-.206-.251-.343-.663-.343-.891 0-.252-.137-.663-.32-.937-.503-.823.251-1.143 2.377-1.03 1.463.07 1.806.024 1.92-.273.252-.64-.205-.823-2.034-.87l-1.76-.045.137-.823c.068-.434.068-.96 0-1.143-.229-.594-.8-.388-.937.297-.39 1.692-.503 1.875-1.258 1.944-.731.068-.731.068-.617-.87.16-1.188-.229-1.462-.96-.662-.366.411-.823.617-1.303.617-.777 0-1.623.777-2.858 2.652-.663 1.006-1.028 1.051-1.028.114 0-.388.686-1.28 2.331-2.926 2.4-2.423 4-4.503 3.772-4.892-.365-.594-1.051-.137-1.92 1.257-.869 1.395-3.909 4.641-4.16 4.39-.046-.046.022-.412.182-.8.229-.55.229-.846.023-1.212-.251-.48-.205-.503.32-.366.709.183 1.075-.48.458-.846-.23-.137-.298-.251-.138-.251.343 0 2.972-3.155 2.972-3.566 0-.549-.937-.252-1.554.457zm-2.766 5.395c0 .366-.138.594-.366.594-.503 0-.686-.457-.366-.846.434-.525.732-.434.732.252zm4.297 1.486c-.023.251-1.417 1.348-1.417 1.143 0-.229 1.029-1.303 1.257-1.303.092 0 .16.068.16.16zm-4.846 3.223c.069.274-.297.64-1.029 1.052-.594.365-1.143.594-1.211.548-.046-.068.228-.571.64-1.12.777-1.029 1.463-1.234 1.6-.48zm26.243-7.11a8.85 8.85 0 0 0-1.234 1.875c-.252.572-.663 1.212-.915 1.463-.64.549-1.097 2.629-.731 3.292.457.869 1.029.411 1.554-1.235 1.03-3.177 1.555-3.383 1.555-.594 0 1.555.046 1.806.526 2.149.663.457 2.011.48 2.903 0 .389-.183.846-.366 1.029-.366.182 0 .48-.343.663-.777l.342-.777.023.754c.023.412.229.937.503 1.166.412.389.64.411 1.555.206 1.006-.229 1.051-.206 1.188.32.183.686.778.708 1.486.068.503-.48.549-.48 1.143-.114.457.297.869.366 1.76.229 1.03-.138 1.098-.115.686.205-.548.412-.365 1.12.32 1.12.96 0 1.83-1.325 1.463-2.286-.228-.571-.32-.617-1.028-.457-.412.092-.983.16-1.258.137-.251 0-.663-.022-.891-.045-.594-.023-.526-.435.297-1.738.389-.617.732-1.348.732-1.6 0-.823-.71-.526-1.395.595-.777 1.234-2.263 2.125-3.932 2.377-1.257.183-1.531-.023-1.303-.937.16-.64 1.235-1.326 2.126-1.326.732 0 1.852-1.006 1.852-1.646 0-.252-.229-.64-.526-.846-.457-.32-.594-.297-1.394.114-.503.252-1.35.96-1.898 1.6-.868 1.03-1.029 1.12-1.463.846-.8-.503-1.234-.343-2.309.823-1.211 1.326-1.508 1.235-1.646-.594-.045-.686-.32-1.623-.64-2.172-.548-.937-.548-.96-.114-1.44.434-.48.389-1.234-.046-1.234-.114 0-.548.388-.983.845zm41.331.892c-.274.297-.594.869-.731 1.257-.229.709-.252.732-1.76.663-1.052-.068-1.692.023-1.99.252-.594.434-.297.891.55.891.388 0 1.005.069 1.394.137.846.183.823.595-.046 2.012-.297.48-.709 1.372-.914 1.989-.343 1.051-.343 1.166.045 1.646.663.823 1.943.48 2.95-.8l.8-1.006.114.823c.114.709.205.823.685.777.64-.068.572.069-.731 1.646-.96 1.143-1.12 1.669-.594 2.103.457.366 1.28-.274 1.463-1.143.091-.366.525-1.12.983-1.646.914-1.051 1.303-1.92 1.463-3.154.091-.732.068-.8-.435-.64-.32.09-1.12.25-1.806.365-1.486.275-2.034.526-2.651 1.326-.595.732-.87.526-.458-.32.183-.343.549-1.28.8-2.08l.48-1.44 2.332.068c2.332.092 2.355.069 2.263-.48-.068-.48-.251-.571-1.806-.754-1.92-.229-2.011-.366-1.371-1.623.663-1.28-.069-1.92-1.029-.869zm-18.7 1.44c-.48.96-1.394 2.675-2.034 3.818-.663 1.143-1.166 2.194-1.166 2.332 0 .457.823.32 1.258-.206.548-.64.845-.595 1.143.137.274.709.708.64 2.194-.297 1.052-.663 1.166-.686 1.166-.206 0 .457.64.457 1.44 0 .823-.48.96-.434.96.229 0 .845.32.937 1.28.388.71-.388.87-.411 1.12-.114.16.183.48.343.71.343.228 0 .48.16.57.366.184.457 1.075.457 1.258 0 .16-.435-.503-1.578-.914-1.578-.16 0-.48-.183-.732-.388-.366-.343-.571-.366-1.166-.16-.594.251-.754.205-1.028-.183-.252-.366-.48-.435-1.075-.297-.411.068-.823.228-.891.342-.229.39-.572.23-.572-.251 0-.8-.48-.8-1.349-.023-1.165 1.006-1.531.96-1.531-.228 0-.526-.115-.96-.252-.96-.411 0-.251-.686.48-2.08.389-.732.732-1.647.732-2.035 0-1.212-.686-.778-1.6 1.051zm-71.094-1.006c-.96.572-1.143 1.03-.8 1.806.389.846 1.006.755 1.006-.137 0-.571.114-.731.64-.869.549-.137.777-.022 1.532.823 1.417 1.623 1.417 2.08 0 3.384-1.258 1.166-1.6 2.194-.938 2.857 1.303 1.28 3.886-1.646 3.452-3.909-.274-1.417-1.326-3.017-2.492-3.749-1.303-.823-1.371-.823-2.4-.206zm3.292 6.607c-.526.64-.777-.023-.297-.754.434-.663.434-.686.526-.138.045.298-.07.709-.23.892zm74.043-5.304c-.068.183-.091.526-.045.778.114.594 1.234.594 1.348 0 .16-.87-1.005-1.555-1.303-.778zm-143.08.526c-.549.229-.343 1.052.343 1.303.777.297 1.806.206 1.92-.183.091-.251-.366-.548-1.852-1.188-.068-.023-.251 0-.411.068zm25.557.503c-.617.709-1.623 2.88-1.623 3.52 0 1.35 1.235.252 2.172-1.92.251-.617.48-1.303.48-1.554 0-.595-.549-.595-1.029-.046zm141.618-.046c-.366.206-.663.48-.663.64 0 .16-.16.069-.343-.182-.32-.435-.389-.412-1.486.548-1.714 1.486-1.852 1.623-2.332 2.31-.502.73-1.12.822-1.12.16 0-.732-.503-.87-1.006-.275-.251.32-.434.937-.434 1.486 0 .777.092.937.48.937.274 0 .8-.274 1.143-.594.64-.595 1.395-.87.823-.32-.343.342-.366 1.074-.046 1.28.412.251 1.212-.366 1.212-.96 0-.32.251-.892.571-1.258l.595-.663-.137 1.212c-.115.96-.023 1.417.365 2.217.298.549.64 1.006.755 1.006.137 0 .251.16.251.366 0 .594.686.389.846-.252.229-.868-.046-1.645-.663-1.92-.388-.16-.571-.48-.64-1.028-.114-1.212.229-1.464 1.669-1.19 1.326.23 1.829.024 1.577-.662-.114-.252-.32-.343-.617-.252-.251.092-.526.046-.594-.068-.206-.343.343-1.486.731-1.486.48 0 .823-.823.503-1.143-.366-.366-.64-.343-1.44.091zm-140.223.252c-.092.228-.046.503.068.64.366.366 1.12.091 1.12-.434 0-.618-.96-.778-1.188-.206zm-16.665.937c-.389.343-.846.983-1.006 1.44-.297.915-.846 1.166-.617.297.457-1.806.457-1.92.137-1.828-.549.183-1.189 1.257-1.349 2.194-.137.8-.091.915.526 1.143.937.343 1.897-.023 1.989-.754.183-1.44.571-2.172 1.097-2.08.777.091.731.8-.091 1.828-.823 1.03-.87 1.806-.115 1.898.64.091 1.12-.457 1.806-2.172l.549-1.372-.549-.594c-.731-.777-1.463-.777-2.377 0zm46.131-.251c-.457.32-.526.594-.503 1.92.023 1.737.115 1.806 1.486 1.234.777-.343.823-.32.96.229.115.457.297.571.938.571.411 0 1.005-.137 1.28-.343.388-.274.663-.297 1.394-.068.503.16.96.434 1.029.594.068.183-.16.869-.503 1.532-.709 1.349-.823 2.149-.32 2.126 1.029 0 2.423-3.155 1.943-4.412-.229-.594-2.446-1.143-3.452-.869-.48.137-.869.252-.914.252-.023 0-.046-.275-.046-.595 0-.708-.137-.731-1.303-.228-1.029.411-1.349.297-1.349-.503 0-.435.137-.595.48-.595.618 0 .618-.617.023-.96-.594-.297-.548-.297-1.143.115z"/>
	<path d="M208.558 185.896c-.183.229-.96.915-1.714 1.555-1.51 1.257-2.492 1.531-2.263.663.16-.595-.229-1.578-.71-1.76-.822-.32-2.948 1.234-2.948 2.148 0 .663.64.892 1.394.48.938-.48.96-.48 1.235.229.16.412.411.594.8.594.64 0 3.383-1.714 3.749-2.354.366-.617.274-.046-.229 1.623-.343 1.074-.411 1.623-.251 1.806.457.434 1.189-.617 1.783-2.56.503-1.624.526-1.898.229-2.332-.412-.595-.64-.617-1.075-.092zm-5.006 1.258c0 .114-.274.388-.595.594-.685.457-.8.274-.205-.366.411-.48.8-.571.8-.228zm-95.806-.046c-.618 1.417-.71 2.789-.206 2.88.411.092.777-.663 1.189-2.4.457-1.943-.206-2.24-.983-.48zm8.366-.732c-1.188.64-1.417 1.76-.343 1.76.275 0 .732.206 1.006.48.435.412.618.435 1.258.184.685-.252.8-.229 1.234.297.457.594.48.594 1.326.183 1.097-.526 1.532-1.372 1.143-2.24-.297-.664-.663-.595-1.006.228-.183.434-.206.366-.16-.32.069-1.12-.366-1.166-1.166-.137-.343.457-.777.846-.937.846-.137 0-.457-.39-.686-.846-.434-.915-.663-.96-1.669-.435zm14.15-.251c-.09.091-.09.411 0 .731.07.298.07.755-.022.983-.16.39-.183.39-.503-.022-.229-.32-.503-.412-.914-.32-1.395.365-.778 1.737.708 1.645 1.372-.091 1.783-.274 2.012-.914.411-1.052-.617-2.743-1.28-2.103zm2.492.457c-.137.343-.251.755-.251.937 0 .458.8 1.098 1.372 1.098.663 0 1.76-.892 1.76-1.463 0-.549-.32-.595-.732-.092-.457.549-.914.412-1.006-.297-.091-.914-.845-1.029-1.143-.183zm13.808.32c-.8 1.143-.755 2.035.068 2.149.32.046.846-.046 1.143-.206.458-.251.686-.251 1.143 0 .595.32 1.098.229 2.606-.411 1.486-.617 1.578-.16.412 1.966-.549 1.028-1.28 2.171-1.623 2.583-.732.869-.48 1.212.823 1.12 1.051-.091 1.486-.869.617-1.074-.434-.115-.366-.275.686-1.646 2.514-3.338 1.989-5.327-1.029-3.886-.686.32-1.349.548-1.44.48-.091-.069-.183-.48-.183-.938 0-.457-.114-.823-.228-.823-.138 0-.663.458-1.19 1.03-.845.868-.982.936-.982.502 0-.32.183-.572.503-.64.64-.183.526-.983-.16-1.075-.366-.068-.686.206-1.166.87zm-1.532-.137c-.503.503-.526.503-.846.069-.411-.572-1.12-.343-1.12.343 0 .822-.731.891-1.326.137-.411-.503-.663-.64-1.051-.503-.663.205-.64.64.091 1.303.503.503.755.548 2.035.457 1.737-.114 1.783 0 .708 1.874-.937 1.67-1.348 1.898-2.606 1.395-1.143-.457-1.485-1.189-.754-1.692.526-.365.686-1.051.252-1.051-.298 0-1.486.731-1.715 1.074-.114.137-.183.526-.183.846 0 .457.297.777 1.257 1.372.686.434 1.51.8 1.83.8 1.257 0 3.84-3.498 4.205-5.692.206-1.19-.068-1.44-.777-.732z"/>
	<path d="M135.978 187.177c-.069.137-.069.457 0 .731.16.503 1.188.663 1.463.206.091-.16.548-.206 1.188-.115 1.075.16 1.6-.137 1.12-.64-.342-.343-3.566-.503-3.771-.183zm37.604.617c-.411.457-.754 1.028-.754 1.257.023.937.366 1.074 2.88 1.166 1.326.046 2.538.137 2.675.228.366.206.023 1.28-.64 2.08-1.143 1.35-.549 1.852.777.664.823-.778 1.349-2.15 1.235-3.246-.092-.755-.458-.892-1.578-.526-.457.16-.526.091-.503-.549.023-.777-.388-1.463-.937-1.463-.297 0-.869.526-1.692 1.555-.388.457-1.005.503-1.005.068 0-.183.251-.571.594-.891.32-.32.594-.709.594-.892 0-.594-.914-.297-1.646.549zm60.465 3.817c-.8.96.48 1.258 6.355 1.463 3.978.16 6.012.343 6.561.64.48.252.617.23.914-.182.846-1.166-.091-1.51-4.229-1.532-1.257-.023-3.794-.183-5.646-.389-1.852-.183-3.43-.343-3.52-.343-.07 0-.275.16-.435.343zm2.88 2.218c-1.005.137-1.508.48-1.394 1.006.069.388.549.411 5.852.48.549 0 1.257.114 1.623.251.732.274 1.258.137 1.463-.411.275-.732-.434-1.03-2.766-1.143-1.257-.046-2.652-.138-3.109-.206-.457-.046-1.211-.023-1.669.023zM7.802 195.818c-.092.137.205.228.731.228.503 0 .8-.091.709-.228-.069-.138-.389-.252-.709-.252-.32 0-.64.114-.731.252z"/>
</svg>
