<?xml version="1.0" encoding="utf-8"?>
<svg xmlns="http://www.w3.org/2000/svg" version="1.0" viewBox="0 0 315 160">
	<title>Uncle Pondevero’s first sketch of the ‘Health, Beauty and Strength’ poster.</title>
	<path d="M153.655.552c0 .343-.228 1.052-.48 1.578-.548 1.051-2.286 2.857-2.743 2.857-.366 0-1.806 2.218-1.806 2.743 0 .229.16.48.389.549.411.16.731-.16 2.103-2.057.389-.549.777-.983.869-.983.091 0 .251.343.388.777.252.869.549.914 2.492.411a23.09 23.09 0 0 1 2.126-.388l1.051-.137-.114.8c-.297 1.943.48 1.874 1.44-.115.686-1.44.778-1.531 1.646-1.646.503-.068 1.052-.022 1.212.115.411.32 1.326-.023 1.166-.457a2.928 2.928 0 0 1-.137-.8c0-.572-.526-.755-1.418-.48-.617.16-.754.137-.868-.252-.092-.251-.298-.48-.48-.48-.206 0-.366-.183-.366-.412 0-.228-.275-.617-.595-.845l-.571-.412-.252.892c-.137.503-.342 1.28-.457 1.737-.183.777-.274.846-1.051.846-.503 0-1.075.206-1.395.48-.388.343-.571.389-.64.183-.16-.435-.96-.366-1.12.114-.274.686-.754-.251-.663-1.28.023-.137.389-.663.823-1.12 1.326-1.486 1.394-1.623 1.326-2.15-.069-.433-.252-.548-.983-.616-.823-.069-.892-.023-.892.548zm69.129-.228c0 .137.16.48.343.731.32.435.389.435 1.029.092 1.005-.549.868-1.029-.343-1.075-.618 0-1.029.092-1.029.252zM23.331.918c0 .137.091.229.205.229a.505.505 0 0 0 .389-.229c.068-.137-.023-.251-.229-.251-.205 0-.365.114-.365.251zm194.424 1.669c0 .114.091.297.228.366.138.091.252-.023.252-.229 0-.206-.114-.366-.252-.366-.137 0-.228.092-.228.229zm.594 1.189c-.16.251.457.8.686.571.069-.068.16-.297.16-.48 0-.343-.64-.434-.846-.091zm-12.367.8c0 1.326.663 4.915 1.006 5.44.411.663.594.64 1.028-.205.32-.64.435-.686.823-.458.366.252.572.183 1.19-.297 1.302-1.028 2.034-1.508 2.422-1.554.343-.023.64-.183 2.72-1.509.96-.617 1.098-1.006.526-1.486-.32-.251-.548-.206-1.417.229-.571.274-1.12.663-1.189.868-.068.206-.32.366-.571.366-.229 0-.709.137-1.052.32-.457.252-.708.275-.891.069-.206-.183-.389-.114-.709.228-.343.366-.686.458-1.44.366-.846-.068-1.006-.16-1.006-.617 0-.297-.091-.617-.183-.709-.091-.114-.183-.365-.206-.594-.068-1.12-.114-1.235-.571-1.235-.389 0-.48.16-.48.778zm33.49 1.348c-.503.823-.709.938-1.372.915-.686-.046-.846.068-1.143.731-.251.618-.434.755-.846.64-.594-.137-1.005.252-1.12 1.098-.068.434-.228.617-.594.617a1.63 1.63 0 0 0-.892.32c-.343.297-.388.274-.388-.16 0-.274-.115-.572-.252-.663-.411-.229-.96.366-.96 1.074-.023.343-.183.938-.366 1.35-.205.41-.297.502-.228.205.228-.914-.366-.914-1.303 0-.892.869-1.623 1.166-1.395.526.092-.183.069-.389 0-.48-.091-.069-.32-.663-.525-1.28-.275-.846-.526-1.166-.915-1.212-1.166-.16-1.303 1.76-.183 2.652.777.617.755 1.143-.16 2.057-.891.914-.777 1.349.48 1.852.869.366 1.486 1.12 1.486 1.897 0 .16.206.503.457.732.732.663.823 0 .252-1.806-.823-2.652-.549-3.498 1.143-3.384.526.023 1.006-.091 1.303-.365.457-.412.48-.412.823.023.183.251.343.754.343 1.12 0 .617.526 1.417.937 1.417.297 0 .983-.846.983-1.257 0-.206-.274-.709-.617-1.098-.686-.823-.8-1.737-.183-1.737.228 0 .823-.274 1.326-.617.503-.343 1.143-.64 1.44-.663.457-.023.549-.183.617-.937.069-.823.526-1.303.526-.549 0 .571.457.686 1.051.297.32-.206.778-.32 1.03-.251.662.183.96-.297 1.12-1.738.09-.891.022-1.371-.23-1.737-.525-.754-.96-.64-1.645.411zm-11.842.572c-.617.594-.16 1.623.732 1.623.617 0 .777-.617.32-1.326-.434-.663-.64-.731-1.052-.297zm3.086.183c0 .32.663.594.892.366.091-.069 0-.252-.183-.366-.48-.297-.709-.297-.709 0zM125.195 7.845c-.549.251-1.212.754-1.486 1.097-.48.594-.503.732-.183 1.303.891 1.646 2.583 2.743 2.903 1.852.252-.618 1.372-.892 2.56-.64.87.205 1.486.182 2.744-.115.914-.228 2.011-.388 2.469-.365.525.022 1.005-.138 1.348-.48l.526-.48.914.48c1.532.822 4.435.594 4.435-.32 0-.48-.548-.595-1.326-.275-.914.366-2.628-.206-2.994-1.006-.343-.777-1.212-.686-2.47.275-1.005.777-1.645 1.005-3.177 1.257-.685.091-.685.091-.183-.183.96-.503.526-1.646-.594-1.646-.823 0-2.08.572-2.743 1.257-.297.343-.892.709-1.303.846-.663.229-.823.183-1.395-.434l-.64-.686.549-.366c.32-.205 1.097-.388 1.737-.434 1.395-.091 1.646-.48.64-1.006-.914-.48-1.143-.457-2.331.069zm5.052 1.943c-.069.137-.389.251-.663.228-.503 0-.503-.022-.046-.228.663-.275.892-.275.709 0zm61.859-2.103c-.16.16-.274.525-.274.823 0 .297-.138.823-.298 1.166-.205.48-.205.731.046 1.188.252.48.229.709-.16 1.486-.274.594-.64.96-.96 1.006-.297.046-.869.434-1.257.892-.709.822-.732.822-2.446.708-.96-.068-1.852 0-2.012.137-.206.137-.274.96-.206 2.446.069 2.126.092 2.24.8 2.88.869.8 1.258.824 1.92.138.55-.617.618-1.509.115-2.355-.48-.846-.434-1.211.114-1.211.274 0 .937-.48 1.509-1.075.686-.731 1.051-.983 1.189-.777.297.48.96-.069 1.714-1.463.663-1.234.686-1.257 1.257-.892.663.458 1.372.48 2.104.092.663-.343.868-.663.868-1.326 0-.297.115-.549.252-.549.343 0 .731-.868.571-1.303-.206-.548-1.44-.48-1.943.092-.228.274-.663.48-.96.48-.503 0-.549-.092-.549-1.143 0-1.12-.297-1.737-.845-1.737-.138 0-.39.137-.55.297zM185.819 18.2c0 .137-.045.229-.114.229-.046 0-.16-.092-.251-.229-.069-.137-.023-.251.114-.251s.251.114.251.251zm.96 1.349c0 .206-.16.343-.411.297-.594-.114-.663-.686-.091-.686.297 0 .503.16.503.389zM143.004 9.491c-.343.343-.115.503.823.594.845.069 1.234-.091.777-.366-.412-.228-1.44-.388-1.6-.228zm43.868 1.143c-.206.548.091 1.074.594 1.074.572 0 .778-.434.48-1.006-.274-.526-.891-.548-1.074-.068zm-75.21.983c-.708.16-1.394.251-1.531.182-.114-.091-.297-.022-.389.138-.137.251-4.617 1.028-5.76 1.005-.663 0-2.766.526-3.064.755-.16.137-.685.16-1.143.068-.823-.137-1.005-.022-.663.503.275.389 5.693.229 7.133-.205.663-.206 2.011-.48 3.017-.618 2.88-.434 3.384-.525 5.144-.96 1.097-.297 1.691-.548 1.691-.777 0-.48-2.697-.526-4.434-.091zM90.814 13.65c-.663.457-1.006.892-1.006 1.257 0 .298-.205.663-.48.823-.388.252-.503.229-.731-.182-.252-.48-.937-.663-.937-.252 0 .183-1.555 1.212-1.83 1.212-.045 0-.09-.138-.09-.343 0-.709-.572-.617-1.464.228-.708.709-1.143.915-1.874.96-.915.069-.938.046-.709-.502.32-.71.092-1.303-.503-1.303-.64 0-1.211.64-1.211 1.371 0 .434-.206.663-.846.937-.457.183-.983.572-1.143.823-.16.275-.412.48-.572.48-.16 0-.343.16-.411.366-.16.412-.777.48-1.006.092-.206-.343 1.212-1.67 1.783-1.67.594 0 1.029-.548.846-1.028-.183-.503-1.28-.526-1.92-.046-.503.389-.915.48-.732.16.206-.32-.869-1.165-1.714-1.348-1.463-.297-3.384.846-2.744 1.623.138.16.298.983.366 1.829.16 1.943.595 2.468 1.555 1.943.868-.503.937-1.075.183-1.76-.846-.778-.8-1.418.114-1.784 1.234-.457 1.623-.023 1.349 1.395-.32 1.509.022 2.011 1.257 1.783 1.166-.206 1.966-.754 1.783-1.189-.092-.274.046-.366.526-.366.365 0 .868-.16 1.074-.365.297-.252.572-.298.983-.16.64.251 1.806-.023 3.155-.709.48-.229 1.051-.366 1.257-.297.206.068.777-.046 1.257-.297.503-.252 1.28-.458 1.76-.48 3.43-.16 6.287-.526 6.47-.823.297-.48.023-.778-.572-.618-.731.183-1.325-.205-.937-.617.389-.366.389-1.211.023-1.577-.48-.48-1.257-.343-2.309.434zm1.646.709c0 .297-1.166.846-1.371.64-.069-.069-.069-.297 0-.503.16-.412 1.371-.526 1.371-.137zm130.096-.983c0 .274.206.64.48.823.458.32.458.366-.457 1.28-.754.731-1.028.891-1.348.686-.32-.183-.526-.092-.983.434-.595.686-1.212.777-2.286.297-.503-.205-1.898.938-1.898 1.578 0 .685.709 1.646 1.235 1.646.32 0 .457.182.457.594 0 .32.114.869.274 1.211.229.503.434.595.983.55.412-.047.823-.252.96-.458.32-.503.046-1.555-.548-2.149-.572-.549-.618-.754-.138-.571.206.091.55-.183.892-.663.434-.618.709-.778 1.212-.732.48.069.731-.068 1.051-.64.366-.594.572-.709 1.28-.663.823.046.869 0 .938-.846.114-1.257-.732-2.834-1.51-2.834-.434 0-.594.137-.594.457zm-4.32 5.052c0 .526-.389.617-.937.274-.435-.274-.138-.754.457-.754.32 0 .48.183.48.48zm.96 2.652c0 .137-.114.228-.251.228-.138 0-.23-.091-.23-.228 0-.138.092-.252.23-.252.137 0 .251.114.251.252zM201.73 14.52c-.183.068-.297.411-.297.777 0 .663-.64 1.463-1.143 1.463-.16 0-.48.252-.732.572-.228.297-.663.64-.937.731-.297.092-.572.32-.64.503a.57.57 0 0 1-.503.343c-.206 0-.526.343-.732.731-.228.435-.571.71-.868.71-.252 0-.526.182-.617.388-.092.205-.298.297-.572.228-.297-.114-.549.023-.754.412-.183.297-.526.548-.8.548-.298 0-.618.298-.892.823-.549 1.098-.869 1.075-1.257-.045-.366-1.075-.777-1.623-1.235-1.623-.434 0-.434 1.12-.023 1.92.275.526.252.709-.228 1.486-.32.503-.549 1.074-.549 1.28 0 .411-.914 1.303-1.326 1.303-.137 0-.388-.206-.548-.48-.412-.64-.96-.594-1.052.068-.046.298-.251.55-.434.572-.823.046-.937.114-1.097.594-.183.572.457 1.418 1.12 1.418.228 0 .571-.206.731-.458.183-.251.595-.434.937-.434.343 0 .938-.206 1.303-.457.366-.252.915-.412 1.212-.366.549.069 1.555-.937 1.555-1.531 0-.16.274-.48.594-.71.343-.205.709-.64.823-.914.091-.297.388-.525.64-.525.251 0 .549-.252.686-.549.137-.297.388-.549.571-.549.32 0 2.058-1.303 3.635-2.788 1.829-1.692 2.195-2.012 2.332-2.012.091 0 .411-.229.708-.503.549-.526.572-.526.892-.092.183.252.274.618.228.823-.068.229.138.778.458 1.235.685 1.006 1.897 1.28 2.331.503.206-.389.069-.709-.823-1.898-.571-.8-1.165-1.508-1.303-1.6-.137-.091-.251-.366-.251-.594 0-.595-.777-1.44-1.143-1.303zm2.286 4.206c.343.343.366.663.046.663-.115 0-.343-.206-.48-.48-.275-.526-.023-.64.434-.183zm-166.01-2.675c-1.554.32-2.491.96-3.108 2.172-.549 1.029-.549 1.212-.435 5.372.092 3.338.046 4.39-.183 4.664-.182.205-.502 1.028-.731 1.828-.343 1.143-.366 1.578-.16 2.15.411 1.05.96 1.554 1.692 1.554.96 0 1.44-.709 1.714-2.606.16-.937.343-1.715.434-1.715.092 0 .618.389 1.143.846 1.166 1.006 1.783 1.052 2.88.229.595-.458 1.03-.595 1.692-.549.983.091 2.606-.389 3.224-.937.228-.183.503-.275.64-.206.503.32 2.4-.663 3.84-2.012 1.646-1.554 2.195-1.76 2.195-.891 0 .663.617 1.6 1.051 1.6.458 0 1.052-.731 1.143-1.44.092-.595.115-.595 3.064-.709 1.851-.068 3.017-.228 3.063-.388.183-.526-.64-.846-2.47-.96-1.028-.046-1.92-.16-1.965-.206-.069-.069.046-.32.274-.572.458-.48.526-1.12.16-1.349-.411-.251-1.828.39-2.057.915-.366.823-.983.777-1.143-.069-.229-1.12-.914-.96-1.669.412-.686 1.257-2.24 3.177-2.583 3.177-.137 0-.229-.274-.229-.594 0-.869-.754-1.189-1.76-.754-.869.365-1.829 1.691-1.829 2.514 0 .595-.891 1.235-1.851 1.303-.663.046-.686 0-.686-1.029 0-.8-.092-1.074-.343-1.074-.206 0-.617.48-.937 1.074-.64 1.258-1.44 2.15-1.875 2.15-.16 0-.526-.412-.777-.915-.663-1.303-1.829-2.24-2.537-2.057-.8.205-.983-.275-1.326-3.407-.275-2.514-.275-2.697.205-3.611.595-1.166.823-1.372 2.195-1.875 2.857-1.052 4.229-1.029 5.098.137.937 1.257-.412 3.612-1.875 3.246-1.92-.48-1.829-.48-1.737.115.046.32.388.731.846 1.005.685.389.823.412 1.6.092.914-.389 2.126-1.898 2.56-3.178.32-1.006.023-1.623-1.371-2.674-.71-.526-1.143-.663-2.172-.686-.686-.023-1.349-.092-1.417-.183a.494.494 0 0 0-.32-.137c-.07.023-.595.114-1.166.228zm9.602 10.836c-.16.16-.366.206-.457.114-.092-.114-.023-.274.183-.411.434-.274.64-.069.274.297zm131.72-8.687c-.39.389-.48.778-.435 1.646.046 1.235-.114 1.715-.617 1.715-.183 0-.8.274-1.372.594-.572.32-1.143.594-1.257.594-.115 0-.16-.548-.092-1.257.137-1.509.046-1.852-.526-1.852-.502 0-.754.755-.571 1.715.206 1.006-.091 1.874-.777 2.172-.823.388-.663 1.028.251 1.051.663 0 .732.092 1.006 1.28.32 1.463 1.097 2.47 1.555 2.012.205-.206.182-.686-.115-1.92-.503-2.058-.503-2.24.046-2.24.251 0 .64-.206.869-.458.228-.251.548-.411.708-.343.183.069.618-.137 1.006-.434.389-.297.915-.686 1.166-.823.274-.16.457-.48.434-.731-.023-.229.046-.8.16-1.235.252-.891-.091-1.966-.617-1.966-.183 0-.549.229-.823.48zm-88.675 1.898c-.708.297-2.514 2.309-2.88 3.223-.16.411-.366 1.623-.457 2.675-.137 1.714-.092 2.034.388 2.857.686 1.189 1.92 1.829 3.795 2.012 1.326.114 1.417.16 1.28.64-.366 1.12-1.806 2.56-6.972 6.95-5.51 4.686-11.27 8.64-14.242 9.783-2.629 1.006-4.686 1.646-5.28 1.646h-.595v-2.949c-.023-2.88-.023-2.949-.823-4.366-1.074-1.897-1.577-2.446-2.972-3.132-1.394-.708-3.04-.777-4.252-.183-1.554.778-.8 1.67.8.915.618-.297 1.03-.343 1.806-.16.983.228 3.155 1.76 3.155 2.217 0 .114.297.686.64 1.235.595.937.64 1.234.64 3.337 0 1.989-.068 2.4-.548 3.063-.663.938-1.6 1.35-3.544 1.532-1.486.16-1.508.16-1.508-.411 0-.32.251-.892.548-1.258.869-1.051 1.555-3.132 1.692-5.098.137-1.805-.069-2.674-.663-2.674-.412 0-.617.846-.732 3.109-.137 2.194-.548 3.543-1.12 3.703-.251.069-.503.023-.571-.114-.092-.114-.48-.389-.869-.595-.663-.342-.777-.342-1.189.046-.845.777-.503 1.898.869 2.743.457.275.846.595.846.686-.023.549-.8 1.075-2.058 1.349-.8.183-1.874.457-2.4.617-.526.137-1.326.343-1.783.457-1.212.298-3.932 1.075-5.898 1.692-.914.297-2.149.617-2.697.709-.572.091-1.166.297-1.326.457-.137.16-.549.274-.915.274-.342 0-1.097.16-1.645.366-.55.183-2.104.617-3.452.96a81.62 81.62 0 0 0-4.23 1.212c-4.389 1.44-5.463 1.783-6.377 2.011-.526.115-1.418.389-1.966.595-.572.205-1.555.411-2.195.457-.64.046-1.669.32-2.24.594-.595.297-1.28.526-1.555.526-.777 0-2.057.617-2.674 1.28-.48.503-.778.595-1.806.595-1.555-.023-3.27.434-3.27.868-.022.572.732 1.143 1.28 1.006.275-.091 1.258-.251 2.15-.389.983-.137 1.897-.434 2.263-.731.32-.252.777-.48.983-.48.206 0 .937-.206 1.6-.457a53.937 53.937 0 0 1 3.36-1.098c1.19-.365 2.264-.754 2.378-.868.137-.115.411-.206.617-.206.229 0 1.692-.412 3.246-.937 1.578-.503 4.07-1.28 5.51-1.692 1.463-.434 3.086-.914 3.611-1.097 4.504-1.44 11.933-3.59 17.877-5.167 4.39-1.143 4.435-1.165 4.846-.708.297.365.686.48 1.555.48 1.257 0 1.989-.366 3.177-1.623.526-.549 1.189-.892 2.126-1.143.755-.206 2.446-.686 3.772-1.075 4.686-1.371 5.852-1.691 6.287-1.691.251 0 .571-.092.685-.206.138-.137.778-.32 1.44-.457.664-.137 2.858-.686 4.916-1.235 4.457-1.211 4.046-1.097 6.126-1.554.914-.206 3.178-.755 5.006-1.212 3.315-.846 4.961-1.051 4.961-.617 0 .114-.32.457-.686.777-.388.32-1.646 1.646-2.789 2.972-3.429 3.886-3.954 4.458-5.966 6.515-1.075 1.12-2.103 1.989-2.378 1.989-.594 0-1.6-1.074-2.674-2.835-1.28-2.103-1.715-2.126-2.56-.205-.71 1.6-.183 2.286.685.868l.457-.731 1.372 1.806c.754 1.006 1.326 2.011 1.28 2.217-.046.229-.686.846-1.463 1.372-1.6 1.143-2.172 1.897-1.966 2.537.092.274-.023.572-.297.777-.229.16-.846.823-1.349 1.463-.503.618-1.028 1.075-1.143.983-.137-.068-.388 0-.594.16-.549.458-.617.16-.252-.983.183-.594.572-1.76.846-2.583.48-1.44.48-1.966.046-1.966-.457 0-2.172 4.458-2.172 5.692-.023 2.218-6.766-2.926-10.378-7.886-1.166-1.6-2.035-2.378-2.698-2.378-.594 0-.457 1.12.183 1.6.32.252 1.83 1.852 3.36 3.567 1.51 1.714 3.453 3.726 4.298 4.435 1.92 1.668 2.79 2.697 2.4 2.834-.342.114-.41.915-.09 1.12.114.069.548.023.96-.114.662-.251.868-.183 2.011.572.686.48 1.394 1.051 1.532 1.303.16.251 1.463 1.417 2.88 2.583 1.44 1.166 2.743 2.24 2.903 2.377.389.343-.091 1.806-.914 2.72-1.395 1.51-4.732 4.458-5.738 5.053-.594.342-1.509.983-2.035 1.417-.502.434-1.074.8-1.234.777-.183 0-.503.343-.709.754-.525 1.03-.32 1.966 1.12 4.824.64 1.303 1.44 3.017 1.76 3.863.298.823 1.372 3.155 2.378 5.212 1.486 3.04 1.737 3.772 1.486 4.047-.457.457-3.269.457-5.76-.046-1.19-.229-2.538-.48-2.995-.526-.48-.068-1.075-.183-1.35-.229-.548-.114-10.126-.8-14.15-1.005-3.977-.206-5.303-.206-10.79-.023-5.257.183-14.264-.206-14.973-.64-.16-.092-.251-.343-.183-.526.069-.183.023-.617-.114-.96-.206-.595-.297-.617-1.303-.48-.594.068-1.326.205-1.623.274-.366.069-.777-.091-1.326-.549l-.8-.685.549-1.12c.708-1.464.457-2.447-.64-2.447-.686 0-.709.069-1.143 1.784-.229 1.005-.366 2.126-.298 2.537.092.48-.045.983-.365 1.532l-.503.8-3.406-.137c-3.818-.16-5.487-.343-6.333-.663-.32-.115-1.097-.206-1.737-.206-1.6 0-3.612-.434-4.092-.846-.297-.274-.823-.343-2.24-.251-1.006.045-1.898 0-1.966-.138-.069-.114-.366-.228-.663-.228-.274 0-.8-.274-1.189-.64l-.663-.64-.48.525c-.731.755-.686 2.904.069 3.612.754.686.96.64.777-.16l-.137-.663 1.737.183c.96.092 1.966.16 2.195.183.388 0 .434.137.32.823-.16 1.075.32 1.852.891 1.372.206-.183.389-.64.389-1.006 0-.389.114-.709.251-.709.298 0 .298 1.829-.022 2.423-.138.252-.709.732-1.258 1.052-.571.343-1.303.891-1.623 1.234-.548.572-.548.64-.205 1.258.182.365.754.868 1.257 1.12 1.349.731 2.354 2.857 2.263 4.869-.046 1.166.023 1.577.366 1.897.434.435.457.412 1.051-.274.549-.663.572-.846.435-2.4-.069-.938-.16-2.012-.16-2.4-.046-1.052.503-2.287.983-2.287.228 0 .594-.32.823-.731.228-.389.617-.709.868-.709.229 0 .572-.16.732-.366.16-.182.64-.365 1.051-.365.412 0 1.143-.137 1.6-.32.48-.16 1.258-.252 1.738-.206.914.114 2.332-.64 2.332-1.234 0-.778.823-1.052 3.246-1.12 5.258-.138 37.97.137 43.09.365 3.087.137 7.019.663 8.482 1.12a6.493 6.493 0 0 0 1.509.206c.457 0 1.211.16 1.668.366.48.183 1.326.343 1.898.343.571.023 3.383.343 6.286.731 4.412.595 6.287.732 11.842.846 3.612.069 7.612.16 8.87.206 9.875.434 19.019.64 25.328.548 6.95-.091 21.946-.754 23.043-1.005.275-.046 2.926-.16 5.898-.252 2.949-.068 6.127-.228 7.064-.343 2.743-.32 19.042-.457 26.152-.228 3.04.114 3.131.091 3.2-.412.046-.297-.091-.571-.343-.663-.526-.183-13.807-.206-14.333 0-.526.206-.503-.023.069-.617.708-.686.822-1.463.48-3.383-.298-1.783-.823-2.606-1.623-2.606-.732-.023-2.4 1.348-2.88 2.331-.824 1.6-.847 2.492-.16 3.52l.616.892-2.629-.068c-1.463-.046-2.72 0-2.788.068-.092.092-.458.069-.823-.023-.366-.114-.846-.091-1.052.023-.229.115-2.697.275-5.51.343-2.811.046-6.08.16-7.269.229-1.188.068-3.132.16-4.32.228-1.189.069-2.812.183-3.59.252-.8.068-2.468.183-3.725.229-1.258.068-3.75.182-5.51.274-3.863.206-21.1.228-25.694.046-3.132-.138-4.344-.366-4.664-.892-.251-.389-1.371-.32-1.874.137-.458.434-1.578.457-5.83.206-1.051-.046-4.023-.16-6.583-.229-6.378-.183-10.63-.685-12.916-1.508-.823-.298-1.006-.48-1.006-.983 0-.32-.412-1.303-.892-2.172-2.171-3.863-3.52-6.721-4.16-8.756-.114-.388-.594-1.463-1.052-2.4-1.348-2.766-1.394-2.949-.96-3.84.229-.48 1.006-1.212 1.989-1.898.892-.617 2.583-1.988 3.772-3.086a147.856 147.856 0 0 1 3.566-3.154c.8-.663 1.646-1.51 1.897-1.898.39-.617.412-.754.07-1.234-.572-.846-1.921-2.15-2.904-2.812-1.006-.663-1.303-.914-2.583-2.309a43.758 43.758 0 0 0-1.463-1.463c-.32-.297-.64-.754-.709-1.029-.16-.617.914-1.851 1.783-2.057.572-.137.709-.069.914.48.435 1.143.503 1.12 4.915-.526 1.052-.411 2.424-.96 3.018-1.234.571-.275 1.463-.503 1.92-.503.48 0 .983-.137 1.143-.274.137-.16.686-.435 1.189-.595.8-.297.937-.274 1.189.069.182.228.32.868.32 1.44 0 .594.137 1.166.365 1.372.526.525 1.943.48 2.88-.092 1.624-1.029 6.79-2.332 7.727-1.989.8.297 1.052.755.892 1.509-.274 1.303.8 1.829 2.446 1.189 1.417-.549 6.538-1.555 9.807-1.92 1.189-.115 3.177-.39 4.435-.572 1.257-.206 4.069-.64 6.24-.96 4.001-.617 6.104-1.006 7.201-1.326.755-.206.846-1.12.115-1.029-.595.092-6.835 1.189-9.35 1.67-1.052.182-2.332.342-2.835.342-.48-.023-.891.091-.891.229 0 .137-.206.182-.457.091-.275-.069-.892-.023-1.395.114-.503.115-2.103.343-3.543.48-1.463.138-3.086.412-3.612.595-.526.205-1.395.366-1.92.366-.549 0-1.075.114-1.212.228-.206.206-1.303.343-2.423.297-.366-.023-.594-.274-.8-.868-.32-1.006-1.257-1.578-2.56-1.555-1.006 0-3.84.503-5.007.915-.388.137-1.097.297-1.577.388-.48.069-1.212.457-1.669.846-1.166 1.052-1.532.526-1.463-1.966.023-1.303 0-1.394-.663-1.737-.594-.298-.731-.32-.96-.046-.16.183-.64.411-1.097.503-.458.068-.96.274-1.143.457-.16.16-.846.389-1.486.457-.64.092-1.303.297-1.486.435-.297.251-5.304 1.417-6.035 1.417-.64 0-.023-.457 1.211-.914 1.44-.55 3.932-1.692 7.796-3.567 1.486-.708 2.926-1.303 3.223-1.303 1.989.069 2.103.023 4.138-1.783.685-.594 6.035-3.474 6.492-3.474.068 0 1.737-.778 3.68-1.715s4.184-1.989 4.96-2.355c3.064-1.394 6.013-2.651 6.196-2.651.297 0 .183 1.257-.206 2.286-.274.731-.32 1.143-.114 1.623.32.846 1.029.846 3.269.068 6.104-2.148 8.87-3.017 10.538-3.36 1.052-.229 2.24-.572 2.606-.754.755-.39 2.332-.458 2.332-.115 0 .115-.526.457-1.143.755-.64.297-1.989 1.028-3.017 1.623-1.875 1.12-2.172 1.554-1.623 2.423.297.48 5.326.617 7.932.228a145.77 145.77 0 0 1 2.88-.365c2.584-.252 5.235-.663 6.15-.96.548-.16 1.417-.298 1.92-.298.96.023 4.343-.548 5.92-1.005 1.258-.366 1.235-1.052-.022-.846-.503.091-1.303.205-1.738.251-.457.046-1.623.206-2.56.343-.96.137-2.537.366-3.497.503-.938.114-2.012.297-2.332.389-.32.068-1.417.228-2.4.343-.983.091-2.08.251-2.4.297-1.624.343-6.013.823-6.927.8-.732-.046-1.166-.206-1.395-.526-.32-.411-.274-.503.32-1.006.389-.297.755-.526.869-.526.091 0 .983-.388 1.966-.845.96-.458 1.852-.846 1.966-.846.228 0 1.051-1.349 1.051-1.692 0-.366-1.851-.251-4 .252-1.097.274-2.949.708-4.115.983-2.263.525-4.732 1.325-8.664 2.834-3.406 1.303-3.543 1.212-2.583-1.783.434-1.303.686-1.737 1.189-1.989.663-.32 1.074-.891.823-1.143-.092-.091-.709.115-1.418.435-2.08.937-2.857 1.211-2.971 1.097-.069-.069.8-.549 1.92-1.052 1.12-.525 2.034-1.074 2.034-1.257.023-.434-.548-.251-4.069 1.44-4.389 2.126-7.2 3.43-8.16 3.795-.458.183-2.218 1.029-3.91 1.852-3.223 1.6-6.424 2.903-7.91 3.177-.525.115-1.668.046-2.743-.137-3.291-.594-3.886-.617-4.617-.251-.389.182-.755.297-.823.228-.137-.114 2.606-3.612 3.634-4.663a36.864 36.864 0 0 0 1.6-1.76c2.24-2.584 3.91-4.207 4.275-4.207.23 0 .618.412.892.983.274.526.64 1.006.823 1.075.343.137 2.537-1.12 4.23-2.423 2.125-1.67 2.97-1.92 12.824-3.841.937-.183 2.766-.549 4.091-.823 1.326-.274 2.95-.617 3.635-.731.686-.115 1.646-.32 2.15-.458a162.25 162.25 0 0 1 2.377-.503c.777-.16 2.034-.411 2.766-.594a51.694 51.694 0 0 1 2.88-.617c.846-.137 2.08-.412 2.743-.595 1.6-.457 6.652-1.485 8.23-1.668 1.28-.183 1.714-.686.868-1.006-.365-.137-3.269.32-5.486.869-.846.205-1.829.434-5.532 1.257-.526.114-1.555.297-2.263.434-.732.114-1.76.32-2.286.435-.526.137-1.83.457-2.88.731-1.052.252-2.424.549-2.995.617-.595.092-1.898.366-2.88.617-1.006.252-2.79.618-3.978.846-1.189.206-2.812.526-3.612.732-.8.183-1.646.343-1.898.343-.251 0-1.371.274-2.468.617-1.12.343-2.126.571-2.264.526-.274-.092 1.326-1.349 5.19-4.092 5.783-4.07 7.978-5.464 8.664-5.464.365 0 .868-.16 1.12-.388.503-.458.868-.252.457.251-.229.274-.206.503.091 1.097.206.412.549.823.732.892.457.183 3.109-.526 4.435-1.166.594-.274 1.303-.594 1.554-.686a348.652 348.652 0 0 0 8.047-3.109c2.355-.96 2.926-1.166 5.052-1.92.457-.16 2.72-.823 5.03-1.463 2.308-.64 4.663-1.303 5.211-1.463.755-.206 1.029-.411 1.029-.754s-.137-.435-.549-.343c-1.646.365-6.309 1.668-7.84 2.194-1.006.343-1.944.617-2.127.617-.388.023-5.783 2.104-8.458 3.27-2.217.982-5.258 2.125-6.95 2.606-.594.16-1.417.48-1.85.708-1.373.709-1.853.549-2.241-.731-.206-.618-.526-1.235-.755-1.372-.548-.343-2.72.412-3.52 1.234-.366.366-1.554 1.19-2.629 1.852-1.92 1.166-4.435 2.95-6.88 4.87a34.403 34.403 0 0 1-2.172 1.554c-.526.32-1.12.777-1.303 1.006-.526.64-1.646 1.166-3.498 1.646-.914.228-2.057.525-2.515.663-1.188.297-1.714.09-1.531-.618.228-.937-.686-.754-1.463.275-.778 1.005-1.92 1.531-4.687 2.126-1.12.228-3.52.8-5.303 1.234-1.806.457-3.475.8-3.703.8-.252 0-.983.16-1.646.366-.686.183-2.195.571-3.36.869-1.19.274-2.333.594-2.538.685-.457.252-3.498 1.006-4.458 1.143l-.709.092.526-.435c.274-.228.869-.685 1.326-.983 6.675-4.709 13.579-10.79 16.185-14.31.594-.777 1.486-1.737 1.989-2.103 1.166-.846 1.486-1.372 2.149-3.338.457-1.394.48-1.737.251-2.674-.366-1.418-1.92-3.223-3.063-3.543-1.052-.275-3.795-.298-4.48-.023zm5.555 1.988c1.829 1.075 1.646 4.458-.274 5.373-.869.411-.869.411-1.532-.229-.754-.709-1.188-.777-1.851-.274-.618.457-1.075.434-1.692-.069-.663-.549-1.052-1.303-1.052-2.012 0-.32-.114-.708-.274-.845-.206-.206-.183-.366.114-.663.206-.206.572-.64.846-.983.846-1.075 4.115-1.235 5.715-.298zm-2.56 5.715c0 .138-.229.23-.503.23s-.412-.092-.343-.23c.091-.137.32-.251.503-.251s.343.114.343.251zm-3.383.55c.32-.092.343-.07.022.136-.548.412-1.211.343-1.051-.091.114-.252.228-.297.389-.16.137.137.411.183.64.114zm3.337.868c-.091.434-2.354.708-2.354.297 0-.389.617-.64 1.554-.663.663 0 .846.069.8.366zm13.259 12.207c-.457.366-1.234.914-1.737 1.212l-.915.548-.251-.64c-.137-.366-.183-.708-.115-.777.069-.069.138.023.138.206 0 .205.137.137.365-.183.183-.297.48-.48.64-.412.16.046.732-.068 1.258-.251 1.417-.503 1.554-.434.617.297zm13.442 3.886c0 .137-.138.252-.275.252s-.183-.115-.091-.252c.068-.114.183-.228.251-.228.046 0 .115.114.115.228zm-6.378 2.88a.497.497 0 0 1-.389.252c-.137 0-.16-.114-.091-.251.091-.115.251-.229.388-.229s.183.114.092.229zm-5.35 2.56c-.297.207-.662.321-.822.252-.183-.068-.046-.205.297-.365.891-.366 1.143-.32.525.114zm-45.948 1.67c-.092.091-.297.091-.457.023-.206-.069-.137-.138.137-.138.251-.022.388.046.32.115zm40.142.937c0 .16-1.829 1.074-2.149 1.074-.548 0-.206-.434.64-.777.938-.388 1.509-.503 1.509-.297zm-5.212.549c1.006.205 1.852.503 1.852.64 0 .32-1.143.846-1.83.846-.296 0-.708.228-.89.525-.344.48-1.44 1.166-1.875 1.166-.115 0-1.075.412-2.126.937-1.052.503-2.378 1.006-2.972 1.098-.594.068-1.189.297-1.349.503-.16.182-.388.274-.48.228-.114-.068-.503.046-.869.229-.8.411-1.531.48-1.531.114 0-.114.114-.228.251-.228.115 0 .229-.206.229-.48 0-.595 1.189-1.715 1.669-1.555.503.137.777-.091 1.28-1.166.228-.503.526-.846.64-.777.229.16.594-.274.617-.709 0-.114.206-.274.48-.32.252-.046.663-.297.892-.548.457-.458.983-.64 2.354-.732.458-.046 1.052-.091 1.303-.137.275-.023 1.326.137 2.355.366zm11.133 10.424c-.069.183-.137.137-.137-.137-.023-.252.045-.412.114-.32.091.068.091.274.023.457zm72.192 36.187c.48 0 1.051.777.685.915-.457.137-.365.937.115 1.12.366.16.366.228-.16.64-.778.64-1.83.594-2.56-.137-.618-.618-.618-1.486.045-2.812.434-.869.869-.96 1.235-.275.182.298.457.55.64.55zm-168.844 1.417c0 .252-.732.595-.892.412-.068-.046-.046-.229.046-.366.183-.297.846-.343.846-.046zm-4.412 3.704c-.092.297-.229.891-.32 1.303-.069.434-.206.777-.275.777-.091 0-.594-.274-1.097-.617l-.937-.64.686-.549c.617-.503.983-.64 1.874-.8.114 0 .137.229.069.526zm204.848-84.194c-1.897 1.143-2.263 1.532-2.034 2.126.251.64 1.028.435 2.217-.548.617-.503 1.372-1.052 1.692-1.212.548-.297.663-1.211.16-1.371-.137-.046-1.052.411-2.035 1.005z"/>
	<path d="M171.44 21.995c-.137.274-.182.686-.114.892.092.251-.068.845-.411 1.463-.458.868-.64 1.005-1.098.891-.388-.091-.594 0-.708.252-.092.274-.297.343-.595.251-.343-.091-.525.023-.685.457-.32.869-.71 1.006-1.12.435-.48-.686-1.19-.32-1.418.685-.137.64-1.097 1.67-1.577 1.67-.092 0-.023-.32.183-.71.457-.937.274-1.44-.526-1.44-.434 0-.663.183-.846.663-.503 1.418-.983 1.806-1.143.892-.137-.709-1.257-1.806-1.897-1.806-.389 0-.595-.16-.686-.594-.183-.686-.754-1.075-1.623-1.075-1.235 0-2.56 3.018-2.56 5.76 0 1.258.137 1.875.662 2.904.686 1.326 1.235 1.692 1.875 1.166.297-.252.366-.823.32-2.72-.023-2.104.023-2.424.343-2.355.206.023.526-.229.731-.617.595-1.166 1.006-1.372 1.578-.8.731.731.617 1.097-.595 1.851-1.143.732-1.371 1.35-.64 1.76.526.275.96.023 2.286-1.325.778-.778.983-.869 1.715-.709.8.137 2.926-.389 3.246-.8.297-.412 1.92-1.486 2.24-1.486.595 0 2.492-1.166 2.903-1.806.229-.32.595-.571.8-.526.366.046.412-.137.343-1.508-.091-1.738-.548-2.538-.983-1.715zM157.84 26.75c.114.571.068.96-.115 1.143-.205.206-.251.137-.137-.229.137-.457.092-.503-.434-.411-.457.091-.617.023-.617-.274 0-.206.16-.39.366-.39.182 0 .365-.16.365-.342 0-.709.412-.343.572.503zm-1.395 3.269c-.045.16-.114.023-.114-.297s.069-.457.114-.297a.884.884 0 0 1 0 .594zm.275 1.966c.114 1.074.114 1.097-.458.891-.434-.182-.548-.388-.525-.96.091-1.897.754-1.851.983.069zm118.872-3.726c0 .297.937.594 1.143.388.182-.183-.412-.594-.846-.594-.16 0-.297.091-.297.206zm-107.58 7.155c-.32.366-1.28 1.577-2.08 2.674-1.234 1.67-1.486 2.15-1.531 3.04-.046 1.098.297 1.738.754 1.441.137-.091.274-.549.274-1.052 0-.982 1.486-3.474 3.04-5.12.55-.549.8-1.029.71-1.257-.206-.526-.458-.48-1.167.274zm27.638 1.189c-1.029.708-1.669 1.531-1.669 2.126 0 .823.206.754 1.212-.412.846-.983.914-1.006 1.486-.709.686.366 1.143.206 1.143-.411 0-.983-1.143-1.303-2.172-.594z"/>
	<path d="M181.75 37.06c-.457.206-1.188.777-1.623 1.303-.777.891-.868.937-1.851.8-.892-.114-1.075-.069-1.51.503l-.502.64-.663-.617c-.366-.343-.709-.618-.8-.64-1.783-.366-3.246-.298-4.458.251-2.057.937-2.949 1.646-3.109 2.538-.091.48-.457 1.074-.868 1.417-.39.32-.71.709-.71.846 0 .548.55.525 1.167-.046.983-.937 2.926-2.286 4.046-2.835.686-.32 1.029-.64 1.029-.937 0-.526.64-.594 2.034-.251.595.16.64.205.183.228-.297 0-.617.183-.686.366-.068.183-.48.389-.937.48-.914.183-2.4 1.554-3.52 3.292-.412.663-.892 1.143-1.03 1.097-.136-.068-.456-.023-.73.069-.252.091-.664.068-.915-.046-.274-.16-.549-.137-.754.046-.48.388-.8.114-1.075-.915-.343-1.257-.617-1.577-1.097-1.394-.686.251-.252 1.371 1.006 2.652 1.097 1.097 1.211 1.143 2.171 1.005.778-.114 1.258-.022 1.99.366.525.275 1.394.549 1.92.617.731.092.96.229.96.595 0 1.166 1.988 4.023 2.789 4.023.182 0 .342.092.342.206 0 .251-1.097.754-1.577.754-.206 0-.343.137-.343.275 0 .525 1.76.045 3.383-.892 1.12-.64 1.83-1.257 2.446-2.149.595-.846 1.075-1.28 1.555-1.371 1.212-.252 1.783-.915 1.897-2.286.115-1.098.206-1.258.663-1.258.275 0 1.052-.16 1.715-.388 2.011-.663 2.972-1.898 2.972-3.795 0-1.989-.96-3.59-2.698-4.48-1.051-.526-1.692-.55-2.812-.07zm2.812 1.44l.663.457-1.303.16c-.709.092-1.875.457-2.583.823-.709.343-1.349.595-1.44.503-.206-.206.823-1.76 1.44-2.217.663-.48 2.309-.343 3.223.274zm.594 1.852c.503.823-.068 2.834-1.12 3.886-.434.434-.846.594-1.531.594-1.189 0-1.692-.388-1.966-1.554-.412-1.76-.366-1.898 1.143-2.583.754-.343 1.531-.686 1.737-.755.503-.16 1.509.092 1.737.412zm-6.72 1.668l-.503.48-.366-.731c-.503-.96-.48-1.097.16-1.372.457-.205.571-.137.869.435.297.617.297.731-.16 1.188zm-8.093-1.508c-.114.205-1.509.96-1.737.96-.32 0 .32-.526.96-.823.96-.412.937-.412.777-.137zm3.955 1.76c.434-.114.457-.069.183.434-.16.32-.777 1.166-1.349 1.898-.571.708-1.143 1.554-1.257 1.874-.183.457-.366.549-.983.48-1.029-.091-1.738-1.074-1.418-1.92.526-1.417 3.75-3.68 4.161-2.949.091.16.389.251.663.183zm11.773 1.006c0 .045-.114.16-.252.251-.137.069-.228.023-.228-.114s.091-.252.228-.252c.138 0 .252.046.252.115zm-6.698 3.612c-.229.937-.229.937-.252-.503-.022-.8.069-1.555.16-1.646.275-.297.343 1.074.092 2.149zm-5.075-1.555c0 .457-.594.915-.869.64-.16-.16.435-1.143.686-1.143.092 0 .183.229.183.503zm4.046 1.692c.046 1.28-.091 1.486-.731 1.143-.503-.252-.48-.777.114-2.606.251-.823.274-.823.434-.252.092.343.183 1.098.183 1.715zm-2.514-.137c.045 1.44 0 1.646-.526 2.057-.732.571-1.189.571-1.76.069-.618-.55-.572-1.395.091-1.738.297-.16.869-.731 1.257-1.234.366-.526.732-.915.778-.869.068.069.114.823.16 1.715zm5.166.297c.023.686-.457 1.257-1.052 1.257-.228 0 .115-1.92.412-2.515.251-.48.251-.48.434 0 .114.252.206.823.206 1.258zm-3.703 1.783c.754.343.754.571-.046 1.829-.617.96-.709 1.005-1.692.937-.731-.046-1.28-.274-1.874-.754-.457-.39-.823-.778-.823-.892 0-.091.571-.114 1.28-.046 1.234.137 1.326.115 1.852-.617.64-.869.525-.823 1.303-.457zm23.523-11.75c-.412.297-1.143.983-1.624 1.531-.502.55-1.165 1.075-1.485 1.143-.412.115-.686.458-.983 1.28-.229.64-.618 1.418-.823 1.738-1.235 1.874-2.263 4.252-1.92 4.458.342.205.297.411-.39 1.166-.32.365-.96.777-1.417.868l-.845.183.16-1.486c.114-1.189.068-1.531-.229-1.783-.983-.823-2.72.777-2.446 2.24.069.412.389.938.686 1.212.526.434.571.663.594 2.629.023 2.469.412 3.726 1.349 4.16.549.252.64.206.937-.388.503-.983.663-1.92.389-2.08-.137-.092-.366.16-.503.571-.457 1.303-1.029.8-1.052-.937a17.484 17.484 0 0 0-.091-1.326c-.046-.137-.069-.572-.046-.983.023-.64.137-.777 1.052-1.052 1.257-.411 1.714-.777 2.697-2.24l.777-1.143-.114 1.052c-.091.731-.023 1.12.183 1.257.503.32 1.189-.777 1.189-1.897 0-1.35.274-1.715.937-1.372.389.206.503.503.503 1.257 0 .777.069.937.411.892.229-.046.48-.343.55-.686.09-.434.342-.617.936-.754.435-.092 1.12-.39 1.51-.686.388-.275.753-.48.8-.435.068.069-1.075 1.143-2.538 2.446-2.4 2.126-2.63 2.4-2.63 3.155 0 .823-.205 1.12-1.485 2.195-.16.137-.823.823-1.463 1.531-.937 1.029-1.143 1.395-1.075 1.99.046.502.206.776.48.845.343.046.435-.091.435-.754s.206-1.03 1.12-1.944c1.715-1.668 3.658-3.269 3.932-3.269.32 0 2.377-1.417 2.377-1.623 0-.091-.114-.342-.228-.525-.183-.298-.297-.298-.846-.023-.32.183-.686.251-.777.16-.183-.183 1.303-1.6 4.252-4.07 3.246-2.72 4.777-4.251 4.64-4.617-.205-.503-.617-.411-1.669.366-.502.388-1.051.731-1.211.731-.137 0-.412.183-.594.389-.275.343-1.258 1.051-2.584 1.897-.205.137-.685.435-1.051.686-.366.252-.732.389-.8.32-.137-.137 4.023-4.778 5.12-5.738 1.555-1.303 1.99-2.354 1.143-2.674-.434-.183-1.554.754-5.212 4.297-1.714 1.67-3.154 2.972-3.2 2.926-.046-.045.549-1.005 1.349-2.126 2.446-3.429 2.88-4.16 2.811-4.777-.091-.823-1.028-.915-1.988-.183zm.457 1.44c-.206.709-1.212 2.309-1.898 3.063-.297.32-.685.892-.868 1.235-.183.343-.686.914-1.12 1.28l-.8.663.16-.686c.365-1.555 1.325-3.155 2.766-4.595 1.6-1.6 2.057-1.829 1.76-.96zm.16 4.846c-1.052 1.258-1.943 2.423-1.943 2.583-.023.183-.115.046-.252-.274-.206-.526-.046-.777 1.738-2.583 1.097-1.097 2.08-1.989 2.194-1.989.114 0-.663 1.029-1.737 2.263zm-10.859 4.595c-.045.366-.205.709-.343.755-.434.137-.64-.8-.32-1.395.366-.663.778-.274.663.64zm8.55 2.355c-.16.388-.823.731-.823.434 0-.251.526-.777.754-.777.115 0 .137.16.069.343zM42.807 40.214c-.548.206-1.394 1.806-1.691 3.27-.275 1.188-.275 1.462.068 1.943.503.8 1.235.983 1.943.525.32-.228 1.075-.388 1.76-.388.64 0 1.486-.115 1.875-.252 1.143-.388 1.715-2.217.914-2.88-.434-.366-.983.023-1.394 1.006-.274.663-.297.686-.983.32-.823-.435-1.394-.297-2.035.503-.251.32-.525.571-.594.571-.366 0-.091-1.509.457-2.537.32-.618.595-1.258.595-1.418 0-.411-.526-.8-.915-.663zm-24.3 1.646c-.16.206-.274.709-.229 1.143.046.412.069 2.103.046 3.75-.023 2.88.069 3.36.732 3.36.091 0 .343-.32.548-.709.389-.754 1.35-1.006 1.692-.457.229.366 2.377.137 2.903-.297.275-.229.937-.297 2.355-.252 1.92.092 1.989.069 2.514-.571.549-.732.526-1.44-.137-2.446-.343-.549-1.6-.755-1.874-.32-.092.137-.526.343-.983.503-.869.274-.869.274-2.218-1.143-1.371-1.418-2.286-2.035-3.886-2.63-1.074-.388-1.097-.388-1.463.07zm3.68 2.698c1.166 1.097.595 1.349-1.211.526-.777-.343-1.006-.595-1.006-1.03 0-.32.069-.64.16-.73.183-.183 1.12.365 2.058 1.234zm1.372 2.606c0 .594-.046.617-1.006.48-.525-.069-1.211-.343-1.486-.617l-.503-.503h1.51c1.44 0 1.485.023 1.485.64zm15.065-4.366c-.617.845-1.029 2.926-.663 3.383.411.48 1.372.434 1.623-.069.114-.228.16-1.211.114-2.171-.114-1.875-.365-2.15-1.074-1.143zm-6.972 1.806c-.8.64-1.03 1.691-.55 2.583.55 1.097 1.761 1.371 2.607.594.251-.228.846-.411 1.326-.411 1.029 0 1.669-.846 1.394-1.875-.114-.503-.297-.663-.823-.663-.365 0-.777.114-.914.252-.343.343-.983.068-1.12-.503-.16-.617-1.12-.595-1.92.023zm222.725.503c-.343.571-.458 1.234-.458 2.651v1.898l-.754-.138c-.526-.114-.914-.022-1.349.298-.32.251-.777.525-1.006.617-.525.183-.571 1.326-.068 1.532.206.068.594-.16.937-.55.457-.525.663-.616.869-.41.297.274-.183 1.92-1.052 3.566-.526.96-.48 1.623.092 2.148.457.412.503.412.937.023.594-.526 1.211-2.354 1.234-3.474 0-.48.183-1.235.412-1.715.343-.663.526-.823 1.006-.754.708.114 2.103-.275 3.794-1.052.71-.32 1.463-.594 1.692-.594.229 0 .549-.115.709-.275.32-.32.434-.114.617 1.35.137.914.549 1.416.937 1.188.206-.137.046-3.155-.228-4.046-.298-1.006-1.646-1.44-2.24-.732-.16.206-.48.709-.71 1.143-.502.937-.89 1.097-1.005.366-.046-.412-.252-.572-.777-.617-.8-.092-1.326.434-1.326 1.303 0 .548-.618.96-.869.548-.069-.114.091-.868.366-1.668.526-1.555.617-2.4.251-2.4-.137 0-.228-.138-.228-.32 0-.344-.503-.64-1.052-.64-.16 0-.503.342-.731.753zm-90.572 2.811c-.16.115-.274.595-.274 1.098.023.617-.114 1.051-.457 1.394-.48.48-.526.503-1.143.091-.778-.502-1.76-.342-2.492.435-1.029 1.097.251 2.377 1.966 1.943.571-.137.64-.069.891.869.32 1.143 1.326 2.286 2.24 2.514 1.487.366 1.852-.731.412-1.211-1.486-.503-2.171-2.47-1.303-3.704.229-.297.48-.891.572-1.303.114-.411.251-.914.343-1.12.205-.48-.366-1.257-.755-1.006zm-2.697 3.635c0 .137-.229.251-.48.251-.275 0-.48-.114-.48-.251 0-.114.205-.229.48-.229.251 0 .48.115.48.229zM39.653 49.016c-.663.228-.846.457-.846.891 0 .732.777.869 2.149.389.777-.275.96-.457.96-.915 0-.48-.137-.594-.709-.617-.411-.023-1.097.092-1.554.252zm228.76.365c-.503.503-.983 1.92-.983 2.926 0 1.075-.595 2.15-1.692 3.018-1.006.8-1.052.8-1.234.343-.092-.275-.343-.503-.55-.503-.525 0-1.325.869-1.325 1.417 0 .732-.389.8-.686.115-.274-.595-.32-.595-.731-.252-.229.229-.549.389-.709.389-.137 0-.274.32-.274.708 0 .686-.023.686-1.098.595-.823-.069-1.303.023-1.92.411-.457.274-.823.389-.823.229 0-.137-.183-.252-.434-.252-.686 0-3.04 1.326-3.132 1.76-.091.526.252.503 1.395-.068.96-.503 1.188-.412 1.531.526.229.64.823.503 1.235-.297.434-.823.434-.823 1.097-.412.434.252.549.229.823-.16.206-.251.503-.389.708-.297.412.137 1.852-.412 2.812-1.075.343-.251.869-.457 1.166-.457.32 0 1.143-.594 2.058-1.486l1.531-1.463.617.64c.526.572.663.618 1.143.366.298-.16.595-.274.663-.251.046.023.115-.206.115-.503 0-.412-.138-.549-.595-.549-.548 0-.617-.091-.594-.846.023-.777.366-1.966.869-2.949.251-.48.045-1.76-.298-1.966-.114-.068-.434.092-.685.343z"/>
	<path d="M169.497 50.067c-.205.069-.64.434-1.005.8-.55.572-.618.755-.435 1.532.252 1.074.64 1.554 1.6 1.966.755.32.755.32.64 1.691-.137 1.303-.114 1.372.275 1.006.228-.205.457-.846.548-1.394.092-.777.252-1.075.686-1.235.663-.251.755-.64.16-.754-.274-.046-.526-.549-.8-1.623-.411-1.577-.96-2.24-1.669-1.989zm.709 1.235c.137.251.251.845.251 1.325 0 .686-.091.846-.457.846-.617 0-1.211-.617-1.211-1.211 0-.686.434-1.418.823-1.418.205 0 .457.206.594.458zm-116.769-.229c-.183.617.023.96.64.96.389 0 .457-.114.412-.64-.092-.8-.823-1.029-1.052-.32zm193.304.549c-.228.16-.525.754-.663 1.303-.137.548-.411 1.12-.617 1.28-.183.16-.343.434-.343.617 0 .48-.434.64-.937.32-.366-.251-.572-.206-1.166.206-.983.708-1.463.32-1.554-1.258-.069-1.097-.138-1.211-.686-1.28-.343-.045-.732.069-.869.252-.137.16-.366 1.371-.526 2.674-.251 2.058-.228 2.446.092 2.95.206.297.457.548.594.548.343 0 .755-.914.709-1.623-.069-1.212-.046-1.28.503-.937.366.205.434.457.343.937-.092.343-.023.709.114.8.457.274 1.463-.571 1.623-1.349.091-.503.206-.663.389-.48.663.663 1.851-.206 2.537-1.874.343-.8.617-.938.823-.389.091.206.297.297.526.206.32-.114.366-.366.228-1.372-.205-1.486-.548-1.966-1.12-1.531zm-46.497.388c-.183.32-.137.595.114.96.206.275.526.96.709 1.532.206.549.617 1.554.937 2.217.32.663.64 1.578.732 2.035a8.9 8.9 0 0 0 .64 1.737c.251.503.457 1.006.457 1.143 0 .16.457 1.486 1.029 2.95.594 1.485 1.12 2.902 1.211 3.154.138.366.229.389.503.137.503-.389.457-1.166-.091-2.057-.252-.435-.572-1.12-.709-1.578-.137-.434-.64-1.874-1.12-3.2-.503-1.326-.983-2.835-1.097-3.36-.252-1.28-1.829-5.167-2.31-5.693-.48-.548-.708-.525-1.005.023zm85.954 3.452c-.663.663-.046 2.103.8 1.783.457-.183.457-1.211-.023-1.714-.457-.435-.412-.435-.777-.069zm7.886 1.143c-.137.252-.32.96-.411 1.6-.092.709-.389 1.372-.8 1.83-.572.64-.686.685-1.212.41-.503-.274-.617-.228-1.12.343-.297.343-.549.846-.549 1.075 0 .617-.228.731-.845.457-.435-.206-.64-.183-.938.114-.228.229-.571.32-.777.252-.228-.092-.526.046-.777.343-.252.32-.8.571-1.532.663-1.257.183-1.28.16-.891-1.44.251-1.098.114-1.806-.366-1.806-.206 0-.572.8-1.006 2.217l-.686 2.195-.891.068c-.617.046-.892-.046-.892-.274 0-.617-.548-.686-1.006-.137-.297.388-.594.503-.983.411-.64-.16-.96.023-1.348.777-.229.412-.252.709-.046 1.075.137.274.274.823.32 1.234.091 1.098.892.96 1.303-.251.549-1.578.869-1.738 1.76-.869.435.412.869.754.983.754.092 0 .389-.274.663-.594.64-.823.755-.777.755.412 0 .571.114 1.44.251 1.943.206.731.366.891.777.846.457-.07.549-.252.595-1.372.045-.732-.046-1.6-.183-1.966-.32-.777-.115-1.669.365-1.669.206 0 .366.114.366.229 0 .411.389.274 1.143-.343.389-.343.937-.617 1.212-.617.274 0 .548-.092.617-.206.069-.114.549-.274 1.029-.343 1.508-.183 2.72-.571 3.2-1.006.229-.228.549-.32.709-.228.137.091.434 0 .64-.16.228-.183.891-.32 1.509-.32.937 0 1.097-.07 1.165-.526.046-.343-.16-.686-.685-1.052-.663-.457-.732-.64-.595-1.28.366-1.806.412-2.583.115-2.903-.389-.48-.64-.457-.938.114zm-128.93.297c-.434.297-.96.846-1.166 1.212-.343.594-.343.709 0 1.303.206.366.663.823 1.029.983.48.228.64.434.526.731a4.821 4.821 0 0 0-.252.869c-.068.274-.228 1.006-.389 1.646-.32 1.44-.16 3.658.366 4.686.526.983 1.418 1.212 2.263.572.846-.617 1.235-1.829 1.51-4.595.113-1.235.25-2.309.296-2.355.046-.045.275 1.189.503 2.744.389 2.651 1.966 7.978 2.515 8.55.137.113.411.16.64.068.434-.16.434-.229-.206-3.27-.228-.982-.548-2.765-.754-3.954-.206-1.189-.595-2.766-.892-3.498-.274-.708-.64-1.691-.823-2.148-.251-.686-.343-.755-.48-.412-.091.229-.091.503-.023.572.183.182-.274.8-.571.8-.114 0-.252-.297-.343-.686-.114-.572 0-.823.709-1.532.457-.48.845-1.028.845-1.234 0-.617-.434-.457-.845.32-.435.846-1.075.983-1.075.206 0-.618-1.486-2.126-2.103-2.126-.251 0-.823.251-1.28.548zm1.943.938c.8.594.914 1.28.32 1.92-.366.411-.366.434.092.434.708 0 .845 1.052.571 4.435-.183 2.08-.343 2.949-.64 3.292-.617.663-1.006.548-1.44-.457-.48-1.098-.366-4.07.183-4.915.205-.297.434-1.006.525-1.555.16-1.028.138-1.028-.571-1.028-.663 0-1.669-.686-1.669-1.143 0-.48 1.166-1.464 1.738-1.486.114 0 .502.228.891.503zm4.252 9.235c.183 1.234-.183.869-.411-.389-.115-.617-.092-.914.045-.777.115.114.275.64.366 1.166zm14.539-9.441c-.114.297-.183.96-.114 1.463.091.731.023.914-.229.823-1.897-.709-2.126-.755-2.4-.48-.206.205-.229.434-.023.846.206.457.503.594 1.372.708.594.069 1.28.275 1.508.48.229.206.709.435 1.052.526.891.229 1.143-.32.434-.891-.503-.412-.594-.732-.663-2.24-.091-1.852-.457-2.31-.937-1.235z"/>
	<path d="M170.343 58.754c-.091.137-.046.434.069.64.16.274.274.297.388.114.275-.434 1.578.389 2.95 1.875 1.097 1.166 3.2 4.64 3.177 5.212 0 .32-.937-.96-.937-1.28 0-.183-.092-.32-.206-.32-.114 0-.64-.412-1.166-.938-1.074-1.051-2.172-1.463-2.492-.96-.274.435 0 .938.503.938s1.966 1.485 2.926 2.949a68.643 68.643 0 0 0 1.555 2.331c2.103 3.063 2.994 4.8 2.812 5.555-.092.503-.023.915.297 1.372.617.914 1.943 4.023 2.4 5.555.663 2.286 1.714 4.823 3.498 8.412l1.737 3.475v2.195c0 1.44-.114 2.4-.343 2.811-.389.732-.114 1.235.526.983.754-.274 1.189-2.674.914-4.96-.206-1.646-2.149-6.195-2.629-6.195-.137 0-.251-.206-.251-.48 0-.275-.183-.8-.366-1.19-.206-.365-.914-2.285-1.577-4.228-.846-2.538-1.166-3.75-1.052-4.252.183-.823.023-1.257-2.08-5.555a153.547 153.547 0 0 1-2.515-5.532c-1.12-2.744-2.834-5.921-3.726-6.95-1.211-1.371-3.932-2.331-4.412-1.577zm24.963 0c-.091.16-.114 2.034-.023 4.183.092 2.423.023 6.104-.205 9.876-.183 3.292-.275 6.058-.183 6.15.091.09.343.045.548-.115.32-.229.412-1.075.55-4.846.09-2.515.228-5.395.296-6.424.046-1.029 0-3.383-.137-5.235-.206-3.223-.457-4.23-.846-3.59zm-5.966.891c-.389.39-.046.983 1.074 1.83 1.532 1.188 1.898 1.302 1.898.708 0-.252-.549-.983-1.212-1.577-1.166-1.12-1.463-1.258-1.76-.96zm-34.999.732c0 .114-.046.297-.068.434a3.654 3.654 0 0 0-.115.48c-.023.138-.205.435-.388.709-.343.434-.389.434-1.326-.48-.869-.846-.983-.892-1.326-.549-.457.435-.229 1.006.891 2.31.778.89.778.822.412 2.834-.32 1.646-.754 2.149-2.035 2.286-.503.068-.708.228-.777.64-.068.503 0 .526 1.326.48.777-.046 1.532-.206 1.715-.366.457-.457.64-.388.914.366.229.594.594.777 3.36 1.669 2.378.777 3.658 1.051 5.601 1.188l2.515.183.16.96c.16.846 1.051 3.292 2.606 7.087.251.594.525 1.486.617 2.012l.183.914-.64-.411c-.617-.389-.663-.389-1.143.023-1.486 1.348-2.538 6.012-2.286 10.15.183 2.72.274 3.085.777 2.674.251-.229.32-1.097.274-3.932-.023-3.406 0-3.749.663-5.76.686-2.104 1.052-2.584 1.623-2.127.16.138.595.298.96.389.938.229 1.006-.183.412-2.263-.274-.983-.617-2.218-.754-2.743-.138-.526-.618-1.898-1.075-3.04-1.006-2.63-1.189-3.453-.8-3.933.503-.594-.114-1.074-1.417-1.074-2.286 0-5.944-.526-7.407-1.097-.823-.32-1.669-.595-1.852-.595-.731 0-.16-1.531.618-1.737.457-.114.48-.206.228-.526-.16-.206-.548-.366-.823-.366-.503 0-.503-.091-.434-2.857.046-2.949-.16-4.115-.777-4.115-.206 0-.389.092-.412.183zm.274 3.612c0 .663-.068.8-.228.526-.32-.458-.32-1.44 0-1.44.114 0 .228.41.228.914zm-.502 2.377c.137.503.228.892.205.915-.045 0-.297.137-.594.297-.892.503-.96.366-.526-1.189.297-1.143.617-1.143.915-.023zm111.876-5.806c-.731.434-.663.388-4.206 1.943-1.6.709-3.406 1.394-4.023 1.554-1.12.275-1.372.618-.869 1.12.206.206.526.183 1.257-.068 1.646-.571 3.59-1.394 4.435-1.829.435-.251.915-.434 1.098-.434.434 0 3.36-1.44 3.543-1.737.206-.343-.023-.915-.366-.892-.137 0-.549.16-.869.343zm-15.156.571c-.823.64-1.417.8-1.806.48-.64-.525-1.028.206-1.028 1.966 0 1.852.388 2.515 1.28 2.24.914-.274 1.851-.822 1.989-1.165.091-.275.205-.297.571-.046.686.412 1.303-.068 1.372-1.097.091-.96-.412-1.623-1.189-1.623-.48 0-.48-.023-.114-.435.228-.251.411-.525.411-.594 0-.343-.914-.16-1.486.274zm-.914 2.446c0 .503-.503 1.19-.869 1.19-.343 0-.503-.961-.183-1.281.252-.252 1.052-.183 1.052.091zm50.543-2.446c-.48.549-.503 1.212-.023 1.898.458.663 1.098.686 1.646.091.526-.571.503-1.029-.114-1.806-.571-.731-.96-.8-1.509-.183z"/>
	<path d="M160.468 61.451c-.275.435-.412 3.704-.16 3.864.548.343.8-.297.868-2.195.046-1.417-.023-1.966-.228-1.966-.183 0-.389.137-.48.297zm-102.779.618c-.16.045-.571.663-.891 1.371-.755 1.578-3.68 4.435-4.55 4.435-.32 0-.868.274-1.257.572-.777.663-1.669.914-2.423.731-.457-.137-.503-.251-.389-1.051.137-.778.069-.983-.525-1.532-1.03-.96-1.67-1.052-2.378-.297-.32.343-.731.617-.937.617-.366 0-1.12.709-1.738 1.623-.251.343-.297.777-.205 1.28.228 1.006 1.28 1.44 3.543 1.417 3.292 0 6.24-1.325 9.007-4.046 2.354-2.309 3.246-3.589 3.132-4.526-.046-.434-.183-.663-.389-.594zm-11.476 6.103c.32.526-.228 1.623-.823 1.623-1.188 0-1.577-.846-.777-1.714.48-.526 1.235-.48 1.6.091zm115.626-5.715c-.434.526-.228 2.4.275 2.515.342.046.411-.114.388-.96-.023-.572 0-1.189.069-1.372.137-.48-.389-.594-.732-.183zm23.66 1.463c-1.303.823-2.469 1.67-2.606 1.898-.365.64.458.777 1.212.183.96-.755 2.926-1.966 2.926-1.806 0 .091-.343.525-.754.983-.778.891-.8 1.325-.115 1.463.549.114 2.79-2.035 2.79-2.675 0-.297-.138-.411-.367-.32-.228.091-.32-.046-.297-.48.023-.343-.045-.663-.183-.686-.137-.046-1.303.594-2.606 1.44zm5.35.64c-.229.412-.183.595.228 1.006.412.412.595.457.937.252.55-.343.663-1.052.183-1.052a.361.361 0 0 1-.365-.366c0-.525-.686-.434-.983.16zm52.326 1.098c-.297.503-.526 1.051-.503 1.211.023.16-.068.297-.228.297s-.503.183-.732.389c-.411.389-.48.389-.891 0-.412-.366-.48-.366-1.03.069-.525.434-.593.434-.982.068-.412-.343-.48-.343-.96.137-.503.503-.503.526-.069 1.486.275.617.595.96.892.96.228 0 .434-.068.434-.16.023-.114.229-.434.48-.731.389-.48.549-.526.96-.297.343.183.617.183.8.045.16-.137.549-.274.869-.32.412-.068.777-.411 1.143-1.051.434-.777.549-.846.549-.412 0 .618.663.732.891.16.069-.228.046-.891-.068-1.508-.298-1.44-.823-1.555-1.555-.343zm24.049-.115c-.137.183-.32.869-.412 1.555-.182 1.371-.48 1.76-1.417 1.851-.343.046-.754.23-.914.435-.16.206-.572.411-.892.48a7.65 7.65 0 0 0-1.006.297c-.343.137-.365.023-.251-.823.091-.777.046-1.006-.297-1.12-.503-.206-.846.274-.846 1.166 0 .434-.297 1.006-.823 1.577-.8.846-.846.869-1.166.435-.251-.343-.48-.412-.8-.275-.252.114-.8.16-1.212.137-.846-.045-1.508.663-1.508 1.578 0 .731-.503.846-1.143.274-.71-.663-1.875-.389-2.355.549-.663 1.28.343 2.171 1.463 1.326.251-.206.754-.366 1.097-.366.343 0 .755-.16.892-.32.16-.183.548-.297.937-.229.434.069.8-.046 1.006-.274.16-.229.549-.389.823-.389.297 0 .983-.343 1.532-.731l1.028-.755v.686c0 2.355 1.166 3.36 1.692 1.463.731-2.674.663-2.583 3.177-3.84.938-.458.938-.458 1.463.045.298.275.64.48.8.48.48 0 .572-.914.16-1.531-.365-.595-.365-.709-.022-1.646.503-1.303.503-1.989.023-2.195-.55-.205-.732-.183-1.03.16zm-9.624 6.881c0 .297-.686.526-.846.297a.31.31 0 0 1 .046-.365c.228-.229.8-.183.8.068zM8.289 66.71c-.48.549-.252 1.235.48 1.372.297.068.388-.114.388-.755 0-1.051-.274-1.257-.868-.617zm59.436.183c-.32.092-1.212.457-1.966.846-1.052.503-1.463.891-1.898 1.714-.503.938-.525 1.143-.274 1.852.366 1.029.366 1.509 0 2.538-.274.777-.343.8-1.189.685-.594-.068-1.394.069-2.263.366-1.234.457-1.371.457-1.577.114-.275-.503-1.486-.525-2.24-.022-.892.594-1.143.228-1.006-1.326.137-1.6-.115-2.172-.915-2.172-.503 0-.708.229-1.211 1.372-.32.754-.572 1.6-.526 1.897.046.343-.343.891-1.212 1.737l-1.28 1.212-1.509-.046-1.485-.023.09-1.166c.138-1.348-.182-1.874-1.188-1.874-1.326 0-3.063 2.492-3.063 4.389-.023 1.189-.617 1.212-1.097.069-.618-1.486-1.738-1.646-2.4-.343-.572 1.097-.458 2.011.274 2.354.571.252.617.366.457 1.28-.297 1.852-.297 3.087.023 3.498.48.663 1.006-.091 1.166-1.646.114-1.143.251-1.417 1.074-2.217.869-.8 1.074-.892 1.806-.755.8.137 2.537-.343 4.252-1.234l.709-.366-.16 1.303c-.115.983-.069 1.486.228 2.058.617 1.211.297 3.657-.594 4.549-.366.365-.937 1.211-1.28 1.874-.458.915-.869 1.349-1.623 1.76-.572.275-1.143.686-1.28.87-.138.182-.572.433-.96.525a1.66 1.66 0 0 0-1.03.846c-.182.343-.434.64-.57.64-.138 0-.527.228-.87.503-.502.365-.822.457-1.531.343-.8-.138-.983-.069-1.783.754l-.869.914.16-1.44c.092-.777.206-1.874.274-2.4.115-.869.069-1.006-.434-1.235-.8-.365-1.326-.022-1.623 1.075-.274.96-.32 2.743-.114 3.52.068.275.457.709.868 1.006.778.549 1.783.457 2.584-.274.228-.206.663-.366 1.005-.366.32 0 .823-.183 1.143-.389.458-.32.663-.342 1.19-.091.548.251.685.206 1.165-.343.297-.366.549-.846.549-1.097 0-.755.48-.8 1.188-.114.663.617.709.617 1.486.274.435-.206 1.006-.412 1.235-.435.411-.068 1.6-2.491 1.6-3.223.023-.571 1.029-1.577 1.532-1.486.434.046.548.275.64 1.258.091.914.228 1.211.571 1.28.549.114 1.532-.8 1.966-1.806.457-1.097 1.143-1.029 1.897.16.503.777.572 1.12.458 2.126-.115.823-.069 1.234.16 1.371.411.252.8-.342 1.303-1.988.411-1.418.663-2.058 1.074-2.698.114-.206.274-.663.366-1.029.16-.823.617-.868.617-.045 0 .891.663 1.051 1.303.297.343-.389.663-.549.846-.434.32.205 2.377-.71 3.246-1.44a2.664 2.664 0 0 1 1.006-.526c.48-.115.526-.046.48 1.188-.046 1.029.046 1.372.366 1.6.571.366.8-.022 1.028-1.737.229-1.851.298-1.966 1.098-1.783.891.16 1.668-.457 1.668-1.394 0-.96-.251-1.418-.754-1.418-.526 0-.549-.068-.183-1.097.343-.914.137-1.852-.548-2.537-.275-.275-.55-.892-.618-1.372-.091-.754 0-1.029.663-1.783.435-.48.892-.892 1.029-.892.389 0 2.56-2.491 2.56-2.926 0-.571-.503-.548-1.097.023-.251.274-.892.915-1.417 1.44-.526.549-1.052.983-1.143.983-.412 0-1.692 1.098-2.012 1.738-.503.96-.411 2.011.183 2.446.937.64 1.394 1.577 1.097 2.217-.274.64-3.109 2.149-3.52 1.897-.366-.228-2.172 1.235-2.172 1.76 0 .23.137.526.274.686.229.23.092.366-.594.663-.48.183-1.052.618-1.257.96-.435.64-.823.595-.823-.137 0-.251-.206-.663-.48-.891-.275-.229-.48-.595-.48-.8 0-.595-.823-1.532-1.166-1.326-.16.091-.275.434-.275.777 0 .686-.594 1.006-1.211.617-.389-.228-.663-.068-1.898 1.166-.8.777-1.44 1.6-1.44 1.806 0 .206-.114.297-.251.229-.137-.092-.229-.503-.229-.938 0-.48-.343-1.257-.868-2.08-.778-1.188-.823-1.417-.686-2.514.091-.663.206-1.28.274-1.395.069-.091.732-.457 1.463-.777.755-.32 1.852-.846 2.446-1.166.595-.32 1.509-.663 2.035-.754.525-.092 1.097-.275 1.28-.412.16-.137.366-.183.434-.091.206.206 2.012-.755 2.47-1.303.205-.252 1.142-.709 2.056-1.006l1.692-.526-.023-1.097c-.023-.595-.297-1.76-.617-2.583L64.479 70l.662-.549c.366-.343 1.212-.685 2.035-.823 2.309-.434 3.315-.845 3.315-1.371 0-.366-.206-.457-1.075-.48-.594-.023-1.371.023-1.691.114zM59.7 76.516c-.092.137-.275.252-.412.252-.16 0-.16-.138.046-.366.32-.389.617-.297.366.114zm-3.612.96c.068.137.023.252-.114.252-.503 0-.64.068-1.692.846-1.303.96-1.875 1.097-2.606.617-.274-.16-.252-.32.114-.869.389-.617.503-.64 1.669-.503.937.114 1.326.069 1.554-.206.343-.411.846-.48 1.075-.137zm10.858 6.607c-.182.594-.411.846-.754.846-.251 0-.663.16-.892.365-.342.32-.48.343-.914.069-.777-.48-.617-.777.754-1.44 1.852-.892 2.126-.869 1.806.16zM57.643 87.1c0 .275-.114.435-.228.366-.137-.091-.16-.32-.092-.503.183-.503.32-.434.32.137zm-1.668.229c0 .137-.138.229-.275.229s-.183-.092-.091-.23c.068-.136.183-.25.251-.25.046 0 .115.114.115.25zm-.252 1.189c0 .274-.114.48-.228.48-.138 0-.252-.206-.252-.48 0-.252.114-.48.252-.48.114 0 .228.228.228.48zM3.077 67.326c-.298.298-.16 1.303.228 1.44.503.206 1.349-.662 1.166-1.188-.16-.412-1.074-.572-1.394-.252zm206.997.32c0 .275.297 1.166.686 1.99.388.822.983 2.514 1.303 3.771.868 3.246 1.646 5.395 2.651 7.315.48.938.87 2.012.87 2.424 0 .891.205 1.143.64.8.662-.572.365-2.218-.87-4.847-.662-1.371-1.302-2.926-1.417-3.452-1.349-5.555-2.423-8.298-3.337-8.435-.412-.068-.526.046-.526.434zm78.295.366c-.297.206-.548.572-.548.777 0 .23-.549.938-1.189 1.578-1.166 1.143-1.509 1.851-.892 1.829.16 0 .938-.549 1.738-1.19 1.349-1.142 1.44-1.188 1.554-.685.069.297.252.572.412.617.411.137.731-.617.823-1.966.091-1.188.068-1.211-.64-1.28-.389-.023-.96.114-1.258.32zm-16.527.229c-.16.434.068.846.503.846.434 0 .64-.595.297-.938-.366-.365-.64-.343-.8.092zm21.557.64c-.435.274-1.03.526-1.303.549-.526.022-.64.182-1.578 2.331-.388.869-.64 1.12-1.189 1.235-1.097.228-1.325 1.6-.274 1.6.366 0 .435.206.389 1.417-.046 1.509.297 2.195 1.028 2.195.686 0 1.03-.617.846-1.509-.525-2.583-.365-3.749.458-3.063.434.366.868.137.868-.48 0-.252.137-.48.32-.48.16 0 .503-.206.755-.48.228-.252.548-.48.708-.48.16 0 .572-.298.938-.686.388-.389.845-.64 1.028-.572.435.16 1.052-.366 1.052-.914 0-.229-.252-.595-.526-.777-.457-.32-.571-.32-1.074 0-.526.343-.618.343-1.006 0-.549-.503-.48-.503-1.44.114zm-45.538 2.012c-.548.525-.617.731-.457 1.6.092.571.366 1.486.617 2.08.458 1.052.458 1.074-.045 3.063-.48 1.898-.48 2.035-.092 2.79.663 1.302 1.418 1.508 2.263.616.572-.64.64-1.874.138-3.291-.206-.55-.275-1.006-.183-1.006.091-.023.48-.046.891-.069 1.029-.046 1.006-.617-.045-1.783-.71-.754-1.006-.937-1.28-.754-.526.32-.64.297-.824-.32-.685-2.24-.594-2.584.778-2.584.64 0 .777-.068.731-.411-.068-.297-.366-.434-.983-.503-.708-.046-1.028.069-1.509.572zm1.44 6.812c.664 1.28.344 3.223-.388 2.469-.297-.297-.434-1.623-.274-2.515.16-.823.205-.823.663.046zm-10.47-6.63c-.182.16-1.234 1.12-2.354 2.104-2.263 1.988-5.715 4.64-11.544 8.87-.823.594-2.035 1.6-2.72 2.217-.663.64-1.418 1.211-1.646 1.28-.229.068-.48.388-.572.709-.068.342-.32.594-.549.594-.228 0-.525.114-.685.274-.16.16-.618.32-1.029.366-.709.069-.617-.069 1.737-2.629 1.372-1.486 2.835-3.178 3.246-3.772.435-.594 1.143-1.577 1.578-2.172.434-.571 1.349-1.988 2.057-3.109.709-1.12 1.555-2.263 1.875-2.537.571-.48.594-1.303.023-1.303-.39 0-1.532 1.463-3.407 4.39-2.24 3.52-4.297 6.08-7.68 9.6-1.532 1.6-1.76 1.943-1.6 2.4.205.504.32.526 3.154.48 2.217-.045 3.04-.136 3.315-.41.48-.48.183-1.052-.709-1.281l-.754-.183 2.331-1.92a130.87 130.87 0 0 1 3.338-2.606 19.216 19.216 0 0 0 1.6-1.212c.32-.297 1.075-.846 1.646-1.234 3.155-2.103 4.458-3.11 8.252-6.287 1.303-1.12 1.852-1.737 1.852-2.126 0-.685-.343-.914-.754-.503zM88.528 74.047c-.228.229-.205 1.372.046 1.646.251.297.754 2.149.869 3.246.045.458.16 1.646.251 2.63.252 3.222 1.212 6.057 2.332 6.834.617.435 1.897.48 2.286.092.16-.16.686-.275 1.166-.252 1.051.046 2.743-.365 6.263-1.531 1.395-.457 2.698-.823 2.926-.823.206-.023.823-.229 1.35-.48.525-.252 1.188-.458 1.485-.48.274 0 .572-.092.64-.206.069-.114.869-.389 1.76-.64.892-.229 1.806-.572 2.012-.755.206-.182.572-.32.8-.32.457 0 2.972-.777 4.732-1.486.64-.228 1.372-.434 1.669-.434.434 0 .48.092.343.549-.092.297-.297 1.371-.435 2.4-.205 1.646-.182 1.943.138 2.263.228.229.457.343.525.275.069-.069.229-1.19.389-2.492.183-1.783.366-2.515.709-2.88.617-.663.594-.938-.137-1.28-.503-.23-.915-.16-2.424.32-1.005.342-2.034.594-2.263.594-.228 0-.96.274-1.623.617-.663.32-1.349.594-1.554.594-.183 0-.618.206-.96.48-.343.275-.892.48-1.235.48-.343 0-1.029.16-1.486.366-.48.183-1.12.343-1.417.343-.32 0-.617.114-.709.229-.068.114-.526.274-1.028.388-.48.092-2.195.572-3.772 1.098-1.6.502-3.11.937-3.384.937s-.594.091-.708.206c-.435.365-2.218.8-2.675.662-.274-.091-.731-.068-1.051.046-1.944.732-3.064-1.554-3.68-7.52-.435-4.253-1.304-6.562-2.15-5.716zm196.185 1.532c-.16.274-.206.686-.137.914.091.275-.069.526-.526.8-.915.503-1.92.732-2.103.435-.252-.435-.8-.252-.96.297-.343 1.234-.663 1.852-.983 1.852-.16 0-.549.342-.846.731-.412.549-.732.709-1.326.709-.572 0-.892.183-1.189.617-.32.503-.526.594-1.074.48-.937-.206-1.349.549-.823 1.532.183.365.503.754.686.823.388.137 1.874-.87 2.446-1.692.182-.274.685-.572 1.074-.663.389-.091.732-.274.732-.389 0-.411 1.211-1.394 1.554-1.257.183.069.549.48.823.937.343.595.64.823 1.074.823.595 0 .618-.068.618-1.303 0-1.234.068-1.371 1.097-2.4.617-.594 1.234-1.097 1.417-1.097.183 0 .366-.16.457-.366.16-.412-.045-1.074-.32-1.074-.114 0-.274-.275-.343-.595-.182-.754-.982-.8-1.348-.114zm-115.626.366c-.183.48.32 3.406.891 5.143.229.732.983 2.515 1.692 3.955.686 1.463 1.509 3.246 1.806 3.955.297.731.663 1.348.8 1.394.64.229.137-1.486-1.554-5.326-1.578-3.59-2.355-5.921-2.904-8.961-.114-.618-.503-.709-.731-.16zm34.313.137c.137.457.663.526.663.114a.372.372 0 0 0-.389-.389c-.206 0-.32.138-.274.275zm61.516 2.492c-1.189.411-2.377.845-2.652.937a25.346 25.346 0 0 1-2.743.868c-1.6.412-2.537 1.464-1.623 1.806.32.115 6.31-1.691 6.767-2.057.137-.114.868-.389 1.645-.617 1.486-.48 1.852-.846 1.35-1.418-.344-.434-.092-.48-2.744.48zm-141.458.297c-.137.365-.251 1.371-.228 2.24.023 1.417.091 1.577.48 1.486.228-.069.48-.412.571-.754.069-.343.229-.938.343-1.326.343-1.075.275-1.99-.16-2.172-.617-.229-.731-.16-1.006.526zm26.13.297c-.275.274-.48.709-.48.983 0 .297-.458 1.006-.984 1.577-.823.892-.96 1.189-.891 1.943.091 1.12.708 1.212.914.16.206-1.028.412-1.303.983-1.303.389 0 .48-.114.389-.48-.092-.32.023-.503.343-.617.685-.206.731-.046.411 1.212-.206.777-.206 1.188-.023 1.371.366.366.777.023.777-.64 0-.891.458-1.714 1.098-2.012.777-.365.731-.365.914.343.114.435.023.778-.228 1.075-.275.297-.343.663-.229 1.28.137.686.046.983-.457 1.646-1.052 1.371-1.372 2.4-1.052 3.269.16.434.457.754.686.754.457 0 .8-.64.457-.846-.503-.297-.206-1.463.595-2.514 1.074-1.372 1.668-1.989 1.714-1.76.114.708.686 2.4.892 2.674.16.206.297.229.548.023.412-.343.435-1.463.046-1.852-.229-.228-.183-.297.206-.297.274 0 .571.183.64.366.091.206.32.366.526.366.274 0 .365-.183.32-.663-.069-.48-.32-.755-.87-1.029-.433-.206-.708-.457-.616-.549.274-.274 1.211-.182 1.508.183.435.526 1.19.686 1.578.366.434-.366.046-.96-.64-.96-.503 0-.572-.572-.206-1.555.229-.571.343-.64 1.006-.502 1.463.297 3.086 2.377 3.086 3.954 0 1.258-1.166 3.452-2.286 4.344-1.212.983-2.24 1.211-5.212 1.234-1.372 0-2.606.092-2.766.183-.137.092-.526.709-.869 1.372-1.051 2.103-4.778 5.463-6.31 5.692-.388.068-1.05.274-1.44.48-1.165.571-7.2 1.737-8.732 1.669a122.26 122.26 0 0 0-2.697-.092c-1.03-.023-1.852-.114-1.852-.183 0-.183 1.943-.983 2.4-.983.183 0 .937-.228 1.646-.48 1.486-.571 4.504-.617 6.264-.091.663.183 1.166.228 1.303.091.343-.343-.297-.937-1.212-1.097-.457-.091-.868-.251-.937-.343-.092-.183-2.126-.114-3.955.114-.777.092-.8.092-.366-.251.275-.183.732-.526 1.03-.732.502-.388.753-1.303.342-1.303-.114 0-.617.32-1.143.71-1.189.868-4.206 2.468-6.035 3.222-1.097.435-1.555.503-1.989.343-.343-.137-1.943-.32-3.589-.434-1.669-.092-3.475-.297-4.046-.412-.983-.228-1.097-.205-1.806.503-.457.458-1.303.915-2.149 1.166-2.08.64-3.818 1.12-4.618 1.28-.914.206-2.514 1.875-2.514 2.652 0 .892.617.709 1.394-.434.732-1.029 1.898-1.623 3.27-1.623.594 0 3.337-1.006 4.914-1.806.686-.366 1.212-.389 3.59-.252 1.53.092 3.154.229 3.565.297.846.138 1.075.55.32.55-.251 0-.525.113-.617.273-.091.138-.731.503-1.463.823-.754.343-1.28.732-1.28.938 0 .457.32.48 1.006.045.297-.205 1.234-.571 2.08-.845.846-.275 1.737-.686 1.966-.892.389-.343.571-.343 2.149.023 1.646.366 4.458.503 5.76.274.32-.046 1.464-.228 2.515-.366 1.052-.16 2.332-.434 2.812-.64.503-.183 1.143-.343 1.44-.343.96 0 3.795-1.234 5.555-2.423 1.737-1.143 3.132-2.606 4.298-4.435l.617-.983 2.355-.16c1.371-.068 2.949-.342 3.749-.617 1.486-.526 1.531-.503 1.668.686.115 1.143-.32 4.435-.914 6.927-.686 2.949-.709 3.223-.183 3.131.892-.182 2.172-7.223 1.943-10.584-.114-1.646-.114-1.714.96-3.52 1.463-2.423 1.51-3.475.252-5.372-1.258-1.898-2.286-2.583-4.092-2.835a25.753 25.753 0 0 1-2.95-.549c-.776-.205-2.377-.388-3.542-.388-1.783 0-2.172.068-2.56.48zm2.262.96c-.045.663-.32.869-.502.389-.07-.206-.298-.389-.48-.389-.206 0-.298-.114-.206-.251.068-.115.388-.229.686-.229.388 0 .548.137.502.48zm2.058-.023c0 .114-.183.274-.366.343-.366.137-.503-.114-.206-.411.229-.229.572-.183.572.068zm1.531 1.532c0 1.486-.228 2.583-.548 2.56-.092 0-.412-.206-.732-.434l-.571-.457.64-.412c.754-.503.8-.754.16-.914-.572-.137-.663-.892-.137-.892.205 0 .503-.206.663-.48.16-.274.343-.48.411-.48.069 0 .137.686.114 1.509zm2.058.228l-.526.778.16-.709c.183-.869.663-1.509.8-1.097.046.137-.137.617-.434 1.028zm37.353-.96c-.16 1.806-.411 7.384-.526 11.293-.091 3.452.229 5.35 1.006 5.852.8.526 1.6.32 1.875-.457.274-.823.023-1.097-.618-.686-.342.206-.571.229-.754.046-.526-.503-.594-3.863-.251-10.287.297-5.19.32-6.607.068-6.904-.503-.617-.663-.388-.8 1.143zm-19.02-.686c-.068.23.046.846.275 1.418.229.548 1.006 2.743 1.714 4.846 1.35 3.955 2.31 6.218 2.72 6.492.412.252.572-.594.252-1.28-.388-.8-2.332-6.263-2.743-7.726-.549-1.806-1.463-3.91-1.783-4.024-.16-.046-.343.069-.434.274zm80.834 2.47c.068.274.342.48.777.525.548.046.663-.023.594-.366-.068-.274-.343-.48-.777-.525-.549-.046-.663.022-.594.365zm-246.591.297c-.64.525-1.532 2.148-1.76 3.246-.092.388-.526 1.051-.96 1.486-.96.891-1.03 1.188-.32 1.371.297.069.434.229.32.389-.092.16-.023.617.137 1.028.274.618.251.778-.046 1.006-.206.137-.503.503-.663.8-.16.298-.389.526-.503.526-.434 0-.251-1.074.251-1.486.595-.525.618-1.417.023-1.943-1.006-.914-1.143-.548-1.028 2.515.091 2.537.365 2.834 1.554 1.691.709-.708.823-.731 1.783-.502.8.16 1.166.137 1.509-.092.366-.274.663-.274 1.303-.069.823.252 1.097.686.617.983-.594.366-.183 2.035.48 2.035.617 0 2.103-1.532 2.286-2.355.252-1.188.572-1.737 1.006-1.737.229 0 .663-.16.96-.366.389-.274.64-.297 1.006-.114.663.366 1.349.32 1.715-.137.274-.343.32-.32.502.137.229.617.686.549 1.052-.183.434-.846 1.052-1.417 1.852-1.714.434-.16 1.074-.458 1.44-.663.366-.183.846-.275 1.074-.206.206.091.732 0 1.12-.183 1.395-.663 3.43-1.372 4.298-1.532l.892-.137v1.189c0 2.217 1.143 2.446 1.897.389.297-.732.846-1.715 1.234-2.172.846-.96.8-1.372-.16-1.395-.388 0-.891-.091-1.143-.205-.274-.137-.777-.046-1.44.228-1.714.709-1.92.778-3.154 1.075-.663.16-1.486.388-1.806.526-.618.274-.778.297-3.27.571l-1.462.16.022-.937c.023-.823-.022-.915-.548-.915-.48 0-.64.206-.96 1.12-.206.618-.572 1.326-.8 1.578-.229.251-.412.571-.412.731 0 .572-.777.686-1.326.206-.503-.457-.526-.549-.228-.983.457-.64.434-1.554-.023-1.737-.663-.252-1.555.343-1.715 1.12-.16.823-.411 1.074-1.348 1.303-.366.069-.64.297-.64.503 0 .434-1.6 2.034-2.058 2.034-.183 0-.457-.205-.594-.48-.32-.617-.618-.594-1.258 0-.663.618-1.325.526-1.92-.251-.434-.594-.434-.64.023-1.692.251-.571.914-1.486 1.463-2.011 1.783-1.692 1.989-2.72.8-3.795-.457-.412-.503-.389-1.074.046zm.548 2.148c-.274.549-.663.983-.845.983-.298 0-.298-.068 0-.64.182-.366.342-.777.342-.914 0-.412.55-.846.778-.617.137.114 0 .617-.275 1.188zm260.079.183c-.069.092-.138.366-.138.617 0 .572-.274.55-1.028-.045-.8-.617-.892-.617-1.692.228-.869.915-.891 2.103-.023 3.132.732.846 1.326.869 1.532 0 .068-.343.343-.64.617-.686.252-.045.732-.343 1.074-.64.32-.32.892-.686 1.258-.823.823-.297.846-.891.045-1.257-.32-.137-.594-.366-.594-.48 0-.229-.8-.274-1.051-.046zm-61.014 3.452c-.526.274-2.331.96-4.023 1.555-1.692.571-3.338 1.234-3.658 1.44-.64.411-.754.96-.251 1.257.183.091.388.617.457 1.143.091.526.274 1.463.389 2.035.571 2.651.068 5.555-.892 5.166-.914-.366-1.189-.366-1.577 0-.777.777-.229 2.309.708 1.966.206-.092.412 0 .503.206.069.183.343.343.595.343.343 0 .457-.16.457-.755 0-.411.183-.983.434-1.257.663-.732 1.006-1.943.983-3.475-.023-1.234-.457-4.023-.823-5.212-.137-.434-.023-.549 1.006-.823.617-.16 1.966-.709 2.972-1.189 1.006-.503 2.24-1.028 2.766-1.211 1.189-.366 1.532-.663 1.532-1.212 0-.594-.389-.571-1.578.023zm71.186.229c0 .114.115.297.252.365.114.092.228-.022.228-.228 0-.206-.114-.366-.228-.366-.137 0-.252.092-.252.229z"/>
	<path d="M42.556 90.255c.114.754.686.846.686.091 0-.411-.138-.617-.366-.617-.252 0-.366.183-.32.526zm169.027 1.303c-.138.366.068 1.577.8 4.412.183.732.388 2.355.48 3.612.137 1.989.091 2.354-.275 2.697-.388.412-.457.366-1.12-.64l-.685-1.051-.983.297c-.55.137-1.098.48-1.235.709-.343.617-.068 2.148.526 3.017 1.029 1.44 3.177.663 4.32-1.554.55-1.098.618-1.44.55-3.658-.047-2.309-.892-6.63-1.533-7.818-.274-.503-.663-.526-.845-.023zm-.732 11.956c-.137.663-.526.8-.983.32-.32-.297-.366-1.12-.114-1.76.251-.686 1.257.617 1.097 1.44zM140.74 92.312c-1.417.069-1.6.16-2.468 1.006-.526.526-.938 1.12-.938 1.326 0 .366.069.343.732-.023.388-.251.709-.503.709-.617 0-.594 5.44-.823 7.543-.297.503.114.618.068.618-.297-.023-.983-.366-1.12-2.56-1.143-1.167 0-2.813.023-3.636.045zM29.937 95.627c-.297.777-.137 1.052.572 1.052.823 0 1.074-.275.845-.96-.182-.572-1.188-.64-1.417-.092zm138.349 3.52c-1.738 1.166-1.806 2.378-.275 4.024 1.166 1.211 1.966 1.257 3.36.183 1.075-.823 1.281-1.532.55-1.806-.526-.206-1.692-1.806-1.692-2.332 0-.297-.503-.617-.96-.617-.092 0-.549.251-.983.549zm1.074 2.127c.137.137.114.32-.068.502-.366.366-1.075 0-1.19-.64-.068-.32.024-.388.481-.251.297.114.663.274.777.389zm17.19-.526c0 .137.092.297.23.388.137.069.251-.022.251-.228 0-.206-.114-.389-.251-.389a.23.23 0 0 0-.23.229zM.997 104.017c0 .183.115.343.252.343.114 0 .228-.16.228-.343 0-.206-.114-.366-.228-.366-.137 0-.252.16-.252.366zm177.943 4.8c-.206.549.32 1.006 1.737 1.532 4.069 1.532 8.32 4.275 9.441 6.104.914 1.508 2.149 6.4 1.829 7.315-.069.228-.48.617-.915.891-.502.343-.754.663-.708 1.006.023.389-.275.64-1.486 1.235-.823.411-1.6.754-1.692.754-.16 0-4.48 2.012-5.646 2.629-.252.137-.343.48-.297 1.143.091 1.097-.137 1.257-1.326 1.097-.96-.16-1.052-.777-.183-1.463.366-.297.617-.709.617-1.12 0-.343.206-1.029.457-1.532.275-.548.366-1.028.252-1.234-.366-.594-.937-.023-1.349 1.372-.206.754-.686 1.828-1.052 2.354-1.097 1.6-1.508 2.538-1.234 2.812.16.16.937.16 2.423-.023 1.235-.16 2.995-.206 4.092-.114 1.257.091 1.92.068 1.92-.092 0-.434-.617-.777-1.714-.937-.594-.069-1.257-.274-1.486-.457-.389-.275-.411-.389-.114-.983.251-.549.914-.915 3.726-2.058 1.897-.754 3.726-1.6 4.092-1.851.366-.252.891-.526 1.189-.617.571-.16.571-.092.205 4.183-.137 1.417-1.44 4.32-1.943 4.32-.206 0-.457.252-.594.55-.48 1.165-1.395 1.92-4.16 3.405-1.258.686-2.012.915-3.27 1.029-2.171.183-2.811-.023-3.406-1.029-.526-.891-.868-1.028-1.074-.457-.229.594.411 1.806 1.211 2.309 2.926 1.783 10.402-1.852 12.893-6.24.915-1.624 1.578-4.207 1.67-6.516.09-2.217.113-2.332.822-2.492.96-.251.983-1.006.023-1.897-.8-.732-.869-.937-1.212-3.223-.388-2.652-.663-3.36-2.057-5.235-1.28-1.692-2.08-2.4-3.726-3.246a45.65 45.65 0 0 1-2.63-1.418c-.662-.388-1.53-.777-1.92-.868-.41-.092-1.234-.412-1.851-.732-1.349-.663-1.372-.686-1.554-.206zm75.666 0c-.206.229-.366.48-.366.595 0 .32-1.691 3.177-2.24 3.772-.571.617-1.372.731-1.372.182 0-.205.23-.548.503-.777 1.28-1.074 1.852-3.657.87-3.863-.664-.114-1.235.549-1.967 2.194-.891 2.08-.937 2.172-1.577 2.492-.366.206-.709.206-.983.046-.412-.206-.412-.252-.046-.823.594-.937.137-1.234-1.303-.869-1.509.412-2.194.892-2.583 1.806-.549 1.326.389 2.195 1.532 1.372.457-.297.777-.389 1.005-.229.526.32 1.6.252 2.4-.137.64-.343.71-.343.938.114.16.275.503.48.8.48.503 0 .914-.228 2.469-1.325.411-.275.709-.366.754-.206.229.686.732 1.12 1.143.96.343-.114.389-.343.252-1.326-.137-.914-.046-1.509.366-2.629.685-1.874.388-2.789-.595-1.829zm-105.499.343c-.206.115-.274.297-.206.389.23.228 1.395-.092 1.395-.389 0-.297-.732-.297-1.189 0zm79.759.137c-.16.412.32 1.075.754 1.075.457 0 .663-.732.343-1.12-.366-.435-.914-.412-1.097.045zm-83.188.046c-.731.183-.457.549.435.549.594 0 .823-.092.754-.297-.091-.343-.549-.435-1.189-.252zm1.623.046c-.068.137-.023.297.092.366.32.205 1.006-.115.846-.366-.183-.274-.755-.274-.938 0z"/>
	<path d="M141.86 109.526c-.046.046-1.692.206-3.635.32-2.012.137-3.703.366-3.886.526-.183.16-.572.206-.869.114-.823-.251-.434.434.411.732 1.235.434 1.532.708 1.6 1.508.07.915.32.983.71.16.228-.503.182-.708-.252-1.303l-.503-.685.549-.138c.274-.068 1.143-.205 1.897-.297l1.372-.16v.663c0 .48-.092.617-.366.526-.549-.206-.846.64-.709 1.92.16 1.372.274 1.555.8 1.463.252-.045.412.115.48.457.069.64.755 1.303.755.755 0-.183-.137-.48-.297-.663-.252-.252-.23-.297.091-.183.206.069.48.046.594-.069.343-.32 4-.388 4.115-.068.046.137-.023.343-.16.411-.16.092-.251.572-.251 1.052 0 2.217-2.698 1.646-3.224-.686-.068-.32-.068 0-.022.732.16 1.92.96 2.331 3.108 1.554.503-.183 1.03-.274 1.12-.206.115.069.64 0 1.19-.16.548-.137 1.942-.274 3.085-.274 1.166 0 2.515-.091 3.04-.206.755-.183.984-.137 1.235.183.457.594.366.937-.411 1.829-.846.96-.96 2.034-.297 2.652.434.365.503.365 1.325-.206.846-.572.915-.572 1.875-.229.549.183 1.052.298 1.097.252.16-.16 1.898.777 2.263 1.189.458.571 2.264 1.303 3.178 1.303 1.074 0 2.217-.938 2.537-2.126.412-1.463.298-3.43-.228-4.298-.412-.663-.617-.777-1.418-.777-1.074 0-1.508-.412-.891-.846.206-.16.389-.412.389-.549 0-.48.548-.594 3.566-.686a84.917 84.917 0 0 0 5.395-.343c2.194-.251 2.331-.297 2.263-.777-.092-.686-1.257-.8-2.492-.274-.663.297-1.966.434-4.595.526l-3.657.137v-.64c0-.48-.115-.64-.48-.64-.343 0-.48.16-.48.594 0 .48-.16.594-.96.732-1.098.182-1.44.045-1.44-.618 0-.685-.8-.571-1.738.252l-.8.686-5.03-.092c-2.766-.046-6.697-.091-8.732-.114-2.949-.023-3.818-.092-4.32-.412a11.609 11.609 0 0 1-.686-.434c-.046-.023.091-.343.297-.731.183-.39.411-.983.48-1.35.206-.982.983-1.257 4.023-1.348.366-.023.663-.183.663-.343 0-.206-.434-.32-1.28-.366-.709-.022-1.326 0-1.394.069zm15.362 5.784c.205.16-.503 1.051-.846 1.051-.206 0-.595.297-.869.64l-.503.64-.434-.548c-.503-.618-.572-1.83-.137-1.99.297-.113 2.606.07 2.789.207zm4.914.868c-.388.938-.388 1.006.046 1.326.274.183.732.274 1.12.183.938-.206 1.463.686 1.418 2.469 0 .754-.092 1.577-.16 1.852-.48 1.531-2.035 1.783-3.704.571-1.394-1.006-2.743-1.554-4.229-1.76-1.166-.16-1.257-.206-1.349-.915-.182-1.188.069-1.714 1.578-3.269 1.486-1.531 1.531-1.577 2.034-1.257.275.16.229.412-.183 1.212-.571 1.143-.48 1.829.275 2.08.366.114.617.023.846-.274.411-.572.388-1.075-.046-1.075-.503 0-.457-.457.114-1.303.343-.526.709-.754 1.372-.846.503-.091.983-.114 1.074-.068.114.046 0 .526-.206 1.074zm-8.48-.457c-.023 1.029-2.492 1.783-3.361 1.029-.343-.32-.457-.32-1.052 0-.617.32-.731.297-.983-.046-.274-.389-.342-.366-1.028.114-.778.549-1.258.663-1.258.275 0-.138.115-.252.252-.252.114 0 .228-.366.228-.823v-.846h3.612c3.567 0 3.59 0 3.59.549zm-8.07.869c-.137.708-.206.731-.526.411-.297-.297-.32-.48-.069-1.006.39-.868.8-.457.595.595zm8.984 3.177c-.092.663-.663.892-.663.275 0-.503.183-.8.526-.8.114 0 .182.25.137.525zm-.435 1.303c0 .435-.525.343-.663-.091-.045-.16.07-.297.275-.297.228 0 .388.183.388.388zm152.751-11.064c-.091.206-.343.366-.617.366-.252 0-.778.16-1.166.366-.663.342-.755.342-1.097 0-.206-.206-.458-.366-.572-.366-.297 0-.96 1.006-.96 1.463 0 .228-.16.457-.366.548-.228.092-.343-.022-.343-.32 0-.845-.685-.731-1.554.275-.892 1.028-.983 1.051-1.44.137-.64-1.28-2.72-.366-2.424 1.029.206.868-.365.983-.891.183l-.343-.55-.731.778c-.39.434-.778.709-.87.617-.09-.091-.16-.663-.16-1.303 0-.777-.113-1.166-.342-1.257-.434-.16-1.052.411-1.235 1.143-.182.732-1.508 1.783-3.474 2.766-.846.412-1.875.96-2.263 1.212-.412.251-.8.457-.915.457-.274.023-.206-.663.115-1.166.251-.411.228-.549-.115-.892-.48-.48-.708-.32-1.097.846-.32.938-.343 2.172-.091 2.583.091.16.64.343 1.188.435.983.183 1.006.16 1.44-.755.55-1.165 2.424-2.24 2.858-1.623.411.572 1.189.412 1.852-.365.457-.55.8-.71 1.394-.71 1.555.047 3.452-.32 4.092-.753.8-.572 1.074-.572 1.234.022.183.686.572.595 1.418-.365.526-.572.96-.846 1.417-.846.366 0 .937-.092 1.28-.229.617-.228.617-.228.572.937-.046 1.372.114 1.692.868 1.692.663 0 .846-.388.846-1.897 0-1.189.755-2.56 1.235-2.263.137.091.571-.092.96-.389.388-.274.868-.457 1.074-.389.48.183 1.532-.251 1.532-.663 0-.365-1.257-1.12-1.852-1.12-.183 0-.388.183-.457.366zm-175.588.229c-.045.045-1.646.137-3.566.205-4.069.16-8.344.595-8.938.915a2.302 2.302 0 0 1-.869.206c-.754 0-1.234.274-1.234.662 0 .252.16.32.548.206 1.555-.411 10.287-1.326 12.848-1.326 1.371 0 1.508.046 1.371.412-.388.891-.388 1.211-.068 1.989l.32.8v-1.235c0-.868.137-1.394.457-1.737.251-.252.389-.526.343-.572-.252-.228-1.12-.594-1.212-.525zm-35.616 1.737a26.181 26.181 0 0 0-1.874 2.446c-.503.8-.732.983-.892.754-.114-.205-.045-.685.183-1.188.595-1.418.595-1.555-.045-2.15-.572-.548-.663-.57-1.852-.296-7.018 1.6-13.122 2.949-14.059 3.086-.663.114-.8.023-1.052-.572-.16-.365-.251-.914-.228-1.211.137-1.258-1.12.068-1.418 1.486-.114.594-.274.731-.914.8-.48.045-.754.205-.754.411s-.137.343-.275.343c-.274 0-.205-.823.16-2.08.252-.869-.548-.686-1.005.228-.48.96-1.76 2.332-2.172 2.332-.183 0-.32-.388-.366-1.006-.068-.914-.137-1.028-.663-1.028-.48 0-.731.228-1.143 1.074-.297.594-.48 1.212-.434 1.372.068.182-.183.503-.549.754-.64.48-.64.48-1.074-.091-.229-.298-.412-.823-.412-1.143 0-1.12-.868-1.03-2.606.274-.457.32-1.166.663-1.577.754-.549.115-.709.275-.663.617.046.275-.023.366-.114.206-.115-.137-.389-.32-.618-.411-.571-.206-.548-.892.046-.892.252 0 .526-.091.617-.228.069-.138.343-.252.572-.252.228 0 .617-.206.869-.457.388-.457.388-.526.022-1.074-.594-.892-1.485-1.03-2.674-.412-1.418.754-1.829.526-1.783-1.029.023-.663.023-1.348 0-1.508-.023-.458-.686-.366-.8.114-.412 1.554-.618 2.674-.572 3.292.046.686-.023.731-.869.754-.502 0-.96-.068-1.028-.183-.069-.114 0-.846.137-1.646.297-1.6.16-2.4-.389-2.4-.48 0-.754.8-.937 2.697-.16 1.806-.526 2.332-1.554 2.332-.823 0-1.12.366-.71.869.184.228.618.32 1.167.297l.868-.069-.091 2.698c-.091 2.629.046 3.109.64 2.4.274-.343.663-2.903.572-3.703-.023-.274.045-.777.182-1.143.183-.457.412-.617.938-.617.96 0 1.326.525 1.166 1.714-.16 1.143.137 2.126.64 2.126s.64-.571.48-2.172c-.137-1.211-.092-1.44.228-1.44.206 0 .549.343.755.732.548 1.051 1.371 1.303 2.789.823.64-.206 1.28-.32 1.417-.229.114.092.594-.023 1.029-.228.731-.343.891-.343 1.508-.023.778.411 1.623.274 2.492-.389.32-.251.754-.389 1.006-.297.48.137 1.257-.206 2.057-.914.572-.526.686-.435.846.777.114 1.028.777.731.846-.389l.091-1.006 1.35-.251c1.965-.343 2.24-.023 2.285 2.629.046 1.92.023 2.011-.48 2.103-.549.068-.663.388-.411 1.097.091.229.457.366.96.366 1.143 0 1.44-1.006 1.074-3.635-.366-2.766-.343-3.04.297-3.292.298-.114 1.395-.411 2.446-.617 1.052-.228 2.424-.571 3.018-.777a27.25 27.25 0 0 1 2.034-.549c.526-.091 1.76-.366 2.766-.594.983-.229 2.218-.434 2.744-.48.96-.069.96-.069 1.326 1.029.274.845.32 1.463.182 2.446-.114.731-.16 2.194-.137 3.246.069 1.508.16 1.92.435 1.92.251 0 .411-.412.525-1.44.229-1.83 1.326-4.047 2.035-4.16.411-.07.549.068.594.594.092.662.115.662 2.126 1.12.618.137 1.44 1.257 1.44 1.943 0 .274-.228.366-.8.366-1.143 0-1.714.502-1.508 1.303.297 1.143 2.24.708 3.063-.686.64-1.075 1.509-1.326 2.149-.64.251.274.754.571 1.097.663.663.16 3.406-.275 4.366-.709.412-.183.595-.183.755.069.182.32.64.297 3.246-.183.663-.115 1.371-.298 1.6-.389.274-.114.571-.046.8.206.526.503 1.234.48 1.966-.092.64-.503 1.166-.663.914-.251-.068.114-.045.411.092.64.137.251.526 1.12.869 1.92.548 1.235.617 1.623.411 2.218-.206.548-.16.868.137 1.486.48.937.823 1.097 1.349.571.389-.411.48-1.349.16-2.149-.297-.731-.092-1.006 1.257-1.897 1.989-1.28 7.681-4.298 9.556-5.052.503-.206.937-.48.937-.617 0-.138-.046-.252-.114-.252-.412 0-6.31 2.88-9.373 4.572-2.949 1.623-2.766 1.577-3.292.937-.731-.914-1.097-1.714-1.257-2.743-.16-.891-.069-1.074.8-2.194.96-1.19 1.189-1.852.777-2.104-.411-.251-1.303.686-1.851 1.92-.458 1.052-1.783 2.79-1.783 2.332 0-.068-.16 0-.343.16-.458.389-.915.092-.732-.48.183-.571-.297-.845-.8-.434-.229.183-.663.457-.96.64-.503.274-.572.252-.686-.183-.183-.663-.274-.64-1.166.343-.434.457-.96.846-1.166.846-.228 0-.571-.389-.8-.846-.228-.48-.571-.846-.823-.846-.228 0-.823.389-1.303.846-.8.777-1.028.846-2.286.846-1.326 0-1.417-.046-1.417-.549 0-.343.274-.777.731-1.097.39-.297.71-.663.71-.846 0-.343-.984-.868-1.67-.868-.525 0-1.211.845-1.211 1.485 0 .48-.617 1.143-1.052 1.143-.183 0-.434-.251-.571-.548-.275-.595-2.103-1.6-2.926-1.6-.96 0-.892-.366.548-2.88.343-.595.686-1.532.778-2.104.137-.891.114-1.029-.298-1.029-.251 0-.983.618-1.646 1.372zm6.996 5.006c.205.526-.298 1.029-.663.663-.298-.32-.115-1.028.274-1.028.137 0 .32.16.389.365zm-4.458 3.475c0 .137-.114.229-.252.229-.137 0-.228-.092-.228-.229s.091-.251.228-.251c.138 0 .252.114.252.251zm20.391 4.275c0 .343-.046.366-.229.046-.32-.48-.32-.778 0-.595.115.069.229.32.229.549zm115.466-11.247c-.366.411-.755 1.097-.846 1.577-.114.663-.251.823-.686.823-.274 0-.708-.16-.96-.343-.366-.274-.389-.411-.16-.823.206-.411.183-.548-.114-.663-.206-.068-.526-.023-.686.137-.32.252-2.515 1.463-2.675 1.463-.022 0-.137-.205-.205-.48-.16-.617-.869-.617-1.943.023-.778.457-.87.457-1.418.092-.571-.366-.64-.366-1.097.114-.274.274-.503.594-.503.732 0 .457.686 1.92.892 1.92.114 0 .548-.389 1.005-.846.87-.914 1.326-1.029 1.966-.457.389.343.503.343 1.532-.115.983-.434 1.189-.457 1.646-.16.274.183.937.389 1.44.48l.914.16-.845.938c-1.006 1.097-1.28 1.966-.915 2.789.595 1.257 2.08.297 2.79-1.76.205-.618.388-1.28.388-1.486 0-.206.343-.55.777-.755.663-.297.8-.503.892-1.44.068-.571.205-1.166.274-1.303.206-.343-.206-1.326-.526-1.326-.16 0-.571.32-.937.709zm-1.806 6.15c-.343.525-1.075.822-1.075.433 0-.091.275-.64.64-1.211.64-1.006.664-1.029.755-.434.046.342-.114.891-.32 1.211zm-32.233-6.447c-.297.045-.914.457-1.371.891-1.143 1.075-1.143 2.172 0 4.686.96 2.15 1.006 2.4.365 2.4-.777 0-1.211.275-1.211.755 0 .892 2.103.366 2.675-.686.365-.663-.023-2.126-.915-3.497-.32-.503-.663-1.28-.731-1.692-.092-.663-.023-.823.525-1.051.778-.366 1.326-.39 1.326-.07 0 .504.732.23 1.006-.342.229-.503.206-.686-.16-1.074-.434-.503-.526-.503-1.509-.32zm-66.065 1.394c-.252.297-.206.343.206.343.343 0 .457-.092.365-.343-.091-.206-.182-.366-.205-.366-.046 0-.206.16-.366.366z"/>
	<path d="M128.212 114.967c-.868.114-1.851.16-2.217.091-.732-.137-.823.046-.343.709.251.343.411.366.823.16.274-.16.754-.275 1.051-.275 1.006 0 3.567-.525 3.567-.754 0-.251-.732-.229-2.88.069zm7.315-.046c-.068.137.023.183.229.114.411-.16.503-.343.16-.343-.137 0-.297.115-.389.229zm170.307-.069c-1.12.412-1.577 1.623-.845 2.24.754.618 3.04-1.097 2.674-2.034-.137-.366-1.097-.457-1.829-.206zm-263.301 1.03c0 .136.16.25.343.25.206 0 .366-.114.366-.25 0-.115-.16-.23-.366-.23-.183 0-.343.115-.343.23zm89.771.228c0 .114.16.343.343.503.297.251.366.205.366-.206 0-.297-.16-.526-.366-.526-.183 0-.343.114-.343.229zm178.811.434c-.594.16-1.234.389-1.44.457-.709.32-1.28.343-1.623.046-.503-.434-1.143.457-1.532 2.103-.343 1.623-.228 1.783 1.555 1.943 1.188.092 1.348.046 1.6-.411.228-.435.183-.618-.274-1.098-.366-.388-.618-.503-.778-.343-.32.32-.868.32-.868 0 0-.16.205-.32.48-.388.251-.069.617-.366.8-.663.274-.412.526-.526 1.074-.434.389.068.892 0 1.12-.115.206-.114.938-.16 1.6-.068.892.114 1.304.068 1.555-.183.549-.549.251-.892-.754-.96-.503-.023-1.052-.092-1.19-.137-.136-.046-.73.068-1.325.251zm-134.577.023c-.548.068-.914.64-.663 1.029.069.114.389.205.709.205.914 0 2.263.869 3.955 2.56.868.846 1.714 1.532 1.874 1.532.297 0 .412-1.188.115-1.211-.115 0-.39-.275-.618-.572l-.411-.594.846.137c.548.091.845.046.845-.137 0-.435-.937-1.235-1.44-1.235-.754 0-1.646-.48-1.76-.983-.091-.297-.343-.457-.8-.457-.389 0-1.029-.068-1.417-.183-.389-.091-.938-.137-1.235-.091zm-38.336.457c-.274.274-.16.777.206.777.205 0 .366-.137.366-.343 0-.388-.343-.663-.572-.434zm-5.304 1.097c-.182.938.115 1.6.755 1.6.48 0 .388-1.28-.137-1.943l-.457-.571-.16.914zm70.866-.365c-.571.64-1.44 2.651-1.28 2.926.229.365.983.297 1.326-.115.229-.274.412-.274.8-.091.343.206.732.206 1.372 0 .503-.137 1.074-.206 1.303-.114.206.068.64-.023.937-.229.526-.343.846-.389 2.446-.434.48 0 1.898.16 3.544.434.685.091.914.046 1.028-.251.092-.229.046-.526-.091-.686-.137-.16-.275-.572-.32-.915-.115-.868-1.235-.96-1.783-.114-.389.594-.435.594-.96.252-.64-.412-2.355-.343-3.2.091-.32.183-.527.183-.618.023-.274-.435-.892-.252-1.715.48-.457.389-.937.709-1.051.709-.412 0-.503-.458-.16-1.12.183-.366.297-.8.228-.96-.16-.458-1.371-.366-1.806.114zm.343 1.303c-.182.182-.274.182-.274.045 0-.32.274-.617.434-.457.069.069 0 .252-.16.412zm76.696.457c-.229.137-.526.183-.64.091-.138-.068-.48 0-.778.183-.32.16-.868.297-1.28.297-.663 0-.731.092-.8.915-.068 1.074.389 1.371 1.257.8.32-.206 1.35-.549 2.286-.755 1.212-.274 1.783-.525 1.966-.868.138-.275.183-.549.115-.64-.275-.252-1.67-.275-2.126-.023zm20.962 1.189c-.48.525-1.028.937-1.234.937-.229 0-.526.183-.686.366-.183.205-.457.365-.64.365s-.32-.16-.32-.365c0-.412-.617-.48-.869-.092-.091.16-.251.16-.48-.046-.526-.434-1.097.183-1.006 1.075.046.571.206.777.595.823.32.045.548-.046.548-.229 0-.228.069-.228.298-.023.342.366 1.303.389 1.508.046.069-.114.412-.229.732-.229.343 0 .891-.274 1.234-.617.435-.434.663-.548.8-.343.092.16.366.252.618.206.365-.069.457-.32.457-1.417 0-1.646-.412-1.783-1.555-.457zm-28.415-.16c-.274.32-.708.845-.96 1.188-.251.389-.64.64-1.006.64-.685 0-1.074.983-.594 1.555.411.503.572.457 1.394-.252.435-.343.8-.503.892-.343.274.458.846.229 1.829-.708 1.051-.983 1.074-1.463.091-1.28-.571.114-.594.068-.457-.618.114-.594.069-.754-.251-.754-.229 0-.64.251-.938.572zm-7.27 3.383c-.273.183-1.074.411-1.782.503-.732.091-1.578.343-1.898.548-.32.229-.777.366-1.005.32-.229-.045-.663.069-.96.206-.64.343-2.584.48-2.744.183-.251-.389-1.234-.183-1.737.366-.663.686-.663 1.12-.046 1.12.274 0 .549.16.64.366.16.457.663.457 1.395-.023.365-.229.617-.275.708-.114.115.16.366.137.8-.023.366-.138.96-.298 1.326-.343a4.181 4.181 0 0 0 1.212-.389c.274-.16.594-.274.709-.251.091.045.503-.092.891-.298.389-.205.96-.365 1.28-.365.343 0 .755-.137.915-.32.183-.16.708-.297 1.166-.297.685.022.845-.07.914-.526.069-.389-.091-.595-.549-.778-.777-.297-.64-.297-1.234.115zm24.644 1.051c-1.12.32-1.829 2.424-.823 2.424.183 0 .709-.183 1.189-.435.708-.388.96-.411 1.577-.183.617.229.777.206 1.074-.205.435-.618.412-1.03-.091-1.28-.617-.344-2.263-.504-2.926-.32zm-58.705 2.08c-.32.732-.594 1.418-.594 1.532 0 .092-.274.32-.617.48-.457.206-.594.389-.48.686.091.229.183.48.206.549.091.32-1.806 2.171-2.126 2.103-.275-.069-.206-.274.297-.96.594-.869.617-.915.228-1.509l-.411-.617-.686.526c-.434.32-.823.914-1.006 1.577-.343 1.143-1.051 2.08-1.417 1.874-.114-.091.114-.594.526-1.165.937-1.326 1.234-2.607.754-3.27-.457-.662-.823-.617-1.577.16-.938 1.006-2.515 4.984-2.263 5.67.205.526 2.286.274 2.949-.343.434-.412.891-.549 1.783-.572.96-.022 1.348-.16 1.874-.685l.663-.64.274.731c.32.869 1.35 1.006 1.76.206.252-.457.298-.48.87-.092.456.298.754.343 1.12.183.32-.137 1.005-.114 1.851.046 1.166.229 1.303.32 1.303.846 0 .503-.114.617-.8.686-.64.045-.777.16-.709.571.183 1.212 1.83 1.143 2.606-.114.595-1.006.595-1.646-.022-2.423-.366-.48-.732-.64-1.35-.64-.456 0-1.142-.229-1.53-.48-.572-.412-.755-.458-1.167-.206-.617.388-.891.114-.571-.595.16-.343.548-.64 1.006-.708.937-.206 1.348-.938.983-1.83-.138-.365-.206-.936-.115-1.28.275-1.05-.8-2.262-1.166-1.325-.068.251-.16.251-.411 0-.183-.16-.572-.297-.892-.297-.457 0-.685.251-1.143 1.326zm1.578 1.304c0 .137-.137.251-.275.251-.137 0-.182-.114-.091-.251.069-.115.183-.229.251-.229.046 0 .115.114.115.229zm-.503 1.508c0 .526-1.075 2.424-1.417 2.538-.48.16-.183-1.783.365-2.378.48-.525 1.075-.617 1.052-.16zm-7.178.298c0 .48-1.143 2.286-1.44 2.286-.252 0-.046-.71.594-1.92.389-.778.846-.96.846-.366zm57.538-3.475c-.228.16-.411.48-.411.731 0 .252-.137.732-.297 1.075-.229.503-.229.663.068.846.503.32.846.274 1.28-.16.252-.229.343-.572.252-.892-.137-.434-.069-.411.411.183.55.64.64.663 1.464.389.914-.298 1.257-.892 1.005-1.692-.114-.412-.343-.503-1.143-.48-.571.023-1.28-.023-1.6-.092-.343-.091-.8-.045-1.029.092zm-175.29.274c-1.966.092-5.12.366-6.972.572-1.852.205-5.03.411-7.041.48-2.012.045-3.75.16-3.84.228-.115.069-.138.389-.092.709.091.503.228.571.869.48.411-.046 2.377-.183 4.366-.32 7.91-.549 7.36-.549 7.224-.091-.069.251-.16 1.554-.183 2.949l-.092 2.514.663.092c.526.045.686-.046.8-.526.092-.343.069-.732-.023-.869-.068-.137-.137-1.097-.137-2.103 0-2.766-.023-2.743 5.235-3.018 2.355-.114 4.366-.32 4.48-.411.435-.434-.068-.96-.868-.914-.434 0-2.4.114-4.389.228zm198.996 1.075c-1.143.617-1.554 1.074-1.554 1.714 0 .389.16.617.48.709.709.183.663 1.783-.069 2.103-.343.16-.571.503-.617.914-.069.64-.069.64 1.326.64 1.372 0 2.652-.32 4.503-1.166.526-.228 1.235-.502 1.578-.594 1.508-.366 2.72-1.692 1.966-2.149-.115-.068-1.052.115-2.103.412-3.384.983-3.224.96-3.224.228 0-.343.16-.823.366-1.051.343-.389.343-.457-.023-.755-.228-.16-.64-.548-.937-.845-.64-.64-.754-.64-1.692-.16zm-172.524.48c-.366.183-.755.548-.892.777-.16.32-.411.411-.823.343-.32-.069-.96 0-1.394.137-.434.137-1.326.32-1.989.389-.663.068-1.966.32-2.88.525-4.344 1.029-6.835 1.692-7.133 1.92-1.371 1.052-3.154 1.235-3.954.435-.48-.48-1.28-.434-1.99.114-.594.457-.616.457-1.12-.023-.297-.274-1.28-.64-2.445-.868-1.83-.366-1.966-.366-2.4 0-.23.228-.595.434-.778.434-.457 0-1.234 1.097-1.143 1.6.046.229.434.503.869.595.914.251 1.394-.023 1.737-.938.457-1.166 3.11-.434 3.11.869 0 .869.64.846 1.805-.114.594-.48 1.12-.846 1.143-.8.023.045.183.32.32.571.206.389.526.48 1.737.526 1.052.023 1.555-.092 1.76-.343.275-.32.32-.274.435.206.297 1.257 2.515.48 2.675-.938.091-.708.411-.868 3.817-1.76 3.406-.914 7.201-1.6 7.201-1.28 0 .046-.137.366-.297.709-.389.868.091 1.874.823 1.76.457-.069.571-.274.663-1.143.068-.572.251-1.097.411-1.143.183-.069.32.046.32.229 0 .525.892 1.234 1.623 1.303.366.022.686.045.732.068.046 0-.046.16-.206.366-.388.48-.068 1.303.595 1.463.891.229 1.485-.091 1.92-.983.366-.8.411-.823.96-.457.32.206.663.594.731.846.23.731 1.19.823 2.172.205.663-.411.983-.48 1.395-.297.388.183.731.16 1.348-.183.526-.251 1.006-.343 1.303-.228.275.091 1.418.137 2.515.091 1.897-.046 2.08-.023 2.629.526.594.594.594.617.206 1.303-.618 1.006-.526 1.852.297 2.652.823.823 1.211.891 1.806.228.388-.434.411-.617.16-1.623-.663-2.514-.686-2.309.228-2.126.595.115 1.03.023 1.623-.343.71-.434.915-.457 1.51-.205.502.205.8.205.96.045.296-.297 1.165-.114 1.165.229 0 .137.183.366.389.526.343.251.343.48.068 2.126-.228 1.394-.251 1.92-.045 2.126.228.205.365.205.64 0 .343-.298.548-1.143.777-3.406.114-1.212.069-1.372-.572-2.058-.571-.617-.891-.754-1.714-.777-.686 0-1.12-.137-1.326-.412-.183-.251-.457-.365-.686-.274-.228.092-.457.046-.548-.069-.16-.297-1.143-.32-1.44-.022-.115.114-.503.251-.823.297-.458.068-.618-.023-.663-.435-.115-.662-.503-.822-1.623-.64-.64.115-.938.32-1.098.732-.206.549-.297.594-1.12.411a8.247 8.247 0 0 0-1.829-.16c-.525.023-1.074-.068-1.257-.205-.343-.275-1.303-.069-1.6.365-.16.183-.252.183-.32-.045-.206-.458-.915-.343-1.875.297-1.006.709-1.097.709-1.097.297 0-.434-.96-1.28-1.623-1.44-.297-.069-.937-.023-1.395.114-.594.16-1.257.137-2.171-.068-1.166-.275-1.303-.366-1.189-.8.434-1.464.434-2.012-.023-2.24-.32-.184-.64-.16-1.097.09zm142.966.091c-.274.114-.731.594-1.006 1.052-.525.891-.845 1.074-1.143.617-.068-.137-.434-.229-.777-.183-.594.069-.64.023-.571-.709.091-.823-.366-1.074-.869-.48-.411.526-.754 2.652-.503 3.11.32.594 1.097.548 1.417-.07.275-.48.298-.48.755-.068s.526.412 1.189.046c.388-.229.708-.32.708-.183 0 .594.937.137 1.532-.754.64-.96.64-1.006.274-1.806-.228-.435-.411-.8-.457-.8-.023.022-.274.114-.549.228zm22.586.137c-.389.229-.983.549-1.303.732-.343.183-.777.32-1.006.32-.48.023-.891.48-1.531 1.76-.343.663-.732 1.052-1.212 1.212-.389.114-.869.365-1.074.548-.206.183-.618.32-.915.32-.297 0-.777.137-1.029.275-.365.182-.571.182-.754 0-.8-.8-1.966.091-1.806 1.348.114.983.709 1.19 1.829.595.526-.275 1.029-.435 1.097-.366.069.091.412-.023.732-.252.32-.205.8-.388 1.028-.388.252 0 .663-.137.915-.32.251-.183.8-.412 1.189-.503.388-.092 1.188-.412 1.805-.686 1.578-.731 3.407-1.349 4.024-1.371.526 0 .526.068.388 1.325-.182 1.44.138 1.83 1.052 1.35.411-.23.457-.48.389-2.104-.092-2.263-.298-2.537-1.486-1.875a4.425 4.425 0 0 1-1.852.458c-.526-.023-1.029.068-1.12.205-.32.503-.503-.068-.229-.685.16-.389.458-.595.823-.595.892 0 2.126-.708 2.035-1.166-.092-.548-1.12-.617-1.989-.137z"/>
	<path d="M313.127 128.98c-.092.228-.046.503.091.64.389.366 1.029.046 1.029-.526 0-.594-.915-.663-1.12-.114zm-63.963-.023c-.068.069-.617.229-1.188.366-1.943.388-4.39 1.188-4.755 1.554-.274.275-.297.435-.069.686.252.297.64.229 2.743-.434 1.35-.435 3.11-.938 3.887-1.12 1.76-.39 2.011-.983.48-1.098-.526-.045-1.029-.023-1.098.046zm-159.837.366c0 .137.115.251.252.251s.183-.114.114-.251c-.091-.115-.206-.229-.251-.229-.069 0-.115.114-.115.229zm176.822 3.817c-.594.709-.663.983-.411 1.463.206.366.366.435.686.275.228-.115.731-.16 1.143-.092.48.069.846-.023 1.051-.274.389-.48.16-1.097-.457-1.097-.251 0-.526-.092-.594-.206-.252-.412-1.075-.457-1.418-.069zm12.573 3.132a6.08 6.08 0 0 0-.434 1.372c-.229 1.12-.777 1.371-.777.366 0-.823-.274-1.098-.937-.892-.435.137-.64.549-.96 1.783-.206.869-.846 1.166-1.35.663-.548-.549-1.485-.343-2.217.48-.594.686-.685 1.349-.228 1.737.525.435 2.766.046 3.52-.594.389-.32.983-.571 1.349-.571s.869-.183 1.097-.389c.389-.343 1.669-.754 2.972-.914.251-.023.709-.183 1.006-.343.274-.137.777-.275 1.12-.275.32 0 .891-.16 1.28-.343a5.16 5.16 0 0 1 1.326-.48c.457-.091.709-.343.8-.754.206-.8-.229-1.28-.8-.892-.8.572-1.989 1.006-2.355.87-.182-.07-.64-.024-1.005.113-.366.138-.983.32-1.395.412-.709.137-.731.114-.64-.617.183-1.12-.869-1.67-1.372-.732zm-262.112 1.12c.023.275.068.343.16.137.068-.16.045-.365-.023-.457-.092-.068-.137.069-.137.32zm284.31 3.27c-.412.136-1.166.32-1.692.434-.915.205-3.452 1.005-4.618 1.463-.366.137-.526.411-.526.846v.64l-1.783-.138c-1.44-.137-1.829-.091-2.08.206-.229.274-.251.503-.069.777.298.458 1.28.686 1.28.298 0-.206.138-.206.504 0 .685.365 1.394.137 2.331-.732.435-.389 1.075-.777 1.44-.846.366-.068.96-.251 1.372-.388.389-.138 1.623-.549 2.743-.938 2.332-.823 2.675-1.051 2.172-1.508-.274-.252-.549-.275-1.075-.115zm-134.532 6.789c0 .205.092.365.229.365.114 0 .16-.16.091-.365-.091-.183-.182-.366-.228-.366-.069 0-.092.183-.092.366zm85.703 1.348c-.412.412-.915 1.052-1.12 1.44-.183.366-.96 1.075-1.738 1.555-.754.48-1.737 1.212-2.195 1.646-1.645 1.486-3.36 1.623-3.36.252 0-.823.526-1.143 1.28-.8.526.228.709.205 1.097-.16.618-.55.618-1.235 0-1.555-.708-.389-2.491.457-3.108 1.486-.55.914-.595 1.577-.206 2.469.366.823 1.28 1.006 2.514.548.71-.228 1.098-.274 1.28-.114.412.434 1.464-.206 1.464-.869 0-.571.8-1.851 1.188-1.851.115 0 .137.663.069 1.44-.16 1.806.114 2.194 1.463 2.149.731-.046 1.189-.252 1.76-.755l.755-.731.662.526.64.503.526-.48c.48-.435.572-.458.846-.138.412.503.892.48 1.623-.114l.617-.48.32.731c.16.39.412.71.526.732.48 0 1.006-.32 1.006-.572 0-.16.252-.594.572-1.005l.571-.709.252.64c.137.366.548.846.891 1.074.617.39.663.39 1.669-.137 1.074-.571 1.669-1.463 1.44-2.171-.114-.343-.503-.458-1.989-.549-1.691-.137-1.943-.091-2.766.457-.548.343-1.097.526-1.349.435-.251-.07-.845.045-1.303.274-.845.411-.868.411-1.325-.16-.458-.549-.48-.572-.938-.16-.571.503-.937.526-1.188.046-.16-.275-.55-.343-1.395-.298-1.097.069-1.234.137-1.532.846-.228.48-.525.777-.8.777-.388 0-.434-.114-.297-.777.366-1.714 1.029-2.812 2.126-3.475 1.326-.823 1.692-1.485 1.189-2.194-.48-.709-.869-.64-1.737.228zm11.75 5.007c0 .503-.595.663-.846.251-.206-.32.068-.731.48-.731.206 0 .366.228.366.48zM90.905 149.44c-1.83.617-2.744 1.851-1.578 2.148.572.16.595.275.115.8-.48.526-.663 3.818-.229 3.818.183 0 .366-.16.434-.343.16-.411.892-.503.892-.137 0 .137-.114.252-.229.252-.114 0-.274.205-.343.48-.068.251-.388.571-.731.708-.549.206-.617.343-.48.915.228.914.297 1.005.823 1.005.228 0 .503.115.594.252.252.411.549.274.96-.434.32-.55.526-.663 1.12-.572.435.069.846-.046 1.12-.297.39-.343.48-.343.755-.023.343.412 1.029.48 1.669.137.32-.183.526-.137.731.115.389.457 1.303.457 1.692 0 .16-.206.434-.366.594-.366.183 0 .526-.297.8-.663l.48-.64-.045.914c-.023 1.029.411 1.44 1.074 1.029.297-.183.572-.183.96.023.32.16.846.32 1.166.365.48.046.617-.068.663-.571.069-.503-.091-.777-.663-1.166-.411-.297-.731-.709-.709-.937.092-.777-.022-1.006-.48-1.006-.365 0-.48-.16-.48-.594 0-1.006-.617-.938-1.76.16-.777.754-1.12 1.326-1.234 2.011l-.183.96-.526-.914c-.526-.914-1.417-1.212-1.989-.617-.32.32-.8.068-.8-.412 0-.183-.137-.343-.32-.343-.411 0-1.783-.685-1.966-.96-.069-.114-.32-.137-.549-.068-.297.068-.594-.115-.845-.503-.389-.595-.389-.595.64-1.097 1.394-.663 1.874-1.76 1.44-3.315-.16-.663-.869-.686-2.583-.114zm1.257 1.874c-.732.412-1.394.16-1.394-.526 0-.343.137-.571.365-.571.183 0 .366-.115.366-.252s.252.046.572.412c.571.686.571.686.091.937zm-.434 5.624c0 1.165-.183 1.188-.892.182-.571-.8-.434-1.12.48-1.143.32 0 .412.206.412.96zm135.628-7.75c-.96.343-2.583 2.515-2.835 3.75-.182.96-1.211 2.08-1.897 2.08-.297 0-.64.16-.732.365-.114.206-.594.434-1.074.503-.777.137-.869.091-1.006-.503-.091-.388-.046-.8.115-.983.342-.411 1.211-.457 1.6-.068.228.228.388.182.777-.16.914-.823.503-1.326-1.097-1.326-.64 0-1.052.251-1.898 1.051-1.211 1.166-1.394 2.012-.594 2.79.709.73 1.783.594 3.909-.458l1.875-.937 1.051.708c.914.618 1.12.663 1.669.412.526-.229.663-.206.96.183.274.365.389.411.64.16.16-.16.594-.297.937-.297.8 0 1.326-.55.892-.892-.16-.137-.526-.297-.777-.343-.366-.068-.458-.251-.412-.754.046-.366-.023-.823-.183-.983-.411-.503-1.44-.16-1.829.594-.48.96-1.211 1.303-1.508.755-.206-.343.023-.663 1.303-1.852 1.394-1.326 1.554-1.532 1.554-2.423 0-1.303-.457-1.738-1.44-1.372zm.206 1.737c-.617 1.075-1.898 2.424-1.898 1.966 0-.845 1.486-2.926 2.104-2.926.251 0 .205.252-.206.96zm-86.365-.365c-.183.48-.206.914-.046 1.348.183.526.091.915-.389 1.944-.777 1.714-.983 3.566-.434 4.114.617.64 1.737.48 3.452-.457l1.554-.891.412.525c.388.458.388.572.046 1.555-.206.571-.32 1.211-.23 1.44.23.572 1.898.549 2.424-.046.366-.411.366-.548.046-1.486-.32-.983-.32-1.028.183-1.44.343-.297.617-.343.8-.183.457.366 1.143-.16 1.646-1.234.228-.526.365-1.052.274-1.12-.274-.297-1.303.16-2.515 1.12-1.577 1.257-2.354.937-1.234-.503.572-.732.594-1.234.023-1.76-1.029-.937-2.423.023-2.446 1.669 0 .891-.069.983-1.189 1.623-1.554.868-2.492.8-2.606-.16-.091-.892.389-2.035.96-2.355.32-.16.412-.389.32-.709-.114-.343-.023-.457.32-.457.435 0 .48-.16.503-1.554 0-1.395-.046-1.578-.457-1.578-.32 0-.48.183-.48.48 0 .663-.434.618-.549-.045-.091-.503-.091-.503-.388.16zm-28.621.434c0 .16 0 .617.023 1.029.023.388-.137 1.211-.343 1.783-.229.594-.549 1.829-.754 2.743-.32 1.509-.298 1.692.068 2.103.594.686.983.549 1.532-.549.434-.822.503-1.257.366-2.354-.138-1.166-.092-1.395.365-1.76.412-.366.48-.595.343-1.44-.251-1.67-.366-1.852-.983-1.852-.32 0-.594.137-.617.297zm13.304.48c-.297.297-.685.937-.891 1.417-.434 1.052-.754 1.19-1.897.846-.778-.251-.87-.366-.87-1.074 0-.503-.16-.823-.41-.937-.572-.206-1.03.571-1.03 1.737 0 .526-.114 1.074-.228 1.211-.137.115-.274.755-.297 1.418-.069 1.097-.046 1.211.457 1.28.434.069.594-.114.915-.892.297-.754.525-.983.937-.983.297 0 .868-.068 1.28-.137.617-.137.754-.068 1.051.526.275.572.48.686 1.166.686.458 0 .96.091 1.12.206.16.091.71.068 1.19-.069.48-.114.982-.16 1.142-.069.137.092.686.183 1.212.206.526.023 1.211.114 1.509.206.617.206.937-.32.64-1.006-.092-.229-.183-.709-.206-1.029-.023-.8-1.006-.96-1.486-.251-.411.571-.869.64-1.28.137-.274-.32-.389-.32-1.029.046-.709.411-.731.411-1.074-.115-.206-.297-.572-.548-.823-.548-.595 0-.572-.297.183-1.417.343-.526.571-1.143.525-1.372-.114-.663-1.188-.686-1.806-.023zm57.653-.297c-.205.32.069.709.503.709.183 0 .343-.206.343-.48 0-.48-.571-.64-.846-.23zm-19.385.206c-.503.091-.549.983-.068 1.6.205.274.365.823.365 1.257 0 .526.137.777.366.777.206 0 .366-.114.366-.251 0-.114.137-.229.32-.229.366 0 1.051-2.811.754-3.086-.16-.16-1.417-.206-2.103-.068zm-9.35.663c-.091.068-.091.297-.022.48.091.228-.046.32-.48.32-.32 0-1.03.297-1.578.663-1.097.708-1.326 1.371-.411 1.143.503-.138.594-.046.731.525.274 1.143.755 1.6 1.669 1.578.457-.023.96.114 1.12.32.754.891 1.92-.115 1.92-1.692 0-.846-.114-1.12-.525-1.349-.48-.251-.618-.182-1.395.71-.96 1.12-1.143 1.188-1.6.57-.503-.662-.412-1.257.228-1.257.298 0 .846-.32 1.235-.708.571-.595.64-.778.366-1.075-.298-.388-1.006-.503-1.258-.228zm18.997 1.028c-1.052 1.052-2.812 2.423-3.086 2.423-.137 0-.252-.114-.252-.274 0-.16-.297-.206-.845-.091-.595.114-.96.045-1.212-.206-.48-.503-1.646-.114-3.223 1.074-.457.343-1.029.686-1.257.778-.48.16-.32.868.205.868.183 0 .938-.388 1.669-.868 1.349-.892 1.532-.892 1.852.045.068.137.548-.023 1.12-.32l1.006-.571.571.526.549.525 1.074-1.12 1.075-1.12.16.869c.205 1.028.983 1.531 1.783 1.12.32-.183.526-.183.64-.046.183.32 1.211.32 1.829 0 .388-.206.594-.183.937.137.411.366.503.366 1.463-.068.571-.252 1.303-.755 1.623-1.098.64-.708.983-.8.983-.32 0 .686 1.006 1.623 1.646 1.555.366-.023.914.137 1.234.343.846.594 1.303.548 1.075-.115-.092-.297-.229-1.12-.297-1.805-.138-1.692-.96-1.692-1.395 0-.091.365-.228.663-.32.663-.411-.023-.709-.435-.869-1.212-.205-1.166.183-1.463 1.966-1.372 1.258.046 1.395.023 1.395-.411 0-.435-.183-.503-1.966-.549-1.349-.046-1.989 0-1.989.183 0 .32-3.132 3.36-3.452 3.36-.114 0-.343-.182-.526-.411-.274-.389-.342-.389-1.12.046-.754.388-.891.411-1.371.068-.275-.205-.732-.32-.983-.251-.343.091-.48-.046-.595-.732-.16-.845.183-1.851.618-1.851.137 0 .182-.092.114-.229-.274-.434-1.189-.206-1.829.457z"/>
	<path d="M177.91 152.846c0 .343.137.48.48.48.617 0 .549-.777-.069-.915-.297-.045-.411.092-.411.435zm-79.942.251c0 .137.16.229.366.229.183 0 .366-.092.366-.229s-.183-.251-.366-.251c-.206 0-.366.114-.366.251zm133.686 1.166c-.389.389-.709.892-.709 1.097 0 .526.663.755 1.417.457.435-.16.778-.16 1.052.023s.617.16 1.12-.023c.412-.16.777-.182.846-.068.068.091.96.183 1.989.16 1.394-.046 1.851-.137 1.851-.389 0-.457-1.531-1.234-2.171-1.074-.298.068-.595.023-.686-.114-.092-.16-.434-.138-.983.091-1.052.457-1.029.457-1.12-.183-.069-.434-.252-.548-.983-.617-.732-.069-1.029.046-1.623.64zm-25.352-.274c-.663.137-1.76 1.143-1.76 1.623 0 .205.274.663.594.983.64.64 1.509.731 2.652.251.571-.251.823-.251 1.303.023.343.16.96.297 1.394.297.618 0 .778-.091.778-.48 0-.343-.16-.48-.595-.48-.708 0-.754-.16-.206-.754.32-.343.366-.572.16-.869-.434-.709-1.005-.617-1.531.274-.389.663-.709.869-1.417 1.006-1.28.206-2.584-.617-1.555-1.006.206-.068.503.046.709.32.297.389.366.389.594.069.343-.526.297-1.12-.137-1.28-.206-.092-.412-.137-.412-.114-.022.022-.274.068-.571.137zm-8.71 1.623c0 1.714.389 2.24 1.12 1.486.298-.275.48-.298.8-.092.343.206.64.183 1.28-.114.664-.32.96-.366 1.532-.137.389.137.892.183 1.098.114.503-.183.525-.891.045-.891-.205 0-.503-.206-.663-.48-.16-.275-.48-.48-.685-.48-.206 0-.572.205-.823.48-.549.617-.983.617-1.143-.023-.092-.32-.298-.48-.572-.412-.251.046-.549-.114-.686-.411-.137-.252-.48-.503-.777-.549-.503-.069-.526 0-.526 1.509zm71.095-.343c-.366.594-.206.937.434.937.595 0 .869-.594.457-1.074-.388-.48-.525-.458-.891.137zm-34.176 2.034c-.091.069-2.972.138-6.423.115-5.464 0-6.287.045-6.424.365-.069.206-.092.435-.023.503.114.115 12.733.115 15.796.023 1.143-.045 1.303-.114 1.303-.526 0-.434-.183-.502-2.034-.548-1.143-.046-2.126-.023-2.195.068zm-34.633.32c-.183.32.48.8.983.71.686-.138.526-.778-.205-.87-.343-.045-.686.023-.778.16zm34.062 1.235c-1.303.091-4.64.137-7.384.114-4.915-.046-5.006-.046-4.915.435.046.32.32.571.777.685.938.252 10.516.32 13.99.092 2.31-.16 2.698-.252 2.835-.64.297-.983-.023-1.029-5.303-.686z"/>
</svg>
