<?xml version="1.0" encoding="utf-8"?>
<svg xmlns="http://www.w3.org/2000/svg" version="1.0" viewBox="0 0 257 197">
	<title>Sketch for a poster designed for an influenza epidemic.</title>
	<path d="M76.108 1.632c-1.303 1.258-1.805 1.966-2.194 3.018-.914 2.4-.526 5.326.754 5.898.48.228.778.183 1.532-.206.526-.274 1.074-.64 1.211-.8.412-.503 2.698-5.19 2.72-5.532 0-.183.092-.48.23-.686.182-.297.274-.274.594.183.526.754 1.257 1.097 2.537 1.257l1.075.137v1.555c0 1.714.503 2.88 1.257 2.88.229 0 1.029-.617 1.806-1.372 1.303-1.303 1.394-1.348 1.211-.662-.662 2.537.663 3.383 2.447 1.554.502-.526 1.005-.96 1.097-.96.091 0 .274.32.411.709.366 1.028 1.143 1.165 2.012.342.411-.388.891-1.051 1.074-1.463.343-.823.938-1.12.686-.343-.068.252.092.96.343 1.578l.48 1.12 1.692-.16c1.623-.16 1.669-.16 1.943.457.526 1.143 1.029.8 1.349-.846.205-1.143.457-1.646 1.005-2.171.64-.595.8-1.395.298-1.395-.435 0-1.28.869-1.738 1.738-.365.731-.571.914-.891.777-.457-.206-1.029-.206-2.126.023-.938.205-1.303-.32-1.212-1.715.046-.754-.046-.937-.434-1.006-.252-.045-.709-.365-.983-.708-.732-.892-1.395-.595-1.189.548.114.595.023 1.143-.32 1.92-.48 1.098-.96 1.418-1.006.663-.023-.228-.045-.685-.068-1.028-.069-1.075-.823-.869-2.31.594-.868.869-1.44 1.28-1.554 1.097-.091-.137-.023-.845.137-1.577.275-1.189.252-1.372-.114-1.737-.366-.366-.503-.297-2.057 1.257-2.058 2.035-2.286 1.943-2.058-.663.183-1.76.206-1.806 1.235-2.675.708-.594 1.051-1.074 1.051-1.463 0-.823-.434-.96-.754-.251-.411.891-.663.754-.617-.274.068-1.418-.366-1.212-.915.457l-.503 1.509-1.165.068c-1.12.092-1.166.046-2.378-1.257-.686-.732-1.349-1.326-1.486-1.326-.114 0-.434.892-.686 1.989-.525 2.286-2.148 5.555-3.086 6.263-1.348 1.006-2.308-.365-1.943-2.766.275-1.783 1.509-3.451 3.384-4.617 1.165-.709 1.417-1.6.48-1.6-.366 0-1.143.594-2.264 1.668zm46.498 1.92c-.137.252-.229.87-.229 1.35 0 .48-.411 2.057-.869 3.497-.48 1.44-.823 2.766-.731 2.972.206.548.846.434 1.097-.183.137-.297.412-.96.64-1.486l.389-.96.206.685c.411 1.44 1.668 2.035 2.72 1.258.343-.252.617-.252 1.143-.046.594.206.869.16 1.943-.411.686-.366 1.532-.663 1.852-.663.343 0 .823-.138 1.097-.32.64-.458 2.263-.618 2.263-.252 0 .16-.206.96-.457 1.783-.48 1.532-.457 2.15.114 2.15.435 0 1.372-1.853 1.189-2.31-.069-.206.046-1.074.229-1.92.205-.869.297-1.669.228-1.783-.228-.366-.731-.252-1.189.274-.32.343-.617.457-1.028.343-.412-.091-.755.023-1.166.412-.572.525-.617.525-.915.137-.434-.595-.8-.526-1.463.274-.32.389-.914.8-1.303.96-.617.206-.777.183-1.028-.228-.389-.64-.869-.595-1.646.182-.8.732-.915.663-1.097-.594-.115-.823-.046-.96.388-1.074.64-.183.64-.8 0-1.143-.388-.206-.617-.183-1.097.114-.32.229-.64.366-.686.32-.023-.046.092-.754.297-1.554.206-.823.297-1.67.229-1.875-.206-.503-.823-.457-1.12.091zm21.168 2.172c-.023 1.326-.137 1.829-.549 2.4-.457.618-.48.8-.251 1.372.16.389.251 1.486.229 2.469-.069 1.532-.023 1.806.32 1.874.251.046.594-.182.8-.502.388-.572.434-1.372.297-3.635-.046-.755.046-.983.389-1.052.685-.114 1.6.617 1.6 1.303 0 .892.686 1.029 1.348.275.732-.846 1.006-.823 1.098.137.114 1.211.823 1.006 1.486-.457.32-.686.503-1.326.411-1.463-.274-.412-2.103-.23-2.652.297l-.548.48-.709-.915c-.549-.685-.891-.891-1.44-.891-.732 0-.732 0-.594-1.075.182-1.325-.138-2.286-.755-2.286-.411 0-.48.183-.48 1.67zm30.518-.891c-.274.297-.708.983-.983 1.531-.411.823-.457 1.166-.274 2.15.137.708.457 1.416.869 1.828.708.754 1.074.846 1.508.32.229-.274.16-.572-.343-1.463-.685-1.235-.777-1.783-.297-1.783.16 0 .526-.16.777-.343.39-.297.412-.434.16-.823-.16-.274-.182-.549-.068-.617.114-.092.297-.046.366.091.228.389.846.297.846-.114 0-.206-.252-.457-.572-.594-.32-.115-.663-.32-.732-.458-.251-.411-.731-.297-1.257.275zM111.36 7.324c-.892 1.075-1.44 3.04-.983 3.567.388.502.708.457 1.348-.16l.549-.503.617.64c.595.64 1.166.685 1.92.16.686-.503 1.098-.458 1.303.091.16.434.48.64 1.12.755.8.16.96.091 1.487-.503.685-.823.594-2.035-.23-2.904-.662-.731-.936-.708-1.645.046-.709.732-2.606 1.829-2.903 1.646-.115-.069-.206-.617-.206-1.189 0-.868-.091-1.074-.457-1.074-.252 0-.595.343-.823.846-.229.457-.503.823-.64.823-.457 0-.252-.595.48-1.395.411-.457.709-.983.663-1.189-.137-.731-.846-.571-1.6.343zm6.789 2.47c.206.32-.114.982-.457.982-.435 0-.915-.64-.732-.96.183-.297 1.006-.32 1.189-.023zm48.738-2.904c-1.235 1.029-1.624 2.492-.823 2.995.297.183.685.023 1.646-.64.708-.48 1.371-.87 1.485-.87.115 0 .229.298.229.664 0 .937.503 1.6 1.097 1.394.595-.183 1.83-1.943 1.738-2.469-.138-.617-.846-.662-1.052-.091-.206.709-.526.617-.983-.274-.229-.435-.526-.869-.663-.96-.503-.32-2.172-.183-2.674.251zm.548 1.28a.653.653 0 0 1-.388.389c-.16.068-.229-.046-.138-.275.183-.434.663-.525.526-.114zm-11.178-1.189c-.458.458-.343 1.075.32 1.486.64.412.8 1.303.32 1.76-.343.343-.092 1.03.365 1.03.206 0 .71-.504 1.12-1.098.824-1.189 1.44-1.326 1.67-.343.228.96.982.869 1.668-.183l.572-.891.205.754c.298 1.166.778 1.44 1.76.96.778-.366 1.052-.823.686-1.189-.091-.091-.32-.045-.48.092-.548.457-1.005.068-1.097-.914-.068-.71-.183-.915-.594-.983-.32-.046-.663.137-.892.48l-.388.525-.686-.64-.663-.663-.64.48c-.823.663-1.258.618-1.852-.228-.549-.777-.937-.892-1.394-.435zM59.352 13.68c-2.377.23-5.44.55-6.835.686-1.394.137-3.429.297-4.55.366-2.468.137-3.36.366-3.702.937-.23.343-.16.503.297.892.32.251.64.411.731.343.275-.16 7.247-1.28 10.47-1.67 3.223-.388 7.795-.685 11.019-.73 1.737 0 2.171-.092 2.377-.412.412-.64-.114-1.052-.777-.64-.389.251-.549.251-.777.023-.412-.412-2.927-.343-8.253.205zm74.775 2.31c-2.194.274-4.069 1.394-3.383 2.057.228.228.388.183.754-.252.252-.32.823-.617 1.303-.708l.846-.138-.48 1.12c-.617 1.464-1.029 4.001-.709 4.344.32.32 1.418-1.006 1.418-1.737 0-.48.114-.549.891-.458 1.143.138 1.943-.228 2.378-1.074.983-1.897-.503-3.452-3.018-3.155zm1.738 1.37c.251.184.434.618.434 1.075 0 .732-.046.732-1.075.732h-1.074l.229-.732c.205-.754.64-1.417.914-1.417.091.023.343.16.572.343zm-79.21-.525c-.138.16-.229 1.052-.206 1.989.023 1.12-.092 2.057-.389 2.812-.228.64-.411 1.417-.411 1.76 0 .709.617 1.029 1.074.549.503-.503 1.326-4.71 1.166-5.853-.229-1.394-.709-1.897-1.234-1.257zm4.96.114c-.023.092-.068 1.006-.091 1.99-.046.982-.114 2.057-.16 2.377-.137.868.388.868 1.394-.046 1.852-1.646 2.72-1.737 2.72-.274 0 .64.183 1.051.732 1.577.686.709.777.732 2.149.571 1.28-.16 1.486-.114 1.852.32.365.412 2.514 1.235 3.223 1.235.32 0 .228-1.12-.092-1.372-.16-.137-.594-.32-.96-.411-.846-.183-.846-.732-.023-1.143.343-.183.732-.48.87-.686.388-.617 0-1.623-.778-2.012-.617-.342-.732-.32-1.28.115-.343.251-.8.96-1.052 1.531-.411.983-.526 1.098-1.463 1.235-1.029.16-1.737-.137-1.737-.709 0-.777-.549-2.103-.983-2.309-.366-.205-.732-.137-1.669.343l-1.189.595v-.892c0-1.074-.457-2.057-1.028-2.172-.229-.023-.435.023-.435.137zm10.767 3.475c.092.389-.823 1.075-1.074.823-.069-.068-.046-.411.023-.754.183-.709.937-.755 1.051-.069zm17.58-3.04a3.768 3.768 0 0 0-.229 1.188c0 .32-.343 1.486-.731 2.607-.846 2.423-.87 2.56-.23 2.56.344 0 .618-.297.961-1.075l.457-1.097H93.322l-.16 1.44c-.091.869-.046 1.44.091 1.44.366 0 1.28-.937 1.28-1.325 0-.206.138-.595.32-.892.435-.731.252-4.503-.228-4.503-.411 0-.823.777-.823 1.531 0 1.212-.206 1.349-1.714 1.349-1.6 0-1.555.069-1.052-2.012.183-.8.274-1.531.206-1.623-.252-.434-1.052-.16-1.28.412zm84.559 1.028c-.343.458-.48.892-.389 1.235.092.297 0 1.12-.16 1.829-.228.96-.251 1.463-.068 1.874.32.686 1.668 1.349 2.72 1.349.571 0 1.051.251 1.806.937.983.915 2.583 1.578 3.429 1.418.206-.046.434-.343.48-.64.091-.618-.366-1.075-.869-.87-.434.138-1.966-.64-1.966-1.005 0-.16.389-.412.846-.549.48-.114 1.074-.411 1.326-.64.617-.548.594-1.646-.023-2.08-.937-.663-3.04.297-3.68 1.669-.343.663-.526.8-1.19.8-1.325 0-1.69-.64-1.508-2.515.114-1.074.297-1.623.572-1.783.32-.183.343-.343.16-.891-.32-.938-.869-.96-1.486-.138zm6.423 4.115c0 .526-.114.595-1.028.823-.777.183-.869-.183-.275-.846.55-.594 1.303-.571 1.303.023zm-41.033-3.863c-.137.274-.275.846-.275 1.28 0 .434-.182 1.44-.434 2.24-.229.778-.389 1.578-.343 1.738.183.526 1.052.32 1.669-.435.777-.914 1.189-.891 1.372.092.228 1.143.868 1.646 1.988 1.554.983-.068 1.258-.503.412-.617-.343-.068-.617-.366-.8-.846-.663-1.783-1.075-2.103-2.218-1.669-.411.16-.777.275-.823.23-.022-.024.138-.732.343-1.555.297-1.098.32-1.623.137-1.898-.365-.617-.754-.64-1.028-.114zm-27.98.091c-.595 1.99-.892 2.698-1.235 2.95-.32.205-.435.73-.48 2.125-.046 1.623 0 1.852.343 1.783.228-.045.594-.48.822-.937.32-.731.55-.891 1.326-1.029.526-.068 1.35-.457 1.852-.868.846-.663 1.006-.709 2.492-.617.868.068 1.623.228 1.669.388.045.137-.16 1.12-.458 2.149-.457 1.577-.48 1.966-.228 2.263.183.229.434.366.548.32.389-.137 1.166-2.834 1.212-4.16.069-1.852-.252-2.08-2.88-2.172-1.166-.046-2.584-.137-3.132-.229l-1.029-.16.137-1.051c.16-.96.137-1.052-.343-1.052-.297 0-.548.137-.617.297zm1.554 3.407c0 .32-1.143.754-1.372.525-.091-.091 0-.297.16-.503.389-.457 1.212-.48 1.212-.022z"/>
	<path d="M178.407 18.663c-1.189.274-.892.846.571 1.074 1.464.229 2.012-.022 1.555-.754-.274-.457-1.029-.572-2.126-.32zm-73.083.891c-.138.32-.298.87-.366 1.19-.069.32-.183.868-.252 1.21-.091.458-.228.572-.548.48-.229-.09-.892.024-1.418.207-1.097.388-1.44.182-.983-.55.252-.41.229-.57-.137-.982-.548-.594-1.851-.457-3.543.389-1.372.685-1.806 1.325-1.257 1.874.503.503 1.303.457 2.034-.114.777-.617 1.052-.595 1.372.091.32.709 1.326.96 2.446.64 1.646-.48 1.737-.411 1.554 1.166-.114.983-.068 1.463.137 1.578.526.32.983-.48 1.12-1.944.16-1.988.23-2.126.686-1.668.549.548 1.143.457 1.783-.229.503-.503.526-.663.298-1.189-.298-.663-1.166-.823-1.67-.32-.48.457-.616.023-.342-1.051.137-.549.206-1.098.137-1.189-.251-.411-.823-.183-1.051.411zm-6.47 2.607c0 .068-.228.228-.48.365-.297.16-.48.183-.48.046s.183-.297.412-.343c.228-.068.434-.137.48-.137.022-.023.068.023.068.069zm68.283-.823c-.274.114-1.303.205-2.286.228-1.006 0-2.08.16-2.423.343-.343.183-1.006.389-1.486.48-.983.183-1.669 1.075-1.577 2.012.137 1.097.96.983 1.988-.275.938-1.12 1.852-1.6 3.178-1.6.731 0 .777.046.64.709-.091.526 0 .823.389 1.212.457.457.708.525 1.623.388.823-.137 1.166-.091 1.531.229.366.343.595.366 1.463.16.572-.137 1.052-.229 1.098-.183.091.091.091.389-.092 2.949-.114 1.714-.091 2.012.252 2.126.594.251 1.623-.823 1.417-1.44-.091-.275-.137-1.258-.114-2.195.045-1.372-.023-1.806-.412-2.286-.457-.571-.48-.571-1.326-.16l-.891.412-.229-.595c-.251-.686-.274-.686-1.554-.251-1.486.548-1.83.48-1.76-.275.09-.64.16-.663 1.28-.663 1.371 0 1.737-.525.8-1.188-.595-.412-.823-.435-1.509-.137zm-14.013 1.074c-1.097 1.394-.366 2.469 1.463 2.149.8-.137.96-.092.846.206-.092.182-.229.845-.297 1.44-.206 1.234.137 2.08.8 2.08.388 0 .457-.274.594-1.829.343-4.115.251-4.389-1.737-4.572-1.03-.114-1.19-.046-1.67.526zm2.377.571c0 .115-.297.32-.64.48-.686.32-1.234.046-.937-.434.183-.297 1.577-.343 1.577-.046zm-7.704-.571c-.342.183-.823.709-1.074 1.189-.434.8-.434.868-.046 1.257.32.343.503.366 1.006.114.892-.388 1.532-.343 2.218.206.731.572 1.645.617 1.851.091.092-.251-.068-.457-.571-.64a1.576 1.576 0 0 1-.983-1.028c-.206-.618-.709-1.052-1.669-1.44-.069-.046-.389.091-.732.251zm-21.83 5.395c-2.881.457-5.762 1.12-9.008 2.103-1.051.32-2.446.732-3.109.914-1.463.39-4.069 1.6-4.709 2.172-.251.229-.937 1.189-1.531 2.126-1.143 1.829-1.966 2.583-4.481 4.092-2.4 1.463-3.543 2.606-4.526 4.55-.206.388-1.098 1.485-2.012 2.468-1.257 1.349-2.034 1.943-3.246 2.492-3.27 1.509-4.96 2.446-5.578 3.109a6.59 6.59 0 0 1-1.303 1.029c-.389.182-1.074.777-1.554 1.28a25.94 25.94 0 0 1-1.783 1.76c-2.195 1.92-3.544 4.458-3.978 7.338-.434 2.903-.183 4.32 1.051 5.83 1.646 2.01 1.944 2.422 3.704 5.303 3.383 5.486 4.252 6.698 6.4 8.915 2.104 2.149 2.607 2.515 5.464 3.795 1.143.503 5.44 1.532 8.23 1.943 1.989.32 4.663.069 7.086-.617 1.12-.32 2.743-.686 3.612-.8.846-.115 1.989-.412 2.515-.663 1.303-.595 7.818-.595 9.44.023.572.205 1.258.365 1.533.365.251 0 .754.206 1.097.458.777.548 10.881 3.794 14.95 4.8 4.344 1.075 9.99.412 17.031-2.011 2.355-.823 3.589-1.395 5.692-2.652.937-.595 1.852-1.052 1.989-1.075.297 0 1.097-.708 4.32-3.886 1.51-1.486 2.515-2.697 2.995-3.635a52.358 52.358 0 0 1 1.486-2.743c.412-.708.892-1.92 1.052-2.652.137-.754.365-1.577.48-1.828.48-1.166.937-2.835.937-3.475 0-.389.16-1.326.366-2.08.183-.778.365-1.99.365-2.72 0-.732.092-1.967.229-2.744.206-1.28.16-1.532-.366-2.652-.32-.708-.594-1.371-.594-1.486 0-.114-1.12-1.348-2.469-2.743-1.806-1.874-2.903-2.789-4.138-3.452-1.646-.891-2.766-1.714-7.223-5.235-4.48-3.566-5.327-4.274-5.441-4.594-.069-.183-.823-.663-1.646-1.098-.846-.434-1.897-1.074-2.355-1.417a17.097 17.097 0 0 0-1.737-1.097c-.48-.275-1.623-1.006-2.537-1.6-2.218-1.532-5.601-3.681-6.173-3.978-.274-.137-1.508-.48-2.766-.8-1.257-.297-2.56-.64-2.88-.777-.32-.138-1.143-.39-1.806-.55a219.67 219.67 0 0 1-3.703-1.074c-4.55-1.371-4.984-1.394-9.373-.731zm7.52 1.234c1.166.389 2.24.686 2.4.686.138 0 .823.206 1.486.457 1.28.48 2.606.87 5.875 1.715 2.63.663 3.224.937 5.212 2.332a57.43 57.43 0 0 0 2.72 1.828c.572.366 1.395.892 1.784 1.143.411.275 1.874 1.212 3.246 2.104 2.515 1.577 3.932 2.583 4.915 3.52 1.006.937 3.223 2.789 4.412 3.658.64.502 1.92 1.485 2.834 2.217.892.732 2.538 1.875 3.658 2.515 2.423 1.463 5.83 4.709 6.95 6.652l.754 1.349-.092 3.566c-.114 3.84-.48 7.36-.914 8.71-.754 2.354-1.532 4.274-2.057 5.029-.32.48-.892 1.486-1.28 2.24-1.898 3.726-7.59 8.207-13.42 10.561-5.12 2.08-12.07 3.223-15.11 2.515-2.537-.595-5.372-1.372-5.898-1.623-.251-.115-1.074-.389-1.783-.572a57.623 57.623 0 0 1-2.652-.754c-.731-.229-1.485-.434-1.668-.457-.206-.023-.595-.137-.846-.229-2.606-1.074-5.852-2.309-6.035-2.309-.114 0-.526-.16-.915-.366-.434-.205-1.28-.365-2.057-.342-4.983.068-6.447.205-7.887.685-.823.275-2.034.503-2.651.503-.686.023-1.944.32-3.155.778-1.829.662-2.309.754-4.778.777-1.646 0-3.109-.115-3.612-.275-.457-.16-1.737-.457-2.812-.64-1.074-.183-2.217-.525-2.514-.731-.297-.206-.686-.389-.869-.389-.183 0-1.326-.617-2.514-1.371-1.646-1.03-2.652-1.898-4.07-3.544-2.308-2.629-2.628-3.109-6.789-10.172a38.842 38.842 0 0 0-1.966-2.95c-1.029-1.325-1.029-1.325-1.029-3.383 0-2.583.55-4.16 2.218-6.378 1.166-1.531 4.046-4.412 4.96-4.937.252-.137.823-.549 1.258-.892.846-.663 5.92-3.337 6.355-3.337.32 0 2.926-2.606 3.406-3.407.206-.365.48-.662.571-.662.115 0 .458-.503.778-1.143.343-.618.8-1.372 1.028-1.646.412-.503 4.298-3.2 4.595-3.224.366 0 2.08-1.874 2.858-3.086 1.509-2.4 2.057-2.812 4.732-3.635a394.51 394.51 0 0 0 4.572-1.44c3.177-.983 4.755-1.371 7.566-1.76 1.372-.206 2.79-.411 3.11-.48 1.485-.229 3.154-.046 5.12.594z"/>
	<path d="M149.26 42.3c0 .183.526.549 1.166.846 1.486.686 1.898 1.6 1.418 3.2-.366 1.235-2.972 4.092-4.778 5.235-1.189.778-1.463 1.28-.823 1.532.777.297 4.663-3.223 5.944-5.395 1.005-1.692 1.12-2.56.48-3.818-.64-1.28-3.407-2.583-3.407-1.6zm-36.484 2.675c-.64.754.434 1.714 1.12 1.029.274-.298.297-.48.092-.87-.32-.594-.8-.662-1.212-.16z"/>
	<path d="M147.82 46.072c0 .572.092.732.412.663.251-.046.457-.343.503-.732.045-.525-.023-.662-.435-.662-.388 0-.48.16-.48.731zm-43.754.137c-.251.229.595 1.418 1.235 1.738.343.182 1.486.708 2.537 1.165 1.052.435 2.149.915 2.4 1.03.275.113 1.532.708 2.835 1.302 1.28.617 3.063 1.326 3.955 1.6.891.275 1.714.595 1.852.709.365.366 1.097.274 1.257-.16.206-.571-.343-.914-2.332-1.509-.983-.297-1.966-.617-2.149-.731-.754-.435-2.812-1.418-4.457-2.058a74.238 74.238 0 0 1-4.184-1.966c-2.652-1.326-2.72-1.348-2.949-1.12zm13.213 14.128c-.045.068-1.806.16-3.932.251-3.954.137-5.623.435-5.623.983 0 .252.343.297 1.509.183.823-.069 1.646-.183 1.828-.251.206-.046 4.801-.16 10.219-.229 9.144-.137 10.195-.091 13.967.366 2.263.297 4.458.617 4.892.754.435.114.869.16.96.092.39-.229-.091-1.052-.685-1.166-1.303-.275-6.858-.869-8.047-.892-.686 0-4.32-.046-8.115-.091-3.772-.046-6.904-.046-6.973 0zm-20.414 2.949c-.503.64-1.463 1.76-2.126 2.537-1.12 1.326-1.188 1.44-.8 1.852.206.228.983.663 1.738.96.754.297 1.6.754 1.851.983.275.251.686.434.915.434.228 0 .708.16 1.074.343 1.12.572 4.572 1.326 9.533 2.08 2.629.389 5.12.892 5.532 1.098.388.183.891.297 1.097.205.229-.068 1.463.115 2.766.435 2.858.731 6.172 1.211 6.79 1.006.251-.069.525-.023.594.114.091.114.32.16.503.091.206-.068.526.023.754.183.229.206 1.052.343 2.035.366 1.097.023 1.851.16 2.263.434.526.343.731.366 1.326.137.388-.16 1.074-.228 1.6-.137 2.309.366 5.83.595 9.693.595l4.252.023.32 1.005c.434 1.326.868 1.578 1.897 1.052.457-.229 1.623-.686 2.629-1.029.983-.343 1.874-.754 1.989-.937.343-.594 1.074-.8 3.68-1.029 1.44-.137 3.68-.526 5.007-.868 1.783-.458 2.72-.572 3.634-.48 1.166.137 1.852-.115 1.28-.48-.365-.23-.297-.984.138-1.418.365-.366.365-.434.022-.823-.251-.274-.297-.526-.137-.754.503-.8-.525-2.835-1.783-3.52-.754-.39-6.56-1.944-7.955-2.127a32.094 32.094 0 0 1-1.692-.228c-4.48-.8-11.521-1.166-18.95-.983-4.367.114-8.436.046-13.557-.206-4.046-.206-11.475-.389-16.527-.411-8.184-.023-9.259.022-9.602.365-.365.366-.251.389 1.235.389 1.051 0 1.6.091 1.6.274 0 .16-.48.778-1.051 1.395-.595.594-1.372 1.463-1.76 1.897l-.686.8-1.6-.891c-.892-.48-1.624-.96-1.624-1.075 0-.274 1.76-2.377 2.355-2.789.297-.205.526-.525.526-.754 0-.206.182-.572.388-.823.32-.343.343-.434.069-.434-.183.023-.755.525-1.235 1.143zm8.299 1.257h1.485l-1.348 1.257c-.732.686-1.92 1.943-2.652 2.766-1.28 1.44-1.372 1.51-2.035 1.258-1.211-.48-1.325-.686-.868-1.578.686-1.303 3.177-4 3.589-3.84.183.068 1.006.137 1.829.137zm7.59.297c0 .114-.23.297-.55.412-.64.228-4.092 3.84-4.777 4.983-.572.96-.686.96-4.435.183-.297-.069-.549-.251-.549-.389 0-.137 1.166-1.417 2.583-2.834l2.584-2.56 2.583.022c1.417 0 2.56.092 2.56.183zm5.668 0c.023.046-1.44 1.6-3.291 3.498l-3.338 3.429-1.852-.275c-1.028-.16-1.966-.388-2.08-.503-.114-.114 1.097-1.508 2.88-3.314l3.11-3.11 2.262.115c1.258.069 2.286.137 2.31.16zm12.162.252c2.469.022 4.503.114 4.503.205 0 .069-.754 1.166-1.691 2.4a1148.82 1148.82 0 0 0-3.338 4.413c-.914 1.188-1.806 2.308-2.012 2.491-.32.252-.891.229-3.337-.091-3.68-.48-6.698-1.097-6.607-1.372.069-.228 5.212-2.08 8.71-3.132 3.155-.937 3.452-1.074 3.635-1.508.205-.549-.366-2.263-.8-2.446-.503-.183-.983.32-.618.686.458.457-.914 1.988-2.103 2.331-.526.16-1.074.229-1.211.137-.16-.091-.503.069-.778.343-.297.252-.823.549-1.188.64-.549.138-.663.092-.663-.274 0-.343-.137-.297-.777.32-.435.389-1.143.846-1.6 1.006-.984.32-.984.32-.984.023 0-.435 1.28-1.715 2.31-2.31 1.234-.73 1.622-.73 1.394-.022-.115.389.16.206 1.143-.709.891-.845 1.623-1.303 2.194-1.417.549-.091.892-.297.892-.526 0-.548-1.006-.251-4.732 1.418-1.829.823-4.572 1.943-6.081 2.469-2.446.891-2.743 1.051-2.697 1.531.045.572-.48.709-1.143.297-.275-.183.182-.731 2.171-2.651 1.372-1.35 2.766-2.606 3.063-2.812.298-.206.71-.709.915-1.075l.366-.708 3.291.137c1.806.091 5.304.183 7.773.206zm8.344 1.6c0 .114-.206.434-.435.731-.342.435-.525.503-.891.297-.274-.137-.937-.32-1.532-.411-1.394-.229-1.257.389.183.709 1.097.251 1.212.525.549 1.348l-.435.55-1.371-.55c-.823-.342-1.28-.663-1.189-.823.092-.16.686-.983 1.326-1.874l1.189-1.577 1.303.708c.708.389 1.303.777 1.303.892zm8.595-1.372c.114.16.48.732.755 1.257l.548.938-.686.571c-.388.297-.96.777-1.257 1.052-1.006.846-1.852-.023-1.12-1.143.229-.343.731-.8 1.097-1.006.777-.457.937-1.006.297-1.006-.228 0-.891.274-1.463.594-.731.412-1.234.55-1.668.458-.595-.16-.618-.137-.435.891.092.572.252 1.098.389 1.143.457.16 2.492 3.292 3.246 5.03l.8 1.851-2.56.069c-2.95.091-11.773-.412-11.956-.686-.206-.343 1.692-2.926 4.183-5.738 1.35-1.486 2.446-2.926 2.446-3.178 0-.297-.32-.594-.845-.8-.458-.205-.846-.411-.846-.48 0-.068 1.989-.114 4.412-.114 3.246 0 4.48.069 4.663.297zm6.035.32c1.509.183 2.812.412 2.88.48.07.092-.045.275-.25.412-.207.16-.572.64-.778 1.051-.229.435-.617.915-.869 1.098-.274.205-.549.685-.64 1.12-.137.731-.114.754.434.617.412-.091 1.098.091 2.15.571 2.674 1.258 6.057 2.584 6.972 2.767 2.011.365.937.754-3.772 1.348-1.19.137-2.675.343-3.292.457-.823.138-1.28.092-1.6-.137-.618-.411-3.407-4.686-4.07-6.172a25.736 25.736 0 0 0-1.234-2.354c-.389-.64-.709-1.258-.709-1.395 0-.343 1.6-.297 4.778.137zm6.652 1.052c3.52.868 5.967 1.577 6.493 1.874.48.275.96 1.166.731 1.395-.16.16-3.635-.777-5.715-1.532-1.12-.411-2.469-.846-3.017-.983-.938-.251-1.44-.754-1.12-1.074.228-.229.617-.183 2.628.32zm-1.325 1.714c.983.412 2.308.892 2.971 1.075 2.035.548 3.795 1.006 4.48 1.166.664.137 1.601 1.211 1.327 1.485-.092.092-.617.023-1.189-.137a35.004 35.004 0 0 0-2.217-.548c-1.555-.298-7.521-1.852-8.23-2.126l-.549-.206.526-.732c.297-.388.663-.731.823-.731.16 0 1.097.343 2.058.754zm-9.19.732c.297.48.228.617-.983 1.806l-1.303 1.303-.457-.869-.458-.869 1.052-.937c1.189-1.074 1.692-1.166 2.149-.434zm-14.79.891c.8.32.845.755.114 1.418-.48.457-.64.48-1.692.251-1.372-.297-1.623-.731-.846-1.554.595-.618 1.029-.64 2.423-.115zm-15.408.503c0 .297-1.212 1.692-1.463 1.692-.412 0-.229-.8.297-1.372.526-.548 1.166-.731 1.166-.32zm42.474 1.143c1.12.32 2.834.755 3.794.983 1.715.389 2.286.96.778.8-1.578-.16-5.212-1.188-6.721-1.897-1.829-.869-1.212-.823 2.149.114zm-44.577-.114c-.229.869-.549 1.143-1.44 1.143-.755 0-.823-.046-.755-.663.069-.503.252-.686.8-.8 1.372-.297 1.532-.252 1.395.32zm33.467-.16c.205.571-2.08 2.812-2.492 2.469-.503-.412-.389-.755.549-1.852.868-1.029 1.668-1.28 1.943-.617zm-16.688.983c.297.16-1.28 2.012-1.715 1.989-.777 0-2.126-.48-2.263-.823-.068-.183.115-.617.389-.983.48-.595.571-.617 1.943-.48.8.091 1.554.228 1.646.297zm17.625.686c.091.228-.274.731-1.029 1.417-.64.594-1.234 1.074-1.349 1.097-.457.023-.068-1.051.686-1.92.915-1.006 1.463-1.211 1.692-.594zm-20.826 1.714c.435.115.778.297.778.389-.023.228-.137.228-1.646.023-1.235-.137-1.258-.16-.869-.595.252-.297.503-.365.663-.228.16.114.617.297 1.074.411zm22.083.32c.275.389.526.755.526.823 0 .069-.594.137-1.326.137-.731 0-1.326-.068-1.326-.16 0-.228 1.235-1.531 1.44-1.531.092 0 .39.32.686.731zm.709 1.555c-.297.297-3.635 1.554-3.818 1.44-.594-.366.046-1.12 1.143-1.326 1.075-.206 2.858-.274 2.675-.114z"/>
	<path d="M126.835 67.583c-.137.32-.092.343.206.092.411-.343.457-.503.16-.503-.138 0-.298.183-.366.411zm44.783-.8c-.16.183-.39.846-.503 1.509a25.36 25.36 0 0 1-.732 2.583c-.274.777-.48 1.623-.48 1.875 0 .251-.137.64-.297.914-.32.48-.092.96.274.594.297-.342 2.355-6.126 2.446-6.949.092-.754-.297-1.052-.708-.526zm1.394 7.064c0 .274 1.189.64 1.394.434.183-.205 0-.32-.731-.503-.389-.091-.663-.068-.663.069zm-47.686 4.023c-.229.595.114.755 2.103 1.029 1.006.16 1.966.32 2.149.389.206.068.503.023.709-.092.571-.366.023-.686-1.92-1.074-.984-.206-2.035-.435-2.355-.503-.343-.092-.594 0-.686.251zm-17.236.595c-.526.091-2.264.411-3.84.708-1.601.275-3.544.663-4.321.846-.8.16-1.99.389-2.652.48-1.806.252-3.223.983-3.223 1.646 0 1.143 1.234 2.126 1.577 1.235.229-.549 1.303-.458 1.303.137 0 .434.091.457 1.372.32 5.143-.549 12.115-1.692 13.121-2.172.96-.457 1.052-.846.526-2.103-.549-1.303-1.417-1.555-3.863-1.097zm2.651 1.303c.823.823.549 1.257-.937 1.463-.686.068-1.44.205-1.692.274-.251.069-.388.023-.297-.114.069-.115.549-.297 1.052-.389 1.44-.251 1.737-.388 1.737-.754 0-.412-.571-.435-2.377-.092-.732.137-3.018.549-5.052.938-5.51 1.005-5.67 1.028-5.418.777.206-.183 1.669-.526 3.978-.915.32-.068.754-.16.96-.228.183-.069 1.691-.389 3.337-.709 1.623-.32 3.018-.64 3.086-.708.297-.298 1.075-.07 1.623.457zm-7.338 2.286c0 .137-.183.251-.411.251-.366 0-.366-.046-.069-.251.457-.275.48-.275.48 0zm39-1.166c-.572.274-1.304 1.509-1.304 2.149 0 .571.092.571.846.068.457-.297.892-.343 1.966-.205 3.544.434 9.03.845 11.156.845.937 0 1.646.069 1.554.16-.228.206-7.75.092-9.418-.16-2.652-.388-4.71-.48-4.618-.205.275.8 5.944 1.691 10.63 1.646 3.91-.023 4.915-.252 4.915-1.098 0-.32.229-.8.503-1.074.594-.595.457-1.143-.32-1.28-.594-.115-7.52-.572-11.224-.755-1.258-.068-2.72-.16-3.246-.228-.526-.069-1.166 0-1.44.137zm8.412 1.211c1.714.138 3.269.343 3.475.458.48.274.297.274-4.435 0-5.51-.343-7.087-.503-7.087-.778 0-.228 2.378-.137 8.047.32zm105.773-35.775c.046.16.252.365.412.411.183.069.274-.023.228-.206a.808.808 0 0 0-.434-.434c-.183-.046-.274.046-.206.229zm-28.37 2.126c0 .137.16.251.367.251.205 0 .32-.114.228-.251-.068-.115-.251-.23-.365-.23a.23.23 0 0 0-.23.23zM55.535 88.34c-.068.32-.114.777-.068 1.029.046.389-.206.526-1.395.8a33.69 33.69 0 0 1-2.263.434c-.457.046-2.08.275-3.612.48-1.508.206-3.131.389-3.589.389-.96 0-1.92.503-1.92 1.006 0 .183.252.503.549.709.48.32.663.32 1.189.045.342-.183 1.257-.411 2.034-.503.754-.091 2.286-.365 3.43-.64 2.65-.617 5.234-1.006 5.417-.823.091.069-.069 1.418-.343 2.972-1.074 6.058-1.097 6.31-.8 6.607.571.571 1.303-1.03 1.554-3.292.16-1.555.869-5.372 1.12-6.012.206-.503.39-.595 1.35-.595 1.462 0 2.628.595 3.36 1.692.823 1.211.937 2.309.457 3.978-.709 2.491-2.263 4.069-4.8 4.914-1.875.64-3.27.663-7.522.183-2.24-.251-2.514-.251-2.88.137-.389.39-.389.435.023.732.548.389 3.337.709 6.058.64 3.726-.068 5.966-.823 7.795-2.652l1.12-1.12-.114 1.097c-.069.87 0 1.166.411 1.532 1.189 1.075 3.864-.846 3.864-2.743 0-1.372-.709-2.012-1.966-1.806-.938.137-.96.137-.8-.389.091-.297.205-1.303.274-2.24.114-1.554.068-1.783-.617-2.926-.983-1.692-1.623-2.057-3.795-2.217-1.28-.092-1.852-.23-1.966-.503-.503-1.052-.709-1.326-1.052-1.395-.228-.046-.434.137-.503.48zm9.144 10.653c.206.526-.708 1.92-1.257 1.92-.366 0-.457-.16-.434-.8.023-.434.183-.937.343-1.143.365-.457 1.166-.434 1.348.023zm143.31-6.424c-.8.892-.32 2.378.708 2.172.366-.069.435-.32.435-1.28 0-1.326-.435-1.669-1.143-.892zm-49.652 1.486c-1.577.297-2.766 1.395-2.172 1.989.183.183.389.114.686-.229.869-.983 3.109-1.303 5.258-.754.571.137 1.189.412 1.349.617.434.526-.046 1.12-1.03 1.303-.456.069-.982.183-1.165.229-.251.068-.389-.114-.457-.617-.115-1.098-.48-1.418-1.029-.938-.251.229-.434.618-.434.87 0 .73-.732 3.04-1.212 3.862-.251.412-.526 1.28-.617 1.898-.137 1.051-.114 1.143.343 1.143.594 0 .663-.092 1.737-2.743.457-1.19 1.006-2.218 1.189-2.31.206-.09.891-.296 1.554-.456 1.35-.32 2.766-1.28 2.766-1.898 0-.594-.662-1.417-1.463-1.829-.731-.388-3.657-.457-5.303-.137zm38.016.526c-.16.16-.297.503-.297.754 0 .229-.206.846-.457 1.326-.618 1.235-1.76 4.8-1.76 5.51 0 .708.457 1.074 1.165.914.298-.092 1.029.16 1.806.571.709.412 1.395.732 1.532.732s.549-.252.937-.572c.64-.502.686-.617.389-.96-.229-.297-.412-.343-.572-.16-.365.366-1.257.32-1.577-.091-.229-.274-.114-.48.571-1.006.87-.709 1.075-1.44.55-1.966-.687-.686-2.104.114-2.698 1.532-.366.868-.846 1.097-.846.388 0-.731 1.646-3.886 2.011-3.886.48 0 .71-.411.458-.777-.092-.16-.183-.777-.183-1.372 0-1.143-.435-1.531-1.029-.937zm-67.368 1.006c-.458.48-.983 1.326-1.212 1.897-.251.663-.754 1.28-1.44 1.783-.663.503-1.189 1.143-1.486 1.875-.229.594-.526 1.074-.617 1.074-.115 0-.435-.251-.709-.594-.411-.48-.686-.572-1.211-.457-.595.114-.663.068-.663-.48 0-.938-.64-.755-1.19.343-.502.96-.64 1.805-.32 2.011.115.046.618-.114 1.144-.366l.96-.457.526.595c1.12 1.28 2.766.503 3.474-1.623l.32-1.006.07 1.326c.113 1.76.32 1.92 1.6 1.211 1.005-.548 1.097-.571 1.53-.183.527.48 1.258.526 1.67.115.228-.206.365-.206.594 0 .366.365 1.212.388 1.555.022.205-.205.48-.114 1.028.366.412.343.983.617 1.258.617.48 0 1.6-.708 2.491-1.6.389-.411.412-.388.275.457-.092.572-.023 1.03.205 1.303.32.435.343.435.686-.022.206-.252.366-.663.366-.892 0-.251.183-1.074.388-1.852.755-2.697-.022-2.903-1.805-.48-1.83 2.446-3.132 2.744-3.132.709 0-.617-.183-1.052-.549-1.394-.48-.435-.64-.458-1.372-.206-.502.16-1.051.594-1.325 1.028-.618.983-1.052 1.166-1.6.663-.412-.388-1.006-.388-1.944.023-.365.137-.411.023-.411-.891 0-1.143.366-1.669 1.371-1.99.823-.25 1.99-1.302 1.99-1.805 0-.572-.504-1.692-.755-1.692-.092 0-.343-.045-.572-.137-.251-.091-.663.16-1.188.709zm1.508 1.051c-.091.48-1.303 1.212-1.554.96-.229-.228.846-1.371 1.28-1.371.206 0 .32.183.274.411zm3.407 4.504c0 .16-.183.366-.366.457-.366.137-.526-.571-.206-.892.206-.205.572.046.572.435zm83.324-5.555c-1.006.366-1.371.937-.983 1.623.229.457.412.503 1.555.389 1.463-.16 2.103.228 1.509.937-.252.32-.618.366-2.15.228-2.102-.16-2.56.092-2.262 1.235.091.366.205.96.297 1.326.297 1.531 1.417 1.348 1.554-.252.069-.868.092-.891 1.029-.823 1.874.115 3.497-.914 3.497-2.24 0-.686-1.28-2.172-2.011-2.4-1.052-.297-1.258-.297-2.035-.023zm-17.602.32c-.366.068-.777.251-.914.434-.366.435-.046 1.075.571 1.075.274 0 .64.137.8.274.366.366.915.137 1.075-.457.137-.48-.412-1.532-.732-1.44-.091 0-.457.068-.8.114zm-33.147.731c-.823.938-2.332 4.801-2.332 5.921 0 1.006.64 1.052 1.418.114l.685-.8.526.663c.526.663 1.28.869 1.578.389.068-.137-.023-.434-.206-.663-.206-.206-.48-.686-.617-1.029-.16-.434-.458-.686-.846-.731l-.595-.069.846-1.76c.457-.983.777-1.92.709-2.103-.183-.457-.709-.435-1.166.068zm-70.226.138c-.114.16-.411.937-.64 1.737-.229.777-.571 1.943-.754 2.56-.595 2.035.411 2.652 1.143.663.525-1.417.937-1.44 1.486-.137.525 1.326 1.623 1.92 2.286 1.257.365-.388.365-.434-.092-.823-.503-.411-1.669-2.171-1.531-2.286.068-.045.525-.228 1.051-.434.526-.183 1.006-.526 1.052-.754.091-.526-.48-.526-1.943 0-.618.205-1.19.343-1.258.274-.068-.069 0-.457.16-.869.229-.571.229-.823-.023-1.12-.388-.457-.594-.48-.937-.068zm-27.043 1.851c-.092.137-.046.229.091.229s.275-.092.275-.229-.07-.251-.115-.251c-.068 0-.183.114-.251.251zm-58.316.549c.068.16-.046.503-.206.754-.297.389-.274.503.114.892 1.006 1.028 1.555.114.732-1.258-.389-.685-.869-.982-.64-.388zm164.478.228c-.16.298-.343.983-.412 1.51-.114.822-.228.96-.8 1.028-.503.069-.709-.069-1.006-.663-.434-.823-.663-.892-1.097-.366-.16.183-.48.343-.686.343-.343 0-.343-.023.023-.251.571-.343.526-.938-.069-.938-.663 0-1.714 1.166-1.623 1.783.092.572 1.098.8 1.83.39.365-.184.548-.16.753.09.16.206.823.39 1.532.435l1.235.068.297 1.19c.205.776.205 1.28.068 1.417-.16.16-.228.068-.228-.275 0-.64-.206-.686-.64-.114-.48.64-.389 1.211.274 1.646.777.503 1.257.297 1.692-.777.297-.71.32-1.098.091-2.15-.251-1.257-.229-1.348.343-2.034.754-.891.777-1.394.137-2.24-.617-.777-1.303-.8-1.714-.092zm1.165 1.486c-.068.206-.251.366-.388.366-.274 0-.343-.777-.092-1.029.275-.274.64.252.48.663zm-98.778-.823c-.16.503-.388 1.006-.503 1.075-.114.068-.731-.229-1.371-.663-.64-.457-1.349-.869-1.555-.96-.411-.137-1.165.48-1.165.96 0 .297 1.348 1.509 1.668 1.509.115 0 .572.16 1.052.365l.869.366-.618 1.738c-.343.96-1.006 2.514-1.44 3.451-.891 1.898-1.006 2.744-.434 3.224.343.274.457.251.846-.229.251-.32.457-.777.457-1.052 0-.251.16-.8.343-1.234.686-1.44 2.537-6.652 2.537-7.087 0-.228.16-.777.366-1.188.434-.823.32-1.235-.343-1.235-.297 0-.526.297-.709.96zm107.694-.365c-.686.457-1.189.594-2.195.594-1.097 0-1.463.137-2.103.663l-.8.663.48-.777c.389-.686.412-.823.114-1.006-.64-.389-2.171 1.44-2.171 2.583 0 .823.686.777 2.56-.206 1.006-.526 1.943-.96 2.103-.96.16 0 .389.366.503.8l.229.777h1.714c1.029 0 1.852.115 2.08.298.252.228.732.274 1.624.16 1.417-.206 1.371-.48.411 2.606-.389 1.211-.434 1.691-.229 1.897.412.434.892-.114 1.578-1.852 1.234-3.086 1.028-4.32-.595-3.749-1.097.389-1.325.343-1.966-.343-.548-.571-.594-.594-1.44-.228-1.12.457-2.011.457-2.171 0-.183-.48.662-.892 1.485-.709.983.206 1.418-.388.892-1.211-.48-.755-1.006-.755-2.103 0zm-176.57.434c-.184.206-.138.434.114.777.274.366.388.412.548.137.206-.343.069-1.234-.228-1.234-.092 0-.298.137-.435.32zm91.805-.16c-.274.274-.183 1.257.206 2.172.343.845.388.845 1.348.708.778-.137 1.098-.068 1.464.252.434.411.502.411 1.371-.092l.915-.525.251.594c.32.663.64.709 1.486.229.891-.503 1.623-.435 2.492.228 1.051.8 1.897.777 2.537-.046.366-.457.48-.823.366-1.371-.206-1.029-.617-1.829-.983-1.829-.526 0-.595.434-.16 1.326.297.64.343.914.114 1.12-.206.206-.503.114-1.234-.389-.869-.594-1.12-.663-2.218-.525-.937.114-1.348.068-1.669-.229-.365-.32-.48-.32-1.143 0-.983.526-1.211.48-1.211-.206 0-.754-.709-.823-1.326-.137-.594.663-.732.617-1.257-.411-.412-.869-.983-1.235-1.349-.869zm48.097.16c-.8.389-1.165 1.44-.731 1.989.32.366.96.366 1.966-.023.297-.114.503.046.777.571.526 1.006 1.189 1.35 1.669.87.32-.32.297-.504-.274-1.624-.343-.686-.778-1.44-.983-1.669-.412-.503-1.578-.548-2.424-.114zm55.962-.023c-.16.16-.275.549-.275.846 0 .32-.183.891-.365 1.28-.503.937-.092 1.897.823 1.897.342 0 .731.115.868.23.48.433 1.806.73 2.332.502 1.189-.503 1.486-.914 1.417-2.057-.023-.71.092-1.235.32-1.463.686-.686-.388-1.67-1.234-1.098-.526.343-.846 1.303-.777 2.286.068.892.023 1.006-.389.938-.274-.046-.663-.252-.869-.435-.205-.183-.571-.343-.8-.343-.366 0-.366-.045.092-.685.777-1.075.525-2.195-.458-2.195-.228 0-.525.137-.685.297zm-122.941.48c-1.12 1.189-1.486 2.583-.663 2.583.183 0 .845-.32 1.508-.731l1.166-.755.457.64c.55.755.938.778 1.83.115.708-.526 1.234-.457 1.234.137 0 .434.914.732 1.257.389.206-.183.114-.549-.251-1.35-.412-.822-.663-1.074-1.098-1.074-.32 0-.708.16-.868.366-.412.48-.823.457-1.326-.137-.572-.617-1.029-.594-1.738.046l-.548.526v-.503c0-.755-.389-.846-.96-.252zm59.344-.228c-.297.137-.526.411-.526.594 0 .274.229.297 1.12.183 1.35-.206 1.372-.229 1.19-.709-.16-.411-.984-.457-1.784-.068zm-134.53 2.4C4.35 105.44 1.47 112.092.418 117.098c-1.074 5.19-.091 9.213 2.972 12.07 2.24 2.103 4.938 3.864 5.715 3.75.8-.115.891-1.052.16-1.418-.297-.16-.96-.663-1.463-1.097-.48-.458-1.052-.823-1.257-.823-1.006 0-3.315-2.08-3.978-3.566-.915-2.08-1.372-4.778-1.075-6.378.778-4.23 1.166-5.967 1.6-7.338.8-2.447 3.201-7.179 4.39-8.619.617-.731 1.12-1.417 1.12-1.508 0-.092-.206-.275-.457-.412-.389-.206-.64-.046-1.532 1.006zm207.682 1.486c-.457.571-.183 1.211.549 1.303.777.068 1.051-.412.663-1.143-.32-.595-.8-.64-1.212-.16zm-76.352 1.989c-1.395 1.28-2.606 3.634-2.606 5.006 0 .549-.137.823-.343.823-.686 0-3.452 3.292-4.458 5.303-1.029 2.058-1.166 3.155-.434 3.292.868.16 2.514-2.309 3.589-5.44.617-1.806 1.417-2.515 2.057-1.875.366.366.343.434-.137 1.097-.297.412-.526.846-.526.983 0 .435.618.252 1.189-.343.457-.502.64-.548 1.12-.32.32.138.572.343.572.435 0 .091-.435.823-.96 1.646-.846 1.326-1.235 2.423-.823 2.423.091 0 .708-.389 1.348-.892l1.212-.868-.183.777c-.183.868.366 1.691 1.12 1.691.549 0 .823-.434.48-.777-.16-.137-.274-.708-.274-1.28 0-1.143-.389-1.577-1.189-1.372-.64.183-.731.343 1.097-2.354 1.166-1.737 1.555-2.606 1.166-2.606-.457 0-1.097.617-1.668 1.554-.892 1.532-1.303 1.44-2.31-.503-.982-1.943-.274-4.274 1.76-5.783 1.121-.8 1.395-1.463.732-1.692-.16-.046-.845.435-1.531 1.075zm18.494.48c-1.372 1.44-1.532 1.737-1.67 2.926-.114 1.051-.16 1.12-1.028 1.326-1.074.274-1.737-.023-1.737-.732 0-.503.708-.64.754-.16.023.183.046.366.069.457 0 .092.251-.137.525-.48.412-.526.458-.708.206-1.006-.503-.594-1.326-.388-2.126.503-.891 1.029-.914 1.395-.16 2.172.686.686.8.686 2.515.229.868-.229 1.44-.275 1.714-.115.617.32 6.538.046 7.155-.343.275-.182 1.12.046 2.378.64.663.32.754.23 1.303-1.325.366-1.075.389-1.303.091-1.578-.274-.297-.388-.251-.777.343-.754 1.212-1.189 1.349-1.509.48-.457-1.211-1.668-1.166-2.926.115-.526.548-1.028.914-1.097.845-.069-.068 0-.297.183-.503.457-.571-.069-1.577-.869-1.577-.663 0-1.783.983-1.783 1.555 0 .251-.229.365-.731.365h-.755l1.097-1.211c1.304-1.44 1.555-2.218 1.075-3.086-.503-.892-.96-.846-1.897.16zm1.211.754c0 .503-1.326 2.423-1.692 2.423-.342 0-.274-.388.16-1.257.732-1.463 1.532-2.057 1.532-1.166zm1.463 2.995c-.297.297-.617.068-.388-.297.091-.16.274-.206.411-.115.16.092.16.229-.023.412zm8.733-4.184c-.069.275.023.8.228 1.189.48.914.48 2.492.023 4-.228.778-.274 1.258-.114 1.418.343.366.869-.503 1.44-2.332.434-1.394.457-1.76.206-2.514-.663-2.08-1.44-2.835-1.783-1.76z"/>
	<path d="M12.855 107.017c-.869.686-1.28 2.377-1.212 5.12l.069 2.355-.846.343c-.434.206-1.143.343-1.554.343-.663 0-1.67.709-1.67 1.166 0 .114.184.388.435.617.434.389.526.389 1.92-.32.8-.412 1.51-.732 1.578-.732.228 0 .114 4.824-.137 6.836-.526 4.114-.526 4.023-.183 3.909.183-.046.457-.366.617-.686.16-.32.571-1.166.937-1.898.96-1.988 2.95-4.572 3.498-4.572.274 0 .686-.091.937-.228.343-.183.617-.16 1.006.091.686.435 1.44.16 1.989-.686.525-.8.754-.777.96.115.091.388.251.777.388.868.275.16 1.03-.32 1.966-1.257l.709-.686-.137.709c-.092.411-.206 1.372-.297 2.172-.092.777-.298 1.714-.458 2.034-.342.663-.251 1.189.206 1.189.16 0 .937-.846 1.715-1.897 1.371-1.852 1.44-1.92 2.24-1.784 1.006.183 1.372-.251.823-1.074-.32-.503-.32-.663.137-1.714.754-1.784.572-2.652-.571-2.63-.755 0-1.806 2.035-1.806 3.498-.023.937-.16 1.349-.732 2.012-.914 1.097-.914.663.046-2.263 1.006-3.11.777-3.338-1.44-1.372l-1.646 1.463-.229-.777c-.251-.914-1.051-1.166-1.554-.48a5.162 5.162 0 0 1-.8.777c-.48.366-.48.366-.046-.16.251-.297.388-.709.32-.914-.137-.32-.434-.183-1.692.708-.846.595-1.6 1.098-1.691 1.098-.069 0 .022-.32.205-.709.503-.937.48-1.28-.114-1.829-.457-.411-.526-.411-1.143-.046-.754.458-1.257 1.83-1.097 3.064.114.96.023 1.143-.983 1.851l-.732.503-.068-2.926-.069-2.903 1.166-.892c1.234-.937 2.537-2.286 3.246-3.291.937-1.395.274-3.384-1.349-4.115-1.28-.595-2.103-.595-2.857 0zm2.766 1.509c.503.343.663.663.663 1.303 0 .708-.229 1.074-1.44 2.263-2.058 2.057-2.24 1.966-2.126-1.006.068-2.218.114-2.469.64-2.88.64-.526 1.188-.435 2.263.32zm125.638-1.578c-.48.206-.891.526-.891.732 0 .297.229.32 1.212.183l1.188-.16v.845c0 .48-.228 1.418-.48 2.08-.731 1.83-.228 2.241 1.097.938l.755-.732 1.143.87c1.257.982 2.126 1.05 2.24.182.046-.32-.046-.549-.228-.549-.16 0-.07-.228.228-.548.64-.663.663-1.166.092-1.669-.412-.366-.503-.366-1.303.183-1.006.686-1.075.708-1.92.32-.504-.252-.595-.434-.504-1.029.092-.503-.022-.914-.388-1.394-.595-.732-.96-.778-2.24-.252zm-92.468 5.692c-.915 1.212-1.029 2.606-.343 4.207.549 1.257.549 1.303.114 1.623-.686.503-1.371.388-1.92-.32-.48-.572-.526-.595-.914-.206-.23.206-.412.571-.412.754 0 .48 1.303 1.76 1.783 1.76.595 0 1.623-.571 2.263-1.28.64-.663.617-1.143-.068-3.017-.48-1.28-.32-2.538.365-2.903.663-.366 2.858.068 2.858.548 0 .137-.389 1.075-.869 2.08a240.692 240.692 0 0 0-1.326 2.835c-.365.777-.411 1.12-.205 1.486.343.663.754.64 1.44-.091.571-.595.571-.595 1.006-.138.777.823 2.606.435 2.606-.548 0-.297-.229-.366-.915-.343-.891.068-.891.046-.891-.846v-.891h3.795l-.48.548c-.96 1.029-1.12 1.578-.663 2.263.594.938 2.034.686 4.023-.708.869-.618 1.623-1.052 1.692-.983.068.068-.046.548-.23 1.097-.433 1.212-.433 1.852-.022 1.852.48 0 1.12-.8 1.12-1.418v-.548l.64.617c.343.366.778.64.96.64.503 0 .663-.686.298-1.372-.298-.548-.275-.64.205-.96.298-.205.549-.548.549-.777 0-.594 2.629-.8 6.172-.48 3.772.366 4.344.709 3.063 1.897-.685.64-.8 1.44-.228 1.44.206 0 .823-.457 1.371-1.005l1.006-1.029.115.96c.16 1.189.64 1.326 1.645.48l.732-.617.069.8c.068.594.205.8.617.869.777.091 1.166-.755.823-1.898-.412-1.348-.823-1.577-1.692-.96s-.983.617-.983 0c0-.594-.571-.846-1.28-.526-.434.206-.617.115-1.12-.457-.892-1.006-3.475-1.371-8.87-1.234-2.332.068-6.24.137-8.71.16-5.052.023-5.303-.046-4.777-1.349.617-1.554.617-1.554-.48-2.103-.572-.274-1.555-.572-2.15-.64-1.05-.137-1.142-.092-1.782.731zm4.206 4.367c0 .114-1.257 2.057-1.6 2.491-.046.046-.137.023-.206-.045-.206-.183.412-2.172.709-2.4.297-.206 1.097-.252 1.097-.046zm10.813.708c-.32.32-.617.549-.686.48-.16-.16.686-1.097.983-1.097.137 0 0 .274-.297.617zm-2.652-.251c0 .228-3.772 2.034-3.932 1.874-.32-.32-.114-.548.64-.731.435-.114.869-.434 1.006-.732.183-.411.434-.525 1.257-.525.572 0 1.029.045 1.029.114zm52.44-3.91c-.914 1.281-2.262 3.796-2.262 4.23 0 .389-2.606 1.989-3.315 2.034-.594.046-.663-.022-.663-.754 0-.617-.16-.937-.663-1.326l-.64-.48-.663.48c-1.531 1.143-2.286 3.726-1.12 3.886.32.046.754-.205 1.189-.663l.686-.708.525.48c.663.617 1.738.457 2.95-.457.456-.343.868-.526.914-.389.228.64.708 1.394.914 1.463.137.046.686-.343 1.212-.869 1.074-1.097 1.303-1.188 1.303-.48 0 .663.571.823 1.463.458.685-.275.777-.275 1.188.251.366.503.503.549 1.03.297.502-.228.662-.183 1.005.206.274.274.731.457 1.234.457.686 0 1.075-.251 2.4-1.623.892-.892 1.532-1.463 1.464-1.257-.069.205-.252.754-.435 1.234-.343.937-.205 1.646.343 1.646.206 0 .389-.389.48-1.006.092-.571.458-1.646.8-2.4.983-2.217.275-2.88-1.143-1.097-1.531 1.92-2.926 3.292-3.337 3.292-.229 0-.617-.206-.869-.48-.32-.366-.64-.48-1.097-.39-.503.115-.732 0-1.029-.456-.297-.458-.594-.595-1.326-.595-.525 0-1.006-.091-1.074-.205-.069-.115-.412-.252-.777-.32-.503-.115-.8.045-1.44.754-.572.617-.8.754-.8.457 0-.229.868-1.303 1.92-2.4 1.074-1.098 2.011-2.263 2.08-2.56.228-.915-.206-1.83-.915-1.898-.502-.069-.777.137-1.531 1.189zm.595 1.647c-.411.64-.868 1.188-.983 1.188-.274 0-.183-.182.846-1.714 1.006-1.486 1.12-1.006.137.526zm-7.886 3.52c-.252.503-1.212 1.417-1.212 1.166 0-.297.526-1.212.8-1.394.457-.298.663-.206.412.228zm63.162-5.029c-.549.617-1.006 1.257-1.006 1.44 0 .183-.366.96-.8 1.737-.732 1.35-.755 1.464-.412 2.104.412.731 1.532 1.005 2.355.548.731-.388 1.966.137 1.966.823 0 1.097 1.12 1.395 1.646.435.32-.572-.137-1.51-.869-1.898-.823-.411-.891-.526-.434-1.029.32-.365.365-.571.137-.96-.457-.868-1.28-.571-1.943.732-.343.686-.617.914-1.052.914-.32 0-.64-.091-.708-.228-.206-.298.434-1.738 1.234-2.79l.663-.868 1.989.137c2.171.16 2.514-.023 1.966-1.051-.252-.458-.435-.503-1.669-.412-1.212.069-1.417.023-1.532-.343-.16-.64-.411-.525-1.531.709zm-91.029-.412c-.228.435-.206.595.092.915.365.343.434.343.8-.046.32-.297.365-.503.16-.8-.389-.617-.755-.64-1.052-.069zm119.65 2.56c-.39.39-.39.435 0 .664.868.503 1.325 1.097 1.325 1.76 0 .686-1.051 2.446-1.44 2.446-.411 0-.251-.48.366-1.097.686-.686.754-1.075.206-1.075-.526 0-1.715 1.258-1.898 2.035-.16.617.183 1.326.663 1.326.663 0 1.966-.892 2.47-1.67 1.073-1.714 1.005-2.925-.207-4.251-.571-.663-.937-.686-1.486-.137zm-49.675.367a2.409 2.409 0 0 0-.366 1.165c0 .846-.503 1.235-1.486 1.143-.663-.068-.8-.182-.869-.754-.091-.8-.343-.823-1.303-.114-.411.274-.663.365-.548.183.137-.206.045-.435-.229-.618-.571-.411-1.189-.091-1.714.892-.343.709-.343.777.091 1.212.457.457.526.457 1.212.091.937-.48 1.348-.48 2.103 0 .411.274.823.343 1.417.229 1.554-.275 1.577.274.069 1.988-.755.87-.8 1.646-.138 2.058.64.388 2.172-.96 2.424-2.15.114-.525.365-1.256.571-1.645.229-.48.274-.754.092-.8-.138-.069-.183-.343-.115-.64.092-.366.023-.595-.228-.686-.252-.091-.32-.297-.229-.571.137-.343.183-.32.343.114.274.708.663.663.846-.092.091-.411.023-.754-.275-1.074-.571-.617-1.188-.594-1.668.069zm-.686 5.737c-.069.206-.137.138-.137-.137-.023-.251.045-.388.114-.32.091.092.091.297.023.457zm-113.591-5.463c-.412 1.074.548 1.371 4.343 1.394 2.263.023 3.475-.274 3.475-.845 0-.503-.686-.618-4.367-.8-2.949-.138-3.314-.115-3.451.25zm124.472.16c-.32.091-1.166.183-1.874.206-1.486.022-2.012.274-3.064 1.371-1.097 1.166-1.828.96-.96-.297.206-.274.252-.617.137-.8-.16-.251-.434-.183-1.28.366-1.028.663-1.554 1.463-.754 1.143.274-.092.366.045.366.594 0 .412.091.8.228.892.503.297 1.623-.183 2.79-1.19.8-.708 1.462-1.074 2.034-1.142.8-.069.823-.046.731.731-.137 1.51 1.143 2.126 3.064 1.44.64-.205.845-.182 1.234.16.434.39.754.39 1.76-.022.412-.16.435-.092.32.64-.068.457-.274 1.28-.434 1.829-.343 1.097-.183 1.508.434 1.12.412-.252 1.486-2.995 1.509-3.84 0-.275-.206-.686-.48-.938-.457-.389-.503-.389-1.12 0-.617.412-.64.412-1.052-.137-.411-.549-.457-.549-1.234-.183-1.738.823-2.972.754-2.79-.183.047-.32.32-.48.847-.526.571-.045.8-.205.8-.503 0-.64-.526-.937-1.212-.731zm62.888.686c-.777 1.554-3.749 4.092-4.343 3.726-.137-.092-.206-.366-.137-.64.16-.595-.046-1.143-.412-1.143-.137 0-.549.228-.869.48-.8.617-.96.594-.96-.137 0-.732-.617-1.029-1.12-.526-.891.891-.114 2.515 1.075 2.217.411-.091.731.069 1.28.595.845.846 1.577.914 2.446.228.731-.548.846-.228.274.732-.503.914-.434 1.211.32 1.211.434 0 .914-.251 1.349-.685.64-.686.686-.71 1.349-.32.64.365.754.365 1.371.045.823-.48.892-1.28.114-1.394-.32-.046-.663-.32-.777-.663-.251-.64-.914-.755-1.417-.274-.16.16-.023-.275.32-.96.343-.686.754-1.326.891-1.395.412-.274.64-1.166.412-1.623-.343-.64-.64-.503-1.166.526zm-126.553.503l-1.074 1.188-.275-.594c-.343-.732-.64-.732-1.828 0-1.235.754-1.303.754-1.6-.114-.275-.778-1.052-1.166-1.487-.732-.205.183-.182.389.023.732.458.731.366 1.508-.297 2.377-.526.732-.594 1.463-.114 1.463.114 0 .548-.411.983-.914.457-.503 1.326-1.235 1.966-1.6l1.143-.663-.526.983c-.274.548-.434 1.165-.366 1.348.252.709.983.343 2.355-1.12 1.463-1.554 1.691-1.486.914.252-.617 1.348-.64 2.423-.045 2.423.64 0 1.005-.457 1.028-1.303.023-1.326.275-1.646 1.44-1.738 1.326-.114 1.898-.594 1.418-1.165-.206-.252-.572-.343-1.006-.275-.64.092-.663.046-.663-.823 0-1.303-.663-1.211-1.989.275zm88.628.022c-.891 1.235-1.074 1.83-.708 2.264.228.297.411.274 1.257-.16.549-.275 1.029-.412 1.074-.298.595 1.692 1.532 1.898 2.446.503.48-.731.71-.891 1.395-.891h.823l-.16.96c-.16.846-.114.96.297.96.274 0 .617-.16.777-.366.343-.411.96-.48.96-.114 0 .32 1.03.297 1.76-.023.458-.206.71-.183 1.144.092.411.251.754.297 1.12.16.708-.275.686-.389-.206-1.212-.869-.823-.983-.823-1.806-.297-.594.388-.64.388-.96-.023-.16-.251-.366-.572-.412-.709-.045-.16-.274-.091-.594.183-.503.435-.526.435-1.372-.297-.594-.526-1.028-.732-1.44-.663-.754.137-1.737.869-1.92 1.417-.229.663-.594.48-.594-.32 0-.891-.526-1.143-1.349-.594-.8.526-.937.366-.343-.411.343-.435.412-.663.183-.87-.434-.434-.594-.342-1.372.71zm18.06 1.784c-.366.274-.526.617-.526 1.188 0 1.075.48 1.418 1.6 1.212.503-.114 1.189-.206 1.509-.252.32-.022.891-.137 1.257-.228.8-.206.8-.183.137 1.349-.388.914-.434 1.257-.228 1.463.411.411 1.074-.069 1.257-.915.069-.388.366-1.234.663-1.897.526-1.189.526-2.286 0-2.286-.137 0-.571.274-.96.594-.823.686-1.532.777-1.737.252-.16-.435-1.006-.48-1.258-.092-.114.183-.228.114-.366-.228-.228-.618-.617-.663-1.348-.16zm-144.544 6.24c0 .069.503 1.006 1.12 2.103.914 1.555 1.143 2.218 1.235 3.36.114 1.784-.343 4.619-1.098 6.653-.731 1.943-.8 2.035-1.074 1.646-.16-.229-.183-.137-.092.274.069.343-.045.915-.228 1.303-.457.892-.457 1.806.046 1.99.64.25 1.143-.275 1.325-1.395.115-.572.366-1.395.572-1.852.48-1.029 1.211-3.52 1.646-5.738.457-2.286.206-3.749-1.052-6.4-.914-1.92-1.028-2.08-1.691-2.08-.389 0-.709.068-.709.136zm-46.406 5.418c-.503 1.166-.526 1.875-.046 2.058.846.32 1.51-2.126.755-2.767-.229-.182-.389-.022-.709.71zm35.365 1.532c-1.006.983-1.898 1.783-1.99 1.806-.09 0-.182-.206-.182-.435 0-1.097-1.143-1.326-2.058-.411-.685.686-.822.731-.822.274 0-.411-1.12-1.349-1.6-1.349-.184 0-.55.275-.847.595-.64.731-.822.754-.982.114-.183-.686-1.075-.617-1.418.137-.343.732.16 2.515.709 2.515.206 0 .709-.389 1.143-.846.434-.457.96-.846 1.143-.846.206 0 .526.389.754.846.229.457.503.846.617.846.115 0 .618-.343 1.098-.777.846-.732.891-.755 1.211-.298.183.252.343.595.343.755 0 .731 1.189.297 2.4-.892.663-.64 1.258-1.188 1.304-1.188.045 0-.046.434-.16.96-.183.708-.183 1.051.045 1.326.412.503.915.068 1.098-.983.297-1.6.982-1.326 1.325.525.115.618.389 1.326.595 1.555.205.228.343.617.297.869-.092.434-.457.48-1.692.182-.8-.205-.868.16-.137.846.663.617 1.669.617 2.24 0 .412-.457.435-.64.16-2.171-.48-2.835-.411-3.292.55-3.704.456-.183.845-.434.845-.526 0-.251-1.326-1.531-1.577-1.531-.092 0-.412.274-.732.617-.686.732-1.006.754-1.097.046-.137-.96-.777-.686-2.583 1.143zm21.648-1.258c-.411.412-.366 1.006.137 1.646.595.71 1.257.48 1.257-.48 0-.663-.525-1.463-.937-1.463-.091 0-.297.137-.457.297zm74.432 1.098c-.617.617.183.983 1.806.846 1.806-.16 1.966-.229 1.966-.8 0-.458-.137-.503-1.714-.458-1.166.023-1.806.16-2.058.412zm-5.943.045c-.092.115-.023.435.16.71.251.433.457.48 1.508.342 1.35-.16 1.692-.366 1.463-.914-.091-.275-.48-.389-1.577-.389-.777 0-1.486.114-1.554.251zm24.003.183c-1.166.298-1.944.938-1.944 1.623 0 .8.572 1.098.778.366.16-.594.891-.823 2.72-.823 2.24 0 2.309.115 1.234 1.715-1.6 2.377-2.674 4.137-2.674 4.389 0 .32.548.297.983-.069.206-.16.777-.914 1.28-1.691.48-.755 1.029-1.372 1.212-1.372.96 0 2.743 1.234 2.766 1.897 0 .206.32.64.708.938.983.754 2.652.8 4.092.091.777-.366 1.326-.48 1.875-.389.96.206 1.303-.434.571-1.143l-.48-.48-1.44.732c-1.509.777-1.897.754-1.463-.023.503-.937-.434-1.646-.983-.731-.206.342-.274.365-.457.114-.137-.206-.412-.274-.732-.183-.388.137-.731-.023-1.303-.526-.434-.366-1.143-.823-1.554-1.006l-.777-.32.731-.434c.869-.526.914-.937.183-1.577-1.12-1.006-3.658-1.532-5.326-1.098zm-67.575.755c-.137.228-.16.503-.091.594.251.229-1.166 1.577-1.646 1.577-.526 0-.526-.068-.046-1.005.366-.71.366-.778-.045-1.052-.229-.183-.503-.251-.618-.183-.411.252-2.88 5.578-2.811 6.012.182.892.823.412 1.577-1.188.777-1.623 1.326-2.126 1.783-1.67.183.184.069.687-.366 1.647-.754 1.623-.571 2.126.572 1.486.64-.366.731-.366.914-.046.183.343.297.343.983-.023.594-.297.846-.32 1.097-.114.183.137.64.251 1.006.228 1.075-.068 1.28-.022 1.28.366 0 .389.846.48 1.075.114.091-.137.32-.251.526-.251.205 0 .663-.206 1.028-.457.503-.366.892-.457 1.418-.343.571.114.754.068.754-.206 0-.206.206-.617.457-.937.252-.32.48-.777.526-1.052.091-.434.343-.48 2.743-.594 1.44-.069 3.063-.091 3.566-.046l.938.069-.138 1.303c-.114 1.143-.068 1.303.275 1.303.228 0 .64-.16.937-.366.48-.343.549-.32.892.343.434.846 1.074.8 1.806-.137.845-1.075.342-2.149-.503-1.12-.298.365-.343.343-.458-.16-.182-.8-.663-.846-1.005-.137-.138.342-.366.617-.48.617-.275 0-.252-1.12.045-1.303.412-.252.275-1.052-.228-1.326-.32-.16-2.446-.206-6.538-.114-3.338.091-6.858.16-7.796.182-1.737.046-2.446.343-2.126.892.138.229 1.052.251 3.475.16 1.829-.091 3.383-.069 3.452 0 .091.091-.572.686-1.463 1.349-.892.64-1.669 1.257-1.737 1.348-.069.115-.343.275-.64.366-.503.137-.503.115-.275-.823.435-1.714-.617-2.24-2.011-1.006l-.755.686-.526-.617c-.48-.549-.617-.572-1.166-.32-.525.251-.617.229-.617-.091 0-.183.343-.503.778-.686 1.074-.457 1.188-.618.731-1.12-.343-.412-.343-.48 0-1.03.503-.754.526-1.576.046-1.576-.183 0-.457.205-.595.457zm26.244-.229c-.503.206-.983 1.12-.732 1.372.206.205 1.555-.183 1.852-.526.228-.274.228-.434 0-.709-.343-.411-.412-.411-1.12-.137zm-42.771 1.212c-.892.548-.846.32-.389 3.109.183 1.028.16 1.051-.411.868-1.258-.411-1.76-.297-1.852.389-.137 1.326 2.4 1.829 3.429.686.388-.412.388-.64.16-1.989-.137-.846-.252-1.715-.252-1.943 0-.594.778-.48 1.44.206.686.754.96.754.96.022 0-1.417-1.737-2.171-3.085-1.348zm150.464.365c0 .435.114.595.48.595.48 0 .572-.183.32-.823-.228-.594-.8-.457-.8.228zm-110.07.23c-.39.16-1.007.433-1.372.57-.755.298-.915 1.212-.252 1.395.457.114.732 1.509.297 1.509-.114 0-.228.183-.228.366 0 .411.96.502 1.348.114.16-.16.39-.092.686.251.549.595 1.76.64 1.966.069.115-.229.046-.434-.16-.503-.183-.069-.594-.389-.914-.709-.343-.32-.777-.525-1.006-.457-.389.092-.366-.023.137-1.12.869-1.875.8-2.08-.503-1.486zm21.67.228c-.228.32-.411.64-.411.708 0 .069-.389.755-.846 1.51-.457.776-.846 1.6-.846 1.828 0 .617.64.777 1.303.32.755-.48 1.235-.503 1.418-.023.251.64 1.074.389 2.331-.731 1.303-1.166 1.784-1.19 1.555-.115-.206.869.297 1.052 1.28.457 1.006-.594 1.075-.594 1.417.275.206.571.389.731.823.663.572-.069.595-.206.252-1.646-.206-.8-.252-.823-1.235-.777-.754.022-1.143-.069-1.44-.39-.251-.296-.868-.502-1.714-.593-1.326-.138-1.372-.115-2.378.8-.96.868-1.691 1.051-1.691.411 0-.16.274-.686.617-1.189.914-1.371.503-2.788-.434-1.508zm74.707.411c-.8.457-2.149 2.218-2.149 2.79 0 .32-1.989 1.485-2.514 1.485-.298 0-.366-.251-.366-1.052 0-1.12-.457-1.828-1.166-1.828-.709 0-2.195 1.234-2.195 1.806 0 .708.572 1.188 1.235 1.005.343-.091.754.069 1.211.458.8.685 1.463.731 2.675.228.754-.32.937-.32 1.417-.046.915.572 1.806.663 2.72.275.48-.183.915-.366.96-.366.047 0 .092.434.092.96 0 .686-.16 1.12-.594 1.6-.686.732-.8 1.715-.229 1.92.252.115.663-.16 1.189-.708.8-.846.846-.937.846-2.835 0-1.714.046-2.011.594-2.651.96-1.143 1.097-2.424.252-2.744-.686-.251-2.195 1.372-2.035 2.218.092.548-.091.846-.8 1.303-.914.548-1.692.594-2.08.137-.206-.252-.137-.412.32-.709 1.6-1.051 2.56-2.743 1.897-3.406-.434-.434-.274-.434-1.28.16zm-85.382.206c-.457.709-3.475 3.109-3.932 3.109-.251 0-.457-.252-.549-.709-.16-.868-1.234-1.646-1.783-1.28-.594.366-.617.8-.045.8.365 0 .48.114.434.412-.069.343-.274.411-1.097.343-.87-.07-1.006 0-1.006.388 0 .8.571 1.12 1.463.8.617-.206.846-.206 1.166.092.594.548 1.371.434 2.514-.366 1.28-.869 1.395-.869 1.029-.092-.206.458-.206.663.023.892.251.229.411.183.777-.274.252-.32.457-.709.457-.892 0-.228.275-.343.8-.343.458 0 .938-.137 1.098-.32.365-.457.068-1.12-.48-1.12-.435 0-.458-.046-.092-.731.572-1.098-.137-1.738-.777-.71zm74.82-.069c-.205.069-.64.389-1.005.732-.572.548-.64.731-.549 1.92.114 1.555.297 1.806 1.235 1.692.731-.092 1.143-.915.434-.915-.274 0-.343-.137-.229-.48.069-.251.023-.663-.114-.937-.297-.549.046-.892.96-1.029.412-.045.595-.228.595-.548 0-.503-.618-.709-1.326-.435zm-5.851.755c-.48.525-.503.846-.023 1.234.205.183.365.709.365 1.349 0 .869.069 1.051.435 1.051.708 0 1.074-.64 1.097-1.92.023-.8-.114-1.303-.434-1.646-.572-.64-.915-.64-1.44-.068zm-117.34.891c-1.258.686-1.578 2.31-.55 2.79.755.342 1.6-.16 2.035-1.235.274-.618.251-.823-.091-1.326-.458-.709-.503-.709-1.395-.229zm.776 1.166c0 .412-.388.709-.708.503-.32-.206-.023-.846.365-.846.183 0 .343.16.343.343zm68.992-.731c-.846.845-1.052 1.737-.526 2.263.434.434 1.052.343 2.08-.297 1.143-.732 1.395-1.35.846-2.172-.571-.846-1.417-.777-2.4.206zm1.44.937c-.16.434-1.303.571-1.303.183 0-.343 1.029-.983 1.257-.778.115.115.137.39.046.595zm36.667-1.372c-.64.435-.685 1.052-.114 1.075.343.023.32.068-.091.228-.457.183-1.029.915-1.029 1.303 0 .252 1.097.137 1.372-.16.228-.205.365-.205.594 0 .16.16.846.297 1.532.297.891 0 1.28.092 1.394.366.206.595-.686 2.972-2.034 5.28-.663 1.167-1.143 2.264-1.075 2.447.297.823 1.029.046 2.538-2.698 2.217-4.092 2.491-5.257 1.508-6.378-.251-.297-.617-.365-1.531-.274-1.166.114-1.189.114-1.189-.548 0-.618-.549-1.28-1.097-1.304-.115 0-.48.16-.778.366zm-6.309.595c-.617.617-.503 1.005.412 1.234.365.091.914.229 1.211.32.64.206.915-.48.572-1.417-.298-.8-1.463-.869-2.195-.137zm46.086-.069c-.343.229-.8.617-1.029.846-.228.228-.617.411-.846.411-.228 0-.525.137-.685.275-.48.48-.64 0-.183-.503.434-.48.32-.983-.206-.983-.389 0-1.486 1.188-1.692 1.829-.205.662.366 1.143 1.44 1.165.435.023.938.16 1.098.32.457.458 1.348.366 1.897-.182.252-.275.48-.572.48-.686 0-.115.252-.503.595-.846.708-.777.754-1.143.16-1.669-.389-.343-.48-.343-1.03.023zm-51.184.732c-.617.388-.823.868-.457 1.097.412.251 1.875.388 2.172.183.274-.183.274-.32-.069-.823-.526-.823-.868-.915-1.646-.457z"/>
	<path d="M162.93 139.432c0 .686 1.007 1.12 1.807.755.708-.32.777-.755.137-.755-.274 0-.549-.114-.617-.251-.092-.114-.412-.229-.732-.229-.434 0-.594.137-.594.48zm17.763 2.47c-.206.16-.663.8-1.029 1.417-.365.617-.868 1.188-1.143 1.28-.731.228-1.257-.32-1.097-1.143.091-.48.023-.732-.229-.823-.548-.206-1.051.388-1.051 1.234 0 1.578 1.851 2.423 3.155 1.417.594-.434 2.354-3.04 2.354-3.474 0-.297-.526-.252-.96.091zm39.73 5.12c-.662.206-1.37.526-1.6.709-.342.32-.914 1.851-.914 2.468 0 .618.732.206 1.12-.617.229-.503.732-1.051 1.075-1.211 1.6-.778 3.314.754 2.171 1.92-.64.64-.914.434-.594-.457.297-.892.137-1.28-.526-1.28-.777 0-1.189.594-1.143 1.645.023.732-.137 1.166-.823 2.035-1.326 1.692-2.103 2.08-3.772 1.92-1.12-.114-1.463-.068-1.851.274-.595.55-.595 1.486 0 1.806.777.412 2.514.298 3.2-.251.343-.251.823-.48 1.074-.48.275 0 .663-.252.87-.594.228-.32.57-.595.8-.595.32 0 .342.069.114.297-.16.16-.275.458-.275.709 0 .229-.183.503-.411.64-.457.252-.275.983.274.983.183 0 .709-.32 1.166-.709.96-.845 1.509-.914 1.714-.228.435 1.326 2.035 1.463 4.07.32 1.44-.8 2.308-.663 2.308.411 0 .503-.251 1.029-.731 1.578-1.075 1.234-.823 2.377.48 2.126.709-.137.823-.275 1.166-1.486.206-.709.64-1.326 1.486-2.08 1.074-.96 1.28-1.052 2.103-.96.64.09 1.006.022 1.234-.252.16-.206.457-.389.617-.389.16 0 .435-.16.595-.365.48-.572.96-.435.96.297 0 1.006.297 1.28 1.394 1.394 1.326.114 1.486.252 1.326 1.052-.114.663.457 1.943.869 1.943.114 0 .64-.412 1.212-.937.8-.732.983-1.03.845-1.44-.205-.664-.48-.64-1.051.16-.663.914-.846.57-.503-1.03.343-1.69.046-2.011-1.12-1.302-.8.503-1.646.617-1.875.228-.206-.297.869-.983 1.829-1.166.412-.091.869-.388 1.006-.64.16-.251.297-.525.343-.594.137-.183 3.177-.137 3.177.046 0 .091-.343.663-.754 1.257-.983 1.486-.914 2.377.229 2.492.548.045 1.074.343 1.6.891.708.778.823.823 1.531.572.458-.16.755-.435.755-.709 0-.594-.389-.777-.96-.48-.389.206-.526.16-.732-.229-.229-.411-.16-.525.594-.891.663-.297.846-.549.846-1.052 0-.343-.16-.777-.365-.937-.32-.274-.526-.137-1.44.8-1.235 1.303-2.035 1.555-1.464.457.503-.937 1.623-1.966 2.446-2.171.389-.115 1.51-.137 2.515-.046 2.126.183 2.4.114 2.4-.617 0-.64-.457-.8-1.783-.549-1.211.206-2.857-.023-2.697-.366.045-.137.183-.434.251-.663.092-.228 0-.548-.251-.8-.412-.411-.458-.388-1.166.412-1.075 1.234-1.532 1.371-4.07 1.371-1.257-.022-2.4.046-2.537.138-.137.091-.228.388-.183.685.046.458-.068.526-1.44.663-.823.069-1.691.297-1.92.503-.823.709-1.074.755-.914.206.251-.732-.526-.983-1.052-.343-.366.457-1.234 1.029-1.555 1.029-.068 0-.137-.252-.137-.572 0-.297-.205-.8-.434-1.097-.594-.732-1.257-.366-1.92 1.052-.572 1.211-1.006 1.6-1.006.937 0-.595-1.052-1.509-1.737-1.509-.71 0-.892.16-1.738 1.44l-.731 1.075-.069-.778c-.091-.983-.823-1.531-1.783-1.325l-.709.137.572-.869c.297-.48.754-.937.983-1.029.571-.183.891-1.051.891-2.446 0-1.303-.411-2.011-1.486-2.56-.411-.206-.754-.366-.777-.343 0 0-.548.183-1.211.366zm.846 4.96c0 .16-.228.435-.48.595-.571.343-.617.251-.182-.435.32-.525.662-.617.662-.16zm9.007 2.47c-.068.228-.205.365-.274.297-.069-.07-.046-.298.046-.526.091-.229.205-.366.274-.297.069.068.046.32-.046.525zm.115 1.645c0 .046-.183.137-.366.229-.206.068-.366.023-.366-.092 0-.137.16-.251.366-.251.183 0 .366.046.366.114zm-137.183-8.275c-.092.137-.046.251.091.251s.275-.114.275-.251c0-.114-.07-.229-.115-.229-.068 0-.183.115-.251.229zm90.228.366c-.48.48-.571.754-.457 1.508.114.755.023 1.052-.617 1.92-.412.55-.823 1.007-.937 1.007-.092 0-.39.388-.618.845-.251.458-.548.846-.64.846-.274 0-2.309 2.95-2.469 3.612-.205.777.64 1.897 1.418 1.897.64 0 1.966-1.371 2.171-2.217.32-1.349.549-2.949.458-3.109-.069-.091.091-.503.365-.869.389-.525.732-.731 1.463-.8.915-.091 1.326.275.732.64-.32.183-.32 1.075-.023 1.075.114 0 .823-.32 1.554-.732 1.03-.548 1.35-.64 1.35-.365 0 .205-.115.434-.252.502-.435.275-.275 1.075.228 1.075.458 0 1.212-.572 1.212-.96 0-.115.411-.229.891-.275.663-.045.938-.205.983-.525.138-.732-.251-.87-2.446-.915-1.325-.023-2.171-.16-2.331-.343-.137-.16-.572-.365-.96-.457-.823-.183-.846-.32-.206-1.143.754-.96 1.051-2.034.709-2.446-.435-.526-.892-.457-1.578.229zm-2.926 8.115c-.068.297-.411.96-.754 1.486-.572.891-.618.914-.709.411-.046-.32.206-.96.549-1.508.685-1.03 1.12-1.235.914-.389zm-57.516-7.407c-.343.458-.617.892-.617.96 0 .092-.389.71-.846 1.372-.891 1.28-1.028 1.852-.548 2.309.411.434.937.366 2.24-.297.983-.503 1.212-.549 1.372-.252.617 1.098 2.743.709 3.429-.617.228-.434.48-.64.708-.549.412.16.457.48.114.686-.137.092-.228.412-.228.755 0 1.165 1.28 1.051 2.857-.275 1.532-1.257 2.652-1.028 1.418.297-.389.39-.457.64-.275.823.298.298 1.395-.205 2.08-.96.458-.503.458-.525.024-1.348-.503-.915-.8-1.006-2.012-.572-.549.183-.937.183-1.303.023-.457-.229-1.075-.343-3.52-.594-.526-.046-.618.045-.686.731-.046.572-.229.869-.663 1.052-.846.388-1.235-.046-.709-.8.731-1.052.206-1.99-.594-1.03-.366.435-2.63 1.624-2.79 1.464-.045-.046.39-.823 1.007-1.692 1.074-1.531 1.257-2.309.502-2.309-.182 0-.617.366-.96.823zm7.544 3.475c0 .297-.48.594-.663.412-.16-.16.137-.64.435-.64.114 0 .228.114.228.228zm13.625-3.269c-.48.549-1.463 1.326-2.195 1.715l-1.349.708-.594-.571-.617-.549-1.303.64c-.709.343-1.509.617-1.783.617-.48 0-.892.618-.549.846.114.069.549.023.96-.114.503-.137.755-.114.755.046 0 .137-.206.297-.458.365-1.005.252-.663 1.51.503 1.875.595.206 1.646-.48 1.646-1.074 0-.48.915-1.098 2.195-1.464.686-.205.846-.045.457.39-.457.502-.732 1.828-.48 2.285.229.457 1.166.617 1.509.274.114-.091.685-.182 1.303-.182.617-.023 1.6-.115 2.171-.23.983-.182 1.03-.16.892.275a.75.75 0 0 0 .251.823c.343.275.48.229 1.03-.434.48-.572.753-.709 1.234-.617.708.114 1.325-.435 1.097-1.029-.137-.32-.435-.366-2.012-.229-1.029.092-2.217.252-2.629.366-.937.229-.983.114-.251-.663.571-.594.457-1.074-.366-1.6-.297-.183-.549-.091-1.12.457-.389.389-.8.915-.892 1.189-.228.754-1.28 1.234-1.28.571 0-.434 1.669-2.857 2.698-3.954.617-.64.914-1.143.823-1.372-.229-.617-.709-.434-1.646.64zm1.326 3.658c-.069.183-.275.343-.458.343-.182 0-.274-.138-.182-.343.068-.206.274-.366.457-.366s.274.16.183.366zm55.572-3.384c-.48.983-.617 1.098-1.349 1.098-.617 0-.845-.115-.937-.48-.297-1.12-1.577-.183-2.194 1.6-.137.434-.709 1.44-1.235 2.24-.983 1.44-1.166 2.286-.503 2.286.366 0 1.51-1.486 2.652-3.429.64-1.12.823-1.257 1.532-1.257.434 0 .846.068.937.16.091.068-.229.617-.709 1.189-1.188 1.44-.731 2.468.549 1.257.64-.594 1.052-.412 1.052.48 0 .663.617 1.463 1.12 1.463.137 0 .388.183.571.366.343.411 1.486.48 2.172.114.366-.206.457-.503.457-1.646 0-1.234-.069-1.463-.594-1.806-.846-.548-.96-.503-1.578.686-.663 1.212-.891 1.166-.983-.229-.068-.868-.137-.96-.754-.914-.572.046-.617 0-.412-.412.138-.251.343-.457.435-.434.091.023.366-.046.617-.16.366-.16 7.361-.023 8.915.183.298.046.48-.069.48-.297 0-.64-2.148-1.006-5.806-.983l-3.406.023.114-.778c.092-.571.023-.891-.228-1.12-.343-.274-.458-.16-.915.8zm3.155 4.824c0 .183-.114.343-.229.343-.137 0-.251-.16-.251-.343 0-.206.114-.366.251-.366.115 0 .229.16.229.366zm-46.566-4.846c-.64.32-1.211.8-1.417 1.211-.297.617-.275.823.183 1.76.274.572.525 1.143.525 1.28 0 .343-.525.275-1.005-.16-.8-.708-1.555.138-.96 1.075.274.434 2.194.777 2.72.503.663-.366.754-1.463.206-2.652-.64-1.44-.618-1.829.205-2.24.983-.503 1.235-.48 1.235.206 0 .731.571.96 1.326.457.617-.412.777-1.235.297-1.715-.457-.457-2.126-.32-3.315.275zm2.583.548c-.091.069-.297.092-.457.023-.206-.091-.137-.137.137-.16.252 0 .389.046.32.137z"/>
	<path d="M147.935 149.88c-.138.045-.549.137-.915.228-.366.069-.64.297-.64.48 0 .297.389.366 2.012.366 2.057 0 2.583-.206 2.057-.846-.274-.32-1.829-.457-2.514-.229zm-97.91 1.622a65.674 65.674 0 0 1-1.691 1.578c-1.51 1.257.594 1.28 2.583.045 1.28-.822 1.714-1.805.983-2.331-.64-.457-.755-.412-1.875.708zm24.163-.777c-.183.183-.228.709-.137 1.463l.137 1.143-.891-.137c-.892-.16-1.806.366-1.806 1.006 0 .434 1.577.663 2.514.343.983-.32 1.326-.823 1.326-1.989 0-.64.115-.846.48-.96.343-.069.48-.274.435-.572-.115-.503-1.6-.731-2.058-.297zm16.825.823c-.274.412-.343.846-.228 1.417.091.48.045.892-.092.983-.137.092-.251.48-.251.87 0 1.394 1.348.48 1.6-1.098.091-.48.297-.937.48-1.006.503-.206.389-.96-.206-1.394-.708-.48-.846-.48-1.303.228zm7.75.526c-.938.777-1.235.891-2.172.823-1.074-.069-1.943.274-2.972 1.143-1.166 1.006-.411 1.486 1.006.663.594-.343 1.235-.64 1.44-.64.366 0 .366.068 0 .754-.503 1.006-.114 1.463.663.8 1.463-1.257 2.126-1.92 2.126-2.149 0-.297.755-1.074 1.052-1.074.091 0-.16.594-.595 1.326-1.097 1.943-.571 2.926.595 1.097.503-.8.754-.96 1.508-1.029.663-.045.938-.205.983-.525.115-.572-.388-.892-1.12-.709-.503.137-.548.091-.388-.389.16-.548-.16-.96-.755-.96-.137 0-.754.389-1.371.869zm-28.118.046c-.663 1.303-.412 1.783.617 1.234.549-.297.617-1.257.114-1.669-.274-.228-.411-.16-.731.435zm12.161.274c-1.417 1.029-1.348 1.463.206 1.28 1.143-.137 1.28-.114 1.783.549.709.868 1.098.548.549-.435-.229-.388-.412-.868-.412-1.028 0-.366-.64-1.098-.96-1.098-.091 0-.617.343-1.166.732zm87.531.069c-1.508 1.668-1.76 1.874-2.24 1.805-.366-.068-.457-.228-.411-.731.091-.823-.229-.846-1.052-.069-.8.732-1.051.755-1.051.115 0-.778-.686-.846-1.326-.138-.32.343-.823.618-1.098.618-.434 0-.503-.092-.388-.549.228-.891-.092-.96-.915-.206-.937.892-1.623 1.166-1.531.595.045-.229.32-.458.617-.503.274-.046.64-.229.8-.435.251-.297.229-.434-.091-.754-.366-.366-.435-.343-.938.114a6.338 6.338 0 0 1-1.074.778c-.457.205-.549.48-.549 1.348 0 .938.069 1.052.549 1.052.297 0 .8-.16 1.097-.389.412-.274.686-.32 1.075-.137.297.114 1.44.206 2.56.183 1.166-.046 2.172.046 2.355.183.228.183.662.137 1.485-.16 1.166-.434 1.19-.434 1.92.091.664.48.846.503 1.807.252.823-.183 1.188-.183 1.531.045.343.206.663.206 1.143.046.777-.274 1.075-1.074.412-1.074-.366 0-.343-.069.16-.595.457-.48.525-.708.32-1.028-.48-.732-1.372-.503-1.852.503-.434.868-.48.891-1.737.891-.938 0-1.303-.091-1.303-.32 0-.48.64-.983.823-.64.251.366 1.097-.16 1.097-.686 0-1.166-1.212-1.303-2.195-.205zm-61.127-.138c-.389.138-1.006 1.35-1.006 1.966 0 .297.274.64.663.846.366.183.823.594.983.937.297.549.228.71-.96 2.446a147.78 147.78 0 0 1-1.623 2.31c-.252.365-.275.525-.046.754.389.388 1.783-1.143 3.498-3.795.708-1.12 1.417-1.943 1.691-1.989.869-.183 1.12-.549.686-1.029-.32-.365-.343-.571-.091-1.28.137-.457.205-.937.137-1.074-.137-.206-3.338-.275-3.932-.092zm2.286 1.83c-.275.616-.892.89-.892.388 0-.275.96-1.28 1.097-1.12.046.045-.045.365-.205.731zm-36.119 9.303c-2.126.275-2.766 1.372-1.737 3.04.571.96.457 1.258-.686 1.807-.503.228-1.029.685-1.189 1.005-.229.503-.183.64.366 1.075 1.234.983 3.315-.069 4.412-2.195.251-.48.708-1.051 1.006-1.28 1.623-1.143 2.331-1.509 2.331-1.257 0 .343-1.028 2.423-1.988 4.046-.64 1.074-.64 1.12-.183 1.509.434.411.48.411 1.074.023.343-.229.617-.595.617-.823 0-.229.366-1.143.823-2.012 1.029-1.943 1.326-3.635.778-4.183-.366-.366-.48-.343-1.395.182l-1.006.55-.617-.71c-.777-.914-1.052-.983-2.606-.777zm1.257 1.097c.229.206.343.55.252.732a1.943 1.943 0 0 0-.115.571c0 .115-.297.39-.64.618-.617.411-.64.388-1.074-.137-.252-.298-.457-.87-.457-1.235 0-.549.114-.686.663-.777.365-.046.731-.114.823-.137.091-.023.343.137.548.365zm-1.943 4.298c-.183.457-.983.892-1.303.686-.137-.069 0-.343.297-.594.663-.55 1.189-.595 1.006-.092zm21.9-4.503c-.251.388.114 1.028.549.96.503-.114.503-1.006-.023-1.097-.206-.046-.457.022-.526.137zm70.02.045c-.274.115-.708.526-.937.938-.503.846-.572.891-2.355 1.12-1.326.16-1.348.137-1.28-.412.023-.365-.068-.571-.297-.571-.251 0-.343.206-.32.571.069.48-.023.526-.823.48-.823-.068-.892-.137-.846-.754.115-.96-.526-1.097-1.349-.32-.457.434-.914.617-1.508.617-.983 0-1.646.572-1.212 1.029.16.16.274.389.274.526 0 .365-1.508 1.531-2.194 1.691-.503.137-.572.069-.549-.617 0-.914-.617-1.417-1.257-1.051-.229.137-.64.708-.892 1.257-.594 1.257-1.005 1.28-1.325.137-.183-.663-.16-1.029.114-1.532.96-1.828.023-1.874-1.623-.091-1.623 1.783-3.59 2.789-3.132 1.6.091-.206-.046-.503-.297-.686-.412-.297-.389-.365.228-1.28.686-.983.686-1.691.023-1.691-.206 0-.48.251-.594.548-.114.297-.594 1.075-1.075 1.738-.48.662-.868 1.348-.868 1.554 0 .206-.595 1.394-1.303 2.629-1.463 2.515-1.578 2.972-.823 2.857.343-.068.823-.708 1.623-2.24 1.6-3.063 1.44-2.88 2.08-2.286.48.457.663.48 1.44.274.503-.137 1.212-.548 1.6-.914.366-.366.686-.526.686-.366 0 .297-.205.64-1.577 2.812-.434.663-.846 1.44-.937 1.737-.275.846.503.686 1.051-.251 2.172-3.612 2.218-3.68 2.606-3.109.297.48.549.526 2.08.526 1.944 0 3.43-.595 4.87-1.966.914-.869 1.12-.8.731.251-.228.572-.228.823-.023 1.029.412.411.732.091 1.51-1.486l.73-1.417 1.258-.023c.686-.023 1.76-.046 2.4-.069.617-.023 1.12.046 1.12.138 0 .091-.342.411-.777.685a23.34 23.34 0 0 0-1.463 1.166l-.686.617.16-.594c.435-1.463.435-1.692.069-1.692-.526 0-2.149 2.47-1.966 2.972.251.595 1.577.503 2.537-.183.458-.32 1.12-.777 1.51-.983.662-.388.662-.388.502.16-.091.32-.228.686-.274.846-.297.755 1.28 1.28 2.446.823.32-.137.617-.091.868.137.48.412 1.304.252 1.51-.32.09-.228-.024-.411-.344-.48-.594-.16-.845-.96-.48-1.417.343-.389.96-.457.96-.114 0 .137.115.251.252.251.32 0 .297-.8-.069-1.143-.525-.526-.983-.32-2.263 1.074-.709.732-1.349 1.28-1.417 1.212-.274-.274.137-1.486.731-2.217.549-.709.618-.732 2.675-.755 2.697-.023 2.743-.023 2.743-.457 0-.64-.686-1.166-1.074-.846-.297.252-2.675.435-2.903.206-.069-.069.068-.457.274-.892.434-.891.228-1.28-.549-.983zm68.26.412c-.274.251-.206.983.092 1.166.365.228 1.028-.503.868-.96-.16-.389-.686-.503-.96-.206zm-42.634.937c-.594.755-.594.823-.16 1.418.595.777.435 1.074-.754 1.577-2.812 1.211-4.618 3.772-3.2 4.526 1.783.96 4.617-.846 5.897-3.795.48-1.12 1.075-1.623 2.035-1.76.914-.114.846.48-.229 2.08-1.097 1.67-1.188 2.058-.434 2.035.571 0 3.795-2.263 3.795-2.652 0-.366-.778-.251-1.28.206-.48.411-.48.389-.32-.183.434-1.577.411-1.806-.092-2.332-.571-.64-1.166-.685-1.806-.205-.663.502-1.074.457-1.074-.115 0-.594-.823-1.44-1.418-1.44-.251 0-.685.297-.96.64zm1.418 1.555c0 .114-.115.205-.229.205-.137 0-.251-.16-.251-.365 0-.206.114-.298.251-.229.114.091.229.252.229.389zm-1.35 2.514c.23.595-.273 1.28-1.485 2.035-2.423 1.554-2.743.251-.366-1.555 1.212-.937 1.646-1.051 1.852-.48zm-82.89-4c0 .343.138.503.48.503.618 0 .55-.8-.068-.915-.297-.045-.412.069-.412.412zm5.098.091c-.526.663-3.863 3.292-4.183 3.292-.32 0-.252-.274.206-.777.457-.503.114-1.075-.503-.823-.572.228-1.372 1.646-1.303 2.309.114.96 1.074.914 2.4-.092.617-.48 1.189-.868 1.257-.868.069 0 .137.274.137.594 0 .823.48 1.029.983.411.229-.297.458-.64.503-.777.046-.137.458-.32.892-.411.96-.206 1.257-.732.526-.938-.595-.137-.618-.274-.137-.891.777-1.029.022-2.035-.778-1.029z"/>
	<path d="M148.163 165.836a.505.505 0 0 0 .389.228.23.23 0 0 0 .228-.228c0-.138-.182-.252-.388-.252-.206 0-.297.114-.229.252zm89.909 1.234c-2.264 1.989-4.572 3.795-4.572 3.543 0-.137.182-.571.411-.96.297-.503.343-.754.137-.96-.686-.686-2.354 1.646-2.194 3.04.068.572.205.71.754.778.549.068 1.029-.252 2.583-1.646 1.052-.96 1.989-1.669 2.058-1.6.114.114-.823 1.851-1.12 2.08-.343.274-.732 1.234-.595 1.463.389.594 2.058-.343 2.058-1.143 0-.229 1.76-2.652 2.148-2.949.092-.069.298-.366.458-.686.274-.48.251-.663-.138-1.189-.251-.342-.571-.64-.685-.685-.138-.023-.732.365-1.303.914zM124.8 166.98c-2.4 1.211-3.314 2.583-2.286 3.451.343.275.549.23 1.555-.342l1.143-.64.068.548c.115.709.983.8 2.012.183.754-.434.846-.457 1.052-.091.182.342.342.365 1.12.137.8-.252.937-.229 1.303.228.251.32.548.458.8.343.754-.274.731-.891-.046-1.669-.663-.685-.823-.731-1.257-.457-.412.275-.549.229-.937-.251l-.435-.549-.571.526c-.618.571-1.875.983-1.875.617 0-.137.16-.388.366-.548.503-.412.366-1.418-.252-1.806-.411-.275-.64-.252-1.76.32zm1.166.777c0 .137-.274.366-.594.526-.343.137-.595.343-.595.457 0 .091-.342.297-.777.434-.914.32-.914.32-.914.023 0-.229 2.331-1.669 2.697-1.669.092 0 .183.092.183.229zm92.057-.32c-.503.594-1.463 1.44-2.126 1.874-.685.435-1.44 1.029-1.691 1.303-.595.663-.869.64-.869-.045 0-1.395-1.532-1.555-2.56-.275-.823 1.006-2.035 1.258-2.195.458-.16-.823-.548-1.098-1.28-.938-.457.092-.686.046-.686-.137s-.274-.251-.731-.183c-.549.069-.8 0-.892-.274-.228-.64-.823-1.235-1.28-1.235-.663 0-.983.846-1.052 2.698-.091 1.943.229 2.126 1.44.8.435-.457.87-.846 1.006-.846.115 0 .16.389.115.846-.115 1.029.32 1.12 1.166.229.708-.755 1.188-.755 1.188 0 0 .48.16.64 1.006.845.755.206 1.12.206 1.532-.022.366-.183 1.12-.229 2.149-.16 1.714.137 2.034-.023 3.772-1.852.685-.709.685-.709.525-.137-.091.343-.32.777-.48.983-.434.48-.434 1.188-.023 1.188.412 0 .892-.571 1.6-1.851.618-1.12.824-1.143 1.052-.069.114.595.366.846 1.28 1.258.663.297 1.692.525 2.47.548.73 0 1.6.16 1.92.32.845.412 1.783.023 2.4-.983.731-1.189.846-1.851.388-2.309-.365-.365-.457-.365-1.051.023-.64.412-3.063 1.646-3.544 1.806-.137.046.046-.183.39-.503.365-.32.776-.823.936-1.12.252-.48.206-.617-.343-1.166l-.617-.617-.823.823c-.48.434-.96 1.143-1.097 1.577-.206.595-.366.755-.731.64-.755-.182-.55-.96.548-1.988.915-.846.983-.96.663-1.303-.343-.343-.457-.32-1.189.228-1.051.777-1.371.777-.868.023.48-.777.48-1.029-.069-1.326-.366-.183-.594-.046-1.349.869zm4.55 2.469c-.23.274-.48.434-.55.365-.068-.068.07-.32.32-.594.23-.274.481-.434.55-.366.068.069-.069.343-.32.595zm-122.896-2.606c-.8.708-.869.731-1.28.365-.617-.548-.846-.502-1.692.458-.617.708-.731.777-.731.365 0-.777-.48-.823-1.76-.114l-1.258.686.412-.64c.366-.549.366-.663.045-.915-.297-.251-.502-.137-1.303.663-.891.892-.937 1.006-.685 1.715.343.96.8.96 2.171.046 1.28-.892 1.463-.892 1.258-.138-.252 1.03.525 1.052 1.577.023.823-.8.937-.868 1.532-.594.343.16.8.549 1.005.846.275.434.595.571 1.258.571.503 0 1.051-.114 1.234-.228.252-.138.549-.069.937.251 1.235.96 2.378.183 2.126-1.463-.114-.594-.068-.96.069-.96.434 0 .274-.937-.206-1.189-.388-.206-.571-.137-.983.389-.274.388-.434.8-.343 1.029.435 1.028.435 1.303 0 1.143-.228-.092-.937-.183-1.6-.183-.64 0-1.166-.069-1.166-.16 0-.115.458-.412 1.006-.663 1.212-.572 1.303-.823.663-1.51-.686-.73-1.28-.662-2.286.207zm-10.675-.092c-.823.549-1.143 1.006-1.304 1.875-.114.548-.045.823.39 1.188.32.275.822.846 1.12 1.28.48.664.525.892.32 1.395-.344.732-1.715.846-1.715.114 0-.251.16-.571.343-.754.457-.366.48-1.189.045-1.189-.16 0-.663.366-1.097.823-.777.777-.8.869-.503 1.578.435 1.051 1.463 1.554 2.538 1.188 1.806-.594 2.057-2.194.594-3.977-1.006-1.19-1.143-1.623-.731-2.263.182-.275.32-.298.708-.046.846.526 1.212.366 1.212-.526 0-1.143-.846-1.44-1.92-.686zm49.171.869c-1.874 1.417-2.171 2.789-.617 2.789.434 0 1.029-.16 1.326-.366.526-.366.572-.366.686.114.137.526 1.051.915 1.509.64.365-.228.297-.777-.115-.937-.228-.091-.343-.48-.343-1.074 0-.663-.182-1.075-.571-1.44-.297-.298-.617-.526-.686-.526-.091 0-.617.366-1.189.8zm.572 1.417c-.297.275-.617.435-.709.32-.114-.091.069-.388.389-.64.731-.617.983-.366.32.32zm106.527-1.074c-1.074.137-1.623.571-2.057 1.531-.434.915-.434.938.137 1.532.777.823 1.555.754 2.538-.229l.823-.823.411.823c.32.686.526.823 1.12.823.938 0 1.83-.594 1.83-1.234 0-.389-.16-.457-.892-.389-.778.046-.892 0-1.143-.708-.138-.412-.366-.869-.503-.983-.298-.275-1.51-.458-2.264-.343zm.48 1.371c-.8.458-1.211.458-.617 0 .252-.205.618-.342.823-.342.252 0 .16.137-.205.342zm-66.202 2.584c-.526.503-.366 1.348.297 1.531.32.069.686.069.823-.023.412-.251.297-.96-.183-1.417-.526-.457-.571-.48-.937-.091zm-6.607 1.303c-.205.182.023.548.32.548.138 0 .23-.16.23-.343 0-.365-.275-.48-.55-.205zm-8.435 3.657c-.091.137-.183 1.052-.229 2.035-.068 1.348-.205 1.966-.617 2.514-.48.686-.823.846-2.88 1.326-.754.16-1.897 1.555-2.08 2.538-.138.617-.046.754.503 1.006.845.388 1.806-.115 3.589-1.875 1.6-1.577 2.308-1.692 1.554-.274-.343.663-.069 1.646.457 1.646.229 0 .8-.389 1.258-.846.96-1.006 1.257-1.052 1.623-.252.297.663.548.732 1.303.343.457-.251.48-.228.32.412-.092.388-.64 1.486-1.235 2.469-1.074 1.783-1.143 2.194-.366 2.171.526 0 .846-.365 1.098-1.188.206-.686 1.669-2.995 2.331-3.635.23-.252.435-.549.435-.663 0-.183 1.44-.983 1.783-.983.068 0 .137.32.137.709 0 1.508.549 1.806 1.943 1.074.686-.343.777-.343 1.166 0 .503.457 1.006.48 1.417.069.252-.229.366-.206.64.16.298.411.48.411 2.446.16 1.166-.16 2.355-.412 2.652-.549.435-.206.617-.183.983.16.343.297.686.366 1.303.251.709-.137.846-.091.96.343.16.663 1.212.663 2.035.023l.617-.503.549.663c.64.8.754 2.126.183 2.332-.732.297-1.623.137-2.172-.366-.457-.434-.617-.457-.914-.206-.48.412-.458 1.03.068 1.51.343.32.732.365 2.08.25 2.515-.228 3.36-1.37 2.4-3.223-.41-.777-.022-1.005.504-.274.251.366.388.366 1.143.092.685-.23.937-.23 1.348.022.412.252.549.252.709-.045.48-.732-.32-3.04-1.12-3.315-.16-.046-.755.343-1.326.892-1.212 1.097-1.806 1.325-.823.297.892-.915.914-1.67.091-2.286-.617-.48-.708-.48-1.303-.137-.365.182-.685.594-.731.891-.069.503-.023.549.777.389.549-.092.869-.069.869.091 0 .434-1.6 1.509-2.012 1.349-.183-.069-.64.046-.96.251-.571.389-.617.366-.686-.137-.114-.754-.8-1.12-1.394-.754-.64.411-1.189.366-1.189-.069 0-.183-.206-.366-.457-.366-.252 0-.595.183-.755.366-.457.549-.754.435-.594-.206.137-.525-.366-1.348-.823-1.348-.297 0-1.394 1.28-1.554 1.829-.16.502-1.235 1.143-1.578.937-.091-.046-.114-.412-.068-.8.137-.938-.275-1.143-1.052-.549-.868.686-1.257.64-1.12-.091.16-.823-.366-.778-1.486.114-.983.777-1.211.846-1.44.48-.229-.366 1.143-1.623 1.943-1.829 1.074-.251 2.789-1.189 3.36-1.806.915-1.028 1.052-1.44.663-2.194-.96-1.83-3.269-.8-5.166 2.263-.686 1.097-2.012 2.126-2.743 2.126-.457 0-.457-.069.388-1.395.39-.663.71-1.463.71-1.828 0-1.143-.755-.618-1.738 1.188-1.349 2.492-2.698 3.406-3.544 2.4-.434-.525-1.005-.457-2.011.23-.915.64-.937.616-.869-.458.046-.617-.023-.663-.571-.572-.503.092-.618.023-.618-.32 0-.342.16-.457.71-.457.685 0 .73-.046.685-.777-.023-.412.091-1.074.251-1.44.389-.983.32-1.715-.183-2.172-.48-.434-1.371-.526-1.577-.183zm14.722 2.332c-.434.526-2.286 1.76-2.652 1.76-.388 0 .663-1.12 1.6-1.691.915-.595 1.51-.618 1.052-.07zm-17.488 4.572c0 .297-1.052 1.28-1.372 1.28-.502 0-.365-.663.206-1.074.572-.389 1.166-.48 1.166-.206zm32.073 1.212c-.366.365-.389.365-.389.022 0-.228.114-.434.297-.503.48-.182.526.046.092.48zm10.058-7.59c-2.195.366-3.223 1.074-2.88 1.989.183.48.434.48.845.023.595-.755 1.646-1.075 3.932-1.235l2.332-.16-.091.572c-.046.411-.366.731-.983 1.006-1.075.502-1.372 1.097-.8 1.508.548.412.503.549-.71 2.103-1.188 1.532-1.6 2.378-1.394 2.926.252.663 1.28.23 1.6-.64.07-.228.23-.205.572.092.389.343.617.388 1.303.183.435-.115.983-.457 1.189-.732.343-.457.457-.48.96-.206.434.23.823.23 1.852 0 .937-.205 1.371-.228 1.577-.022.137.137.526.251.823.251.343 0 .8.252 1.052.594.548.686 1.325.778 2.011.252.663-.503 1.235-.457 1.395.114.16.686 1.371.617 2.56-.114l.96-.617.48.48c.549.571.732.594 1.989.228.777-.205.983-.183 1.532.252.663.526 1.417.617 1.988.274.206-.137.526-.091.915.16.457.297.686.32 1.029.114.274-.182.868-.228 1.531-.137 1.875.252 2.675-.045 3.75-1.394.525-.663.96-1.349.96-1.532 0-.183-.252-.617-.572-.983-.48-.548-.686-.617-1.395-.48-.64.114-.937.343-1.234.983-.457.96-.777 1.075-1.006.366-.229-.709-.594-.594-.96.32-.274.663-.754 1.12-1.189 1.12-.045 0 .046-.434.183-.96s.183-1.029.069-1.12c-.092-.114-.778.434-1.486 1.189-.709.754-1.395 1.371-1.509 1.371-.571 0-.32-.411 1.143-1.897 1.669-1.669 2.24-2.858 1.669-3.544-.755-.914-1.966 0-3.36 2.538-.595 1.097-1.006 1.509-1.807 1.92-1.303.617-1.348.297-.068-.708.937-.732 1.669-2.012 1.669-2.88 0-.23-.206-.664-.458-.984-.388-.48-.525-.503-1.051-.274-.572.274-2.332 3.109-2.332 3.795 0 .32-2.08 1.554-2.583 1.554-.114 0-.16-.32-.114-.731.068-.39.023-.71-.069-.71-.091 0-.686.32-1.326.71-1.6.983-2.926.548-1.714-.55.411-.365.48-.365.777-.045.389.48 1.166.389 1.509-.16.205-.32.16-.526-.183-.891-.755-.846-1.966-.595-3.292.64-.731.663-1.44.64-1.646-.069a4.853 4.853 0 0 0-.411-.96c-.229-.389-.366-.434-.709-.206-.251.137-.48.457-.526.709a1.442 1.442 0 0 1-.457.754c-.96.755-1.052.023-.137-.914.366-.412.571-.823.48-1.052-.206-.503-.48-.457-1.326.252l-.732.594-.365-.731c-.229-.389-.503-.732-.617-.732-.412 0-.252-.777.274-1.349.457-.48.48-.617.206-1.257a1.775 1.775 0 0 0-1.03-.96c-.822-.297-2.857-.297-4.594 0zm24.895 4c-.229.663-1.075 1.784-1.212 1.646-.137-.137 1.052-2.08 1.257-2.08.069 0 .046.206-.045.434zm-4.047.892c-.228.343-.457.572-.525.503-.046-.046.091-.389.32-.732.228-.342.457-.571.525-.503.046.046-.091.39-.32.732zm-16.23.526c.114.823-.366 1.509-1.052 1.509-.411 0-.571-.115-.571-.458 0-.251.091-.525.228-.617.137-.068.252-.366.252-.617 0-.709 1.051-.526 1.143.183zm-134.074-4.275c-.435.64-.823 1.326-.892 1.509-.091.183-.48.548-.868.777-.618.366-.732.549-.618 1.097.115.526-.022.823-.594 1.349-.526.526-.686.869-.594 1.303.068.343-.069.846-.343 1.234-.937 1.303-1.943 3.864-1.783 4.572.114.526.068.663-.229.663-.64 0-.411.435.274.572.8.137 1.03.023 1.03-.549 0-.251.16-.503.342-.571.183-.069.457-.686.594-1.349.435-2.035 1.326-3.52 2.606-4.32 1.258-.8 2.24-.915 2.72-.343.527.64 3.041.365 4.276-.503 1.188-.823 1.828-.549.868.343-.64.617-.777 1.074-.343 1.348.298.183 1.738-.777 2.698-1.806 1.371-1.463 1.486-.708.274 2.035-1.12 2.56-1.12 4.183-.023 4.183.64 0 1.692-1.006 2.08-2.034.16-.389.366-1.395.435-2.218l.16-1.531 1.143.617c1.257.663 1.874.754 2.606.366.343-.183.571-.183.846.045.434.366 1.486.023 3.406-1.143.754-.434 1.417-.8 1.486-.8.068 0 .091.366.023.823-.069.663 0 .846.297.846.228 0 .48-.183.548-.411.252-.686.846-1.28 1.326-1.28.503 0 .572-.503.138-1.19-.23-.388-.23-.594.114-1.165.8-1.349-.343-1.372-1.783 0-1.463 1.371-3.338 2.766-4.024 2.972-.571.183-.594.16-.205-.389.205-.32.663-.617 1.005-.663.778-.091.87-.846.16-1.234-.365-.183-.662-.16-1.211.114-.389.206-.732.457-.732.549 0 .411-1.737 1.966-2.217 1.966-.457 0-.434-.046.251-.778.846-.868.938-1.28.48-1.92-.502-.686-1.805-.274-2.4.709-.274.457-.526.777-.594.708-.137-.137 1.486-2.629 1.989-3.04 1.211-1.006-.938-.983-2.195.046a80.069 80.069 0 0 1-2.583 1.806c-1.509.983-1.692 1.028-2.057.685-.572-.502-1.052-.457-2.424.23-1.417.73-1.646.753-1.097.136.252-.251.389-.731.343-1.12-.069-.594-.206-.709-.869-.777-.64-.046-1.006.114-1.76.8-.503.457-1.029.846-1.166.846-.114 0-.32-.32-.457-.709-.206-.617-.114-.937.572-2.332.983-1.943 1.028-2.24.274-2.24-.412 0-.777.32-1.303 1.166zm-.846 4.39c-.091.205-.137.136-.16-.138 0-.252.046-.389.137-.32.069.091.092.297.023.457zm15.43.09c-.182.206-.365.32-.411.252-.183-.16.16-.617.457-.617.16 0 .137.137-.045.366zm-3.84 3.452c0 .686-.434 1.692-.709 1.692-.343 0-.32-.777.023-1.532.343-.731.686-.8.686-.16zm49.652-7.955c-.869.892-2.835 3.818-2.835 4.184 0 .114-.114.182-.251.182-.114 0-.709.366-1.303.778-1.166.823-2.218 2.217-2.56 3.36-.23.823.091 1.875.571 1.875.526 0 2.903-2.652 3.383-3.772.549-1.235.983-1.28 1.852-.252l.64.777 1.166-.594c.64-.32 1.257-.617 1.349-.686.091-.045.183.252.183.663 0 .595.114.732.48.732.274 0 .571-.183.64-.412.091-.228.571-.868 1.074-1.44.572-.594.937-1.257.937-1.623 0-.8-.32-.754-1.44.251-.548.503-.983.755-1.074.595-.252-.389-1.098-.274-1.76.228-.778.618-1.258.618-1.258.023 0-.32-.206-.525-.594-.64-.343-.068-.594-.206-.594-.274 0-.092.434-.892.96-1.783 1.211-2.035 1.554-2.149 1.44-.389-.023.343.091.709.251.8.846.549 1.326-2.354.503-3.086-.617-.571-.8-.503-1.76.503zm-4.16 6.744c-.435.868-1.578 2.263-1.738 2.103-.114-.114.777-1.989 1.189-2.492.137-.16.388-.297.571-.297.297 0 .297.114-.023.686zm-10.516-5.258c-1.349 1.234-2.675 1.692-5.372 1.852l-2.218.137-.617.937c-.709 1.052-1.074 1.189-1.074.343 0-.32-.183-.754-.389-.96-.434-.434-.389-.434-1.166-.137-.8.297-.777.205.137-.823.732-.869.8-1.578.115-1.578-.412 0-2.31 2.172-2.88 3.292-.892 1.738-.138 2.446 1.325 1.28 1.257-1.005 1.6-.96 1.692.298.114 1.554.708 1.486 2.354-.275 1.006-1.12 1.51-1.486 2.012-1.486.663 0 .709.092.983 1.28.069.366.297.64.503.64.709 0 1.737-.708 2.286-1.6l.549-.891.205.754c.252 1.006.732 1.349 1.738 1.235.937-.115.937-.115.594.525-.137.275-.503.458-.823.458-.709 0-1.874.434-2.08.777-.366.617.091.96 1.029.823 1.097-.183 1.143-.023.411 1.463-.594 1.257-.457 1.806.434 1.714.503-.068.709-.251.823-.8.298-1.303.938-2.514 1.372-2.56a5.822 5.822 0 0 1 1.074.023c.412.023.709-.092.8-.343.206-.526-.32-1.097-1.028-1.097-.297 0-.549-.046-.549-.092 0-.274 1.143-2.08 2.195-3.429.64-.823 1.166-1.669 1.166-1.874 0-.755-.96-.32-1.92.914-1.578 1.966-3.635 2.95-4.024 1.943-.206-.571.183-1.074 1.12-1.371 1.074-.366 1.897-1.44 1.463-1.943-.503-.618-1.166-.435-2.24.571zm-3.292 2.995c0 .068-.114.183-.229.251-.137.092-.251.046-.251-.091s.114-.275.251-.275c.115 0 .229.069.229.115zm33.924-3.246c-.434.525-1.989.731-1.989.251 0-.411-.868-.251-1.325.251-.23.252-.778.572-1.212.732-.96.297-1.257.937-.663 1.372.343.251.366.388.137.731-.663.937-1.737 2.88-1.737 3.11 0 .136.16.365.343.548.48.388 1.234-.252 1.737-1.463a19.88 19.88 0 0 1 1.074-1.966c.595-.938.846-1.143 1.418-1.143.846 0 .846.045.091 1.348-.914 1.555-.228 2.492.823 1.143.412-.525.572-.571.869-.342.183.182.366.685.366 1.12 0 .754.091.868 1.097 1.303 1.234.525 1.829.571 2.515.228.525-.297.617-.914.137-1.097-.252-.091-.297-.434-.229-1.166.114-.869.046-1.097-.411-1.417-.709-.48-1.075-.297-1.646.846l-.48.937-.16-.732c-.092-.48-.389-.868-.732-1.028-.777-.343-.731-.64.137-.823.983-.183 1.189-.526 1.12-1.898-.045-1.348-.571-1.691-1.28-.845zm2.56 4.823a.23.23 0 0 1-.228.229c-.137 0-.252-.092-.252-.229s.115-.251.252-.251c.114 0 .229.114.229.251z"/>
	<path d="M221.064 181.746c-.435.412-.343.892.205.892.298 0 .48-.16.48-.457 0-.595-.342-.8-.685-.435zm-188.71 5.92c0 .138.16.252.366.252s.32-.114.229-.251c-.069-.114-.252-.229-.366-.229a.23.23 0 0 0-.229.229zm203.912 5.51c-.069.137-.023.297.114.389.137.068.251-.023.251-.229 0-.434-.16-.48-.365-.16zM92.842 196.56c0 .138.114.23.251.23a.23.23 0 0 0 .23-.23c0-.137-.115-.251-.23-.251a.254.254 0 0 0-.251.251z"/>
</svg>
